  0
SECTION
  2
HEADER
  9
$ACADVER
  1
AC1009
  9
$FILLMODE
 70
0
  9
$EXTMIN
 10
-0.1270
 20
-1.0160
 30
0.0000
  9
$EXTMAX
 10
75.3170
 20
53.5759
 30
0.0000
  0
ENDSEC
  0
SECTION
  2
TABLES
  0
TABLE
  2
LTYPE
 70
1
  0
LTYPE
  2
CONTINUOUS
 70
64
  3
Solid line
 72
65
 73
0
 40
0
  0
ENDTAB
  0
TABLE
  2
LAYER
 70
255
  0
LAYER
  2
31
 70
64
 62
253
  6
CONTINUOUS
  0
ENDTAB
  0
ENDSEC
  0
SECTION
  2
BLOCKS
  0
BLOCK
  8
0
  2
RECT
 70
64
 10
0.0000
 20
0.0000
 30
0.0000
  3
RECT
  0
SOLID
  8
0
 10
-0.5000
 20
-0.5000
 30
0.0000
 11
0.5000
 21
-0.5000
 31
0.0000
 12
-0.5000
 22
0.5000
 32
0.0000
 13
0.5000
 23
0.5000
 33
0.0000
  0
ENDBLK
  8
0
  0
BLOCK
  8
0
  2
PIE
 70
64
 10
0.0000
 20
0.0000
 30
0.0000
  3
PIE
  0
CIRCLE
  8
0
 10
0.0000
 20
0.0000
 30
0.0000
 40
0.5000
  0
ENDBLK
  8
0
  0
BLOCK
  8
0
  2
OCTAGONP
 70
64
 10
0.0000
 20
0.0000
 30
0.0000
  3
OCTAGONP
  0
POLYLINE
  8
0
 66
1
 10
0.0000
 20
0.0000
 30
0.0000
 40
0.0000
 41
0.0000
 70
1
  0
VERTEX
  8
0
 10
-0.5000
 20
-0.2071
 30
0.0000
  0
VERTEX
  8
0
 10
-0.5000
 20
0.2071
 30
0.0000
  0
VERTEX
  8
0
 10
-0.2071
 20
0.5000
 30
0.0000
  0
VERTEX
  8
0
 10
0.2071
 20
0.5000
 30
0.0000
  0
VERTEX
  8
0
 10
0.5000
 20
0.2071
 30
0.0000
  0
VERTEX
  8
0
 10
0.5000
 20
-0.2071
 30
0.0000
  0
VERTEX
  8
0
 10
0.2071
 20
-0.5000
 30
0.0000
  0
VERTEX
  8
0
 10
-0.2071
 20
-0.5000
 30
0.0000
  0
SEQEND
  8
0
  0
ENDBLK
  8
0
  0
BLOCK
  8
0
  2
SQUAREP
 70
64
 10
0.0000
 20
0.0000
 30
0.0000
  3
SQUAREP
  0
SOLID
  8
0
 10
-0.5000
 20
-0.5000
 30
0.0000
 11
0.5000
 21
-0.5000
 31
0.0000
 12
-0.5000
 22
0.5000
 32
0.0000
 13
0.5000
 23
0.5000
 33
0.0000
  0
ENDBLK
  8
0
  0
BLOCK
  8
0
  2
ROUNDP
 70
64
 10
0.0000
 20
0.0000
 30
0.0000
  3
ROUNDP
  0
CIRCLE
  8
0
 10
0.0000
 20
0.0000
 30
0.0000
 40
0.5000
  0
ENDBLK
  8
0
  0
BLOCK
  8
0
  2
ANNULUSP
 70
64
 10
0.0000
 20
0.0000
 30
0.0000
  3
ANNULUSP
  0
CIRCLE
  8
0
 10
0.0000
 20
0.0000
 30
0.0000
 40
0.5000
  0
ENDBLK
  8
0
  0
BLOCK
  8
0
  2
THERMALP
 70
64
 10
0.0000
 20
0.0000
 30
0.0000
  3
THERMALP
  0
LINE
  8
0
 10
-0.2379
 20
0.4500
 30
0.0000
 11
0.2379
 21
0.4500
 31
0.0000
  0
LINE
  8
0
 10
0.4500
 20
0.2379
 30
0.0000
 11
0.4500
 21
-0.2379
 31
0.0000
  0
LINE
  8
0
 10
0.2379
 20
-0.4500
 30
0.0000
 11
-0.2379
 21
-0.4500
 31
0.0000
  0
LINE
  8
0
 10
-0.4500
 20
-0.2379
 30
0.0000
 11
-0.4500
 21
0.2379
 31
0.0000
  0
ENDBLK
  8
0
  0
BLOCK
  8
0
  2
OCTAGONV
 70
64
 10
0.0000
 20
0.0000
 30
0.0000
  3
OCTAGONV
  0
POLYLINE
  8
0
 66
1
 10
0.0000
 20
0.0000
 30
0.0000
 40
0.0000
 41
0.0000
 70
1
  0
VERTEX
  8
0
 10
-0.5000
 20
-0.2071
 30
0.0000
  0
VERTEX
  8
0
 10
-0.5000
 20
0.2071
 30
0.0000
  0
VERTEX
  8
0
 10
-0.2071
 20
0.5000
 30
0.0000
  0
VERTEX
  8
0
 10
0.2071
 20
0.5000
 30
0.0000
  0
VERTEX
  8
0
 10
0.5000
 20
0.2071
 30
0.0000
  0
VERTEX
  8
0
 10
0.5000
 20
-0.2071
 30
0.0000
  0
VERTEX
  8
0
 10
0.2071
 20
-0.5000
 30
0.0000
  0
VERTEX
  8
0
 10
-0.2071
 20
-0.5000
 30
0.0000
  0
SEQEND
  8
0
  0
ENDBLK
  8
0
  0
BLOCK
  8
0
  2
SQUAREV
 70
64
 10
0.0000
 20
0.0000
 30
0.0000
  3
SQUAREV
  0
SOLID
  8
0
 10
-0.5000
 20
-0.5000
 30
0.0000
 11
0.5000
 21
-0.5000
 31
0.0000
 12
-0.5000
 22
0.5000
 32
0.0000
 13
0.5000
 23
0.5000
 33
0.0000
  0
ENDBLK
  8
0
  0
BLOCK
  8
0
  2
ROUNDV
 70
64
 10
0.0000
 20
0.0000
 30
0.0000
  3
ROUNDV
  0
CIRCLE
  8
0
 10
0.0000
 20
0.0000
 30
0.0000
 40
0.5000
  0
ENDBLK
  8
0
  0
BLOCK
  8
0
  2
ANNULUSV
 70
64
 10
0.0000
 20
0.0000
 30
0.0000
  3
ANNULUSV
  0
CIRCLE
  8
0
 10
0.0000
 20
0.0000
 30
0.0000
 40
0.5000
  0
ENDBLK
  8
0
  0
BLOCK
  8
0
  2
THERMALV
 70
64
 10
0.0000
 20
0.0000
 30
0.0000
  3
THERMALV
  0
LINE
  8
0
 10
-0.2379
 20
0.4500
 30
0.0000
 11
0.2379
 21
0.4500
 31
0.0000
  0
LINE
  8
0
 10
0.4500
 20
0.2379
 30
0.0000
 11
0.4500
 21
-0.2379
 31
0.0000
  0
LINE
  8
0
 10
0.2379
 20
-0.4500
 30
0.0000
 11
-0.2379
 21
-0.4500
 31
0.0000
  0
LINE
  8
0
 10
-0.4500
 20
-0.2379
 30
0.0000
 11
-0.4500
 21
0.2379
 31
0.0000
  0
ENDBLK
  8
0
  0
BLOCK
  8
0
  2
LONGP100
 70
64
 10
0.0000
 20
0.0000
 30
0.0000
  3
LONGP100
  0
POLYLINE
  8
0
 66
1
 10
0.0000
 20
0.0000
 30
0.0000
 40
0.0000
 41
0.0000
 70
1
  0
VERTEX
  8
0
 10
-0.5000
 20
-0.5000
 30
0.0000
  0
VERTEX
  8
0
 10
0.5000
 20
-0.5000
 30
0.0000
 42
1.0000
  0
VERTEX
  8
0
 10
0.5000
 20
0.5000
 30
0.0000
  0
VERTEX
  8
0
 10
-0.5000
 20
0.5000
 30
0.0000
 42
1.0000
  0
SEQEND
  8
0
  0
ENDBLK
  8
0
  0
BLOCK
  8
0
  2
RECT320000X176000R100
 70
64
 10
0.0000
 20
0.0000
 30
0.0000
  3
RECT320000X176000R100
  0
POLYLINE
  8
0
 66
1
 10
0.0000
 20
0.0000
 30
0.0000
 40
0.0000
 41
0.0000
 70
1
  0
VERTEX
  8
0
 10
1.0000
 20
0.0000
 30
0.0000
  0
VERTEX
  8
0
 10
1.0000
 20
0.0000
 30
0.0000
 42
0.4142
  0
VERTEX
  8
0
 10
0.4500
 20
0.5500
 30
0.0000
  0
VERTEX
  8
0
 10
-0.4500
 20
0.5500
 30
0.0000
 42
0.4142
  0
VERTEX
  8
0
 10
-1.0000
 20
0.0000
 30
0.0000
  0
VERTEX
  8
0
 10
-1.0000
 20
0.0000
 30
0.0000
 42
0.4142
  0
VERTEX
  8
0
 10
-0.4500
 20
-0.5500
 30
0.0000
  0
VERTEX
  8
0
 10
0.4500
 20
-0.5500
 30
0.0000
 42
0.4142
  0
SEQEND
  8
0
  0
ENDBLK
  8
0
  0
ENDSEC
  0
SECTION
  2
ENTITIES
  0
INSERT
  8
31
  2
RECT
 10
43.8000
 20
29.1500
 30
0.0000
 41
1.1000
 42
1.0000
 43
1.0000
 50
90.0000
  0
INSERT
  8
31
  2
RECT
 10
43.8000
 20
30.8500
 30
0.0000
 41
1.1000
 42
1.0000
 43
1.0000
 50
90.0000
  0
INSERT
  8
31
  2
RECT
 10
45.6000
 20
29.1500
 30
0.0000
 41
1.1000
 42
1.0000
 43
1.0000
 50
90.0000
  0
INSERT
  8
31
  2
RECT
 10
45.6000
 20
30.8500
 30
0.0000
 41
1.1000
 42
1.0000
 43
1.0000
 50
90.0000
  0
INSERT
  8
31
  2
RECT
 10
47.4000
 20
29.1500
 30
0.0000
 41
1.1000
 42
1.0000
 43
1.0000
 50
90.0000
  0
INSERT
  8
31
  2
RECT
 10
47.4000
 20
30.8500
 30
0.0000
 41
1.1000
 42
1.0000
 43
1.0000
 50
90.0000
  0
INSERT
  8
31
  2
RECT
 10
24.0000
 20
33.6500
 30
0.0000
 41
1.1000
 42
1.0000
 43
1.0000
 50
90.0000
  0
INSERT
  8
31
  2
RECT
 10
24.0000
 20
35.3500
 30
0.0000
 41
1.1000
 42
1.0000
 43
1.0000
 50
90.0000
  0
INSERT
  8
31
  2
RECT
 10
19.0000
 20
33.6500
 30
0.0000
 41
1.1000
 42
1.0000
 43
1.0000
 50
90.0000
  0
INSERT
  8
31
  2
RECT
 10
19.0000
 20
35.3500
 30
0.0000
 41
1.1000
 42
1.0000
 43
1.0000
 50
90.0000
  0
INSERT
  8
31
  2
RECT
 10
25.2500
 20
37.1000
 30
0.0000
 41
1.1000
 42
1.0000
 43
1.0000
 50
0.0000
  0
INSERT
  8
31
  2
RECT
 10
26.9500
 20
37.1000
 30
0.0000
 41
1.1000
 42
1.0000
 43
1.0000
 50
0.0000
  0
INSERT
  8
31
  2
RECT
 10
21.6500
 20
19.0000
 30
0.0000
 41
1.1000
 42
1.0000
 43
1.0000
 50
0.0000
  0
INSERT
  8
31
  2
RECT
 10
23.3500
 20
19.0000
 30
0.0000
 41
1.1000
 42
1.0000
 43
1.0000
 50
0.0000
  0
INSERT
  8
31
  2
RECT
 10
26.1500
 20
33.1000
 30
0.0000
 41
1.1000
 42
1.0000
 43
1.0000
 50
0.0000
  0
INSERT
  8
31
  2
RECT
 10
27.8500
 20
33.1000
 30
0.0000
 41
1.1000
 42
1.0000
 43
1.0000
 50
0.0000
  0
INSERT
  8
31
  2
RECT
 10
26.8500
 20
19.0000
 30
0.0000
 41
1.1000
 42
1.0000
 43
1.0000
 50
180.0000
  0
INSERT
  8
31
  2
RECT
 10
25.1500
 20
19.0000
 30
0.0000
 41
1.1000
 42
1.0000
 43
1.0000
 50
180.0000
  0
INSERT
  8
31
  2
RECT
 10
21.6500
 20
17.0000
 30
0.0000
 41
1.1000
 42
1.0000
 43
1.0000
 50
0.0000
  0
INSERT
  8
31
  2
RECT
 10
23.3500
 20
17.0000
 30
0.0000
 41
1.1000
 42
1.0000
 43
1.0000
 50
0.0000
  0
INSERT
  8
31
  2
RECT
 10
26.8500
 20
17.0000
 30
0.0000
 41
1.1000
 42
1.0000
 43
1.0000
 50
180.0000
  0
INSERT
  8
31
  2
RECT
 10
25.1500
 20
17.0000
 30
0.0000
 41
1.1000
 42
1.0000
 43
1.0000
 50
180.0000
  0
INSERT
  8
31
  2
RECT
 10
26.1500
 20
35.1000
 30
0.0000
 41
1.1000
 42
1.0000
 43
1.0000
 50
0.0000
  0
INSERT
  8
31
  2
RECT
 10
27.8500
 20
35.1000
 30
0.0000
 41
1.1000
 42
1.0000
 43
1.0000
 50
0.0000
  0
INSERT
  8
31
  2
RECT
 10
42.5000
 20
46.6500
 30
0.0000
 41
1.1000
 42
1.0000
 43
1.0000
 50
90.0000
  0
INSERT
  8
31
  2
RECT
 10
42.5000
 20
48.3500
 30
0.0000
 41
1.1000
 42
1.0000
 43
1.0000
 50
90.0000
  0
INSERT
  8
31
  2
RECT
 10
49.8000
 20
21.3500
 30
0.0000
 41
1.1000
 42
1.0000
 43
1.0000
 50
90.0000
  0
INSERT
  8
31
  2
RECT
 10
49.8000
 20
23.0500
 30
0.0000
 41
1.1000
 42
1.0000
 43
1.0000
 50
90.0000
  0
INSERT
  8
31
  2
RECT
 10
45.0000
 20
38.5000
 30
0.0000
 41
2.5000
 42
0.5000
 43
1.0000
 50
180.0000
  0
INSERT
  8
31
  2
RECT
 10
45.0000
 20
37.7000
 30
0.0000
 41
2.5000
 42
0.5000
 43
1.0000
 50
180.0000
  0
INSERT
  8
31
  2
RECT
 10
45.0000
 20
40.1000
 30
0.0000
 41
2.5000
 42
0.5000
 43
1.0000
 50
180.0000
  0
INSERT
  8
31
  2
RECT
 10
45.0000
 20
39.3000
 30
0.0000
 41
2.5000
 42
0.5000
 43
1.0000
 50
180.0000
  0
INSERT
  8
31
  2
RECT
 10
50.5000
 20
34.0000
 30
0.0000
 41
2.5000
 42
2.0000
 43
1.0000
 50
180.0000
  0
INSERT
  8
31
  2
RECT
 10
45.0000
 20
34.0000
 30
0.0000
 41
2.5000
 42
2.0000
 43
1.0000
 50
180.0000
  0
INSERT
  8
31
  2
RECT
 10
50.5000
 20
43.0000
 30
0.0000
 41
2.5000
 42
2.0000
 43
1.0000
 50
180.0000
  0
INSERT
  8
31
  2
RECT
 10
45.0000
 20
43.0000
 30
0.0000
 41
2.5000
 42
2.0000
 43
1.0000
 50
180.0000
  0
INSERT
  8
31
  2
RECT
 10
45.0000
 20
36.9000
 30
0.0000
 41
2.5000
 42
0.5000
 43
1.0000
 50
180.0000
  0
INSERT
  8
31
  2
RECT320000X176000R100
 10
46.2000
 20
12.1000
 30
0.0000
 41
1.0000
 42
1.0000
 43
1.0000
 50
180.0000
  0
INSERT
  8
31
  2
RECT320000X176000R100
 10
46.2000
 20
13.8000
 30
0.0000
 41
1.0000
 42
1.0000
 43
1.0000
 50
180.0000
  0
INSERT
  8
31
  2
RECT320000X176000R100
 10
46.2000
 20
15.5000
 30
0.0000
 41
1.0000
 42
1.0000
 43
1.0000
 50
180.0000
  0
INSERT
  8
31
  2
RECT320000X176000R100
 10
41.4000
 20
15.5000
 30
0.0000
 41
1.0000
 42
1.0000
 43
1.0000
 50
180.0000
  0
INSERT
  8
31
  2
RECT320000X176000R100
 10
41.4000
 20
13.8000
 30
0.0000
 41
1.0000
 42
1.0000
 43
1.0000
 50
180.0000
  0
INSERT
  8
31
  2
RECT320000X176000R100
 10
41.4000
 20
12.1000
 30
0.0000
 41
1.0000
 42
1.0000
 43
1.0000
 50
180.0000
  0
INSERT
  8
31
  2
RECT
 10
23.1000
 20
31.7500
 30
0.0000
 41
1.3000
 42
1.9000
 43
1.0000
 50
90.0000
  0
INSERT
  8
31
  2
RECT
 10
23.1000
 20
37.2500
 30
0.0000
 41
1.3000
 42
1.9000
 43
1.0000
 50
90.0000
  0
INSERT
  8
31
  2
RECT
 10
19.9000
 20
37.2500
 30
0.0000
 41
1.3000
 42
1.9000
 43
1.0000
 50
270.0000
  0
INSERT
  8
31
  2
RECT
 10
19.9000
 20
31.7500
 30
0.0000
 41
1.3000
 42
1.9000
 43
1.0000
 50
270.0000
  0
INSERT
  8
31
  2
RECT
 10
42.0000
 20
29.1500
 30
0.0000
 41
1.0000
 42
1.1000
 43
1.0000
 50
90.0000
  0
INSERT
  8
31
  2
RECT
 10
42.0000
 20
30.8500
 30
0.0000
 41
1.0000
 42
1.1000
 43
1.0000
 50
90.0000
  0
INSERT
  8
31
  2
RECT
 10
38.4000
 20
32.1500
 30
0.0000
 41
1.0000
 42
1.1000
 43
1.0000
 50
90.0000
  0
INSERT
  8
31
  2
RECT
 10
38.4000
 20
33.8500
 30
0.0000
 41
1.0000
 42
1.1000
 43
1.0000
 50
90.0000
  0
INSERT
  8
31
  2
RECT
 10
40.2000
 20
32.1500
 30
0.0000
 41
1.0000
 42
1.1000
 43
1.0000
 50
90.0000
  0
INSERT
  8
31
  2
RECT
 10
40.2000
 20
33.8500
 30
0.0000
 41
1.0000
 42
1.1000
 43
1.0000
 50
90.0000
  0
INSERT
  8
31
  2
RECT
 10
40.3000
 20
46.6500
 30
0.0000
 41
1.0000
 42
1.1000
 43
1.0000
 50
90.0000
  0
INSERT
  8
31
  2
RECT
 10
40.3000
 20
48.3500
 30
0.0000
 41
1.0000
 42
1.1000
 43
1.0000
 50
90.0000
  0
INSERT
  8
31
  2
RECT
 10
37.5500
 20
15.6000
 30
0.0000
 41
1.0000
 42
1.1000
 43
1.0000
 50
0.0000
  0
INSERT
  8
31
  2
RECT
 10
39.2500
 20
15.6000
 30
0.0000
 41
1.0000
 42
1.1000
 43
1.0000
 50
0.0000
  0
INSERT
  8
31
  2
RECT
 10
37.5500
 20
12.0000
 30
0.0000
 41
1.0000
 42
1.1000
 43
1.0000
 50
0.0000
  0
INSERT
  8
31
  2
RECT
 10
39.2500
 20
12.0000
 30
0.0000
 41
1.0000
 42
1.1000
 43
1.0000
 50
0.0000
  0
INSERT
  8
31
  2
RECT
 10
37.5500
 20
13.8000
 30
0.0000
 41
1.0000
 42
1.1000
 43
1.0000
 50
0.0000
  0
INSERT
  8
31
  2
RECT
 10
39.2500
 20
13.8000
 30
0.0000
 41
1.0000
 42
1.1000
 43
1.0000
 50
0.0000
  0
INSERT
  8
31
  2
RECT
 10
47.0000
 20
7.6500
 30
0.0000
 41
1.0000
 42
1.1000
 43
1.0000
 50
90.0000
  0
INSERT
  8
31
  2
RECT
 10
47.0000
 20
9.3500
 30
0.0000
 41
1.0000
 42
1.1000
 43
1.0000
 50
90.0000
  0
INSERT
  8
31
  2
RECT
 10
49.5000
 20
7.6500
 30
0.0000
 41
1.0000
 42
1.1000
 43
1.0000
 50
90.0000
  0
INSERT
  8
31
  2
RECT
 10
49.5000
 20
9.3500
 30
0.0000
 41
1.0000
 42
1.1000
 43
1.0000
 50
90.0000
  0
INSERT
  8
31
  2
RECT
 10
40.2000
 20
30.7500
 30
0.0000
 41
0.8000
 42
0.8000
 43
1.0000
 50
180.0000
  0
INSERT
  8
31
  2
RECT
 10
40.2000
 20
29.2500
 30
0.0000
 41
0.8000
 42
0.8000
 43
1.0000
 50
180.0000
  0
INSERT
  8
31
  2
RECT
 10
46.5950
 20
46.4600
 30
0.0000
 41
0.7620
 42
1.5240
 43
1.0000
 50
180.0000
  0
INSERT
  8
31
  2
RECT
 10
46.5950
 20
51.5400
 30
0.0000
 41
0.7620
 42
1.5240
 43
1.0000
 50
180.0000
  0
INSERT
  8
31
  2
RECT
 10
50.4050
 20
46.4600
 30
0.0000
 41
0.7620
 42
1.5240
 43
1.0000
 50
180.0000
  0
INSERT
  8
31
  2
RECT
 10
50.4050
 20
51.5400
 30
0.0000
 41
0.7620
 42
1.5240
 43
1.0000
 50
180.0000
  0
INSERT
  8
31
  2
RECT
 10
38.4000
 20
30.7500
 30
0.0000
 41
0.8000
 42
0.8000
 43
1.0000
 50
180.0000
  0
INSERT
  8
31
  2
RECT
 10
38.4000
 20
29.2500
 30
0.0000
 41
0.8000
 42
0.8000
 43
1.0000
 50
180.0000
  0
INSERT
  8
31
  2
RECT
 10
26.2500
 20
26.2500
 30
0.0000
 41
1.5000
 42
1.5000
 43
1.0000
 50
270.0000
  0
INSERT
  8
31
  2
RECT
 10
26.2500
 20
23.7500
 30
0.0000
 41
1.5000
 42
1.5000
 43
1.0000
 50
270.0000
  0
INSERT
  8
31
  2
RECT
 10
23.7500
 20
23.7500
 30
0.0000
 41
1.5000
 42
1.5000
 43
1.0000
 50
270.0000
  0
INSERT
  8
31
  2
RECT
 10
23.7500
 20
26.2500
 30
0.0000
 41
1.5000
 42
1.5000
 43
1.0000
 50
270.0000
  0
INSERT
  8
31
  2
RECT
 10
27.7500
 20
28.5000
 30
0.0000
 41
0.8000
 42
0.3000
 43
1.0000
 50
90.0000
  0
INSERT
  8
31
  2
RECT
 10
27.2500
 20
28.5000
 30
0.0000
 41
0.8000
 42
0.3000
 43
1.0000
 50
90.0000
  0
INSERT
  8
31
  2
RECT
 10
26.7500
 20
28.5000
 30
0.0000
 41
0.8000
 42
0.3000
 43
1.0000
 50
90.0000
  0
INSERT
  8
31
  2
RECT
 10
26.2500
 20
28.5000
 30
0.0000
 41
0.8000
 42
0.3000
 43
1.0000
 50
90.0000
  0
INSERT
  8
31
  2
RECT
 10
25.7500
 20
28.5000
 30
0.0000
 41
0.8000
 42
0.3000
 43
1.0000
 50
90.0000
  0
INSERT
  8
31
  2
RECT
 10
25.2500
 20
28.5000
 30
0.0000
 41
0.8000
 42
0.3000
 43
1.0000
 50
90.0000
  0
INSERT
  8
31
  2
RECT
 10
24.7500
 20
28.5000
 30
0.0000
 41
0.8000
 42
0.3000
 43
1.0000
 50
270.0000
  0
INSERT
  8
31
  2
RECT
 10
24.2500
 20
28.5000
 30
0.0000
 41
0.8000
 42
0.3000
 43
1.0000
 50
270.0000
  0
INSERT
  8
31
  2
RECT
 10
23.7500
 20
28.5000
 30
0.0000
 41
0.8000
 42
0.3000
 43
1.0000
 50
270.0000
  0
INSERT
  8
31
  2
RECT
 10
23.2500
 20
28.5000
 30
0.0000
 41
0.8000
 42
0.3000
 43
1.0000
 50
270.0000
  0
INSERT
  8
31
  2
RECT
 10
22.7500
 20
28.5000
 30
0.0000
 41
0.8000
 42
0.3000
 43
1.0000
 50
270.0000
  0
INSERT
  8
31
  2
RECT
 10
22.2500
 20
28.5000
 30
0.0000
 41
0.8000
 42
0.3000
 43
1.0000
 50
270.0000
  0
INSERT
  8
31
  2
RECT
 10
21.5000
 20
27.7500
 30
0.0000
 41
0.8000
 42
0.3000
 43
1.0000
 50
180.0000
  0
INSERT
  8
31
  2
RECT
 10
21.5000
 20
27.2500
 30
0.0000
 41
0.8000
 42
0.3000
 43
1.0000
 50
180.0000
  0
INSERT
  8
31
  2
RECT
 10
21.5000
 20
26.7500
 30
0.0000
 41
0.8000
 42
0.3000
 43
1.0000
 50
180.0000
  0
INSERT
  8
31
  2
RECT
 10
21.5000
 20
26.2500
 30
0.0000
 41
0.8000
 42
0.3000
 43
1.0000
 50
180.0000
  0
INSERT
  8
31
  2
RECT
 10
21.5000
 20
25.7500
 30
0.0000
 41
0.8000
 42
0.3000
 43
1.0000
 50
180.0000
  0
INSERT
  8
31
  2
RECT
 10
21.5000
 20
25.2500
 30
0.0000
 41
0.8000
 42
0.3000
 43
1.0000
 50
0.0000
  0
INSERT
  8
31
  2
RECT
 10
21.5000
 20
24.7500
 30
0.0000
 41
0.8000
 42
0.3000
 43
1.0000
 50
0.0000
  0
INSERT
  8
31
  2
RECT
 10
21.5000
 20
24.2500
 30
0.0000
 41
0.8000
 42
0.3000
 43
1.0000
 50
0.0000
  0
INSERT
  8
31
  2
RECT
 10
21.5000
 20
23.7500
 30
0.0000
 41
0.8000
 42
0.3000
 43
1.0000
 50
0.0000
  0
INSERT
  8
31
  2
RECT
 10
21.5000
 20
23.2500
 30
0.0000
 41
0.8000
 42
0.3000
 43
1.0000
 50
0.0000
  0
INSERT
  8
31
  2
RECT
 10
21.5000
 20
22.7500
 30
0.0000
 41
0.8000
 42
0.3000
 43
1.0000
 50
180.0000
  0
INSERT
  8
31
  2
RECT
 10
21.5000
 20
22.2500
 30
0.0000
 41
0.8000
 42
0.3000
 43
1.0000
 50
180.0000
  0
INSERT
  8
31
  2
RECT
 10
22.2500
 20
21.5000
 30
0.0000
 41
0.8000
 42
0.3000
 43
1.0000
 50
270.0000
  0
INSERT
  8
31
  2
RECT
 10
22.7500
 20
21.5000
 30
0.0000
 41
0.8000
 42
0.3000
 43
1.0000
 50
270.0000
  0
INSERT
  8
31
  2
RECT
 10
23.2500
 20
21.5000
 30
0.0000
 41
0.8000
 42
0.3000
 43
1.0000
 50
270.0000
  0
INSERT
  8
31
  2
RECT
 10
23.7500
 20
21.5000
 30
0.0000
 41
0.8000
 42
0.3000
 43
1.0000
 50
270.0000
  0
INSERT
  8
31
  2
RECT
 10
24.2500
 20
21.5000
 30
0.0000
 41
0.8000
 42
0.3000
 43
1.0000
 50
90.0000
  0
INSERT
  8
31
  2
RECT
 10
24.7500
 20
21.5000
 30
0.0000
 41
0.8000
 42
0.3000
 43
1.0000
 50
90.0000
  0
INSERT
  8
31
  2
RECT
 10
25.2500
 20
21.5000
 30
0.0000
 41
0.8000
 42
0.3000
 43
1.0000
 50
90.0000
  0
INSERT
  8
31
  2
RECT
 10
25.7500
 20
21.5000
 30
0.0000
 41
0.8000
 42
0.3000
 43
1.0000
 50
90.0000
  0
INSERT
  8
31
  2
RECT
 10
26.2500
 20
21.5000
 30
0.0000
 41
0.8000
 42
0.3000
 43
1.0000
 50
90.0000
  0
INSERT
  8
31
  2
RECT
 10
26.7500
 20
21.5000
 30
0.0000
 41
0.8000
 42
0.3000
 43
1.0000
 50
270.0000
  0
INSERT
  8
31
  2
RECT
 10
27.2500
 20
21.5000
 30
0.0000
 41
0.8000
 42
0.3000
 43
1.0000
 50
270.0000
  0
INSERT
  8
31
  2
RECT
 10
27.7500
 20
21.5000
 30
0.0000
 41
0.8000
 42
0.3000
 43
1.0000
 50
270.0000
  0
INSERT
  8
31
  2
RECT
 10
28.5000
 20
22.2500
 30
0.0000
 41
0.8000
 42
0.3000
 43
1.0000
 50
0.0000
  0
INSERT
  8
31
  2
RECT
 10
28.5000
 20
22.7500
 30
0.0000
 41
0.8000
 42
0.3000
 43
1.0000
 50
0.0000
  0
INSERT
  8
31
  2
RECT
 10
28.5000
 20
23.2500
 30
0.0000
 41
0.8000
 42
0.3000
 43
1.0000
 50
0.0000
  0
INSERT
  8
31
  2
RECT
 10
28.5000
 20
23.7500
 30
0.0000
 41
0.8000
 42
0.3000
 43
1.0000
 50
180.0000
  0
INSERT
  8
31
  2
RECT
 10
28.5000
 20
24.2500
 30
0.0000
 41
0.8000
 42
0.3000
 43
1.0000
 50
180.0000
  0
INSERT
  8
31
  2
RECT
 10
28.5000
 20
24.7500
 30
0.0000
 41
0.8000
 42
0.3000
 43
1.0000
 50
180.0000
  0
INSERT
  8
31
  2
RECT
 10
28.5000
 20
25.2500
 30
0.0000
 41
0.8000
 42
0.3000
 43
1.0000
 50
180.0000
  0
INSERT
  8
31
  2
RECT
 10
28.5000
 20
25.7500
 30
0.0000
 41
0.8000
 42
0.3000
 43
1.0000
 50
180.0000
  0
INSERT
  8
31
  2
RECT
 10
28.5000
 20
26.2500
 30
0.0000
 41
0.8000
 42
0.3000
 43
1.0000
 50
180.0000
  0
INSERT
  8
31
  2
RECT
 10
28.5000
 20
26.7500
 30
0.0000
 41
0.8000
 42
0.3000
 43
1.0000
 50
180.0000
  0
INSERT
  8
31
  2
RECT
 10
28.5000
 20
27.2500
 30
0.0000
 41
0.8000
 42
0.3000
 43
1.0000
 50
180.0000
  0
INSERT
  8
31
  2
RECT
 10
28.5000
 20
27.7500
 30
0.0000
 41
0.8000
 42
0.3000
 43
1.0000
 50
180.0000
  0
INSERT
  8
31
  2
RECT
 10
38.7750
 20
18.7440
 30
0.0000
 41
0.3480
 42
1.3970
 43
1.0000
 50
0.0000
  0
INSERT
  8
31
  2
RECT
 10
39.4250
 20
18.7440
 30
0.0000
 41
0.3480
 42
1.3970
 43
1.0000
 50
0.0000
  0
INSERT
  8
31
  2
RECT
 10
40.0750
 20
18.7440
 30
0.0000
 41
0.3480
 42
1.3970
 43
1.0000
 50
0.0000
  0
INSERT
  8
31
  2
RECT
 10
40.7250
 20
18.7440
 30
0.0000
 41
0.3480
 42
1.3970
 43
1.0000
 50
0.0000
  0
INSERT
  8
31
  2
RECT
 10
41.3750
 20
18.7440
 30
0.0000
 41
0.3480
 42
1.3970
 43
1.0000
 50
0.0000
  0
INSERT
  8
31
  2
RECT
 10
42.0250
 20
18.7440
 30
0.0000
 41
0.3480
 42
1.3970
 43
1.0000
 50
0.0000
  0
INSERT
  8
31
  2
RECT
 10
42.6750
 20
18.7440
 30
0.0000
 41
0.3480
 42
1.3970
 43
1.0000
 50
0.0000
  0
INSERT
  8
31
  2
RECT
 10
43.3250
 20
18.7440
 30
0.0000
 41
0.3480
 42
1.3970
 43
1.0000
 50
0.0000
  0
INSERT
  8
31
  2
RECT
 10
43.9750
 20
18.7440
 30
0.0000
 41
0.3480
 42
1.3970
 43
1.0000
 50
0.0000
  0
INSERT
  8
31
  2
RECT
 10
44.6250
 20
18.7440
 30
0.0000
 41
0.3480
 42
1.3970
 43
1.0000
 50
0.0000
  0
INSERT
  8
31
  2
RECT
 10
45.2750
 20
18.7440
 30
0.0000
 41
0.3480
 42
1.3970
 43
1.0000
 50
0.0000
  0
INSERT
  8
31
  2
RECT
 10
45.9250
 20
18.7440
 30
0.0000
 41
0.3480
 42
1.3970
 43
1.0000
 50
0.0000
  0
INSERT
  8
31
  2
RECT
 10
46.5750
 20
18.7440
 30
0.0000
 41
0.3480
 42
1.3970
 43
1.0000
 50
0.0000
  0
INSERT
  8
31
  2
RECT
 10
47.2250
 20
18.7440
 30
0.0000
 41
0.3480
 42
1.3970
 43
1.0000
 50
0.0000
  0
INSERT
  8
31
  2
RECT
 10
47.2250
 20
26.0560
 30
0.0000
 41
0.3480
 42
1.3970
 43
1.0000
 50
0.0000
  0
INSERT
  8
31
  2
RECT
 10
46.5750
 20
26.0560
 30
0.0000
 41
0.3480
 42
1.3970
 43
1.0000
 50
0.0000
  0
INSERT
  8
31
  2
RECT
 10
45.9250
 20
26.0560
 30
0.0000
 41
0.3480
 42
1.3970
 43
1.0000
 50
0.0000
  0
INSERT
  8
31
  2
RECT
 10
45.2750
 20
26.0560
 30
0.0000
 41
0.3480
 42
1.3970
 43
1.0000
 50
0.0000
  0
INSERT
  8
31
  2
RECT
 10
44.6250
 20
26.0560
 30
0.0000
 41
0.3480
 42
1.3970
 43
1.0000
 50
0.0000
  0
INSERT
  8
31
  2
RECT
 10
43.9750
 20
26.0560
 30
0.0000
 41
0.3480
 42
1.3970
 43
1.0000
 50
0.0000
  0
INSERT
  8
31
  2
RECT
 10
43.3250
 20
26.0560
 30
0.0000
 41
0.3480
 42
1.3970
 43
1.0000
 50
0.0000
  0
INSERT
  8
31
  2
RECT
 10
42.6750
 20
26.0560
 30
0.0000
 41
0.3480
 42
1.3970
 43
1.0000
 50
0.0000
  0
INSERT
  8
31
  2
RECT
 10
42.0250
 20
26.0560
 30
0.0000
 41
0.3480
 42
1.3970
 43
1.0000
 50
0.0000
  0
INSERT
  8
31
  2
RECT
 10
41.3750
 20
26.0560
 30
0.0000
 41
0.3480
 42
1.3970
 43
1.0000
 50
0.0000
  0
INSERT
  8
31
  2
RECT
 10
40.7250
 20
26.0560
 30
0.0000
 41
0.3480
 42
1.3970
 43
1.0000
 50
0.0000
  0
INSERT
  8
31
  2
RECT
 10
40.0750
 20
26.0560
 30
0.0000
 41
0.3480
 42
1.3970
 43
1.0000
 50
0.0000
  0
INSERT
  8
31
  2
RECT
 10
39.4250
 20
26.0560
 30
0.0000
 41
0.3480
 42
1.3970
 43
1.0000
 50
0.0000
  0
INSERT
  8
31
  2
RECT
 10
38.7750
 20
26.0560
 30
0.0000
 41
0.3480
 42
1.3970
 43
1.0000
 50
0.0000
  0
ENDSEC
  0
EOF
