G75*
%MOIN*%
%OFA0B0*%
%FSLAX24Y24*%
%IPPOS*%
%LPD*%
%AMOC8*
5,1,8,0,0,1.08239X$1,22.5*
%
%ADD10C,0.0100*%
%ADD11C,0.0040*%
%ADD12C,0.0030*%
%ADD13C,0.0020*%
%ADD14C,0.0010*%
%ADD15C,0.0050*%
%ADD16C,0.0080*%
%ADD17C,0.0060*%
%ADD18C,0.0120*%
%ADD19C,0.0000*%
%ADD20R,0.0300X0.0100*%
D10*
X007186Y000628D02*
X007306Y030858D01*
X048156Y030858D01*
X048036Y000628D01*
X007186Y000628D01*
X023967Y022075D02*
X024034Y022075D01*
X024101Y022142D01*
X024101Y022275D01*
X024167Y022342D01*
X024234Y022342D01*
X024301Y022275D01*
X024301Y022142D01*
X024234Y022075D01*
X023967Y022075D02*
X023901Y022142D01*
X023901Y022275D01*
X023967Y022342D01*
X023967Y022536D02*
X023901Y022602D01*
X023901Y022736D01*
X023967Y022803D01*
X024034Y022803D01*
X024301Y022536D01*
X024301Y022803D01*
D11*
X022967Y019664D02*
X020565Y019664D01*
X020565Y014152D01*
X022967Y014152D01*
X022967Y019664D01*
X019899Y023154D02*
X019976Y023231D01*
X019976Y023384D01*
X019899Y023461D01*
X019823Y023461D01*
X019746Y023384D01*
X019746Y023307D01*
X019746Y023384D02*
X019669Y023461D01*
X019592Y023461D01*
X019516Y023384D01*
X019516Y023231D01*
X019592Y023154D01*
X019899Y023614D02*
X019899Y023691D01*
X019976Y023691D01*
X019976Y023614D01*
X019899Y023614D01*
X019899Y023845D02*
X019976Y023921D01*
X019976Y024075D01*
X019899Y024151D01*
X019823Y024151D01*
X019746Y024075D01*
X019746Y023998D01*
X019746Y024075D02*
X019669Y024151D01*
X019592Y024151D01*
X019516Y024075D01*
X019516Y023921D01*
X019592Y023845D01*
X019516Y024305D02*
X019823Y024305D01*
X019976Y024458D01*
X019823Y024612D01*
X019516Y024612D01*
X019133Y024785D02*
X019133Y025092D01*
X019056Y025246D02*
X019056Y025476D01*
X018979Y025553D01*
X018903Y025553D01*
X018826Y025476D01*
X018826Y025246D01*
X018826Y025476D02*
X018749Y025553D01*
X018672Y025553D01*
X018596Y025476D01*
X018596Y025246D01*
X019056Y025246D01*
X019516Y025226D02*
X019516Y025456D01*
X019592Y025533D01*
X019669Y025533D01*
X019746Y025456D01*
X019746Y025226D01*
X019746Y025456D02*
X019823Y025533D01*
X019899Y025533D01*
X019976Y025456D01*
X019976Y025226D01*
X019516Y025226D01*
X020053Y025072D02*
X020053Y024765D01*
X019056Y024478D02*
X018903Y024632D01*
X018596Y024632D01*
X018596Y024325D02*
X018903Y024325D01*
X019056Y024478D01*
X018979Y024171D02*
X019056Y024095D01*
X019056Y023941D01*
X018979Y023865D01*
X018826Y023865D02*
X018749Y024018D01*
X018749Y024095D01*
X018826Y024171D01*
X018979Y024171D01*
X018826Y023865D02*
X018596Y023865D01*
X018596Y024171D01*
X018749Y025706D02*
X018979Y025706D01*
X019056Y025783D01*
X019056Y026013D01*
X019133Y026013D02*
X019210Y025936D01*
X019210Y025860D01*
X019133Y026013D02*
X018749Y026013D01*
X018749Y026166D02*
X018749Y026397D01*
X018826Y026473D01*
X018979Y026473D01*
X019056Y026397D01*
X019056Y026166D01*
X019210Y026166D02*
X018749Y026166D01*
X018979Y026627D02*
X018903Y026704D01*
X018903Y026934D01*
X018826Y026934D02*
X019056Y026934D01*
X019056Y026704D01*
X018979Y026627D01*
X018749Y026704D02*
X018749Y026857D01*
X018826Y026934D01*
X018826Y027087D02*
X018749Y027164D01*
X018749Y027394D01*
X018903Y027317D02*
X018903Y027164D01*
X018826Y027087D01*
X019056Y027087D02*
X019056Y027317D01*
X018979Y027394D01*
X018903Y027317D01*
X018826Y027548D02*
X018749Y027624D01*
X018749Y027855D01*
X018903Y027778D02*
X018979Y027855D01*
X019056Y027778D01*
X019056Y027548D01*
X018903Y027624D02*
X018826Y027548D01*
X018903Y027624D02*
X018903Y027778D01*
X019669Y027835D02*
X019669Y027604D01*
X019746Y027528D01*
X019823Y027604D01*
X019823Y027758D01*
X019899Y027835D01*
X019976Y027758D01*
X019976Y027528D01*
X019899Y027374D02*
X019823Y027297D01*
X019823Y027144D01*
X019746Y027067D01*
X019669Y027144D01*
X019669Y027374D01*
X019899Y027374D02*
X019976Y027297D01*
X019976Y027067D01*
X019976Y026914D02*
X019976Y026684D01*
X019899Y026607D01*
X019823Y026684D01*
X019823Y026914D01*
X019746Y026914D02*
X019976Y026914D01*
X019746Y026914D02*
X019669Y026837D01*
X019669Y026684D01*
X019746Y026453D02*
X019669Y026377D01*
X019669Y026146D01*
X020130Y026146D01*
X019976Y026146D02*
X019976Y026377D01*
X019899Y026453D01*
X019746Y026453D01*
X019669Y025993D02*
X020053Y025993D01*
X020130Y025916D01*
X020130Y025840D01*
X019976Y025763D02*
X019976Y025993D01*
X019976Y025763D02*
X019899Y025686D01*
X019669Y025686D01*
X008653Y028855D02*
X008653Y029162D01*
X008576Y029238D01*
X008346Y029238D01*
X008346Y028778D01*
X008576Y028778D01*
X008653Y028855D01*
X008192Y028778D02*
X008192Y029238D01*
X007885Y029238D02*
X007885Y028778D01*
X007732Y028855D02*
X007732Y029008D01*
X007578Y029008D01*
X007425Y028855D02*
X007502Y028778D01*
X007655Y028778D01*
X007732Y028855D01*
X007732Y029162D02*
X007655Y029238D01*
X007502Y029238D01*
X007425Y029162D01*
X007425Y028855D01*
X007885Y029238D02*
X008192Y028778D01*
X022521Y014506D02*
X022523Y014526D01*
X022528Y014546D01*
X022538Y014564D01*
X022550Y014581D01*
X022565Y014595D01*
X022583Y014605D01*
X022602Y014613D01*
X022622Y014617D01*
X022642Y014617D01*
X022662Y014613D01*
X022681Y014605D01*
X022699Y014595D01*
X022714Y014581D01*
X022726Y014564D01*
X022736Y014546D01*
X022741Y014526D01*
X022743Y014506D01*
X022741Y014486D01*
X022736Y014466D01*
X022726Y014448D01*
X022714Y014431D01*
X022699Y014417D01*
X022681Y014407D01*
X022662Y014399D01*
X022642Y014395D01*
X022622Y014395D01*
X022602Y014399D01*
X022583Y014407D01*
X022565Y014417D01*
X022550Y014431D01*
X022538Y014448D01*
X022528Y014466D01*
X022523Y014486D01*
X022521Y014506D01*
X023593Y014138D02*
X023747Y014138D01*
X023670Y014138D02*
X023670Y013678D01*
X023593Y013678D02*
X023747Y013678D01*
X023670Y013558D02*
X023747Y013482D01*
X023747Y013405D01*
X023670Y013328D01*
X023747Y013252D01*
X023747Y013175D01*
X023670Y013098D01*
X023517Y013098D01*
X023440Y013175D01*
X023286Y013175D02*
X023210Y013098D01*
X023056Y013098D01*
X022980Y013175D01*
X022980Y013252D01*
X023056Y013328D01*
X023210Y013328D01*
X023286Y013252D01*
X023286Y013175D01*
X023210Y013328D02*
X023286Y013405D01*
X023286Y013482D01*
X023210Y013558D01*
X023056Y013558D01*
X022980Y013482D01*
X022980Y013405D01*
X023056Y013328D01*
X022826Y013252D02*
X022826Y013558D01*
X022826Y013252D02*
X022673Y013098D01*
X022519Y013252D01*
X022519Y013558D01*
X022366Y013482D02*
X022366Y013328D01*
X022289Y013252D01*
X022059Y013252D01*
X022212Y013252D02*
X022366Y013098D01*
X022059Y013098D02*
X022059Y013558D01*
X022289Y013558D01*
X022366Y013482D01*
X021905Y013482D02*
X021905Y013175D01*
X021829Y013098D01*
X021598Y013098D01*
X021598Y013558D01*
X021829Y013558D01*
X021905Y013482D01*
X023440Y013482D02*
X023517Y013558D01*
X023670Y013558D01*
X023670Y013328D02*
X023593Y013328D01*
X023900Y013175D02*
X024207Y013482D01*
X024207Y013175D01*
X024131Y013098D01*
X023977Y013098D01*
X023900Y013175D01*
X023900Y013482D01*
X023977Y013558D01*
X024131Y013558D01*
X024207Y013482D01*
X024361Y013405D02*
X024514Y013558D01*
X024514Y013098D01*
X024361Y013098D02*
X024668Y013098D01*
X024668Y013678D02*
X024361Y013678D01*
X024514Y013678D02*
X024514Y014138D01*
X024361Y013985D01*
X024207Y014062D02*
X024131Y014138D01*
X023977Y014138D01*
X023900Y014062D01*
X023900Y013755D01*
X023977Y013678D01*
X024131Y013678D01*
X024207Y013755D01*
X015935Y013838D02*
X015858Y013762D01*
X015628Y013762D01*
X015781Y013762D02*
X015935Y013608D01*
X015935Y013838D02*
X015935Y013992D01*
X015858Y014068D01*
X015628Y014068D01*
X015628Y013608D01*
X015474Y013685D02*
X015474Y013992D01*
X015398Y014068D01*
X015244Y014068D01*
X015167Y013992D01*
X015167Y013685D01*
X015244Y013608D01*
X015398Y013608D01*
X015474Y013685D01*
X015014Y014068D02*
X014707Y014068D01*
X014860Y014068D02*
X014860Y013608D01*
X014553Y013685D02*
X014553Y013992D01*
X014477Y014068D01*
X014323Y014068D01*
X014247Y013992D01*
X014247Y013685D01*
X014323Y013608D01*
X014477Y013608D01*
X014553Y013685D01*
X014093Y013608D02*
X014093Y014068D01*
X013940Y013915D01*
X013786Y014068D01*
X013786Y013608D01*
X013408Y005034D02*
X013485Y004957D01*
X013485Y004881D01*
X013408Y004804D01*
X013485Y004727D01*
X013485Y004650D01*
X013408Y004574D01*
X013255Y004574D01*
X013178Y004650D01*
X013025Y004650D02*
X012948Y004574D01*
X012794Y004574D01*
X012718Y004650D01*
X012718Y004957D01*
X012794Y005034D01*
X012948Y005034D01*
X013025Y004957D01*
X013178Y004957D02*
X013255Y005034D01*
X013408Y005034D01*
X013408Y004804D02*
X013332Y004804D01*
X013328Y004430D02*
X013404Y004353D01*
X013404Y004276D01*
X013328Y004200D01*
X013404Y004123D01*
X013404Y004046D01*
X013328Y003969D01*
X013174Y003969D01*
X013097Y004046D01*
X012944Y003969D02*
X012637Y003969D01*
X012790Y003969D02*
X012790Y004430D01*
X012637Y004276D01*
X012483Y004200D02*
X012483Y004046D01*
X012407Y003969D01*
X012253Y003969D01*
X012177Y004046D01*
X012177Y004200D02*
X012330Y004276D01*
X012407Y004276D01*
X012483Y004200D01*
X012483Y004430D02*
X012177Y004430D01*
X012177Y004200D01*
X012411Y004574D02*
X012564Y004574D01*
X012488Y004574D02*
X012488Y005034D01*
X012564Y005034D02*
X012411Y005034D01*
X013097Y004353D02*
X013174Y004430D01*
X013328Y004430D01*
X013328Y004200D02*
X013251Y004200D01*
X013558Y004200D02*
X013865Y004200D01*
X013788Y004430D02*
X013558Y004200D01*
X013788Y003969D02*
X013788Y004430D01*
X011563Y004353D02*
X011486Y004430D01*
X011332Y004430D01*
X011256Y004353D01*
X011256Y004276D01*
X011332Y004200D01*
X011486Y004200D01*
X011563Y004123D01*
X011563Y004046D01*
X011486Y003969D01*
X011332Y003969D01*
X011256Y004046D01*
X011102Y003969D02*
X011102Y004276D01*
X010949Y004430D01*
X010795Y004276D01*
X010795Y003969D01*
X010795Y004200D02*
X011102Y004200D01*
X018246Y004608D02*
X018400Y004762D01*
X018553Y004608D01*
X018553Y005068D01*
X018246Y005068D02*
X018246Y004608D01*
X019167Y004762D02*
X019167Y005068D01*
X019167Y004762D02*
X019320Y004608D01*
X019474Y004762D01*
X019474Y005068D01*
X020088Y005068D02*
X020088Y004685D01*
X020164Y004608D01*
X020318Y004608D01*
X020395Y004685D01*
X020395Y005068D01*
X021008Y004992D02*
X021008Y004685D01*
X021085Y004608D01*
X021239Y004608D01*
X021315Y004685D01*
X021315Y004838D01*
X021162Y004838D01*
X021315Y004992D02*
X021239Y005068D01*
X021085Y005068D01*
X021008Y004992D01*
X021469Y005068D02*
X021469Y004608D01*
X021776Y004608D02*
X021469Y005068D01*
X021776Y005068D02*
X021776Y004608D01*
X021929Y004608D02*
X022159Y004608D01*
X022236Y004685D01*
X022236Y004992D01*
X022159Y005068D01*
X021929Y005068D01*
X021929Y004608D01*
X040905Y005008D02*
X040905Y005468D01*
X041059Y005315D01*
X041212Y005468D01*
X041212Y005008D01*
X041366Y005008D02*
X041673Y005315D01*
X041673Y005392D01*
X041596Y005468D01*
X041442Y005468D01*
X041366Y005392D01*
X041366Y005008D02*
X041673Y005008D01*
D12*
X028111Y011230D02*
X028049Y011168D01*
X028111Y011230D02*
X028111Y011353D01*
X028049Y011415D01*
X027988Y011415D01*
X027926Y011353D01*
X027926Y011230D01*
X027864Y011168D01*
X027803Y011168D01*
X027741Y011230D01*
X027741Y011353D01*
X027803Y011415D01*
X027803Y011536D02*
X027741Y011598D01*
X027741Y011722D01*
X027803Y011783D01*
X027741Y011905D02*
X028111Y011905D01*
X028111Y012152D01*
X028049Y011783D02*
X028111Y011722D01*
X028111Y011598D01*
X028049Y011536D01*
X027803Y011536D01*
X026611Y012230D02*
X026549Y012168D01*
X026611Y012230D02*
X026611Y012353D01*
X026549Y012415D01*
X026488Y012415D01*
X026426Y012353D01*
X026426Y012230D01*
X026364Y012168D01*
X026303Y012168D01*
X026241Y012230D01*
X026241Y012353D01*
X026303Y012415D01*
X026241Y012536D02*
X026241Y012722D01*
X026303Y012783D01*
X026549Y012783D01*
X026611Y012722D01*
X026611Y012536D01*
X026241Y012536D01*
X026364Y012905D02*
X026241Y013028D01*
X026364Y013152D01*
X026611Y013152D01*
X026426Y013152D02*
X026426Y012905D01*
X026364Y012905D02*
X026611Y012905D01*
X027741Y013046D02*
X027864Y013169D01*
X028111Y013169D01*
X028111Y013291D02*
X027741Y013291D01*
X027741Y013476D01*
X027803Y013538D01*
X027926Y013538D01*
X027988Y013476D01*
X027988Y013291D01*
X027988Y013414D02*
X028111Y013538D01*
X028049Y013659D02*
X027926Y013659D01*
X027864Y013721D01*
X027864Y013844D01*
X027926Y013906D01*
X027988Y013906D01*
X027988Y013659D01*
X028049Y013659D02*
X028111Y013721D01*
X028111Y013844D01*
X028111Y014089D02*
X027803Y014089D01*
X027741Y014151D01*
X027926Y014151D02*
X027926Y014028D01*
X027926Y014418D02*
X028049Y014418D01*
X028111Y014480D01*
X028111Y014665D01*
X028173Y014665D02*
X027864Y014665D01*
X027864Y014480D01*
X027926Y014418D01*
X028235Y014542D02*
X028235Y014603D01*
X028173Y014665D01*
X028111Y014786D02*
X027864Y014786D01*
X027864Y014972D01*
X027926Y015033D01*
X028111Y015033D01*
X028049Y015155D02*
X027926Y015155D01*
X027864Y015216D01*
X027864Y015402D01*
X027741Y015402D02*
X028111Y015402D01*
X028111Y015216D01*
X028049Y015155D01*
X028111Y015636D02*
X028111Y015883D01*
X028111Y015760D02*
X027741Y015760D01*
X027864Y015636D01*
X027803Y016005D02*
X027741Y016066D01*
X027741Y016190D01*
X027803Y016252D01*
X027864Y016252D01*
X027926Y016190D01*
X027988Y016252D01*
X028049Y016252D01*
X028111Y016190D01*
X028111Y016066D01*
X028049Y016005D01*
X027926Y016128D02*
X027926Y016190D01*
X027864Y016636D02*
X027741Y016760D01*
X028111Y016760D01*
X028111Y016883D02*
X028111Y016636D01*
X028111Y017005D02*
X027864Y017252D01*
X027803Y017252D01*
X027741Y017190D01*
X027741Y017066D01*
X027803Y017005D01*
X028111Y017005D02*
X028111Y017252D01*
X028111Y017636D02*
X028111Y017883D01*
X028111Y018005D02*
X028111Y018252D01*
X028111Y018128D02*
X027741Y018128D01*
X027864Y018005D01*
X027741Y017760D02*
X028111Y017760D01*
X027864Y017636D02*
X027741Y017760D01*
X026835Y017772D02*
X026773Y017834D01*
X026464Y017834D01*
X026464Y017649D01*
X026526Y017587D01*
X026649Y017587D01*
X026711Y017649D01*
X026711Y017834D01*
X026711Y017955D02*
X026711Y018079D01*
X026711Y018017D02*
X026464Y018017D01*
X026464Y017955D01*
X026341Y018017D02*
X026279Y018017D01*
X026464Y018201D02*
X026464Y018324D01*
X026403Y018263D02*
X026649Y018263D01*
X026711Y018324D01*
X026649Y018446D02*
X026588Y018508D01*
X026588Y018693D01*
X026526Y018693D02*
X026711Y018693D01*
X026711Y018508D01*
X026649Y018446D01*
X026464Y018508D02*
X026464Y018631D01*
X026526Y018693D01*
X026711Y018815D02*
X026711Y018938D01*
X026711Y018876D02*
X026341Y018876D01*
X026341Y018815D01*
X026341Y019428D02*
X026341Y019552D01*
X026341Y019490D02*
X026711Y019490D01*
X026711Y019428D02*
X026711Y019552D01*
X026711Y019674D02*
X026341Y019921D01*
X026403Y020042D02*
X026649Y020042D01*
X026711Y020104D01*
X026711Y020228D01*
X026649Y020289D01*
X026403Y020289D01*
X026341Y020228D01*
X026341Y020104D01*
X026403Y020042D01*
X027741Y019990D02*
X027741Y019866D01*
X027803Y019805D01*
X027864Y019805D01*
X027926Y019866D01*
X027926Y020052D01*
X028049Y020052D02*
X027803Y020052D01*
X027741Y019990D01*
X028049Y020052D02*
X028111Y019990D01*
X028111Y019866D01*
X028049Y019805D01*
X028049Y019252D02*
X028111Y019190D01*
X028111Y019066D01*
X028049Y019005D01*
X027803Y019252D01*
X028049Y019252D01*
X027803Y019252D02*
X027741Y019190D01*
X027741Y019066D01*
X027803Y019005D01*
X028049Y019005D01*
X028111Y018883D02*
X028111Y018636D01*
X028111Y018760D02*
X027741Y018760D01*
X027864Y018636D01*
X026835Y017772D02*
X026835Y017710D01*
X026711Y017465D02*
X026711Y017341D01*
X026711Y017403D02*
X026464Y017403D01*
X026464Y017341D01*
X026403Y017220D02*
X026341Y017158D01*
X026341Y016973D01*
X026711Y016973D01*
X026711Y017158D01*
X026649Y017220D01*
X026403Y017220D01*
X026341Y017403D02*
X026279Y017403D01*
X027803Y020805D02*
X027741Y020866D01*
X027741Y020990D01*
X027803Y021052D01*
X027864Y021052D01*
X027926Y020990D01*
X027926Y020866D01*
X027864Y020805D01*
X027803Y020805D01*
X027926Y020866D02*
X027988Y020805D01*
X028049Y020805D01*
X028111Y020866D01*
X028111Y020990D01*
X028049Y021052D01*
X027988Y021052D01*
X027926Y020990D01*
X028049Y022405D02*
X028111Y022405D01*
X028049Y022405D02*
X027803Y022652D01*
X027741Y022652D01*
X027741Y022405D01*
X027926Y023405D02*
X027926Y023590D01*
X027988Y023652D01*
X028049Y023652D01*
X028111Y023590D01*
X028111Y023466D01*
X028049Y023405D01*
X027926Y023405D01*
X027803Y023528D01*
X027741Y023652D01*
X027741Y024405D02*
X027926Y024405D01*
X027864Y024528D01*
X027864Y024590D01*
X027926Y024652D01*
X028049Y024652D01*
X028111Y024590D01*
X028111Y024466D01*
X028049Y024405D01*
X027741Y024405D02*
X027741Y024652D01*
X027926Y025405D02*
X027741Y025590D01*
X028111Y025590D01*
X027926Y025652D02*
X027926Y025405D01*
X026835Y025372D02*
X026773Y025434D01*
X026464Y025434D01*
X026464Y025249D01*
X026526Y025187D01*
X026649Y025187D01*
X026711Y025249D01*
X026711Y025434D01*
X026711Y025555D02*
X026711Y025679D01*
X026711Y025617D02*
X026464Y025617D01*
X026464Y025555D01*
X026341Y025617D02*
X026279Y025617D01*
X026464Y025801D02*
X026464Y025924D01*
X026403Y025863D02*
X026649Y025863D01*
X026711Y025924D01*
X026649Y026046D02*
X026588Y026108D01*
X026588Y026293D01*
X026526Y026293D02*
X026711Y026293D01*
X026711Y026108D01*
X026649Y026046D01*
X026464Y026108D02*
X026464Y026231D01*
X026526Y026293D01*
X026711Y026415D02*
X026711Y026538D01*
X026711Y026476D02*
X026341Y026476D01*
X026341Y026415D01*
X026341Y027028D02*
X026341Y027152D01*
X026341Y027090D02*
X026711Y027090D01*
X026711Y027028D02*
X026711Y027152D01*
X026711Y027274D02*
X026341Y027521D01*
X026403Y027642D02*
X026649Y027642D01*
X026711Y027704D01*
X026711Y027828D01*
X026649Y027889D01*
X026403Y027889D01*
X026341Y027828D01*
X026341Y027704D01*
X026403Y027642D01*
X027741Y027590D02*
X027741Y027466D01*
X027803Y027405D01*
X027741Y027590D02*
X027803Y027652D01*
X027864Y027652D01*
X028111Y027405D01*
X028111Y027652D01*
X028111Y028405D02*
X028111Y028652D01*
X028111Y028528D02*
X027741Y028528D01*
X027864Y028405D01*
X027803Y029405D02*
X027741Y029466D01*
X027741Y029590D01*
X027803Y029652D01*
X028049Y029405D01*
X028111Y029466D01*
X028111Y029590D01*
X028049Y029652D01*
X027803Y029652D01*
X027803Y029405D02*
X028049Y029405D01*
X028049Y026652D02*
X028111Y026590D01*
X028111Y026466D01*
X028049Y026405D01*
X027926Y026528D02*
X027926Y026590D01*
X027988Y026652D01*
X028049Y026652D01*
X027926Y026590D02*
X027864Y026652D01*
X027803Y026652D01*
X027741Y026590D01*
X027741Y026466D01*
X027803Y026405D01*
X026835Y025372D02*
X026835Y025310D01*
X026711Y025065D02*
X026711Y024941D01*
X026711Y025003D02*
X026464Y025003D01*
X026464Y024941D01*
X026403Y024820D02*
X026341Y024758D01*
X026341Y024573D01*
X026711Y024573D01*
X026711Y024758D01*
X026649Y024820D01*
X026403Y024820D01*
X026341Y025003D02*
X026279Y025003D01*
X017491Y021076D02*
X017469Y021098D01*
X017383Y021098D01*
X017361Y021076D01*
X017361Y021011D01*
X017491Y021011D01*
X017491Y021076D01*
X017491Y020950D02*
X017491Y020864D01*
X017361Y020864D01*
X017361Y020950D01*
X017426Y020907D02*
X017426Y020864D01*
X017491Y020803D02*
X017491Y020716D01*
X017361Y020716D01*
X017383Y020656D02*
X017404Y020656D01*
X017426Y020634D01*
X017426Y020569D01*
X017426Y020508D02*
X017426Y020422D01*
X017404Y020422D02*
X017361Y020465D01*
X017404Y020508D01*
X017491Y020508D01*
X017491Y020569D02*
X017491Y020634D01*
X017469Y020656D01*
X017448Y020656D01*
X017426Y020634D01*
X017383Y020656D02*
X017361Y020634D01*
X017361Y020569D01*
X017491Y020569D01*
X017491Y020422D02*
X017404Y020422D01*
X017361Y020361D02*
X017491Y020361D01*
X017361Y020274D01*
X017491Y020274D01*
X017491Y020214D02*
X017491Y020127D01*
X017361Y020127D01*
X017361Y020214D01*
X017426Y020170D02*
X017426Y020127D01*
X017513Y020066D02*
X017513Y019980D01*
X017491Y019919D02*
X017448Y019876D01*
X017448Y019897D02*
X017448Y019832D01*
X017491Y019832D02*
X017361Y019832D01*
X017361Y019897D01*
X017383Y019919D01*
X017426Y019919D01*
X017448Y019897D01*
X017469Y019772D02*
X017383Y019772D01*
X017361Y019750D01*
X017361Y019707D01*
X017383Y019685D01*
X017469Y019685D01*
X017491Y019707D01*
X017491Y019750D01*
X017469Y019772D01*
X017361Y019624D02*
X017361Y019538D01*
X017361Y019581D02*
X017491Y019581D01*
X017469Y019477D02*
X017383Y019477D01*
X017361Y019455D01*
X017361Y019412D01*
X017383Y019390D01*
X017469Y019390D01*
X017491Y019412D01*
X017491Y019455D01*
X017469Y019477D01*
X017491Y019330D02*
X017361Y019330D01*
X017404Y019286D01*
X017361Y019243D01*
X017491Y019243D01*
X027741Y013046D02*
X027864Y012923D01*
X028111Y012923D01*
X027926Y012923D02*
X027926Y013169D01*
X020191Y007472D02*
X020061Y007472D01*
X020061Y007385D02*
X020191Y007385D01*
X020148Y007428D01*
X020191Y007472D01*
X020191Y007281D02*
X020061Y007281D01*
X020061Y007238D02*
X020061Y007324D01*
X020083Y007177D02*
X020061Y007155D01*
X020061Y007112D01*
X020083Y007090D01*
X020169Y007090D01*
X020191Y007112D01*
X020191Y007155D01*
X020169Y007177D01*
X020169Y007030D02*
X020083Y007030D01*
X020061Y007008D01*
X020061Y006965D01*
X020083Y006943D01*
X020169Y006943D01*
X020191Y006965D01*
X020191Y007008D01*
X020169Y007030D01*
X020353Y006802D02*
X020353Y006753D01*
X020353Y006657D02*
X020353Y006463D01*
X020401Y006463D02*
X020304Y006463D01*
X020304Y006657D02*
X020353Y006657D01*
X020204Y006657D02*
X020156Y006657D01*
X020059Y006560D01*
X020059Y006463D02*
X020059Y006657D01*
X019958Y006608D02*
X019909Y006657D01*
X019764Y006657D01*
X019764Y006753D02*
X019764Y006463D01*
X019909Y006463D01*
X019958Y006511D01*
X019958Y006608D01*
X019665Y006608D02*
X019568Y006608D01*
X019616Y006705D02*
X019616Y006463D01*
X019468Y006463D02*
X019371Y006463D01*
X019420Y006463D02*
X019420Y006753D01*
X019371Y006753D01*
X019270Y006608D02*
X019270Y006463D01*
X019125Y006463D01*
X019077Y006511D01*
X019125Y006560D01*
X019270Y006560D01*
X019270Y006608D02*
X019222Y006657D01*
X019125Y006657D01*
X019106Y006763D02*
X019106Y006806D01*
X019041Y006763D02*
X019041Y006850D01*
X019084Y006910D02*
X019041Y006954D01*
X019084Y006997D01*
X019171Y006997D01*
X019149Y007058D02*
X019171Y007079D01*
X019171Y007123D01*
X019149Y007144D01*
X019041Y007144D01*
X019041Y007205D02*
X019171Y007205D01*
X019171Y007292D01*
X019171Y007396D02*
X019041Y007396D01*
X019041Y007439D02*
X019041Y007352D01*
X019041Y007058D02*
X019149Y007058D01*
X019106Y006997D02*
X019106Y006910D01*
X019084Y006910D02*
X019171Y006910D01*
X019171Y006763D02*
X019041Y006763D01*
X018976Y006753D02*
X018976Y006463D01*
X018976Y006608D02*
X018782Y006608D01*
X018782Y006463D02*
X018782Y006753D01*
X018388Y006753D02*
X018291Y006753D01*
X018339Y006753D02*
X018339Y006463D01*
X018291Y006463D02*
X018388Y006463D01*
X018190Y006608D02*
X018142Y006560D01*
X017996Y006560D01*
X017961Y006643D02*
X018048Y006643D01*
X018091Y006686D01*
X018048Y006730D01*
X017961Y006730D01*
X017996Y006753D02*
X018142Y006753D01*
X018190Y006705D01*
X018190Y006608D01*
X018113Y006790D02*
X018113Y006877D01*
X018091Y006938D02*
X018091Y007003D01*
X018069Y007024D01*
X018048Y007024D01*
X018026Y007003D01*
X018026Y006938D01*
X018026Y007003D02*
X018004Y007024D01*
X017983Y007024D01*
X017961Y007003D01*
X017961Y006938D01*
X018091Y006938D01*
X018091Y007085D02*
X018004Y007085D01*
X017961Y007128D01*
X018004Y007172D01*
X018091Y007172D01*
X018026Y007172D02*
X018026Y007085D01*
X017961Y007232D02*
X017961Y007319D01*
X017961Y007276D02*
X018091Y007276D01*
X018091Y007423D02*
X017961Y007423D01*
X017961Y007380D02*
X017961Y007466D01*
X017996Y006753D02*
X017996Y006463D01*
X017895Y006511D02*
X017847Y006463D01*
X017750Y006463D01*
X017702Y006511D01*
X017750Y006608D02*
X017847Y006608D01*
X017895Y006560D01*
X017895Y006511D01*
X017750Y006608D02*
X017702Y006657D01*
X017702Y006705D01*
X017750Y006753D01*
X017847Y006753D01*
X017895Y006705D01*
X019616Y006705D02*
X019665Y006753D01*
X020501Y006608D02*
X020549Y006657D01*
X020694Y006657D01*
X020694Y006753D02*
X020694Y006463D01*
X020549Y006463D01*
X020501Y006511D01*
X020501Y006608D01*
X020796Y006608D02*
X020796Y006511D01*
X020844Y006463D01*
X020989Y006463D01*
X020989Y006415D02*
X020989Y006657D01*
X020844Y006657D01*
X020796Y006608D01*
X020892Y006366D02*
X020941Y006366D01*
X020989Y006415D01*
X021090Y006511D02*
X021090Y006608D01*
X021139Y006657D01*
X021235Y006657D01*
X021284Y006608D01*
X021284Y006560D01*
X021090Y006560D01*
X021090Y006511D02*
X021139Y006463D01*
X021235Y006463D01*
X021680Y006463D02*
X021873Y006463D01*
X021974Y006463D02*
X021974Y006657D01*
X022119Y006657D01*
X022168Y006608D01*
X022168Y006463D01*
X022269Y006511D02*
X022317Y006560D01*
X022462Y006560D01*
X022462Y006608D02*
X022462Y006463D01*
X022317Y006463D01*
X022269Y006511D01*
X022317Y006657D02*
X022414Y006657D01*
X022462Y006608D01*
X022563Y006657D02*
X022709Y006657D01*
X022757Y006608D01*
X022757Y006511D01*
X022709Y006463D01*
X022563Y006463D01*
X022563Y006753D01*
X022858Y006753D02*
X022907Y006753D01*
X022907Y006463D01*
X022955Y006463D02*
X022858Y006463D01*
X023055Y006511D02*
X023055Y006608D01*
X023103Y006657D01*
X023200Y006657D01*
X023248Y006608D01*
X023248Y006560D01*
X023055Y006560D01*
X023055Y006511D02*
X023103Y006463D01*
X023200Y006463D01*
X021873Y006753D02*
X021680Y006753D01*
X021680Y006463D01*
X021680Y006608D02*
X021776Y006608D01*
X021151Y006965D02*
X021129Y006943D01*
X021151Y006965D02*
X021151Y007008D01*
X021129Y007030D01*
X021108Y007030D01*
X021086Y007008D01*
X021086Y006986D01*
X021086Y007008D02*
X021064Y007030D01*
X021043Y007030D01*
X021021Y007008D01*
X021021Y006965D01*
X021043Y006943D01*
X021129Y007090D02*
X021129Y007112D01*
X021151Y007112D01*
X021151Y007090D01*
X021129Y007090D01*
X021129Y007164D02*
X021151Y007186D01*
X021151Y007229D01*
X021129Y007251D01*
X021108Y007251D01*
X021086Y007229D01*
X021086Y007207D01*
X021086Y007229D02*
X021064Y007251D01*
X021043Y007251D01*
X021021Y007229D01*
X021021Y007186D01*
X021043Y007164D01*
X021021Y007311D02*
X021108Y007311D01*
X021151Y007355D01*
X021108Y007398D01*
X021021Y007398D01*
X021923Y004253D02*
X021901Y004231D01*
X021901Y004210D01*
X021923Y004188D01*
X021966Y004188D01*
X021988Y004166D01*
X021988Y004145D01*
X021966Y004123D01*
X021923Y004123D01*
X021901Y004145D01*
X021923Y004253D02*
X021966Y004253D01*
X021988Y004231D01*
X022048Y004253D02*
X022114Y004253D01*
X022135Y004231D01*
X022135Y004188D01*
X022114Y004166D01*
X022048Y004166D01*
X022048Y004123D02*
X022048Y004253D01*
X022196Y004253D02*
X022239Y004253D01*
X022217Y004253D02*
X022217Y004123D01*
X022196Y004123D02*
X022239Y004123D01*
X022441Y004123D02*
X022506Y004123D01*
X022528Y004145D01*
X022528Y004231D01*
X022506Y004253D01*
X022441Y004253D01*
X022441Y004123D01*
X022589Y004123D02*
X022589Y004210D01*
X022632Y004210D02*
X022654Y004210D01*
X022632Y004210D02*
X022589Y004166D01*
X022711Y004210D02*
X022755Y004123D01*
X022798Y004210D01*
X023006Y004210D02*
X023093Y004123D01*
X023093Y004166D02*
X023049Y004123D01*
X023028Y004123D01*
X023006Y004145D01*
X023006Y004166D01*
X023049Y004210D01*
X023049Y004231D01*
X023028Y004253D01*
X023006Y004231D01*
X023006Y004210D01*
X023301Y004188D02*
X023344Y004188D01*
X023301Y004123D02*
X023387Y004123D01*
X023448Y004123D02*
X023448Y004210D01*
X023513Y004210D01*
X023535Y004188D01*
X023535Y004123D01*
X023595Y004145D02*
X023617Y004123D01*
X023682Y004123D01*
X023682Y004210D02*
X023617Y004210D01*
X023595Y004188D01*
X023595Y004145D01*
X023387Y004253D02*
X023301Y004253D01*
X023301Y004123D01*
X023890Y004253D02*
X023977Y004253D01*
X023933Y004253D02*
X023933Y004123D01*
X024037Y004123D02*
X024081Y004123D01*
X024059Y004123D02*
X024059Y004210D01*
X024037Y004210D01*
X024059Y004253D02*
X024059Y004275D01*
X024136Y004188D02*
X024157Y004210D01*
X024201Y004210D01*
X024222Y004188D01*
X024222Y004166D01*
X024136Y004166D01*
X024136Y004145D02*
X024136Y004188D01*
X024136Y004145D02*
X024157Y004123D01*
X024201Y004123D01*
X024283Y004188D02*
X024370Y004188D01*
X024430Y004210D02*
X024452Y004210D01*
X024452Y004123D01*
X024430Y004123D02*
X024474Y004123D01*
X024528Y004123D02*
X024528Y004210D01*
X024593Y004210D01*
X024615Y004188D01*
X024615Y004123D01*
X024452Y004253D02*
X024452Y004275D01*
X045341Y016819D02*
X045341Y017004D01*
X045403Y017066D01*
X045526Y017066D01*
X045588Y017004D01*
X045588Y016819D01*
X045711Y016819D02*
X045341Y016819D01*
X045588Y016943D02*
X045711Y017066D01*
X045649Y017187D02*
X045711Y017249D01*
X045711Y017373D01*
X045649Y017434D01*
X045588Y017434D01*
X045526Y017373D01*
X045526Y017249D01*
X045464Y017187D01*
X045403Y017187D01*
X045341Y017249D01*
X045341Y017373D01*
X045403Y017434D01*
X045341Y017556D02*
X045341Y017803D01*
X045341Y017679D02*
X045711Y017679D01*
X045649Y018205D02*
X045711Y018267D01*
X045711Y018390D01*
X045649Y018452D01*
X045588Y018452D01*
X045526Y018390D01*
X045526Y018329D01*
X045526Y018390D02*
X045464Y018452D01*
X045403Y018452D01*
X045341Y018390D01*
X045341Y018267D01*
X045403Y018205D01*
X045464Y018573D02*
X045711Y018697D01*
X045464Y018820D01*
X045526Y019305D02*
X045341Y019305D01*
X045341Y019552D01*
X045464Y019490D02*
X045526Y019552D01*
X045649Y019552D01*
X045711Y019490D01*
X045711Y019367D01*
X045649Y019305D01*
X045526Y019305D02*
X045464Y019429D01*
X045464Y019490D01*
X045464Y019673D02*
X045711Y019797D01*
X045464Y019920D01*
X045403Y020577D02*
X045649Y020577D01*
X045711Y020639D01*
X045711Y020762D01*
X045649Y020824D01*
X045526Y020824D01*
X045526Y020700D01*
X045403Y020577D02*
X045341Y020639D01*
X045341Y020762D01*
X045403Y020824D01*
X045464Y020945D02*
X045464Y021131D01*
X045526Y021192D01*
X045711Y021192D01*
X045649Y021314D02*
X045526Y021314D01*
X045464Y021375D01*
X045464Y021561D01*
X045341Y021561D02*
X045711Y021561D01*
X045711Y021375D01*
X045649Y021314D01*
X045711Y020945D02*
X045464Y020945D01*
X045341Y022155D02*
X045588Y022155D01*
X045711Y022279D01*
X045588Y022402D01*
X045341Y022402D01*
X045464Y022523D02*
X045464Y022585D01*
X045711Y022585D01*
X045711Y022523D02*
X045711Y022647D01*
X045711Y022769D02*
X045464Y022769D01*
X045464Y022954D01*
X045526Y023016D01*
X045711Y023016D01*
X045341Y022585D02*
X045279Y022585D01*
X045403Y024373D02*
X045341Y024435D01*
X045341Y024558D01*
X045403Y024620D01*
X045649Y024373D01*
X045711Y024435D01*
X045711Y024558D01*
X045649Y024620D01*
X045403Y024620D01*
X045403Y024373D02*
X045649Y024373D01*
X045711Y025373D02*
X045711Y025620D01*
X045711Y025497D02*
X045341Y025497D01*
X045464Y025373D01*
X046659Y025950D02*
X046782Y026074D01*
X047029Y026074D01*
X047029Y026195D02*
X046782Y026195D01*
X046782Y026381D01*
X046844Y026442D01*
X047029Y026442D01*
X046967Y026564D02*
X046906Y026625D01*
X046906Y026811D01*
X046844Y026811D02*
X047029Y026811D01*
X047029Y026625D01*
X046967Y026564D01*
X046782Y026625D02*
X046782Y026749D01*
X046844Y026811D01*
X047029Y026932D02*
X047029Y027055D01*
X047029Y026994D02*
X046659Y026994D01*
X046659Y026932D01*
X046844Y027178D02*
X046967Y027178D01*
X047029Y027239D01*
X047029Y027363D01*
X046967Y027424D01*
X046844Y027424D01*
X046782Y027363D01*
X046782Y027239D01*
X046844Y027178D01*
X046844Y027546D02*
X046967Y027546D01*
X047029Y027608D01*
X047029Y027793D01*
X047091Y027793D02*
X046782Y027793D01*
X046782Y027608D01*
X046844Y027546D01*
X047153Y027669D02*
X047153Y027731D01*
X047091Y027793D01*
X047029Y028282D02*
X047029Y028406D01*
X047029Y028344D02*
X046659Y028344D01*
X046659Y028282D02*
X046659Y028406D01*
X046782Y028528D02*
X046782Y028713D01*
X046844Y028775D01*
X047029Y028775D01*
X047029Y028528D02*
X046782Y028528D01*
X045711Y028558D02*
X045341Y028558D01*
X045526Y028373D01*
X045526Y028620D01*
X045526Y029373D02*
X045341Y029373D01*
X045341Y029620D01*
X045464Y029558D02*
X045526Y029620D01*
X045649Y029620D01*
X045711Y029558D01*
X045711Y029435D01*
X045649Y029373D01*
X045526Y029373D02*
X045464Y029497D01*
X045464Y029558D01*
X045403Y027620D02*
X045464Y027620D01*
X045526Y027558D01*
X045588Y027620D01*
X045649Y027620D01*
X045711Y027558D01*
X045711Y027435D01*
X045649Y027373D01*
X045526Y027497D02*
X045526Y027558D01*
X045403Y027620D02*
X045341Y027558D01*
X045341Y027435D01*
X045403Y027373D01*
X045403Y026620D02*
X045341Y026558D01*
X045341Y026435D01*
X045403Y026373D01*
X045403Y026620D02*
X045464Y026620D01*
X045711Y026373D01*
X045711Y026620D01*
X046659Y025950D02*
X046782Y025827D01*
X047029Y025827D01*
X046844Y025827D02*
X046844Y026074D01*
D13*
X020609Y012558D02*
X020535Y012558D01*
X020572Y012558D02*
X020572Y012338D01*
X020535Y012338D02*
X020609Y012338D01*
X020461Y012301D02*
X020314Y012301D01*
X020240Y012375D02*
X020203Y012338D01*
X020130Y012338D01*
X020093Y012375D01*
X020093Y012522D01*
X020130Y012558D01*
X020203Y012558D01*
X020240Y012522D01*
X019798Y012448D02*
X019798Y012338D01*
X019798Y012448D02*
X019761Y012485D01*
X019651Y012485D01*
X019651Y012338D01*
X019577Y012338D02*
X019504Y012338D01*
X019541Y012338D02*
X019541Y012485D01*
X019504Y012485D01*
X019541Y012558D02*
X019541Y012595D01*
X019430Y012448D02*
X019283Y012448D01*
X019209Y012448D02*
X019209Y012411D01*
X019062Y012411D01*
X019062Y012375D02*
X019062Y012448D01*
X019099Y012485D01*
X019172Y012485D01*
X019209Y012448D01*
X019172Y012338D02*
X019099Y012338D01*
X019062Y012375D01*
X018988Y012338D02*
X018915Y012338D01*
X018951Y012338D02*
X018951Y012485D01*
X018915Y012485D01*
X018951Y012558D02*
X018951Y012595D01*
X018840Y012558D02*
X018694Y012558D01*
X018767Y012558D02*
X018767Y012338D01*
X015860Y011106D02*
X015824Y011143D01*
X015750Y011143D01*
X015713Y011106D01*
X015713Y011069D01*
X015750Y011033D01*
X015860Y011033D01*
X015860Y011106D02*
X015860Y010959D01*
X015824Y010922D01*
X015750Y010922D01*
X015713Y010959D01*
X015639Y010959D02*
X015603Y010922D01*
X015529Y010922D01*
X015492Y010959D01*
X015492Y011106D01*
X015529Y011143D01*
X015603Y011143D01*
X015639Y011106D01*
X015639Y010959D01*
X015639Y010922D02*
X015566Y010996D01*
X014607Y009938D02*
X014548Y009938D01*
X014519Y009909D01*
X014455Y009909D02*
X014426Y009938D01*
X014367Y009938D01*
X014337Y009909D01*
X014337Y009791D01*
X014367Y009761D01*
X014426Y009761D01*
X014455Y009791D01*
X014519Y009761D02*
X014637Y009879D01*
X014637Y009909D01*
X014607Y009938D01*
X014637Y009761D02*
X014519Y009761D01*
X014473Y009694D02*
X014473Y009664D01*
X014355Y009546D01*
X014355Y009517D01*
X014292Y009546D02*
X014263Y009517D01*
X014204Y009517D01*
X014174Y009546D01*
X014111Y009517D02*
X013993Y009517D01*
X014111Y009635D01*
X014111Y009664D01*
X014081Y009694D01*
X014022Y009694D01*
X013993Y009664D01*
X013930Y009635D02*
X013871Y009694D01*
X013812Y009635D01*
X013812Y009517D01*
X013812Y009605D02*
X013930Y009605D01*
X013930Y009635D02*
X013930Y009517D01*
X013748Y009605D02*
X013719Y009576D01*
X013630Y009576D01*
X013630Y009517D02*
X013630Y009694D01*
X013719Y009694D01*
X013748Y009664D01*
X013748Y009605D01*
X013567Y009546D02*
X013567Y009664D01*
X013537Y009694D01*
X013478Y009694D01*
X013449Y009664D01*
X013449Y009546D01*
X013478Y009517D01*
X013537Y009517D01*
X013567Y009546D01*
X014174Y009664D02*
X014204Y009694D01*
X014263Y009694D01*
X014292Y009664D01*
X014292Y009635D01*
X014263Y009605D01*
X014292Y009576D01*
X014292Y009546D01*
X014263Y009605D02*
X014233Y009605D01*
X014355Y009694D02*
X014473Y009694D01*
X014537Y009605D02*
X014625Y009694D01*
X014625Y009517D01*
X014655Y009605D02*
X014537Y009605D01*
X014276Y009761D02*
X014217Y009761D01*
X014246Y009761D02*
X014246Y009938D01*
X014217Y009938D02*
X014276Y009938D01*
X013673Y010966D02*
X013673Y011113D01*
X013600Y011186D01*
X013526Y011113D01*
X013526Y010966D01*
X013452Y011003D02*
X013415Y010966D01*
X013342Y010966D01*
X013305Y011003D01*
X013305Y011039D01*
X013342Y011076D01*
X013415Y011076D01*
X013452Y011039D01*
X013452Y011003D01*
X013415Y011076D02*
X013452Y011113D01*
X013452Y011149D01*
X013415Y011186D01*
X013342Y011186D01*
X013305Y011149D01*
X013305Y011113D01*
X013342Y011076D01*
X013231Y011039D02*
X013231Y011003D01*
X013194Y010966D01*
X013121Y010966D01*
X013084Y011003D01*
X013084Y011039D01*
X013121Y011076D01*
X013194Y011076D01*
X013231Y011039D01*
X013194Y011076D02*
X013231Y011113D01*
X013231Y011149D01*
X013194Y011186D01*
X013121Y011186D01*
X013084Y011149D01*
X013084Y011113D01*
X013121Y011076D01*
X013010Y011039D02*
X013010Y011003D01*
X012973Y010966D01*
X012900Y010966D01*
X012863Y011003D01*
X012789Y011003D02*
X012753Y010966D01*
X012679Y010966D01*
X012642Y011003D01*
X012679Y011076D02*
X012753Y011076D01*
X012789Y011039D01*
X012789Y011003D01*
X012679Y011076D02*
X012642Y011113D01*
X012642Y011149D01*
X012679Y011186D01*
X012753Y011186D01*
X012789Y011149D01*
X012863Y011149D02*
X012900Y011186D01*
X012973Y011186D01*
X013010Y011149D01*
X013010Y011113D01*
X012973Y011076D01*
X013010Y011039D01*
X012973Y011076D02*
X012937Y011076D01*
X012568Y011076D02*
X012568Y011149D01*
X012532Y011186D01*
X012421Y011186D01*
X012421Y010966D01*
X012421Y011039D02*
X012532Y011039D01*
X012568Y011076D01*
X012347Y010966D02*
X012200Y010966D01*
X012200Y011186D01*
X012126Y011149D02*
X012090Y011186D01*
X012016Y011186D01*
X011979Y011149D01*
X011979Y011113D01*
X012016Y011076D01*
X012090Y011076D01*
X012126Y011039D01*
X012126Y011003D01*
X012090Y010966D01*
X012016Y010966D01*
X011979Y011003D01*
X013526Y011076D02*
X013673Y011076D01*
X014302Y014190D02*
X014265Y014227D01*
X014302Y014190D02*
X014375Y014190D01*
X014412Y014227D01*
X014412Y014264D01*
X014375Y014300D01*
X014302Y014300D01*
X014265Y014337D01*
X014265Y014374D01*
X014302Y014410D01*
X014375Y014410D01*
X014412Y014374D01*
X014486Y014410D02*
X014486Y014190D01*
X014633Y014190D01*
X014707Y014190D02*
X014707Y014410D01*
X014817Y014410D01*
X014854Y014374D01*
X014854Y014300D01*
X014817Y014264D01*
X014707Y014264D01*
X014928Y014227D02*
X014965Y014190D01*
X015038Y014190D01*
X015075Y014227D01*
X015075Y014264D01*
X015038Y014300D01*
X014965Y014300D01*
X014928Y014337D01*
X014928Y014374D01*
X014965Y014410D01*
X015038Y014410D01*
X015075Y014374D01*
X015149Y014374D02*
X015186Y014410D01*
X015259Y014410D01*
X015296Y014374D01*
X015296Y014337D01*
X015259Y014300D01*
X015296Y014264D01*
X015296Y014227D01*
X015259Y014190D01*
X015186Y014190D01*
X015149Y014227D01*
X015222Y014300D02*
X015259Y014300D01*
X015370Y014264D02*
X015407Y014300D01*
X015480Y014300D01*
X015517Y014264D01*
X015517Y014227D01*
X015480Y014190D01*
X015407Y014190D01*
X015370Y014227D01*
X015370Y014264D01*
X015407Y014300D02*
X015370Y014337D01*
X015370Y014374D01*
X015407Y014410D01*
X015480Y014410D01*
X015517Y014374D01*
X015517Y014337D01*
X015480Y014300D01*
X015591Y014264D02*
X015628Y014300D01*
X015701Y014300D01*
X015738Y014264D01*
X015738Y014227D01*
X015701Y014190D01*
X015628Y014190D01*
X015591Y014227D01*
X015591Y014264D01*
X015628Y014300D02*
X015591Y014337D01*
X015591Y014374D01*
X015628Y014410D01*
X015701Y014410D01*
X015738Y014374D01*
X015738Y014337D01*
X015701Y014300D01*
X015812Y014300D02*
X015959Y014300D01*
X015959Y014337D02*
X015959Y014190D01*
X015959Y014337D02*
X015885Y014410D01*
X015812Y014337D01*
X015812Y014190D01*
X015824Y014682D02*
X015750Y014682D01*
X015713Y014719D01*
X015713Y014756D01*
X015750Y014793D01*
X015824Y014793D01*
X015860Y014756D01*
X015860Y014719D01*
X015824Y014682D01*
X015824Y014793D02*
X015860Y014829D01*
X015860Y014866D01*
X015824Y014903D01*
X015750Y014903D01*
X015713Y014866D01*
X015713Y014829D01*
X015750Y014793D01*
X015639Y014866D02*
X015639Y014719D01*
X015603Y014682D01*
X015529Y014682D01*
X015492Y014719D01*
X015492Y014866D01*
X015529Y014903D01*
X015603Y014903D01*
X015639Y014866D01*
X015566Y014756D02*
X015639Y014682D01*
X013733Y014826D02*
X013733Y014973D01*
X013660Y015046D01*
X013586Y014973D01*
X013586Y014826D01*
X013512Y014863D02*
X013475Y014826D01*
X013402Y014826D01*
X013365Y014863D01*
X013365Y014899D01*
X013402Y014936D01*
X013475Y014936D01*
X013512Y014899D01*
X013512Y014863D01*
X013475Y014936D02*
X013512Y014973D01*
X013512Y015009D01*
X013475Y015046D01*
X013402Y015046D01*
X013365Y015009D01*
X013365Y014973D01*
X013402Y014936D01*
X013291Y014899D02*
X013291Y014863D01*
X013254Y014826D01*
X013181Y014826D01*
X013144Y014863D01*
X013144Y014899D01*
X013181Y014936D01*
X013254Y014936D01*
X013291Y014899D01*
X013254Y014936D02*
X013291Y014973D01*
X013291Y015009D01*
X013254Y015046D01*
X013181Y015046D01*
X013144Y015009D01*
X013144Y014973D01*
X013181Y014936D01*
X013070Y014899D02*
X013070Y014863D01*
X013033Y014826D01*
X012960Y014826D01*
X012923Y014863D01*
X012849Y014863D02*
X012813Y014826D01*
X012739Y014826D01*
X012702Y014863D01*
X012739Y014936D02*
X012813Y014936D01*
X012849Y014899D01*
X012849Y014863D01*
X012739Y014936D02*
X012702Y014973D01*
X012702Y015009D01*
X012739Y015046D01*
X012813Y015046D01*
X012849Y015009D01*
X012923Y015009D02*
X012960Y015046D01*
X013033Y015046D01*
X013070Y015009D01*
X013070Y014973D01*
X013033Y014936D01*
X013070Y014899D01*
X013033Y014936D02*
X012997Y014936D01*
X012628Y014936D02*
X012592Y014899D01*
X012481Y014899D01*
X012481Y014826D02*
X012481Y015046D01*
X012592Y015046D01*
X012628Y015009D01*
X012628Y014936D01*
X012407Y014826D02*
X012260Y014826D01*
X012260Y015046D01*
X012186Y015009D02*
X012150Y015046D01*
X012076Y015046D01*
X012039Y015009D01*
X012039Y014973D01*
X012076Y014936D01*
X012150Y014936D01*
X012186Y014899D01*
X012186Y014863D01*
X012150Y014826D01*
X012076Y014826D01*
X012039Y014863D01*
X012115Y014454D02*
X012078Y014417D01*
X012078Y014270D01*
X012115Y014234D01*
X012188Y014234D01*
X012225Y014270D01*
X012225Y014417D01*
X012188Y014454D01*
X012115Y014454D01*
X012151Y014307D02*
X012225Y014234D01*
X012299Y014270D02*
X012336Y014234D01*
X012409Y014234D01*
X012446Y014270D01*
X012446Y014307D01*
X012409Y014344D01*
X012299Y014344D01*
X012299Y014270D01*
X012299Y014344D02*
X012372Y014417D01*
X012446Y014454D01*
X013586Y014936D02*
X013733Y014936D01*
X014302Y017950D02*
X014265Y017987D01*
X014302Y017950D02*
X014375Y017950D01*
X014412Y017987D01*
X014412Y018024D01*
X014375Y018060D01*
X014302Y018060D01*
X014265Y018097D01*
X014265Y018134D01*
X014302Y018170D01*
X014375Y018170D01*
X014412Y018134D01*
X014486Y018170D02*
X014486Y017950D01*
X014633Y017950D01*
X014707Y017950D02*
X014707Y018170D01*
X014817Y018170D01*
X014854Y018134D01*
X014854Y018060D01*
X014817Y018024D01*
X014707Y018024D01*
X014928Y017987D02*
X014965Y017950D01*
X015038Y017950D01*
X015075Y017987D01*
X015075Y018024D01*
X015038Y018060D01*
X014965Y018060D01*
X014928Y018097D01*
X014928Y018134D01*
X014965Y018170D01*
X015038Y018170D01*
X015075Y018134D01*
X015149Y018134D02*
X015186Y018170D01*
X015259Y018170D01*
X015296Y018134D01*
X015296Y018097D01*
X015259Y018060D01*
X015296Y018024D01*
X015296Y017987D01*
X015259Y017950D01*
X015186Y017950D01*
X015149Y017987D01*
X015222Y018060D02*
X015259Y018060D01*
X015370Y018024D02*
X015407Y018060D01*
X015480Y018060D01*
X015517Y018024D01*
X015517Y017987D01*
X015480Y017950D01*
X015407Y017950D01*
X015370Y017987D01*
X015370Y018024D01*
X015407Y018060D02*
X015370Y018097D01*
X015370Y018134D01*
X015407Y018170D01*
X015480Y018170D01*
X015517Y018134D01*
X015517Y018097D01*
X015480Y018060D01*
X015591Y018024D02*
X015628Y018060D01*
X015701Y018060D01*
X015738Y018024D01*
X015738Y017987D01*
X015701Y017950D01*
X015628Y017950D01*
X015591Y017987D01*
X015591Y018024D01*
X015628Y018060D02*
X015591Y018097D01*
X015591Y018134D01*
X015628Y018170D01*
X015701Y018170D01*
X015738Y018134D01*
X015738Y018097D01*
X015701Y018060D01*
X015812Y018060D02*
X015959Y018060D01*
X015959Y018097D02*
X015959Y017950D01*
X015959Y018097D02*
X015885Y018170D01*
X015812Y018097D01*
X015812Y017950D01*
X015609Y018458D02*
X015535Y018458D01*
X015572Y018458D02*
X015572Y018678D01*
X015535Y018678D02*
X015609Y018678D01*
X015593Y018742D02*
X015593Y018779D01*
X015740Y018926D01*
X015740Y018963D01*
X015593Y018963D01*
X015519Y018926D02*
X015483Y018963D01*
X015409Y018963D01*
X015372Y018926D01*
X015372Y018779D01*
X015409Y018742D01*
X015483Y018742D01*
X015519Y018779D01*
X015519Y018926D01*
X015446Y018816D02*
X015519Y018742D01*
X015240Y018642D02*
X015240Y018605D01*
X015203Y018568D01*
X015093Y018568D01*
X015093Y018458D02*
X015093Y018678D01*
X015203Y018678D01*
X015240Y018642D01*
X015203Y018568D02*
X015240Y018531D01*
X015240Y018495D01*
X015203Y018458D01*
X015093Y018458D01*
X015314Y018421D02*
X015461Y018421D01*
X014798Y018458D02*
X014798Y018568D01*
X014761Y018605D01*
X014651Y018605D01*
X014651Y018458D01*
X014577Y018458D02*
X014504Y018458D01*
X014541Y018458D02*
X014541Y018605D01*
X014504Y018605D01*
X014541Y018678D02*
X014541Y018715D01*
X014209Y018568D02*
X014209Y018531D01*
X014062Y018531D01*
X014062Y018495D02*
X014062Y018568D01*
X014099Y018605D01*
X014172Y018605D01*
X014209Y018568D01*
X014172Y018458D02*
X014099Y018458D01*
X014062Y018495D01*
X013988Y018458D02*
X013915Y018458D01*
X013951Y018458D02*
X013951Y018605D01*
X013915Y018605D01*
X013951Y018678D02*
X013951Y018715D01*
X013840Y018678D02*
X013694Y018678D01*
X013767Y018678D02*
X013767Y018458D01*
X013793Y018746D02*
X013793Y018893D01*
X013720Y018966D01*
X013646Y018893D01*
X013646Y018746D01*
X013572Y018783D02*
X013535Y018746D01*
X013462Y018746D01*
X013425Y018783D01*
X013425Y018819D01*
X013462Y018856D01*
X013535Y018856D01*
X013572Y018819D01*
X013572Y018783D01*
X013535Y018856D02*
X013572Y018893D01*
X013572Y018929D01*
X013535Y018966D01*
X013462Y018966D01*
X013425Y018929D01*
X013425Y018893D01*
X013462Y018856D01*
X013351Y018819D02*
X013351Y018783D01*
X013314Y018746D01*
X013241Y018746D01*
X013204Y018783D01*
X013204Y018819D01*
X013241Y018856D01*
X013314Y018856D01*
X013351Y018819D01*
X013314Y018856D02*
X013351Y018893D01*
X013351Y018929D01*
X013314Y018966D01*
X013241Y018966D01*
X013204Y018929D01*
X013204Y018893D01*
X013241Y018856D01*
X013130Y018819D02*
X013130Y018783D01*
X013093Y018746D01*
X013020Y018746D01*
X012983Y018783D01*
X012909Y018783D02*
X012873Y018746D01*
X012799Y018746D01*
X012762Y018783D01*
X012799Y018856D02*
X012873Y018856D01*
X012909Y018819D01*
X012909Y018783D01*
X012799Y018856D02*
X012762Y018893D01*
X012762Y018929D01*
X012799Y018966D01*
X012873Y018966D01*
X012909Y018929D01*
X012983Y018929D02*
X013020Y018966D01*
X013093Y018966D01*
X013130Y018929D01*
X013130Y018893D01*
X013093Y018856D01*
X013130Y018819D01*
X013093Y018856D02*
X013057Y018856D01*
X012688Y018856D02*
X012652Y018819D01*
X012541Y018819D01*
X012541Y018746D02*
X012541Y018966D01*
X012652Y018966D01*
X012688Y018929D01*
X012688Y018856D01*
X012467Y018746D02*
X012320Y018746D01*
X012320Y018966D01*
X012246Y018929D02*
X012210Y018966D01*
X012136Y018966D01*
X012099Y018929D01*
X012099Y018893D01*
X012136Y018856D01*
X012210Y018856D01*
X012246Y018819D01*
X012246Y018783D01*
X012210Y018746D01*
X012136Y018746D01*
X012099Y018783D01*
X012175Y018314D02*
X012248Y018314D01*
X012285Y018277D01*
X012285Y018130D01*
X012248Y018094D01*
X012175Y018094D01*
X012138Y018130D01*
X012138Y018277D01*
X012175Y018314D01*
X012211Y018167D02*
X012285Y018094D01*
X012359Y018130D02*
X012396Y018094D01*
X012469Y018094D01*
X012506Y018130D01*
X012506Y018204D01*
X012469Y018240D01*
X012432Y018240D01*
X012359Y018204D01*
X012359Y018314D01*
X012506Y018314D01*
X013646Y018856D02*
X013793Y018856D01*
X014182Y022010D02*
X014145Y022047D01*
X014182Y022010D02*
X014255Y022010D01*
X014292Y022047D01*
X014292Y022084D01*
X014255Y022120D01*
X014182Y022120D01*
X014145Y022157D01*
X014145Y022194D01*
X014182Y022230D01*
X014255Y022230D01*
X014292Y022194D01*
X014366Y022230D02*
X014366Y022010D01*
X014513Y022010D01*
X014587Y022010D02*
X014587Y022230D01*
X014697Y022230D01*
X014734Y022194D01*
X014734Y022120D01*
X014697Y022084D01*
X014587Y022084D01*
X014808Y022047D02*
X014845Y022010D01*
X014918Y022010D01*
X014955Y022047D01*
X014955Y022084D01*
X014918Y022120D01*
X014845Y022120D01*
X014808Y022157D01*
X014808Y022194D01*
X014845Y022230D01*
X014918Y022230D01*
X014955Y022194D01*
X015029Y022194D02*
X015066Y022230D01*
X015139Y022230D01*
X015176Y022194D01*
X015176Y022157D01*
X015139Y022120D01*
X015176Y022084D01*
X015176Y022047D01*
X015139Y022010D01*
X015066Y022010D01*
X015029Y022047D01*
X015102Y022120D02*
X015139Y022120D01*
X015250Y022084D02*
X015287Y022120D01*
X015360Y022120D01*
X015397Y022084D01*
X015397Y022047D01*
X015360Y022010D01*
X015287Y022010D01*
X015250Y022047D01*
X015250Y022084D01*
X015287Y022120D02*
X015250Y022157D01*
X015250Y022194D01*
X015287Y022230D01*
X015360Y022230D01*
X015397Y022194D01*
X015397Y022157D01*
X015360Y022120D01*
X015471Y022084D02*
X015508Y022120D01*
X015581Y022120D01*
X015618Y022084D01*
X015618Y022047D01*
X015581Y022010D01*
X015508Y022010D01*
X015471Y022047D01*
X015471Y022084D01*
X015508Y022120D02*
X015471Y022157D01*
X015471Y022194D01*
X015508Y022230D01*
X015581Y022230D01*
X015618Y022194D01*
X015618Y022157D01*
X015581Y022120D01*
X015692Y022120D02*
X015839Y022120D01*
X015839Y022157D02*
X015839Y022010D01*
X015839Y022157D02*
X015765Y022230D01*
X015692Y022157D01*
X015692Y022010D01*
X012566Y022124D02*
X012419Y022124D01*
X012529Y022234D01*
X012529Y022014D01*
X012345Y022014D02*
X012271Y022087D01*
X012235Y022014D02*
X012198Y022050D01*
X012198Y022197D01*
X012235Y022234D01*
X012308Y022234D01*
X012345Y022197D01*
X012345Y022050D01*
X012308Y022014D01*
X012235Y022014D01*
X016506Y028585D02*
X016542Y028585D01*
X016579Y028621D01*
X016579Y028805D01*
X016653Y028805D02*
X016653Y028585D01*
X016653Y028658D02*
X016763Y028658D01*
X016800Y028695D01*
X016800Y028768D01*
X016763Y028805D01*
X016653Y028805D01*
X016579Y028658D02*
X016469Y028658D01*
X016432Y028695D01*
X016432Y028805D01*
X016358Y028805D02*
X016321Y028768D01*
X016211Y028768D01*
X016211Y028658D02*
X016321Y028658D01*
X016358Y028695D01*
X016358Y028731D01*
X016321Y028768D01*
X016358Y028805D02*
X016358Y028842D01*
X016321Y028878D01*
X016211Y028878D01*
X016211Y028658D01*
X015916Y028731D02*
X015916Y028878D01*
X015916Y028731D02*
X015843Y028658D01*
X015769Y028731D01*
X015769Y028878D01*
X015695Y028842D02*
X015695Y028805D01*
X015658Y028768D01*
X015695Y028731D01*
X015695Y028695D01*
X015658Y028658D01*
X015585Y028658D01*
X015548Y028695D01*
X015474Y028695D02*
X015474Y028658D01*
X015438Y028658D01*
X015438Y028695D01*
X015474Y028695D01*
X015364Y028695D02*
X015327Y028658D01*
X015253Y028658D01*
X015217Y028695D01*
X015290Y028768D02*
X015327Y028768D01*
X015364Y028731D01*
X015364Y028695D01*
X015327Y028768D02*
X015364Y028805D01*
X015364Y028842D01*
X015327Y028878D01*
X015253Y028878D01*
X015217Y028842D01*
X015548Y028842D02*
X015585Y028878D01*
X015658Y028878D01*
X015695Y028842D01*
X015658Y028768D02*
X015622Y028768D01*
X015699Y030001D02*
X015845Y030001D01*
X015920Y030038D02*
X016030Y030038D01*
X016066Y030075D01*
X016066Y030111D01*
X016030Y030148D01*
X015920Y030148D01*
X016030Y030148D02*
X016066Y030185D01*
X016066Y030222D01*
X016030Y030258D01*
X015920Y030258D01*
X015920Y030038D01*
X016141Y030075D02*
X016177Y030038D01*
X016287Y030038D01*
X016287Y030001D02*
X016251Y029965D01*
X016214Y029965D01*
X016287Y030001D02*
X016287Y030185D01*
X016362Y030185D02*
X016472Y030185D01*
X016508Y030148D01*
X016508Y030075D01*
X016472Y030038D01*
X016362Y030038D01*
X016362Y029965D02*
X016362Y030185D01*
X016141Y030185D02*
X016141Y030075D01*
X016583Y030075D02*
X016619Y030111D01*
X016729Y030111D01*
X016729Y030148D02*
X016729Y030038D01*
X016619Y030038D01*
X016583Y030075D01*
X016619Y030185D02*
X016693Y030185D01*
X016729Y030148D01*
X016804Y030148D02*
X016840Y030185D01*
X016950Y030185D01*
X016914Y030111D02*
X016840Y030111D01*
X016804Y030148D01*
X016804Y030038D02*
X016914Y030038D01*
X016950Y030075D01*
X016914Y030111D01*
X017025Y030148D02*
X017061Y030185D01*
X017171Y030185D01*
X017135Y030111D02*
X017171Y030075D01*
X017135Y030038D01*
X017025Y030038D01*
X017061Y030111D02*
X017025Y030148D01*
X017061Y030111D02*
X017135Y030111D01*
X017246Y030001D02*
X017392Y030001D01*
X017467Y030075D02*
X017503Y030038D01*
X017577Y030038D01*
X017613Y030075D01*
X017613Y030111D01*
X017577Y030148D01*
X017503Y030148D01*
X017467Y030185D01*
X017467Y030222D01*
X017503Y030258D01*
X017577Y030258D01*
X017613Y030222D01*
X017688Y030148D02*
X017688Y030075D01*
X017724Y030038D01*
X017798Y030038D01*
X017834Y030111D02*
X017688Y030111D01*
X017688Y030148D02*
X017724Y030185D01*
X017798Y030185D01*
X017834Y030148D01*
X017834Y030111D01*
X017909Y030038D02*
X017982Y030038D01*
X017945Y030038D02*
X017945Y030258D01*
X017909Y030258D01*
X018056Y030148D02*
X018093Y030185D01*
X018166Y030185D01*
X018203Y030148D01*
X018203Y030111D01*
X018056Y030111D01*
X018056Y030075D02*
X018056Y030148D01*
X018056Y030075D02*
X018093Y030038D01*
X018166Y030038D01*
X018277Y030075D02*
X018314Y030038D01*
X018424Y030038D01*
X018535Y030075D02*
X018571Y030038D01*
X018535Y030075D02*
X018535Y030222D01*
X018571Y030185D02*
X018498Y030185D01*
X018424Y030185D02*
X018314Y030185D01*
X018277Y030148D01*
X018277Y030075D01*
X018237Y028878D02*
X018237Y028658D01*
X018273Y028658D02*
X018200Y028658D01*
X018126Y028731D02*
X017979Y028731D01*
X017979Y028695D02*
X017979Y028768D01*
X018016Y028805D01*
X018089Y028805D01*
X018126Y028768D01*
X018126Y028731D01*
X018089Y028658D02*
X018016Y028658D01*
X017979Y028695D01*
X017905Y028695D02*
X017868Y028658D01*
X017795Y028658D01*
X017758Y028695D01*
X017795Y028768D02*
X017868Y028768D01*
X017905Y028731D01*
X017905Y028695D01*
X017795Y028768D02*
X017758Y028805D01*
X017758Y028842D01*
X017795Y028878D01*
X017868Y028878D01*
X017905Y028842D01*
X018200Y028878D02*
X018237Y028878D01*
X018347Y028768D02*
X018384Y028805D01*
X018457Y028805D01*
X018494Y028768D01*
X018494Y028731D01*
X018347Y028731D01*
X018347Y028695D02*
X018347Y028768D01*
X018347Y028695D02*
X018384Y028658D01*
X018457Y028658D01*
X018568Y028695D02*
X018605Y028658D01*
X018715Y028658D01*
X018826Y028695D02*
X018863Y028658D01*
X018826Y028695D02*
X018826Y028842D01*
X018789Y028805D02*
X018863Y028805D01*
X018715Y028805D02*
X018605Y028805D01*
X018568Y028768D01*
X018568Y028695D01*
X017463Y028695D02*
X017426Y028731D01*
X017353Y028731D01*
X017316Y028768D01*
X017353Y028805D01*
X017463Y028805D01*
X017463Y028695D02*
X017426Y028658D01*
X017316Y028658D01*
X017242Y028695D02*
X017205Y028731D01*
X017132Y028731D01*
X017095Y028768D01*
X017132Y028805D01*
X017242Y028805D01*
X017242Y028695D02*
X017205Y028658D01*
X017095Y028658D01*
X017021Y028658D02*
X016911Y028658D01*
X016874Y028695D01*
X016911Y028731D01*
X017021Y028731D01*
X017021Y028768D02*
X017021Y028658D01*
X017021Y028768D02*
X016984Y028805D01*
X016911Y028805D01*
X015625Y030111D02*
X015551Y030038D01*
X015478Y030111D01*
X015478Y030258D01*
X015404Y030258D02*
X015257Y030258D01*
X015257Y030148D01*
X015330Y030185D01*
X015367Y030185D01*
X015404Y030148D01*
X015404Y030075D01*
X015367Y030038D01*
X015293Y030038D01*
X015257Y030075D01*
X015625Y030111D02*
X015625Y030258D01*
X015633Y000978D02*
X015596Y000942D01*
X015596Y000795D01*
X015633Y000758D01*
X015706Y000758D01*
X015743Y000795D01*
X015743Y000868D01*
X015670Y000868D01*
X015743Y000942D02*
X015706Y000978D01*
X015633Y000978D01*
X016038Y000978D02*
X016038Y000758D01*
X016112Y000831D01*
X016185Y000758D01*
X016185Y000978D01*
X016480Y000942D02*
X016480Y000795D01*
X016517Y000758D01*
X016590Y000758D01*
X016627Y000795D01*
X016627Y000868D01*
X016553Y000868D01*
X016480Y000942D02*
X016517Y000978D01*
X016590Y000978D01*
X016627Y000942D01*
X016922Y000978D02*
X016922Y000831D01*
X016995Y000758D01*
X017069Y000831D01*
X017069Y000978D01*
X017364Y000978D02*
X017364Y000795D01*
X017401Y000758D01*
X017474Y000758D01*
X017511Y000795D01*
X017511Y000978D01*
X017806Y000942D02*
X017843Y000978D01*
X017916Y000978D01*
X017953Y000942D01*
X017953Y000905D01*
X017916Y000868D01*
X017953Y000831D01*
X017953Y000795D01*
X017916Y000758D01*
X017843Y000758D01*
X017806Y000795D01*
X017879Y000868D02*
X017916Y000868D01*
X018027Y000795D02*
X018064Y000795D01*
X018064Y000758D01*
X018027Y000758D01*
X018027Y000795D01*
X018138Y000795D02*
X018174Y000758D01*
X018248Y000758D01*
X018284Y000795D01*
X018284Y000831D01*
X018248Y000868D01*
X018211Y000868D01*
X018248Y000868D02*
X018284Y000905D01*
X018284Y000942D01*
X018248Y000978D01*
X018174Y000978D01*
X018138Y000942D01*
D14*
X019851Y000903D02*
X019851Y000753D01*
X019951Y000753D01*
X019998Y000728D02*
X020099Y000728D01*
X020146Y000753D02*
X020146Y000903D01*
X020196Y000853D01*
X020246Y000903D01*
X020246Y000753D01*
X020293Y000753D02*
X020343Y000753D01*
X020318Y000753D02*
X020318Y000903D01*
X020293Y000903D02*
X020343Y000903D01*
X020391Y000878D02*
X020391Y000853D01*
X020416Y000828D01*
X020466Y000828D01*
X020491Y000803D01*
X020491Y000778D01*
X020466Y000753D01*
X020416Y000753D01*
X020391Y000778D01*
X020391Y000878D02*
X020416Y000903D01*
X020466Y000903D01*
X020491Y000878D01*
X020539Y000878D02*
X020539Y000778D01*
X020564Y000753D01*
X020614Y000753D01*
X020639Y000778D01*
X020639Y000878D01*
X020614Y000903D01*
X020564Y000903D01*
X020539Y000878D01*
X020541Y000993D02*
X020541Y001143D01*
X020490Y001093D01*
X020440Y001143D01*
X020440Y000993D01*
X020393Y000968D02*
X020293Y000968D01*
X020246Y000993D02*
X020146Y000993D01*
X020146Y001143D01*
X020246Y001143D01*
X020196Y001068D02*
X020146Y001068D01*
X019951Y001068D02*
X019901Y001068D01*
X019951Y001068D02*
X019951Y001018D01*
X019926Y000993D01*
X019876Y000993D01*
X019851Y001018D01*
X019851Y001118D01*
X019876Y001143D01*
X019926Y001143D01*
X019951Y001118D01*
X019951Y000903D02*
X019851Y000903D01*
X019851Y000828D02*
X019901Y000828D01*
X020588Y001018D02*
X020588Y001118D01*
X020613Y001143D01*
X020663Y001143D01*
X020688Y001118D01*
X020688Y001018D01*
X020663Y000993D01*
X020613Y000993D01*
X020588Y001018D01*
X020735Y001018D02*
X020760Y000993D01*
X020810Y000993D01*
X020835Y001018D01*
X020835Y001043D01*
X020810Y001068D01*
X020760Y001068D01*
X020735Y001093D01*
X020735Y001118D01*
X020760Y001143D01*
X020810Y001143D01*
X020835Y001118D01*
X020882Y001143D02*
X020932Y001143D01*
X020907Y001143D02*
X020907Y000993D01*
X020882Y000993D02*
X020932Y000993D01*
X020933Y000903D02*
X020833Y000903D01*
X020833Y000753D01*
X020933Y000753D01*
X020981Y000728D02*
X021081Y000728D01*
X021128Y000778D02*
X021153Y000753D01*
X021203Y000753D01*
X021228Y000778D01*
X021275Y000778D02*
X021300Y000753D01*
X021350Y000753D01*
X021375Y000778D01*
X021375Y000803D01*
X021350Y000828D01*
X021300Y000828D01*
X021275Y000853D01*
X021275Y000878D01*
X021300Y000903D01*
X021350Y000903D01*
X021375Y000878D01*
X021228Y000878D02*
X021203Y000903D01*
X021153Y000903D01*
X021128Y000878D01*
X021128Y000778D01*
X021153Y000993D02*
X021203Y000993D01*
X021228Y001018D01*
X021228Y001068D01*
X021178Y001068D01*
X021128Y001018D02*
X021153Y000993D01*
X021128Y001018D02*
X021128Y001118D01*
X021153Y001143D01*
X021203Y001143D01*
X021228Y001118D01*
X021570Y000903D02*
X021570Y000828D01*
X021620Y000853D01*
X021645Y000853D01*
X021670Y000828D01*
X021670Y000778D01*
X021645Y000753D01*
X021595Y000753D01*
X021570Y000778D01*
X021570Y000903D02*
X021670Y000903D01*
X020883Y000828D02*
X020833Y000828D01*
X022611Y000853D02*
X022636Y000828D01*
X022686Y000828D01*
X022711Y000803D01*
X022711Y000778D01*
X022686Y000753D01*
X022636Y000753D01*
X022611Y000778D01*
X022611Y000853D02*
X022611Y000878D01*
X022636Y000903D01*
X022686Y000903D01*
X022711Y000878D01*
X022758Y000878D02*
X022758Y000778D01*
X022783Y000753D01*
X022834Y000753D01*
X022859Y000778D01*
X022906Y000753D02*
X023006Y000753D01*
X022906Y000753D02*
X022906Y000903D01*
X022859Y000878D02*
X022834Y000903D01*
X022783Y000903D01*
X022758Y000878D01*
X022686Y000993D02*
X022711Y001018D01*
X022711Y001068D01*
X022661Y001068D01*
X022611Y001018D02*
X022636Y000993D01*
X022686Y000993D01*
X022611Y001018D02*
X022611Y001118D01*
X022636Y001143D01*
X022686Y001143D01*
X022711Y001118D01*
X022906Y001118D02*
X022906Y001093D01*
X022931Y001068D01*
X022981Y001068D01*
X023006Y001043D01*
X023006Y001018D01*
X022981Y000993D01*
X022931Y000993D01*
X022906Y001018D01*
X022906Y001118D02*
X022931Y001143D01*
X022981Y001143D01*
X023006Y001118D01*
X023053Y001143D02*
X023128Y001143D01*
X023153Y001118D01*
X023153Y001018D01*
X023128Y000993D01*
X023053Y000993D01*
X023053Y001143D01*
X023200Y001093D02*
X023250Y001143D01*
X023301Y001093D01*
X023301Y000993D01*
X023301Y001068D02*
X023200Y001068D01*
X023200Y001093D02*
X023200Y000993D01*
X023225Y000903D02*
X023200Y000878D01*
X023200Y000778D01*
X023225Y000753D01*
X023276Y000753D01*
X023301Y000778D01*
X023301Y000828D01*
X023250Y000828D01*
X023301Y000878D02*
X023276Y000903D01*
X023225Y000903D01*
X023495Y000878D02*
X023520Y000903D01*
X023570Y000903D01*
X023595Y000878D01*
X023595Y000853D01*
X023570Y000828D01*
X023595Y000803D01*
X023595Y000778D01*
X023570Y000753D01*
X023520Y000753D01*
X023495Y000778D01*
X023545Y000828D02*
X023570Y000828D01*
X023642Y000778D02*
X023667Y000778D01*
X023667Y000753D01*
X023642Y000753D01*
X023642Y000778D01*
X023716Y000778D02*
X023741Y000753D01*
X023791Y000753D01*
X023816Y000778D01*
X023816Y000803D01*
X023791Y000828D01*
X023766Y000828D01*
X023791Y000828D02*
X023816Y000853D01*
X023816Y000878D01*
X023791Y000903D01*
X023741Y000903D01*
X023716Y000878D01*
X023595Y001018D02*
X023595Y001068D01*
X023545Y001068D01*
X023495Y001018D02*
X023520Y000993D01*
X023570Y000993D01*
X023595Y001018D01*
X023495Y001018D02*
X023495Y001118D01*
X023520Y001143D01*
X023570Y001143D01*
X023595Y001118D01*
X025011Y001118D02*
X025011Y001018D01*
X025036Y000993D01*
X025086Y000993D01*
X025111Y001018D01*
X025111Y001068D01*
X025061Y001068D01*
X025011Y001118D02*
X025036Y001143D01*
X025086Y001143D01*
X025111Y001118D01*
X025306Y001143D02*
X025306Y000993D01*
X025381Y000993D01*
X025406Y001018D01*
X025406Y001118D01*
X025381Y001143D01*
X025306Y001143D01*
X025453Y000968D02*
X025553Y000968D01*
X025600Y000993D02*
X025600Y001143D01*
X025650Y001093D01*
X025701Y001143D01*
X025701Y000993D01*
X025748Y001018D02*
X025748Y001118D01*
X025773Y001143D01*
X025823Y001143D01*
X025848Y001118D01*
X025848Y001018D01*
X025823Y000993D01*
X025773Y000993D01*
X025748Y001018D01*
X025774Y000903D02*
X025724Y000903D01*
X025699Y000878D01*
X025699Y000778D01*
X025724Y000753D01*
X025774Y000753D01*
X025799Y000778D01*
X025799Y000878D01*
X025774Y000903D01*
X025651Y000878D02*
X025626Y000903D01*
X025576Y000903D01*
X025551Y000878D01*
X025551Y000853D01*
X025576Y000828D01*
X025626Y000828D01*
X025651Y000803D01*
X025651Y000778D01*
X025626Y000753D01*
X025576Y000753D01*
X025551Y000778D01*
X025503Y000753D02*
X025453Y000753D01*
X025478Y000753D02*
X025478Y000903D01*
X025453Y000903D02*
X025503Y000903D01*
X025406Y000903D02*
X025406Y000753D01*
X025306Y000753D02*
X025306Y000903D01*
X025356Y000853D01*
X025406Y000903D01*
X025259Y000728D02*
X025158Y000728D01*
X025111Y000778D02*
X025111Y000878D01*
X025086Y000903D01*
X025011Y000903D01*
X025011Y000753D01*
X025086Y000753D01*
X025111Y000778D01*
X025895Y001018D02*
X025920Y000993D01*
X025970Y000993D01*
X025995Y001018D01*
X025995Y001043D01*
X025970Y001068D01*
X025920Y001068D01*
X025895Y001093D01*
X025895Y001118D01*
X025920Y001143D01*
X025970Y001143D01*
X025995Y001118D01*
X026042Y001143D02*
X026092Y001143D01*
X026067Y001143D02*
X026067Y000993D01*
X026042Y000993D02*
X026092Y000993D01*
X026093Y000903D02*
X025993Y000903D01*
X025993Y000753D01*
X026093Y000753D01*
X026141Y000753D02*
X026241Y000903D01*
X026288Y000903D02*
X026388Y000903D01*
X026338Y000903D02*
X026338Y000753D01*
X026241Y000753D02*
X026141Y000903D01*
X026043Y000828D02*
X025993Y000828D01*
X026288Y001018D02*
X026288Y001118D01*
X026313Y001143D01*
X026363Y001143D01*
X026388Y001118D01*
X026388Y001068D02*
X026338Y001068D01*
X026388Y001068D02*
X026388Y001018D01*
X026363Y000993D01*
X026313Y000993D01*
X026288Y001018D01*
X026435Y000728D02*
X026535Y000728D01*
X026583Y000778D02*
X026608Y000753D01*
X026658Y000753D01*
X026683Y000778D01*
X026730Y000778D02*
X026755Y000753D01*
X026805Y000753D01*
X026830Y000778D01*
X026830Y000803D01*
X026805Y000828D01*
X026755Y000828D01*
X026730Y000853D01*
X026730Y000878D01*
X026755Y000903D01*
X026805Y000903D01*
X026830Y000878D01*
X026683Y000878D02*
X026658Y000903D01*
X026608Y000903D01*
X026583Y000878D01*
X026583Y000778D01*
X027025Y000778D02*
X027050Y000753D01*
X027100Y000753D01*
X027125Y000778D01*
X027125Y000803D01*
X027100Y000828D01*
X027075Y000828D01*
X027100Y000828D02*
X027125Y000853D01*
X027125Y000878D01*
X027100Y000903D01*
X027050Y000903D01*
X027025Y000878D01*
X027172Y000778D02*
X027197Y000778D01*
X027197Y000753D01*
X027172Y000753D01*
X027172Y000778D01*
X027246Y000778D02*
X027271Y000753D01*
X027321Y000753D01*
X027346Y000778D01*
X027346Y000803D01*
X027321Y000828D01*
X027296Y000828D01*
X027321Y000828D02*
X027346Y000853D01*
X027346Y000878D01*
X027321Y000903D01*
X027271Y000903D01*
X027246Y000878D01*
X018461Y011893D02*
X018461Y011918D01*
X018436Y011918D01*
X018436Y011893D01*
X018461Y011893D01*
X018436Y011967D02*
X018336Y012067D01*
X018436Y012067D01*
X018461Y012042D01*
X018461Y011992D01*
X018436Y011967D01*
X018336Y011967D01*
X018311Y011992D01*
X018311Y012042D01*
X018336Y012067D01*
X018361Y012114D02*
X018311Y012164D01*
X018461Y012164D01*
X018461Y012114D02*
X018461Y012214D01*
X017036Y012213D02*
X017011Y012188D01*
X016986Y012188D01*
X016961Y012213D01*
X016961Y012263D01*
X016986Y012288D01*
X017011Y012288D01*
X017036Y012263D01*
X017036Y012213D01*
X017036Y012140D02*
X017036Y012040D01*
X017036Y011993D02*
X016986Y011943D01*
X016986Y011968D02*
X016986Y011893D01*
X017036Y011893D02*
X016886Y011893D01*
X016886Y011968D01*
X016911Y011993D01*
X016961Y011993D01*
X016986Y011968D01*
X016936Y012040D02*
X016886Y012090D01*
X017036Y012090D01*
X016936Y012188D02*
X016911Y012188D01*
X016886Y012213D01*
X016886Y012263D01*
X016911Y012288D01*
X016936Y012288D01*
X016961Y012263D01*
X016961Y012213D02*
X016936Y012188D01*
X016926Y015633D02*
X016926Y015708D01*
X016951Y015733D01*
X017001Y015733D01*
X017026Y015708D01*
X017026Y015633D01*
X017026Y015683D02*
X017076Y015733D01*
X017076Y015780D02*
X017076Y015880D01*
X017076Y015928D02*
X017051Y015928D01*
X016951Y016028D01*
X016926Y016028D01*
X016926Y015928D01*
X016926Y015830D02*
X017076Y015830D01*
X016976Y015780D02*
X016926Y015830D01*
X016926Y015633D02*
X017076Y015633D01*
X018351Y015732D02*
X018351Y015782D01*
X018376Y015807D01*
X018476Y015707D01*
X018501Y015732D01*
X018501Y015782D01*
X018476Y015807D01*
X018376Y015807D01*
X018401Y015854D02*
X018351Y015904D01*
X018501Y015904D01*
X018501Y015854D02*
X018501Y015954D01*
X018476Y015707D02*
X018376Y015707D01*
X018351Y015732D01*
X018476Y015658D02*
X018501Y015658D01*
X018501Y015633D01*
X018476Y015633D01*
X018476Y015658D01*
X021806Y012798D02*
X021831Y012823D01*
X021881Y012823D01*
X021906Y012798D01*
X021906Y012698D01*
X021881Y012673D01*
X021831Y012673D01*
X021806Y012698D01*
X021806Y012798D01*
X021856Y012723D02*
X021906Y012673D01*
X021953Y012673D02*
X022054Y012773D01*
X022054Y012798D01*
X022029Y012823D01*
X021978Y012823D01*
X021953Y012798D01*
X021953Y012673D02*
X022054Y012673D01*
X022706Y012638D02*
X022731Y012613D01*
X022781Y012613D01*
X022806Y012638D01*
X022806Y012738D01*
X022781Y012763D01*
X022731Y012763D01*
X022706Y012738D01*
X022706Y012638D01*
X022756Y012663D02*
X022806Y012613D01*
X022853Y012613D02*
X022954Y012613D01*
X022904Y012613D02*
X022904Y012763D01*
X022853Y012713D01*
X018561Y019713D02*
X018561Y019738D01*
X018536Y019738D01*
X018536Y019713D01*
X018561Y019713D01*
X018536Y019787D02*
X018436Y019887D01*
X018536Y019887D01*
X018561Y019862D01*
X018561Y019812D01*
X018536Y019787D01*
X018436Y019787D01*
X018411Y019812D01*
X018411Y019862D01*
X018436Y019887D01*
X018461Y019934D02*
X018411Y019984D01*
X018561Y019984D01*
X018561Y019934D02*
X018561Y020034D01*
X017136Y020033D02*
X017136Y020083D01*
X017111Y020108D01*
X017086Y020108D01*
X017061Y020083D01*
X017061Y020008D01*
X017111Y020008D01*
X017136Y020033D01*
X017136Y019960D02*
X017136Y019860D01*
X017136Y019813D02*
X017086Y019763D01*
X017086Y019788D02*
X017086Y019713D01*
X017136Y019713D02*
X016986Y019713D01*
X016986Y019788D01*
X017011Y019813D01*
X017061Y019813D01*
X017086Y019788D01*
X017036Y019860D02*
X016986Y019910D01*
X017136Y019910D01*
X017061Y020008D02*
X017011Y020058D01*
X016986Y020108D01*
D15*
X016316Y019130D02*
X014348Y019130D01*
X014348Y021846D01*
X016316Y021846D01*
X016316Y019130D01*
X016436Y017786D02*
X014468Y017786D01*
X014468Y015070D01*
X016436Y015070D01*
X016436Y017786D01*
X013645Y019130D02*
X011676Y019130D01*
X011676Y021846D01*
X013645Y021846D01*
X013645Y019130D01*
X013585Y017926D02*
X011616Y017926D01*
X011616Y015210D01*
X013585Y015210D01*
X013585Y017926D01*
X013525Y014066D02*
X011556Y014066D01*
X011556Y011350D01*
X013525Y011350D01*
X013525Y014066D01*
X014468Y014026D02*
X016436Y014026D01*
X016436Y011310D01*
X014468Y011310D01*
X014468Y014026D01*
X008766Y013088D02*
X008766Y001088D01*
X020766Y001088D01*
X020766Y013088D01*
X008766Y013088D01*
X024581Y020117D02*
X024656Y020042D01*
X024731Y020042D01*
X024806Y020117D01*
X024806Y020267D01*
X024881Y020342D01*
X024956Y020342D01*
X025031Y020267D01*
X025031Y020117D01*
X024956Y020042D01*
X024581Y020117D02*
X024581Y020267D01*
X024656Y020342D01*
X024581Y020652D02*
X024581Y020803D01*
X024581Y020727D02*
X024956Y020727D01*
X025031Y020652D01*
X025031Y020577D01*
X024956Y020502D01*
X024806Y020963D02*
X024806Y021263D01*
X025031Y021188D02*
X024581Y021188D01*
X024806Y020963D01*
X022591Y027353D02*
X022291Y027353D01*
X022441Y027353D02*
X022441Y027803D01*
X022291Y027653D01*
X022131Y027728D02*
X022056Y027803D01*
X021905Y027803D01*
X021830Y027728D01*
X021830Y027653D01*
X021905Y027578D01*
X022056Y027578D01*
X022131Y027503D01*
X022131Y027428D01*
X022056Y027353D01*
X021905Y027353D01*
X021830Y027428D01*
X026226Y037008D02*
X026226Y005008D01*
X047226Y005008D01*
X047226Y037008D01*
X026226Y037008D01*
D16*
X027686Y033583D02*
X027686Y032969D01*
X027686Y033276D02*
X026765Y033276D01*
X027072Y032969D01*
X026765Y032662D02*
X027686Y032662D01*
X027686Y032048D02*
X026765Y032048D01*
X027072Y032355D01*
X026765Y032662D01*
X022756Y027168D02*
X021056Y027168D01*
X020706Y026368D02*
X020706Y025575D01*
X021056Y024768D02*
X022756Y024768D01*
X023106Y025563D02*
X023106Y026368D01*
X021206Y025968D02*
X021208Y026020D01*
X021214Y026072D01*
X021224Y026124D01*
X021237Y026174D01*
X021254Y026224D01*
X021275Y026272D01*
X021300Y026318D01*
X021328Y026362D01*
X021359Y026404D01*
X021393Y026444D01*
X021430Y026481D01*
X021470Y026515D01*
X021512Y026546D01*
X021556Y026574D01*
X021602Y026599D01*
X021650Y026620D01*
X021700Y026637D01*
X021750Y026650D01*
X021802Y026660D01*
X021854Y026666D01*
X021906Y026668D01*
X021958Y026666D01*
X022010Y026660D01*
X022062Y026650D01*
X022112Y026637D01*
X022162Y026620D01*
X022210Y026599D01*
X022256Y026574D01*
X022300Y026546D01*
X022342Y026515D01*
X022382Y026481D01*
X022419Y026444D01*
X022453Y026404D01*
X022484Y026362D01*
X022512Y026318D01*
X022537Y026272D01*
X022558Y026224D01*
X022575Y026174D01*
X022588Y026124D01*
X022598Y026072D01*
X022604Y026020D01*
X022606Y025968D01*
X022604Y025916D01*
X022598Y025864D01*
X022588Y025812D01*
X022575Y025762D01*
X022558Y025712D01*
X022537Y025664D01*
X022512Y025618D01*
X022484Y025574D01*
X022453Y025532D01*
X022419Y025492D01*
X022382Y025455D01*
X022342Y025421D01*
X022300Y025390D01*
X022256Y025362D01*
X022210Y025337D01*
X022162Y025316D01*
X022112Y025299D01*
X022062Y025286D01*
X022010Y025276D01*
X021958Y025270D01*
X021906Y025268D01*
X021854Y025270D01*
X021802Y025276D01*
X021750Y025286D01*
X021700Y025299D01*
X021650Y025316D01*
X021602Y025337D01*
X021556Y025362D01*
X021512Y025390D01*
X021470Y025421D01*
X021430Y025455D01*
X021393Y025492D01*
X021359Y025532D01*
X021328Y025574D01*
X021300Y025618D01*
X021275Y025664D01*
X021254Y025712D01*
X021237Y025762D01*
X021224Y025812D01*
X021214Y025864D01*
X021208Y025916D01*
X021206Y025968D01*
X019872Y022643D02*
X019796Y022527D01*
X019786Y022521D02*
X019694Y022643D01*
X019605Y022521D02*
X019786Y022521D01*
X019967Y022521D01*
X013082Y027748D02*
X012469Y027748D01*
X012162Y028209D02*
X011548Y028209D01*
X011855Y028209D02*
X011855Y027288D01*
X011241Y027288D02*
X011241Y027902D01*
X010934Y028209D01*
X010627Y027902D01*
X010627Y027288D01*
X010320Y027442D02*
X010320Y027595D01*
X010167Y027748D01*
X009706Y027748D01*
X009706Y027288D02*
X010167Y027288D01*
X010320Y027442D01*
X010167Y027748D02*
X010320Y027902D01*
X010320Y028055D01*
X010167Y028209D01*
X009706Y028209D01*
X009706Y027288D01*
X010627Y027748D02*
X011241Y027748D01*
X021487Y012519D02*
X021802Y012519D01*
X021802Y012283D01*
X021802Y011653D02*
X021802Y011417D01*
X021487Y011417D01*
X021674Y010703D02*
X021766Y010581D01*
X021947Y010581D01*
X021852Y010703D02*
X021776Y010587D01*
X021766Y010581D02*
X021585Y010581D01*
X020887Y010541D02*
X020706Y010541D01*
X020614Y010663D01*
X020525Y010541D02*
X020706Y010541D01*
X020716Y010547D02*
X020792Y010663D01*
X019827Y010301D02*
X019646Y010301D01*
X019554Y010423D01*
X019465Y010301D02*
X019646Y010301D01*
X019656Y010307D02*
X019732Y010423D01*
X022465Y010561D02*
X022646Y010561D01*
X022554Y010683D01*
X022646Y010561D02*
X022827Y010561D01*
X022732Y010683D02*
X022656Y010567D01*
X023227Y011417D02*
X023542Y011417D01*
X023542Y011653D01*
X023542Y012283D02*
X023542Y012519D01*
X023227Y012519D01*
X015859Y009432D02*
X015859Y008093D01*
X015721Y008093D01*
X015721Y009432D01*
X015859Y009432D01*
X015721Y009432D02*
X014068Y009432D01*
X014068Y008093D01*
X015721Y008093D01*
X015894Y007835D02*
X013520Y007835D01*
X013622Y007370D02*
X013624Y007394D01*
X013630Y007418D01*
X013639Y007440D01*
X013651Y007461D01*
X013667Y007479D01*
X013685Y007495D01*
X013706Y007507D01*
X013728Y007516D01*
X013752Y007522D01*
X013776Y007524D01*
X013800Y007522D01*
X013824Y007516D01*
X013846Y007507D01*
X013867Y007495D01*
X013885Y007479D01*
X013901Y007461D01*
X013913Y007440D01*
X013922Y007418D01*
X013928Y007394D01*
X013930Y007370D01*
X013928Y007346D01*
X013922Y007322D01*
X013913Y007300D01*
X013901Y007279D01*
X013885Y007261D01*
X013867Y007245D01*
X013846Y007233D01*
X013824Y007224D01*
X013800Y007218D01*
X013776Y007216D01*
X013752Y007218D01*
X013728Y007224D01*
X013706Y007233D01*
X013685Y007245D01*
X013667Y007261D01*
X013651Y007279D01*
X013639Y007300D01*
X013630Y007322D01*
X013624Y007346D01*
X013622Y007370D01*
X013520Y004908D02*
X015894Y004908D01*
X017361Y004531D02*
X017361Y005397D01*
X017577Y005397D01*
X018995Y005397D02*
X019211Y005397D01*
X019211Y004531D01*
X018955Y003979D02*
X017617Y003979D01*
X021261Y004531D02*
X021261Y005397D01*
X021477Y005397D01*
X022895Y005397D02*
X023111Y005397D01*
X023111Y004531D01*
X022855Y003979D02*
X021517Y003979D01*
X023781Y004531D02*
X023781Y005397D01*
X023997Y005397D01*
X025415Y005397D02*
X025631Y005397D01*
X025631Y004531D01*
X025375Y003979D02*
X024037Y003979D01*
X026301Y004531D02*
X026301Y005397D01*
X026517Y005397D01*
X027935Y005397D02*
X028151Y005397D01*
X028151Y004531D01*
X027895Y003979D02*
X026557Y003979D01*
D17*
X024976Y005808D02*
X023876Y005808D01*
X023859Y005810D01*
X023842Y005814D01*
X023826Y005821D01*
X023812Y005831D01*
X023799Y005844D01*
X023789Y005858D01*
X023782Y005874D01*
X023778Y005891D01*
X023776Y005908D01*
X023776Y006508D01*
X023778Y006525D01*
X023782Y006542D01*
X023789Y006558D01*
X023799Y006572D01*
X023812Y006585D01*
X023826Y006595D01*
X023842Y006602D01*
X023859Y006606D01*
X023876Y006608D01*
X024976Y006608D01*
X024993Y006606D01*
X025010Y006602D01*
X025026Y006595D01*
X025040Y006585D01*
X025053Y006572D01*
X025063Y006558D01*
X025070Y006542D01*
X025074Y006525D01*
X025076Y006508D01*
X025076Y005908D01*
X025074Y005891D01*
X025070Y005874D01*
X025063Y005858D01*
X025053Y005844D01*
X025040Y005831D01*
X025026Y005821D01*
X025010Y005814D01*
X024993Y005810D01*
X024976Y005808D01*
X024956Y007008D02*
X023856Y007008D01*
X023839Y007010D01*
X023822Y007014D01*
X023806Y007021D01*
X023792Y007031D01*
X023779Y007044D01*
X023769Y007058D01*
X023762Y007074D01*
X023758Y007091D01*
X023756Y007108D01*
X023756Y007708D01*
X023758Y007725D01*
X023762Y007742D01*
X023769Y007758D01*
X023779Y007772D01*
X023792Y007785D01*
X023806Y007795D01*
X023822Y007802D01*
X023839Y007806D01*
X023856Y007808D01*
X024956Y007808D01*
X024973Y007806D01*
X024990Y007802D01*
X025006Y007795D01*
X025020Y007785D01*
X025033Y007772D01*
X025043Y007758D01*
X025050Y007742D01*
X025054Y007725D01*
X025056Y007708D01*
X025056Y007108D01*
X025054Y007091D01*
X025050Y007074D01*
X025043Y007058D01*
X025033Y007044D01*
X025020Y007031D01*
X025006Y007021D01*
X024990Y007014D01*
X024973Y007010D01*
X024956Y007008D01*
X023666Y008178D02*
X023416Y007928D01*
X022916Y007928D01*
X022666Y008178D01*
X022416Y007928D01*
X021916Y007928D01*
X021666Y008178D01*
X021666Y008678D01*
X021916Y008928D01*
X022416Y008928D01*
X022666Y008678D01*
X022916Y008928D01*
X023416Y008928D01*
X023666Y008678D01*
X023666Y008178D01*
X022666Y008178D02*
X022666Y008678D01*
X021666Y008678D02*
X021416Y008928D01*
X020916Y008928D01*
X020666Y008678D01*
X020416Y008928D01*
X019916Y008928D01*
X019666Y008678D01*
X019666Y008178D01*
X019916Y007928D01*
X020416Y007928D01*
X020666Y008178D01*
X020666Y008678D01*
X020666Y008178D02*
X020916Y007928D01*
X021416Y007928D01*
X021666Y008178D01*
X023771Y009483D02*
X023801Y009453D01*
X023921Y009453D01*
X023951Y009483D01*
X023951Y009543D01*
X023921Y009573D01*
X023861Y009573D01*
X023861Y009513D01*
X023801Y009573D02*
X023771Y009543D01*
X023771Y009483D01*
X023771Y009674D02*
X023771Y009764D01*
X023801Y009794D01*
X023861Y009794D01*
X023891Y009764D01*
X023891Y009674D01*
X023951Y009674D02*
X023771Y009674D01*
X023891Y009734D02*
X023951Y009794D01*
X023951Y009895D02*
X023951Y010015D01*
X023951Y010116D02*
X023951Y010236D01*
X023951Y010337D02*
X023771Y010337D01*
X023951Y010457D01*
X023771Y010457D01*
X023771Y010236D02*
X023771Y010116D01*
X023951Y010116D01*
X023861Y010116D02*
X023861Y010176D01*
X023771Y010015D02*
X023771Y009895D01*
X023951Y009895D01*
X023861Y009895D02*
X023861Y009955D01*
X024111Y010255D02*
X024111Y010345D01*
X024141Y010375D01*
X024201Y010375D01*
X024231Y010345D01*
X024231Y010255D01*
X024291Y010255D02*
X024111Y010255D01*
X024231Y010315D02*
X024291Y010375D01*
X024291Y010476D02*
X024111Y010476D01*
X024111Y010596D01*
X024111Y010697D02*
X024111Y010787D01*
X024141Y010817D01*
X024261Y010817D01*
X024291Y010787D01*
X024291Y010697D01*
X024111Y010697D01*
X024201Y010536D02*
X024201Y010476D01*
X024291Y010476D02*
X024291Y010596D01*
X024451Y010546D02*
X024481Y010576D01*
X024601Y010576D01*
X024631Y010546D01*
X024631Y010486D01*
X024601Y010456D01*
X024481Y010456D01*
X024451Y010486D01*
X024451Y010546D01*
X024451Y010677D02*
X024631Y010677D01*
X024571Y010737D01*
X024631Y010797D01*
X024451Y010797D01*
X024791Y010777D02*
X024971Y010777D01*
X024791Y010657D01*
X024971Y010657D01*
X024971Y010556D02*
X024971Y010436D01*
X024791Y010436D01*
X024791Y010556D01*
X024881Y010496D02*
X024881Y010436D01*
X024791Y010335D02*
X024791Y010215D01*
X024971Y010215D01*
X024971Y010335D01*
X024881Y010275D02*
X024881Y010215D01*
X024881Y010114D02*
X024911Y010084D01*
X024911Y009994D01*
X024971Y009994D02*
X024791Y009994D01*
X024791Y010084D01*
X024821Y010114D01*
X024881Y010114D01*
X024911Y010054D02*
X024971Y010114D01*
X024941Y009893D02*
X024881Y009893D01*
X024881Y009833D01*
X024821Y009773D02*
X024941Y009773D01*
X024971Y009803D01*
X024971Y009863D01*
X024941Y009893D01*
X024821Y009893D02*
X024791Y009863D01*
X024791Y009803D01*
X024821Y009773D01*
X024631Y009793D02*
X024631Y009913D01*
X024631Y010014D02*
X024631Y010134D01*
X024631Y010235D02*
X024631Y010355D01*
X024631Y010235D02*
X024451Y010235D01*
X024451Y010014D02*
X024631Y010014D01*
X024541Y009853D02*
X024541Y009793D01*
X024451Y009793D02*
X024631Y009793D01*
X024631Y009632D02*
X024541Y009632D01*
X024481Y009692D01*
X024451Y009692D01*
X024451Y009793D02*
X024451Y009913D01*
X024541Y009632D02*
X024481Y009572D01*
X024451Y009572D01*
X020606Y006118D02*
X020606Y004418D01*
X020604Y004401D01*
X020600Y004384D01*
X020593Y004368D01*
X020583Y004354D01*
X020570Y004341D01*
X020556Y004331D01*
X020540Y004324D01*
X020523Y004320D01*
X020506Y004318D01*
X019906Y004318D01*
X019889Y004320D01*
X019872Y004324D01*
X019856Y004331D01*
X019842Y004341D01*
X019829Y004354D01*
X019819Y004368D01*
X019812Y004384D01*
X019808Y004401D01*
X019806Y004418D01*
X019806Y006118D01*
X019808Y006135D01*
X019812Y006152D01*
X019819Y006168D01*
X019829Y006182D01*
X019842Y006195D01*
X019856Y006205D01*
X019872Y006212D01*
X019889Y006216D01*
X019906Y006218D01*
X020506Y006218D01*
X020523Y006216D01*
X020540Y006212D01*
X020556Y006205D01*
X020570Y006195D01*
X020583Y006182D01*
X020593Y006168D01*
X020600Y006152D01*
X020604Y006135D01*
X020606Y006118D01*
X018156Y012494D02*
X018156Y013288D01*
X018406Y013508D02*
X018966Y013508D01*
X018966Y014628D01*
X018406Y014628D01*
X018406Y013508D01*
X018656Y013348D02*
X018656Y012748D01*
X018658Y012731D01*
X018662Y012714D01*
X018669Y012698D01*
X018679Y012684D01*
X018692Y012671D01*
X018706Y012661D01*
X018722Y012654D01*
X018739Y012650D01*
X018756Y012648D01*
X019856Y012648D01*
X019873Y012650D01*
X019890Y012654D01*
X019906Y012661D01*
X019920Y012671D01*
X019933Y012684D01*
X019943Y012698D01*
X019950Y012714D01*
X019954Y012731D01*
X019956Y012748D01*
X019956Y013348D01*
X019954Y013365D01*
X019950Y013382D01*
X019943Y013398D01*
X019933Y013412D01*
X019920Y013425D01*
X019906Y013435D01*
X019890Y013442D01*
X019873Y013446D01*
X019856Y013448D01*
X018756Y013448D01*
X018739Y013446D01*
X018722Y013442D01*
X018706Y013435D01*
X018692Y013425D01*
X018679Y013412D01*
X018669Y013398D01*
X018662Y013382D01*
X018658Y013365D01*
X018656Y013348D01*
X017176Y013292D02*
X017176Y012484D01*
X018426Y014728D02*
X018546Y014728D01*
X018486Y014728D02*
X018486Y014908D01*
X018426Y014848D01*
X018496Y015008D02*
X018556Y015008D01*
X018586Y015038D01*
X018496Y015008D02*
X018466Y015038D01*
X018466Y015158D01*
X018496Y015188D01*
X018556Y015188D01*
X018586Y015158D01*
X018687Y015158D02*
X018717Y015188D01*
X018777Y015188D01*
X018807Y015158D01*
X018807Y015128D01*
X018687Y015008D01*
X018807Y015008D01*
X018737Y014908D02*
X018767Y014878D01*
X018647Y014758D01*
X018677Y014728D01*
X018737Y014728D01*
X018767Y014758D01*
X018767Y014878D01*
X018737Y014908D02*
X018677Y014908D01*
X018647Y014878D01*
X018647Y014758D01*
X018868Y014758D02*
X018988Y014878D01*
X018988Y014758D01*
X018958Y014728D01*
X018898Y014728D01*
X018868Y014758D01*
X018868Y014878D01*
X018898Y014908D01*
X018958Y014908D01*
X018988Y014878D01*
X019089Y014878D02*
X019119Y014908D01*
X019179Y014908D01*
X019209Y014878D01*
X019089Y014758D01*
X019119Y014728D01*
X019179Y014728D01*
X019209Y014758D01*
X019209Y014878D01*
X019310Y014848D02*
X019400Y014848D01*
X019430Y014818D01*
X019430Y014758D01*
X019400Y014728D01*
X019310Y014728D01*
X019310Y014668D02*
X019310Y014848D01*
X019089Y014878D02*
X019089Y014758D01*
X018998Y015008D02*
X018998Y015188D01*
X018908Y015098D01*
X019028Y015098D01*
X019531Y014818D02*
X019591Y014818D01*
X019561Y014878D02*
X019561Y014728D01*
X019561Y014878D02*
X019591Y014908D01*
X018196Y016234D02*
X018196Y017028D01*
X018486Y016648D02*
X018486Y017768D01*
X019046Y017768D01*
X019046Y016648D01*
X018486Y016648D01*
X017216Y017032D02*
X017216Y016224D01*
X018046Y017948D02*
X018166Y017948D01*
X018106Y017948D02*
X018106Y018128D01*
X018046Y018068D01*
X018056Y018228D02*
X018116Y018228D01*
X018146Y018258D01*
X018056Y018228D02*
X018026Y018258D01*
X018026Y018378D01*
X018056Y018408D01*
X018116Y018408D01*
X018146Y018378D01*
X018247Y018378D02*
X018277Y018408D01*
X018337Y018408D01*
X018367Y018378D01*
X018367Y018348D01*
X018247Y018228D01*
X018367Y018228D01*
X018357Y018128D02*
X018387Y018098D01*
X018267Y017978D01*
X018297Y017948D01*
X018357Y017948D01*
X018387Y017978D01*
X018387Y018098D01*
X018357Y018128D02*
X018297Y018128D01*
X018267Y018098D01*
X018267Y017978D01*
X018488Y017978D02*
X018608Y018098D01*
X018608Y017978D01*
X018578Y017948D01*
X018518Y017948D01*
X018488Y017978D01*
X018488Y018098D01*
X018518Y018128D01*
X018578Y018128D01*
X018608Y018098D01*
X018709Y018098D02*
X018739Y018128D01*
X018799Y018128D01*
X018829Y018098D01*
X018709Y017978D01*
X018739Y017948D01*
X018799Y017948D01*
X018829Y017978D01*
X018829Y018098D01*
X018930Y018068D02*
X019020Y018068D01*
X019050Y018038D01*
X019050Y017978D01*
X019020Y017948D01*
X018930Y017948D01*
X018930Y017888D02*
X018930Y018068D01*
X018709Y018098D02*
X018709Y017978D01*
X018558Y018228D02*
X018498Y018228D01*
X018468Y018258D01*
X018528Y018318D02*
X018558Y018318D01*
X018588Y018288D01*
X018588Y018258D01*
X018558Y018228D01*
X018558Y018318D02*
X018588Y018348D01*
X018588Y018378D01*
X018558Y018408D01*
X018498Y018408D01*
X018468Y018378D01*
X019151Y018038D02*
X019211Y018038D01*
X019181Y018098D02*
X019211Y018128D01*
X019181Y018098D02*
X019181Y017948D01*
X019590Y019588D02*
X019590Y019768D01*
X019680Y019768D01*
X019710Y019738D01*
X019710Y019678D01*
X019680Y019648D01*
X019590Y019648D01*
X019489Y019678D02*
X019459Y019648D01*
X019399Y019648D01*
X019369Y019678D01*
X019489Y019798D01*
X019489Y019678D01*
X019369Y019678D02*
X019369Y019798D01*
X019399Y019828D01*
X019459Y019828D01*
X019489Y019798D01*
X019268Y019798D02*
X019148Y019678D01*
X019178Y019648D01*
X019238Y019648D01*
X019268Y019678D01*
X019268Y019798D01*
X019238Y019828D01*
X019178Y019828D01*
X019148Y019798D01*
X019148Y019678D01*
X019047Y019678D02*
X019017Y019648D01*
X018957Y019648D01*
X018927Y019678D01*
X019047Y019798D01*
X019047Y019678D01*
X018927Y019678D02*
X018927Y019798D01*
X018957Y019828D01*
X019017Y019828D01*
X019047Y019798D01*
X019027Y019928D02*
X018907Y019928D01*
X019027Y020048D01*
X019027Y020078D01*
X018997Y020108D01*
X018937Y020108D01*
X018907Y020078D01*
X018806Y020078D02*
X018776Y020108D01*
X018716Y020108D01*
X018686Y020078D01*
X018686Y019958D01*
X018716Y019928D01*
X018776Y019928D01*
X018806Y019958D01*
X018766Y019828D02*
X018766Y019648D01*
X018706Y019648D02*
X018826Y019648D01*
X018706Y019768D02*
X018766Y019828D01*
X019128Y019958D02*
X019158Y019928D01*
X019218Y019928D01*
X019248Y019958D01*
X019248Y020018D01*
X019218Y020048D01*
X019188Y020048D01*
X019128Y020018D01*
X019128Y020108D01*
X019248Y020108D01*
X019126Y020248D02*
X018566Y020248D01*
X018566Y021368D01*
X019126Y021368D01*
X019126Y020248D01*
X019226Y020748D02*
X019226Y020838D01*
X019256Y020868D01*
X019316Y020868D01*
X019346Y020838D01*
X019346Y020748D01*
X019346Y020808D02*
X019406Y020868D01*
X019406Y020969D02*
X019286Y021089D01*
X019256Y021089D01*
X019226Y021059D01*
X019226Y020999D01*
X019256Y020969D01*
X019406Y020969D02*
X019406Y021089D01*
X019376Y021190D02*
X019406Y021220D01*
X019406Y021280D01*
X019376Y021310D01*
X019316Y021310D01*
X019286Y021280D01*
X019286Y021250D01*
X019316Y021190D01*
X019226Y021190D01*
X019226Y021310D01*
X019506Y020768D02*
X019506Y021888D01*
X020066Y021888D01*
X020066Y020768D01*
X019506Y020768D01*
X019406Y020748D02*
X019226Y020748D01*
X020166Y020828D02*
X020256Y020738D01*
X020256Y020858D01*
X020346Y020828D02*
X020166Y020828D01*
X020316Y020959D02*
X020316Y020989D01*
X020346Y020989D01*
X020346Y020959D01*
X020316Y020959D01*
X020316Y021070D02*
X020346Y021100D01*
X020346Y021160D01*
X020316Y021190D01*
X020196Y021190D01*
X020166Y021160D01*
X020166Y021100D01*
X020196Y021070D01*
X020226Y021070D01*
X020256Y021100D01*
X020256Y021190D01*
X020226Y021291D02*
X020256Y021321D01*
X020256Y021411D01*
X020196Y021411D02*
X020166Y021381D01*
X020166Y021321D01*
X020196Y021291D01*
X020226Y021291D01*
X020316Y021291D02*
X020346Y021321D01*
X020346Y021381D01*
X020316Y021411D01*
X020196Y021411D01*
X020166Y021512D02*
X020346Y021512D01*
X020286Y021512D02*
X020226Y021602D01*
X020286Y021512D02*
X020346Y021602D01*
X019471Y021943D02*
X019471Y022003D01*
X019441Y022033D01*
X019381Y022033D01*
X019381Y021973D01*
X019321Y021913D02*
X019441Y021913D01*
X019471Y021943D01*
X019321Y021913D02*
X019291Y021943D01*
X019291Y022003D01*
X019321Y022033D01*
X019291Y022134D02*
X019291Y022224D01*
X019321Y022254D01*
X019381Y022254D01*
X019411Y022224D01*
X019411Y022134D01*
X019471Y022134D02*
X019291Y022134D01*
X019411Y022194D02*
X019471Y022254D01*
X019471Y022355D02*
X019471Y022475D01*
X019471Y022576D02*
X019471Y022696D01*
X019471Y022797D02*
X019291Y022797D01*
X019471Y022917D01*
X019291Y022917D01*
X019291Y022696D02*
X019291Y022576D01*
X019471Y022576D01*
X019381Y022576D02*
X019381Y022636D01*
X019291Y022475D02*
X019291Y022355D01*
X019471Y022355D01*
X019381Y022355D02*
X019381Y022415D01*
X018256Y021108D02*
X018256Y020314D01*
X017276Y020304D02*
X017276Y021112D01*
X016296Y018968D02*
X015196Y018968D01*
X015179Y018966D01*
X015162Y018962D01*
X015146Y018955D01*
X015132Y018945D01*
X015119Y018932D01*
X015109Y018918D01*
X015102Y018902D01*
X015098Y018885D01*
X015096Y018868D01*
X015096Y018268D01*
X015098Y018251D01*
X015102Y018234D01*
X015109Y018218D01*
X015119Y018204D01*
X015132Y018191D01*
X015146Y018181D01*
X015162Y018174D01*
X015179Y018170D01*
X015196Y018168D01*
X016296Y018168D01*
X016313Y018170D01*
X016330Y018174D01*
X016346Y018181D01*
X016360Y018191D01*
X016373Y018204D01*
X016383Y018218D01*
X016390Y018234D01*
X016394Y018251D01*
X016396Y018268D01*
X016396Y018868D01*
X016394Y018885D01*
X016390Y018902D01*
X016383Y018918D01*
X016373Y018932D01*
X016360Y018945D01*
X016346Y018955D01*
X016330Y018962D01*
X016313Y018966D01*
X016296Y018968D01*
X019811Y019738D02*
X019871Y019738D01*
X019841Y019798D02*
X019871Y019828D01*
X019841Y019798D02*
X019841Y019648D01*
X023706Y020198D02*
X023706Y021298D01*
X023708Y021315D01*
X023712Y021332D01*
X023719Y021348D01*
X023729Y021362D01*
X023742Y021375D01*
X023756Y021385D01*
X023772Y021392D01*
X023789Y021396D01*
X023806Y021398D01*
X024406Y021398D01*
X024423Y021396D01*
X024440Y021392D01*
X024456Y021385D01*
X024470Y021375D01*
X024483Y021362D01*
X024493Y021348D01*
X024500Y021332D01*
X024504Y021315D01*
X024506Y021298D01*
X024506Y020198D01*
X024504Y020181D01*
X024500Y020164D01*
X024493Y020148D01*
X024483Y020134D01*
X024470Y020121D01*
X024456Y020111D01*
X024440Y020104D01*
X024423Y020100D01*
X024406Y020098D01*
X023806Y020098D01*
X023789Y020100D01*
X023772Y020104D01*
X023756Y020111D01*
X023742Y020121D01*
X023729Y020134D01*
X023719Y020148D01*
X023712Y020164D01*
X023708Y020181D01*
X023706Y020198D01*
X017736Y027708D02*
X016036Y027708D01*
X016019Y027710D01*
X016002Y027714D01*
X015986Y027721D01*
X015972Y027731D01*
X015959Y027744D01*
X015949Y027758D01*
X015942Y027774D01*
X015938Y027791D01*
X015936Y027808D01*
X015936Y028408D01*
X015938Y028425D01*
X015942Y028442D01*
X015949Y028458D01*
X015959Y028472D01*
X015972Y028485D01*
X015986Y028495D01*
X016002Y028502D01*
X016019Y028506D01*
X016036Y028508D01*
X017736Y028508D01*
X017753Y028506D01*
X017770Y028502D01*
X017786Y028495D01*
X017800Y028485D01*
X017813Y028472D01*
X017823Y028458D01*
X017830Y028442D01*
X017834Y028425D01*
X017836Y028408D01*
X017836Y027808D01*
X017834Y027791D01*
X017830Y027774D01*
X017823Y027758D01*
X017813Y027744D01*
X017800Y027731D01*
X017786Y027721D01*
X017770Y027714D01*
X017753Y027710D01*
X017736Y027708D01*
X018426Y028278D02*
X018426Y028778D01*
X018676Y029028D01*
X018426Y029278D01*
X018426Y029778D01*
X018676Y030028D01*
X019176Y030028D01*
X019426Y029778D01*
X019426Y029278D01*
X019176Y029028D01*
X019426Y028778D01*
X019426Y028278D01*
X019176Y028028D01*
X018676Y028028D01*
X018426Y028278D01*
X018676Y029028D02*
X019176Y029028D01*
X019826Y029258D02*
X019826Y029758D01*
X020076Y030008D01*
X020576Y030008D01*
X020826Y029758D01*
X020826Y029258D01*
X020576Y029008D01*
X020826Y028758D01*
X020826Y028258D01*
X020576Y028008D01*
X020076Y028008D01*
X019826Y028258D01*
X019826Y028758D01*
X020076Y029008D01*
X019826Y029258D01*
X020076Y029008D02*
X020576Y029008D01*
X017436Y029188D02*
X017436Y029788D01*
X017434Y029805D01*
X017430Y029822D01*
X017423Y029838D01*
X017413Y029852D01*
X017400Y029865D01*
X017386Y029875D01*
X017370Y029882D01*
X017353Y029886D01*
X017336Y029888D01*
X015636Y029888D01*
X015619Y029886D01*
X015602Y029882D01*
X015586Y029875D01*
X015572Y029865D01*
X015559Y029852D01*
X015549Y029838D01*
X015542Y029822D01*
X015538Y029805D01*
X015536Y029788D01*
X015536Y029188D01*
X015538Y029171D01*
X015542Y029154D01*
X015549Y029138D01*
X015559Y029124D01*
X015572Y029111D01*
X015586Y029101D01*
X015602Y029094D01*
X015619Y029090D01*
X015636Y029088D01*
X017336Y029088D01*
X017353Y029090D01*
X017370Y029094D01*
X017386Y029101D01*
X017400Y029111D01*
X017413Y029124D01*
X017423Y029138D01*
X017430Y029154D01*
X017434Y029171D01*
X017436Y029188D01*
X008866Y028378D02*
X008866Y027878D01*
X008616Y027628D01*
X008866Y027378D01*
X008866Y026878D01*
X008616Y026628D01*
X008116Y026628D01*
X007866Y026878D01*
X007866Y027378D01*
X008116Y027628D01*
X007866Y027878D01*
X007866Y028378D01*
X008116Y028628D01*
X008616Y028628D01*
X008866Y028378D01*
X008616Y027628D02*
X008116Y027628D01*
X009516Y020419D02*
X009730Y020205D01*
X009943Y020419D01*
X009943Y019778D01*
X010161Y019671D02*
X010588Y019671D01*
X010805Y019778D02*
X010805Y020205D01*
X011019Y020419D01*
X011232Y020205D01*
X011232Y019778D01*
X011232Y020098D02*
X010805Y020098D01*
X009516Y019778D02*
X009516Y020419D01*
X009463Y017179D02*
X009463Y016538D01*
X009681Y016431D02*
X010108Y016431D01*
X010325Y016538D02*
X010646Y016538D01*
X010752Y016645D01*
X010752Y016752D01*
X010646Y016858D01*
X010325Y016858D01*
X010325Y016538D02*
X010325Y017179D01*
X010646Y017179D01*
X010752Y017072D01*
X010752Y016965D01*
X010646Y016858D01*
X009463Y017179D02*
X009250Y016965D01*
X009036Y017179D01*
X009036Y016538D01*
X009036Y014779D02*
X009250Y014565D01*
X009463Y014779D01*
X009463Y014138D01*
X009681Y014031D02*
X010108Y014031D01*
X010325Y014245D02*
X010432Y014138D01*
X010646Y014138D01*
X010752Y014245D01*
X010325Y014245D02*
X010325Y014672D01*
X010432Y014779D01*
X010646Y014779D01*
X010752Y014672D01*
X009036Y014779D02*
X009036Y014138D01*
X008925Y008385D02*
X009246Y008385D01*
X009352Y008278D01*
X009352Y008065D01*
X009246Y007958D01*
X008925Y007958D01*
X008925Y007745D02*
X008925Y008385D01*
X009570Y008385D02*
X009570Y007958D01*
X009570Y008172D02*
X009783Y008385D01*
X009890Y008385D01*
X010107Y008278D02*
X010107Y008065D01*
X010214Y007958D01*
X010427Y007958D01*
X010534Y008065D01*
X010534Y008278D01*
X010427Y008385D01*
X010214Y008385D01*
X010107Y008278D01*
X010752Y008278D02*
X010752Y008065D01*
X010858Y007958D01*
X011179Y007958D01*
X011179Y007851D02*
X011179Y008385D01*
X010858Y008385D01*
X010752Y008278D01*
X011179Y007851D02*
X011072Y007745D01*
X010965Y007745D01*
X029126Y004538D02*
X029246Y004538D01*
X029216Y004448D02*
X029216Y004628D01*
X029126Y004538D01*
X029347Y004568D02*
X029467Y004448D01*
X029347Y004448D02*
X029467Y004568D01*
X029789Y004628D02*
X029789Y004448D01*
X029909Y004448D02*
X029909Y004628D01*
X029849Y004568D01*
X029789Y004628D01*
X030010Y004598D02*
X030010Y004478D01*
X030040Y004448D01*
X030100Y004448D01*
X030130Y004478D01*
X030130Y004598D01*
X030100Y004628D01*
X030040Y004628D01*
X030010Y004598D01*
X030231Y004628D02*
X030231Y004448D01*
X030351Y004448D01*
X030452Y004448D02*
X030572Y004448D01*
X030673Y004448D02*
X030793Y004628D01*
X030673Y004628D02*
X030793Y004448D01*
X030894Y004418D02*
X031014Y004418D01*
X031115Y004478D02*
X031145Y004448D01*
X031205Y004448D01*
X031235Y004478D01*
X031235Y004538D01*
X031205Y004568D01*
X031175Y004568D01*
X031115Y004538D01*
X031115Y004628D01*
X031235Y004628D01*
X031336Y004598D02*
X031366Y004628D01*
X031426Y004628D01*
X031456Y004598D01*
X031336Y004478D01*
X031366Y004448D01*
X031426Y004448D01*
X031456Y004478D01*
X031456Y004598D01*
X031557Y004598D02*
X031587Y004628D01*
X031647Y004628D01*
X031677Y004598D01*
X031677Y004568D01*
X031647Y004538D01*
X031677Y004508D01*
X031677Y004478D01*
X031647Y004448D01*
X031587Y004448D01*
X031557Y004478D01*
X031617Y004538D02*
X031647Y004538D01*
X031778Y004538D02*
X031898Y004538D01*
X031868Y004448D02*
X031868Y004628D01*
X031778Y004538D01*
X031999Y004508D02*
X032029Y004538D01*
X032089Y004538D01*
X032119Y004508D01*
X032119Y004478D01*
X032089Y004448D01*
X032029Y004448D01*
X031999Y004478D01*
X031999Y004508D01*
X032029Y004538D02*
X031999Y004568D01*
X031999Y004598D01*
X032029Y004628D01*
X032089Y004628D01*
X032119Y004598D01*
X032119Y004568D01*
X032089Y004538D01*
X032220Y004478D02*
X032340Y004598D01*
X032340Y004478D01*
X032310Y004448D01*
X032250Y004448D01*
X032220Y004478D01*
X032220Y004598D01*
X032250Y004628D01*
X032310Y004628D01*
X032340Y004598D01*
X032441Y004538D02*
X032561Y004538D01*
X032662Y004478D02*
X032782Y004598D01*
X032782Y004478D01*
X032752Y004448D01*
X032692Y004448D01*
X032662Y004478D01*
X032662Y004598D01*
X032692Y004628D01*
X032752Y004628D01*
X032782Y004598D01*
X032883Y004538D02*
X032973Y004538D01*
X033003Y004508D01*
X033003Y004478D01*
X032973Y004448D01*
X032913Y004448D01*
X032883Y004478D01*
X032883Y004538D01*
X032943Y004598D01*
X033003Y004628D01*
X033104Y004598D02*
X033134Y004628D01*
X033194Y004628D01*
X033224Y004598D01*
X033104Y004478D01*
X033134Y004448D01*
X033194Y004448D01*
X033224Y004478D01*
X033224Y004598D01*
X033325Y004598D02*
X033355Y004628D01*
X033415Y004628D01*
X033445Y004598D01*
X033325Y004478D01*
X033355Y004448D01*
X033415Y004448D01*
X033445Y004478D01*
X033445Y004598D01*
X033325Y004598D02*
X033325Y004478D01*
X033104Y004478D02*
X033104Y004598D01*
X031336Y004598D02*
X031336Y004478D01*
X030572Y004628D02*
X030452Y004628D01*
X030452Y004448D01*
X030452Y004538D02*
X030512Y004538D01*
D18*
X018698Y014068D02*
X018674Y014068D01*
X018778Y017208D02*
X018754Y017208D01*
X021099Y020078D02*
X022674Y020078D01*
X022674Y020550D01*
X021099Y020550D02*
X021099Y020078D01*
X018858Y020808D02*
X018834Y020808D01*
X021099Y023306D02*
X021099Y023778D01*
X022674Y023778D01*
X022674Y023306D01*
D19*
X024106Y020588D02*
X024106Y020586D01*
X024106Y020587D02*
X024114Y020587D01*
X024114Y020586D02*
X024114Y020588D01*
X024115Y020584D02*
X024115Y020578D01*
X024113Y020576D02*
X024114Y020575D01*
X024114Y020571D01*
X024106Y020571D01*
X024106Y020575D01*
X024107Y020576D01*
X024109Y020576D01*
X024110Y020575D01*
X024110Y020571D01*
X024110Y020575D02*
X024111Y020576D01*
X024113Y020576D01*
X024114Y020562D02*
X024114Y020558D01*
X024113Y020557D01*
X024110Y020557D01*
X024109Y020558D01*
X024109Y020562D01*
X024106Y020562D02*
X024114Y020562D01*
X024114Y020555D02*
X024110Y020555D01*
X024109Y020553D01*
X024109Y020549D01*
X024114Y020549D01*
X024114Y020547D02*
X024114Y020544D01*
X024113Y020542D01*
X024111Y020544D01*
X024111Y020547D01*
X024110Y020547D02*
X024114Y020547D01*
X024110Y020547D02*
X024109Y020546D01*
X024109Y020544D01*
X024106Y020533D02*
X024106Y020530D01*
X024106Y020531D02*
X024114Y020531D01*
X024114Y020530D02*
X024114Y020533D01*
X024115Y020528D02*
X024115Y020523D01*
X024114Y020521D02*
X024109Y020521D01*
X024106Y020518D01*
X024109Y020516D01*
X024114Y020516D01*
X024110Y020516D02*
X024110Y020521D01*
X024110Y020506D02*
X024111Y020506D01*
X024111Y020501D01*
X024110Y020501D02*
X024109Y020502D01*
X024109Y020505D01*
X024110Y020506D01*
X024114Y020505D02*
X024114Y020502D01*
X024113Y020501D01*
X024110Y020501D01*
X024109Y020498D02*
X024114Y020498D01*
X024114Y020499D02*
X024114Y020496D01*
X024114Y020492D02*
X024106Y020492D01*
X024106Y020494D02*
X024106Y020489D01*
X024109Y020496D02*
X024109Y020498D01*
X024106Y020498D02*
X024105Y020498D01*
X019236Y012008D02*
X019238Y012050D01*
X019244Y012092D01*
X019254Y012133D01*
X019267Y012173D01*
X019285Y012211D01*
X019305Y012248D01*
X019330Y012283D01*
X019357Y012315D01*
X019387Y012344D01*
X019420Y012371D01*
X019455Y012394D01*
X019492Y012414D01*
X019531Y012430D01*
X019571Y012443D01*
X019612Y012452D01*
X019654Y012457D01*
X019697Y012458D01*
X019739Y012455D01*
X019780Y012448D01*
X019821Y012437D01*
X019861Y012423D01*
X019899Y012405D01*
X019935Y012383D01*
X019969Y012358D01*
X020000Y012330D01*
X020029Y012299D01*
X020055Y012266D01*
X020077Y012230D01*
X020097Y012192D01*
X020112Y012153D01*
X020124Y012113D01*
X020132Y012071D01*
X020136Y012029D01*
X020136Y011987D01*
X020132Y011945D01*
X020124Y011903D01*
X020112Y011863D01*
X020097Y011824D01*
X020077Y011786D01*
X020055Y011750D01*
X020029Y011717D01*
X020000Y011686D01*
X019969Y011658D01*
X019935Y011633D01*
X019899Y011611D01*
X019861Y011593D01*
X019821Y011579D01*
X019780Y011568D01*
X019739Y011561D01*
X019697Y011558D01*
X019654Y011559D01*
X019612Y011564D01*
X019571Y011573D01*
X019531Y011586D01*
X019492Y011602D01*
X019455Y011622D01*
X019420Y011645D01*
X019387Y011672D01*
X019357Y011701D01*
X019330Y011733D01*
X019305Y011768D01*
X019285Y011805D01*
X019267Y011843D01*
X019254Y011883D01*
X019244Y011924D01*
X019238Y011966D01*
X019236Y012008D01*
X009396Y012008D02*
X009398Y012050D01*
X009404Y012092D01*
X009414Y012133D01*
X009427Y012173D01*
X009445Y012211D01*
X009465Y012248D01*
X009490Y012283D01*
X009517Y012315D01*
X009547Y012344D01*
X009580Y012371D01*
X009615Y012394D01*
X009652Y012414D01*
X009691Y012430D01*
X009731Y012443D01*
X009772Y012452D01*
X009814Y012457D01*
X009857Y012458D01*
X009899Y012455D01*
X009940Y012448D01*
X009981Y012437D01*
X010021Y012423D01*
X010059Y012405D01*
X010095Y012383D01*
X010129Y012358D01*
X010160Y012330D01*
X010189Y012299D01*
X010215Y012266D01*
X010237Y012230D01*
X010257Y012192D01*
X010272Y012153D01*
X010284Y012113D01*
X010292Y012071D01*
X010296Y012029D01*
X010296Y011987D01*
X010292Y011945D01*
X010284Y011903D01*
X010272Y011863D01*
X010257Y011824D01*
X010237Y011786D01*
X010215Y011750D01*
X010189Y011717D01*
X010160Y011686D01*
X010129Y011658D01*
X010095Y011633D01*
X010059Y011611D01*
X010021Y011593D01*
X009981Y011579D01*
X009940Y011568D01*
X009899Y011561D01*
X009857Y011558D01*
X009814Y011559D01*
X009772Y011564D01*
X009731Y011573D01*
X009691Y011586D01*
X009652Y011602D01*
X009615Y011622D01*
X009580Y011645D01*
X009547Y011672D01*
X009517Y011701D01*
X009490Y011733D01*
X009465Y011768D01*
X009445Y011805D01*
X009427Y011843D01*
X009414Y011883D01*
X009404Y011924D01*
X009398Y011966D01*
X009396Y012008D01*
X009396Y002168D02*
X009398Y002210D01*
X009404Y002252D01*
X009414Y002293D01*
X009427Y002333D01*
X009445Y002371D01*
X009465Y002408D01*
X009490Y002443D01*
X009517Y002475D01*
X009547Y002504D01*
X009580Y002531D01*
X009615Y002554D01*
X009652Y002574D01*
X009691Y002590D01*
X009731Y002603D01*
X009772Y002612D01*
X009814Y002617D01*
X009857Y002618D01*
X009899Y002615D01*
X009940Y002608D01*
X009981Y002597D01*
X010021Y002583D01*
X010059Y002565D01*
X010095Y002543D01*
X010129Y002518D01*
X010160Y002490D01*
X010189Y002459D01*
X010215Y002426D01*
X010237Y002390D01*
X010257Y002352D01*
X010272Y002313D01*
X010284Y002273D01*
X010292Y002231D01*
X010296Y002189D01*
X010296Y002147D01*
X010292Y002105D01*
X010284Y002063D01*
X010272Y002023D01*
X010257Y001984D01*
X010237Y001946D01*
X010215Y001910D01*
X010189Y001877D01*
X010160Y001846D01*
X010129Y001818D01*
X010095Y001793D01*
X010059Y001771D01*
X010021Y001753D01*
X009981Y001739D01*
X009940Y001728D01*
X009899Y001721D01*
X009857Y001718D01*
X009814Y001719D01*
X009772Y001724D01*
X009731Y001733D01*
X009691Y001746D01*
X009652Y001762D01*
X009615Y001782D01*
X009580Y001805D01*
X009547Y001832D01*
X009517Y001861D01*
X009490Y001893D01*
X009465Y001928D01*
X009445Y001965D01*
X009427Y002003D01*
X009414Y002043D01*
X009404Y002084D01*
X009398Y002126D01*
X009396Y002168D01*
X019236Y002168D02*
X019238Y002210D01*
X019244Y002252D01*
X019254Y002293D01*
X019267Y002333D01*
X019285Y002371D01*
X019305Y002408D01*
X019330Y002443D01*
X019357Y002475D01*
X019387Y002504D01*
X019420Y002531D01*
X019455Y002554D01*
X019492Y002574D01*
X019531Y002590D01*
X019571Y002603D01*
X019612Y002612D01*
X019654Y002617D01*
X019697Y002618D01*
X019739Y002615D01*
X019780Y002608D01*
X019821Y002597D01*
X019861Y002583D01*
X019899Y002565D01*
X019935Y002543D01*
X019969Y002518D01*
X020000Y002490D01*
X020029Y002459D01*
X020055Y002426D01*
X020077Y002390D01*
X020097Y002352D01*
X020112Y002313D01*
X020124Y002273D01*
X020132Y002231D01*
X020136Y002189D01*
X020136Y002147D01*
X020132Y002105D01*
X020124Y002063D01*
X020112Y002023D01*
X020097Y001984D01*
X020077Y001946D01*
X020055Y001910D01*
X020029Y001877D01*
X020000Y001846D01*
X019969Y001818D01*
X019935Y001793D01*
X019899Y001771D01*
X019861Y001753D01*
X019821Y001739D01*
X019780Y001728D01*
X019739Y001721D01*
X019697Y001718D01*
X019654Y001719D01*
X019612Y001724D01*
X019571Y001733D01*
X019531Y001746D01*
X019492Y001762D01*
X019455Y001782D01*
X019420Y001805D01*
X019387Y001832D01*
X019357Y001861D01*
X019330Y001893D01*
X019305Y001928D01*
X019285Y001965D01*
X019267Y002003D01*
X019254Y002043D01*
X019244Y002084D01*
X019238Y002126D01*
X019236Y002168D01*
D20*
X019786Y021328D03*
M02*
