G75*
%MOIN*%
%OFA0B0*%
%FSLAX24Y24*%
%IPPOS*%
%LPD*%
%AMOC8*
5,1,8,0,0,1.08239X$1,22.5*
%
%ADD10C,0.0100*%
%ADD11C,0.0000*%
D10*
X007186Y000628D02*
X007306Y030858D01*
X048156Y030858D01*
X048036Y000628D01*
X007186Y000628D01*
D11*
X009396Y002168D02*
X009398Y002210D01*
X009404Y002252D01*
X009414Y002293D01*
X009427Y002333D01*
X009445Y002371D01*
X009465Y002408D01*
X009490Y002443D01*
X009517Y002475D01*
X009547Y002504D01*
X009580Y002531D01*
X009615Y002554D01*
X009652Y002574D01*
X009691Y002590D01*
X009731Y002603D01*
X009772Y002612D01*
X009814Y002617D01*
X009857Y002618D01*
X009899Y002615D01*
X009940Y002608D01*
X009981Y002597D01*
X010021Y002583D01*
X010059Y002565D01*
X010095Y002543D01*
X010129Y002518D01*
X010160Y002490D01*
X010189Y002459D01*
X010215Y002426D01*
X010237Y002390D01*
X010257Y002352D01*
X010272Y002313D01*
X010284Y002273D01*
X010292Y002231D01*
X010296Y002189D01*
X010296Y002147D01*
X010292Y002105D01*
X010284Y002063D01*
X010272Y002023D01*
X010257Y001984D01*
X010237Y001946D01*
X010215Y001910D01*
X010189Y001877D01*
X010160Y001846D01*
X010129Y001818D01*
X010095Y001793D01*
X010059Y001771D01*
X010021Y001753D01*
X009981Y001739D01*
X009940Y001728D01*
X009899Y001721D01*
X009857Y001718D01*
X009814Y001719D01*
X009772Y001724D01*
X009731Y001733D01*
X009691Y001746D01*
X009652Y001762D01*
X009615Y001782D01*
X009580Y001805D01*
X009547Y001832D01*
X009517Y001861D01*
X009490Y001893D01*
X009465Y001928D01*
X009445Y001965D01*
X009427Y002003D01*
X009414Y002043D01*
X009404Y002084D01*
X009398Y002126D01*
X009396Y002168D01*
X019236Y002168D02*
X019238Y002210D01*
X019244Y002252D01*
X019254Y002293D01*
X019267Y002333D01*
X019285Y002371D01*
X019305Y002408D01*
X019330Y002443D01*
X019357Y002475D01*
X019387Y002504D01*
X019420Y002531D01*
X019455Y002554D01*
X019492Y002574D01*
X019531Y002590D01*
X019571Y002603D01*
X019612Y002612D01*
X019654Y002617D01*
X019697Y002618D01*
X019739Y002615D01*
X019780Y002608D01*
X019821Y002597D01*
X019861Y002583D01*
X019899Y002565D01*
X019935Y002543D01*
X019969Y002518D01*
X020000Y002490D01*
X020029Y002459D01*
X020055Y002426D01*
X020077Y002390D01*
X020097Y002352D01*
X020112Y002313D01*
X020124Y002273D01*
X020132Y002231D01*
X020136Y002189D01*
X020136Y002147D01*
X020132Y002105D01*
X020124Y002063D01*
X020112Y002023D01*
X020097Y001984D01*
X020077Y001946D01*
X020055Y001910D01*
X020029Y001877D01*
X020000Y001846D01*
X019969Y001818D01*
X019935Y001793D01*
X019899Y001771D01*
X019861Y001753D01*
X019821Y001739D01*
X019780Y001728D01*
X019739Y001721D01*
X019697Y001718D01*
X019654Y001719D01*
X019612Y001724D01*
X019571Y001733D01*
X019531Y001746D01*
X019492Y001762D01*
X019455Y001782D01*
X019420Y001805D01*
X019387Y001832D01*
X019357Y001861D01*
X019330Y001893D01*
X019305Y001928D01*
X019285Y001965D01*
X019267Y002003D01*
X019254Y002043D01*
X019244Y002084D01*
X019238Y002126D01*
X019236Y002168D01*
X019236Y012008D02*
X019238Y012050D01*
X019244Y012092D01*
X019254Y012133D01*
X019267Y012173D01*
X019285Y012211D01*
X019305Y012248D01*
X019330Y012283D01*
X019357Y012315D01*
X019387Y012344D01*
X019420Y012371D01*
X019455Y012394D01*
X019492Y012414D01*
X019531Y012430D01*
X019571Y012443D01*
X019612Y012452D01*
X019654Y012457D01*
X019697Y012458D01*
X019739Y012455D01*
X019780Y012448D01*
X019821Y012437D01*
X019861Y012423D01*
X019899Y012405D01*
X019935Y012383D01*
X019969Y012358D01*
X020000Y012330D01*
X020029Y012299D01*
X020055Y012266D01*
X020077Y012230D01*
X020097Y012192D01*
X020112Y012153D01*
X020124Y012113D01*
X020132Y012071D01*
X020136Y012029D01*
X020136Y011987D01*
X020132Y011945D01*
X020124Y011903D01*
X020112Y011863D01*
X020097Y011824D01*
X020077Y011786D01*
X020055Y011750D01*
X020029Y011717D01*
X020000Y011686D01*
X019969Y011658D01*
X019935Y011633D01*
X019899Y011611D01*
X019861Y011593D01*
X019821Y011579D01*
X019780Y011568D01*
X019739Y011561D01*
X019697Y011558D01*
X019654Y011559D01*
X019612Y011564D01*
X019571Y011573D01*
X019531Y011586D01*
X019492Y011602D01*
X019455Y011622D01*
X019420Y011645D01*
X019387Y011672D01*
X019357Y011701D01*
X019330Y011733D01*
X019305Y011768D01*
X019285Y011805D01*
X019267Y011843D01*
X019254Y011883D01*
X019244Y011924D01*
X019238Y011966D01*
X019236Y012008D01*
X009396Y012008D02*
X009398Y012050D01*
X009404Y012092D01*
X009414Y012133D01*
X009427Y012173D01*
X009445Y012211D01*
X009465Y012248D01*
X009490Y012283D01*
X009517Y012315D01*
X009547Y012344D01*
X009580Y012371D01*
X009615Y012394D01*
X009652Y012414D01*
X009691Y012430D01*
X009731Y012443D01*
X009772Y012452D01*
X009814Y012457D01*
X009857Y012458D01*
X009899Y012455D01*
X009940Y012448D01*
X009981Y012437D01*
X010021Y012423D01*
X010059Y012405D01*
X010095Y012383D01*
X010129Y012358D01*
X010160Y012330D01*
X010189Y012299D01*
X010215Y012266D01*
X010237Y012230D01*
X010257Y012192D01*
X010272Y012153D01*
X010284Y012113D01*
X010292Y012071D01*
X010296Y012029D01*
X010296Y011987D01*
X010292Y011945D01*
X010284Y011903D01*
X010272Y011863D01*
X010257Y011824D01*
X010237Y011786D01*
X010215Y011750D01*
X010189Y011717D01*
X010160Y011686D01*
X010129Y011658D01*
X010095Y011633D01*
X010059Y011611D01*
X010021Y011593D01*
X009981Y011579D01*
X009940Y011568D01*
X009899Y011561D01*
X009857Y011558D01*
X009814Y011559D01*
X009772Y011564D01*
X009731Y011573D01*
X009691Y011586D01*
X009652Y011602D01*
X009615Y011622D01*
X009580Y011645D01*
X009547Y011672D01*
X009517Y011701D01*
X009490Y011733D01*
X009465Y011768D01*
X009445Y011805D01*
X009427Y011843D01*
X009414Y011883D01*
X009404Y011924D01*
X009398Y011966D01*
X009396Y012008D01*
M02*
