%
M48
M72
T01C0.0150
T02C0.0394
T03C0.0400
T04C0.0900
%
T01
X12106Y6448
X12346Y5848
X12586Y5248
X13186Y4108
X14926Y4588
X17506Y5368
X16846Y7648
X15946Y8248
X15946Y8668
X15886Y9028
X15226Y9688
X16606Y10108
X17446Y10888
X16906Y12688
X14986Y14188
X13726Y15508
X13006Y16348
X12586Y16768
X12166Y16348
X12166Y17188
X13006Y17188
X13786Y19408
X13066Y20188
X12646Y20608
X12226Y20188
X12226Y21028
X13066Y21028
X14626Y22048
X13126Y22948
X16066Y23428
X16546Y24988
X15946Y25288
X14746Y25288
X13486Y25948
X12466Y25348
X10786Y25588
X14926Y26848
X16467Y27167
X14806Y29608
X17806Y24628
X18586Y23488
X22546Y21448
X22966Y22408
X24886Y21688
X25126Y21208
X23326Y20128
X22786Y19348
X22786Y18928
X22786Y18568
X24526Y18568
X24946Y18268
X26566Y18868
X24406Y17068
X23686Y16588
X23686Y16228
X22786Y16168
X22786Y15808
X22786Y15388
X22786Y14968
X23686Y15388
X24046Y15208
X23806Y14848
X23806Y14428
X23206Y13888
X22606Y13828
X22546Y12748
X23386Y11608
X22186Y10888
X22186Y10348
X23146Y10348
X21106Y10288
X21166Y10948
X20086Y11128
X20086Y10468
X20746Y12808
X20746Y14188
X20806Y14668
X20806Y15208
X20806Y15748
X20806Y16108
X20806Y16468
X20806Y16828
X20806Y17188
X20806Y17548
X20806Y17908
X20746Y18388
X20806Y18748
X19846Y19228
X18946Y19708
X17746Y18928
X17686Y18568
X17806Y18208
X17206Y18808
X16546Y19348
X19426Y17908
X19306Y17428
X19366Y16888
X18526Y16228
X18826Y15808
X19846Y15388
X19846Y14668
X16906Y14548
X16606Y16288
X12946Y13288
X12526Y12868
X12106Y12448
X12106Y13288
X12946Y12448
X13666Y11668
X13846Y9148
X13966Y8548
X13786Y8128
X14686Y7888
X12226Y8848
X21406Y5188
X22666Y5848
X22246Y6448
X23926Y5368
X24406Y4888
X24826Y4888
X26446Y5368
X25426Y6628
X25426Y7048
X25186Y7948
X24706Y8368
X25426Y9148
X25426Y9568
X26146Y12028
X26686Y12328
X25666Y13408
X25786Y14308
X26146Y15328
X25906Y15748
X22726Y16648
X22726Y17008
X30706Y16948
X31006Y17848
X33226Y16588
X33886Y16828
X40606Y24808
X26026Y24628
X28126Y5788
T02
X27226Y11908
X27226Y12908
X27226Y13908
X27226Y14908
X27226Y15908
X27226Y16908
X27226Y17908
X27226Y18908
X27226Y19908
X27226Y20908
X27226Y22508
X27226Y23508
X27226Y24508
X27226Y25508
X27226Y26508
X27226Y27508
X27226Y28508
X27226Y29508
X46226Y29508
X46226Y28508
X46226Y27508
X46226Y26508
X46226Y25508
X46226Y24508
X46226Y22508
X46226Y21508
X46226Y20508
X46226Y19508
X46226Y18508
X46226Y17508
X46226Y16508
X46226Y15508
T03
X41306Y15988
X41306Y16988
X41306Y17988
X41306Y18988
X41306Y19988
X41306Y20988
X41306Y21988
X41306Y22988
X41306Y23988
X41306Y24988
X41306Y25988
X32306Y25988
X32306Y24988
X32306Y23988
X32306Y22988
X32306Y21988
X32306Y20988
X32306Y19988
X32306Y18988
X32306Y17988
X32306Y16988
X32306Y15988
X32306Y14988
X32306Y13988
X32306Y12988
X32306Y11988
X32306Y10988
X32306Y9988
X32306Y8988
X32306Y7988
X32306Y6988
X41306Y6988
X41306Y7988
X41306Y8988
X41306Y9988
X41306Y10988
X41306Y11988
X41306Y12988
X41306Y13988
X41306Y14988
X23166Y8428
X22166Y8428
X21166Y8428
X20166Y8428
X20626Y25078
X20626Y26858
X20326Y28508
X20326Y29508
X18926Y29528
X18926Y28528
X23186Y26858
X23186Y25078
X8366Y27128
X8366Y28128
T04
X9846Y2168
X19686Y2168
X19686Y12008
X9846Y12008
M30
