G75*
%MOIN*%
%OFA0B0*%
%FSLAX24Y24*%
%IPPOS*%
%LPD*%
%AMOC8*
5,1,8,0,0,1.08239X$1,22.5*
%
%ADD10C,0.0100*%
%ADD11C,0.0050*%
%ADD12R,0.0240X0.0080*%
%ADD13C,0.0060*%
%ADD14R,0.0080X0.0240*%
%ADD15C,0.0080*%
%ADD16C,0.0010*%
%ADD17C,0.0040*%
%ADD18R,0.0300X0.0100*%
%ADD19R,0.0340X0.0300*%
%ADD20R,0.0100X0.0300*%
%ADD21C,0.0120*%
%ADD22C,0.0118*%
%ADD23C,0.0000*%
D10*
X007186Y000628D02*
X007306Y030858D01*
X048156Y030858D01*
X048036Y000628D01*
X007186Y000628D01*
X013052Y025189D02*
X013052Y025589D01*
X013319Y025589D02*
X013052Y025189D01*
X013319Y025189D02*
X013319Y025589D01*
X013513Y025523D02*
X013580Y025589D01*
X013713Y025589D01*
X013780Y025523D01*
X013780Y025256D01*
X013713Y025189D01*
X013580Y025189D01*
X013513Y025256D01*
X013953Y025189D02*
X014087Y025189D01*
X014020Y025189D02*
X014020Y025589D01*
X014087Y025589D02*
X013953Y025589D01*
D11*
X016704Y003575D02*
X016704Y003543D01*
X016704Y003480D02*
X016704Y003353D01*
X016736Y003353D02*
X016672Y003353D01*
X016588Y003353D02*
X016588Y003480D01*
X016493Y003480D01*
X016462Y003448D01*
X016462Y003353D01*
X016367Y003385D02*
X016336Y003353D01*
X016241Y003353D01*
X016241Y003321D02*
X016241Y003480D01*
X016336Y003480D01*
X016367Y003448D01*
X016367Y003385D01*
X016304Y003290D02*
X016272Y003290D01*
X016241Y003321D01*
X016146Y003353D02*
X016051Y003353D01*
X016020Y003385D01*
X016051Y003416D01*
X016115Y003416D01*
X016146Y003448D01*
X016115Y003480D01*
X016020Y003480D01*
X015967Y003152D02*
X015967Y003025D01*
X015936Y002993D01*
X015852Y003025D02*
X015852Y003088D01*
X015820Y003120D01*
X015757Y003120D01*
X015725Y003088D01*
X015725Y003056D01*
X015852Y003056D01*
X015852Y003025D02*
X015820Y002993D01*
X015757Y002993D01*
X015631Y002993D02*
X015631Y003120D01*
X015599Y003120D01*
X015567Y003088D01*
X015536Y003120D01*
X015504Y003088D01*
X015504Y002993D01*
X015567Y002993D02*
X015567Y003088D01*
X015410Y003088D02*
X015378Y003120D01*
X015283Y003120D01*
X015315Y003056D02*
X015378Y003056D01*
X015410Y003088D01*
X015410Y002993D02*
X015315Y002993D01*
X015283Y003025D01*
X015315Y003056D01*
X014968Y002993D02*
X014841Y002993D01*
X014747Y003025D02*
X014715Y003056D01*
X014620Y003056D01*
X014620Y003088D02*
X014620Y002993D01*
X014715Y002993D01*
X014747Y003025D01*
X014715Y003120D02*
X014652Y003120D01*
X014620Y003088D01*
X014526Y003120D02*
X014431Y003120D01*
X014399Y003088D01*
X014399Y003025D01*
X014431Y002993D01*
X014526Y002993D01*
X014526Y003183D01*
X014273Y003120D02*
X014210Y003120D01*
X014178Y003088D01*
X014178Y002993D01*
X014273Y002993D01*
X014305Y003025D01*
X014273Y003056D01*
X014178Y003056D01*
X014084Y003056D02*
X014020Y003120D01*
X013989Y003120D01*
X014084Y003120D02*
X014084Y002993D01*
X013900Y003025D02*
X013868Y003056D01*
X013773Y003056D01*
X013773Y003088D02*
X013773Y002993D01*
X013868Y002993D01*
X013900Y003025D01*
X013868Y003120D02*
X013805Y003120D01*
X013773Y003088D01*
X013679Y003120D02*
X013615Y003120D01*
X013647Y003152D02*
X013647Y003025D01*
X013615Y002993D01*
X013531Y003025D02*
X013500Y002993D01*
X013436Y002993D01*
X013405Y003025D01*
X013405Y003088D01*
X013436Y003120D01*
X013500Y003120D01*
X013531Y003088D01*
X013531Y003025D01*
X013310Y003056D02*
X013247Y003120D01*
X013215Y003120D01*
X013126Y003120D02*
X013126Y003025D01*
X013094Y002993D01*
X012999Y002993D01*
X012999Y002961D02*
X012999Y003120D01*
X012999Y002961D02*
X013031Y002930D01*
X013063Y002930D01*
X013310Y002993D02*
X013310Y003120D01*
X013657Y002400D02*
X013689Y002400D01*
X013752Y002336D01*
X013752Y002273D02*
X013752Y002400D01*
X013846Y002368D02*
X013846Y002336D01*
X013973Y002336D01*
X013973Y002305D02*
X013973Y002368D01*
X013942Y002400D01*
X013878Y002400D01*
X013846Y002368D01*
X013878Y002273D02*
X013942Y002273D01*
X013973Y002305D01*
X014057Y002273D02*
X014121Y002273D01*
X014089Y002273D02*
X014089Y002463D01*
X014121Y002463D01*
X014236Y002463D02*
X014236Y002273D01*
X014205Y002273D02*
X014268Y002273D01*
X014362Y002305D02*
X014362Y002368D01*
X014394Y002400D01*
X014457Y002400D01*
X014489Y002368D01*
X014489Y002305D01*
X014457Y002273D01*
X014394Y002273D01*
X014362Y002305D01*
X014268Y002463D02*
X014236Y002463D01*
X014578Y002400D02*
X014610Y002400D01*
X014673Y002336D01*
X014673Y002273D02*
X014673Y002400D01*
X014757Y002400D02*
X014820Y002400D01*
X014789Y002432D02*
X014789Y002305D01*
X014757Y002273D01*
X014915Y002273D02*
X014915Y002368D01*
X014946Y002400D01*
X015041Y002400D01*
X015041Y002273D01*
X015136Y002305D02*
X015136Y002368D01*
X015167Y002400D01*
X015231Y002400D01*
X015262Y002368D01*
X015262Y002305D01*
X015231Y002273D01*
X015167Y002273D01*
X015136Y002305D01*
X015357Y002305D02*
X015388Y002273D01*
X015452Y002273D01*
X015483Y002305D01*
X015483Y002432D01*
X015452Y002463D01*
X015388Y002463D01*
X015357Y002432D01*
X015793Y002400D02*
X015825Y002400D01*
X015889Y002336D01*
X015889Y002273D02*
X015889Y002400D01*
X015983Y002368D02*
X016014Y002400D01*
X016078Y002400D01*
X016109Y002368D01*
X016109Y002305D01*
X016078Y002273D01*
X016014Y002273D01*
X015983Y002305D01*
X015983Y002368D01*
X016193Y002400D02*
X016257Y002400D01*
X016225Y002432D02*
X016225Y002305D01*
X016193Y002273D01*
X016351Y002305D02*
X016351Y002368D01*
X016383Y002400D01*
X016446Y002400D01*
X016478Y002368D01*
X016478Y002305D01*
X016446Y002273D01*
X016383Y002273D01*
X016351Y002305D01*
X016572Y002273D02*
X016572Y002463D01*
X016635Y002400D01*
X016699Y002463D01*
X016699Y002273D01*
X017014Y002305D02*
X017046Y002273D01*
X017109Y002273D01*
X017141Y002305D01*
X017141Y002432D01*
X017109Y002463D01*
X017046Y002463D01*
X017014Y002432D01*
X017235Y002432D02*
X017267Y002463D01*
X017362Y002463D01*
X017362Y002273D01*
X017267Y002273D01*
X017235Y002305D01*
X017235Y002432D01*
X017677Y002400D02*
X017772Y002400D01*
X017804Y002368D01*
X017772Y002336D01*
X017709Y002336D01*
X017677Y002305D01*
X017709Y002273D01*
X017804Y002273D01*
X017898Y002305D02*
X017930Y002336D01*
X017993Y002336D01*
X018025Y002368D01*
X017993Y002400D01*
X017898Y002400D01*
X017898Y002305D02*
X017930Y002273D01*
X018025Y002273D01*
X018119Y002336D02*
X018246Y002336D01*
X018246Y002305D02*
X018246Y002368D01*
X018214Y002400D01*
X018151Y002400D01*
X018119Y002368D01*
X018119Y002336D01*
X018151Y002273D02*
X018214Y002273D01*
X018246Y002305D01*
X018330Y002273D02*
X018393Y002273D01*
X018361Y002273D02*
X018361Y002463D01*
X018393Y002463D01*
X018487Y002368D02*
X018487Y002273D01*
X018487Y002368D02*
X018519Y002400D01*
X018582Y002400D01*
X018614Y002368D01*
X018614Y002463D02*
X018614Y002273D01*
X018708Y002305D02*
X018740Y002336D01*
X018803Y002336D01*
X018835Y002368D01*
X018803Y002400D01*
X018708Y002400D01*
X018708Y002305D02*
X018740Y002273D01*
X018835Y002273D01*
X018929Y002273D02*
X018929Y002400D01*
X018929Y002273D02*
X019024Y002273D01*
X019056Y002305D01*
X019056Y002400D01*
X019145Y002400D02*
X019177Y002400D01*
X019240Y002336D01*
X019240Y002273D02*
X019240Y002400D01*
X019334Y002400D02*
X019366Y002368D01*
X019461Y002368D01*
X019461Y002273D02*
X019366Y002273D01*
X019334Y002305D01*
X019334Y002336D01*
X019366Y002368D01*
X019334Y002400D02*
X019334Y002432D01*
X019366Y002463D01*
X019461Y002463D01*
X019461Y002273D01*
X019461Y002103D02*
X019366Y002103D01*
X019334Y002072D01*
X019334Y002008D01*
X019366Y001976D01*
X019461Y001976D01*
X019461Y001913D02*
X019461Y002103D01*
X019398Y001976D02*
X019334Y001913D01*
X019240Y001945D02*
X019240Y002008D01*
X019208Y002040D01*
X019145Y002040D01*
X019113Y002008D01*
X019113Y001976D01*
X019240Y001976D01*
X019240Y001945D02*
X019208Y001913D01*
X019145Y001913D01*
X019019Y002040D02*
X018956Y001913D01*
X018892Y002040D01*
X018798Y001945D02*
X018766Y001945D01*
X018766Y001913D01*
X018798Y001913D01*
X018798Y001945D01*
X018467Y001913D02*
X018467Y002040D01*
X018403Y002103D01*
X018340Y002040D01*
X018340Y001913D01*
X018340Y002008D02*
X018467Y002008D01*
X018435Y002633D02*
X018372Y002633D01*
X018340Y002665D01*
X018340Y002792D01*
X018372Y002823D01*
X018435Y002823D01*
X018467Y002792D01*
X018467Y002760D01*
X018435Y002728D01*
X018340Y002728D01*
X018246Y002665D02*
X018214Y002665D01*
X018214Y002633D01*
X018246Y002633D01*
X018246Y002665D01*
X018135Y002633D02*
X018008Y002760D01*
X018008Y002792D01*
X018040Y002823D01*
X018104Y002823D01*
X018135Y002792D01*
X018135Y002633D02*
X018008Y002633D01*
X017914Y002665D02*
X017914Y002696D01*
X017883Y002728D01*
X017819Y002728D01*
X017787Y002696D01*
X017787Y002665D01*
X017819Y002633D01*
X017883Y002633D01*
X017914Y002665D01*
X017883Y002728D02*
X017914Y002760D01*
X017914Y002792D01*
X017883Y002823D01*
X017819Y002823D01*
X017787Y002792D01*
X017787Y002760D01*
X017819Y002728D01*
X017851Y002993D02*
X017914Y002993D01*
X017883Y002993D02*
X017883Y003120D01*
X017914Y003120D01*
X017883Y003183D02*
X017883Y003215D01*
X017998Y003120D02*
X018062Y003120D01*
X018030Y003152D02*
X018030Y003025D01*
X017998Y002993D01*
X018156Y003056D02*
X018283Y003056D01*
X018283Y003025D02*
X018283Y003088D01*
X018251Y003120D01*
X018187Y003120D01*
X018156Y003088D01*
X018156Y003056D01*
X018187Y002993D02*
X018251Y002993D01*
X018283Y003025D01*
X018377Y002993D02*
X018377Y003088D01*
X018408Y003120D01*
X018440Y003088D01*
X018440Y002993D01*
X018504Y002993D02*
X018504Y003120D01*
X018472Y003120D01*
X018440Y003088D01*
X018587Y002993D02*
X018651Y002993D01*
X018619Y002993D02*
X018619Y003120D01*
X018651Y003120D01*
X018619Y003183D02*
X018619Y003215D01*
X018703Y003290D02*
X018671Y003321D01*
X018671Y003480D01*
X018766Y003480D01*
X018798Y003448D01*
X018798Y003385D01*
X018766Y003353D01*
X018671Y003353D01*
X018703Y003290D02*
X018735Y003290D01*
X018892Y003353D02*
X018892Y003480D01*
X018892Y003353D02*
X018987Y003353D01*
X019019Y003385D01*
X019019Y003480D01*
X019113Y003448D02*
X019145Y003480D01*
X019208Y003480D01*
X019240Y003448D01*
X019240Y003385D01*
X019208Y003353D01*
X019145Y003353D01*
X019113Y003385D01*
X019113Y003448D01*
X019334Y003385D02*
X019334Y003512D01*
X019366Y003543D01*
X019461Y003543D01*
X019461Y003353D01*
X019366Y003353D01*
X019334Y003385D01*
X019366Y003183D02*
X019334Y003152D01*
X019334Y003120D01*
X019366Y003088D01*
X019461Y003088D01*
X019461Y002993D02*
X019366Y002993D01*
X019334Y003025D01*
X019334Y003056D01*
X019366Y003088D01*
X019366Y003183D02*
X019461Y003183D01*
X019461Y002993D01*
X019429Y002823D02*
X019461Y002792D01*
X019429Y002823D02*
X019366Y002823D01*
X019334Y002792D01*
X019334Y002760D01*
X019461Y002633D01*
X019334Y002633D01*
X019240Y002665D02*
X019113Y002792D01*
X019113Y002665D01*
X019145Y002633D01*
X019208Y002633D01*
X019240Y002665D01*
X019240Y002792D01*
X019208Y002823D01*
X019145Y002823D01*
X019113Y002792D01*
X019019Y002760D02*
X018956Y002823D01*
X018956Y002633D01*
X019019Y002633D02*
X018892Y002633D01*
X018798Y002728D02*
X018671Y002728D01*
X018703Y002633D02*
X018703Y002823D01*
X018798Y002728D01*
X018577Y002665D02*
X018545Y002665D01*
X018545Y002633D01*
X018577Y002633D01*
X018577Y002665D01*
X018467Y002665D02*
X018435Y002633D01*
X018745Y002993D02*
X018745Y003088D01*
X018777Y003120D01*
X018808Y003088D01*
X018808Y002993D01*
X018872Y002993D02*
X018872Y003120D01*
X018840Y003120D01*
X018808Y003088D01*
X018966Y003088D02*
X018998Y003120D01*
X019061Y003120D01*
X019093Y003088D01*
X019093Y003025D01*
X019061Y002993D01*
X018998Y002993D01*
X018966Y003025D01*
X018966Y003088D01*
X019177Y002993D02*
X019240Y002993D01*
X019208Y002993D02*
X019208Y003120D01*
X019240Y003120D01*
X019208Y003183D02*
X019208Y003215D01*
X018577Y003353D02*
X018514Y003353D01*
X018545Y003353D02*
X018545Y003543D01*
X018577Y003543D01*
X018398Y003480D02*
X018335Y003480D01*
X018303Y003448D01*
X018303Y003353D01*
X018398Y003353D01*
X018430Y003385D01*
X018398Y003416D01*
X018303Y003416D01*
X018209Y003448D02*
X018177Y003480D01*
X018082Y003480D01*
X018114Y003416D02*
X018177Y003416D01*
X018209Y003448D01*
X018209Y003353D02*
X018114Y003353D01*
X018082Y003385D01*
X018114Y003416D01*
X017767Y003448D02*
X017640Y003448D01*
X017640Y003543D02*
X017640Y003353D01*
X017546Y003385D02*
X017514Y003353D01*
X017419Y003353D01*
X017419Y003480D01*
X017325Y003480D02*
X017262Y003480D01*
X017293Y003512D02*
X017293Y003385D01*
X017262Y003353D01*
X017178Y003385D02*
X017146Y003353D01*
X017051Y003353D01*
X016957Y003353D02*
X016957Y003543D01*
X016925Y003480D02*
X016862Y003480D01*
X016830Y003448D01*
X016830Y003353D01*
X016778Y003215D02*
X016778Y003183D01*
X016778Y003120D02*
X016778Y002993D01*
X016809Y002993D02*
X016746Y002993D01*
X016662Y002993D02*
X016567Y002993D01*
X016535Y003025D01*
X016567Y003056D01*
X016630Y003056D01*
X016662Y003088D01*
X016630Y003120D01*
X016535Y003120D01*
X016441Y003120D02*
X016441Y003025D01*
X016409Y002993D01*
X016314Y002993D01*
X016314Y002961D02*
X016314Y003120D01*
X016220Y003088D02*
X016188Y003120D01*
X016093Y003120D01*
X016125Y003056D02*
X016188Y003056D01*
X016220Y003088D01*
X016220Y002993D02*
X016125Y002993D01*
X016093Y003025D01*
X016125Y003056D01*
X015999Y003120D02*
X015936Y003120D01*
X016314Y002961D02*
X016346Y002930D01*
X016378Y002930D01*
X016778Y003120D02*
X016809Y003120D01*
X016925Y003183D02*
X016925Y002993D01*
X016957Y002993D02*
X016893Y002993D01*
X017041Y002993D02*
X017104Y002993D01*
X017072Y002993D02*
X017072Y003120D01*
X017104Y003120D01*
X017072Y003183D02*
X017072Y003215D01*
X016957Y003183D02*
X016925Y003183D01*
X016957Y003448D02*
X016925Y003480D01*
X017051Y003480D02*
X017146Y003480D01*
X017178Y003448D01*
X017178Y003385D01*
X017198Y003183D02*
X017198Y002993D01*
X017325Y002993D02*
X017325Y003183D01*
X017262Y003120D01*
X017198Y003183D01*
X017546Y003385D02*
X017546Y003480D01*
X017767Y003543D02*
X017767Y003353D01*
X017735Y003120D02*
X017640Y003120D01*
X017735Y003120D02*
X017767Y003088D01*
X017767Y003025D01*
X017735Y002993D01*
X017640Y002993D01*
X016736Y003480D02*
X016704Y003480D01*
X014968Y003183D02*
X014968Y002993D01*
D12*
X016326Y008528D03*
X016326Y009528D03*
X015626Y009788D03*
X014826Y009868D03*
X013526Y008608D03*
X012966Y008648D03*
X021446Y013068D03*
X022046Y013048D03*
X023246Y013368D03*
X022586Y014408D03*
X022046Y014388D03*
X022386Y015608D03*
X024486Y015148D03*
X024726Y016488D03*
X017166Y024088D03*
X016346Y024068D03*
X015126Y024028D03*
X014486Y024068D03*
X014546Y023048D03*
X014886Y028088D03*
X014886Y029108D03*
D13*
X015267Y028993D02*
X015267Y028873D01*
X015297Y028843D01*
X015357Y028843D01*
X015387Y028873D01*
X015357Y028933D02*
X015267Y028933D01*
X015267Y028993D02*
X015297Y029023D01*
X015357Y029023D01*
X015387Y028993D01*
X015387Y028963D01*
X015357Y028933D01*
X015488Y028963D02*
X015488Y028993D01*
X015518Y029023D01*
X015578Y029023D01*
X015608Y028993D01*
X015709Y028993D02*
X015709Y028933D01*
X015739Y028903D01*
X015829Y028903D01*
X015829Y028843D02*
X015829Y029023D01*
X015739Y029023D01*
X015709Y028993D01*
X015769Y028903D02*
X015709Y028843D01*
X015608Y028843D02*
X015488Y028963D01*
X015488Y028843D02*
X015608Y028843D01*
X015566Y029167D02*
X015596Y029197D01*
X015476Y029317D01*
X015476Y029197D01*
X015506Y029167D01*
X015566Y029167D01*
X015596Y029197D02*
X015596Y029317D01*
X015566Y029347D01*
X015506Y029347D01*
X015476Y029317D01*
X015375Y029347D02*
X015375Y029167D01*
X015375Y029227D02*
X015285Y029287D01*
X015375Y029227D02*
X015285Y029167D01*
X015106Y029478D02*
X015106Y028738D01*
X014666Y028738D01*
X014666Y029478D01*
X015106Y029478D01*
X015130Y029948D02*
X015220Y030008D01*
X015130Y030068D01*
X015220Y030128D02*
X015220Y029948D01*
X015321Y029978D02*
X015351Y029948D01*
X015411Y029948D01*
X015441Y029978D01*
X015321Y030098D01*
X015321Y029978D01*
X015321Y030098D02*
X015351Y030128D01*
X015411Y030128D01*
X015441Y030098D01*
X015441Y029978D01*
X015542Y029948D02*
X015662Y029948D01*
X015602Y029948D02*
X015602Y030128D01*
X015662Y030068D01*
X015709Y030268D02*
X015709Y030448D01*
X015619Y030448D01*
X015589Y030418D01*
X015589Y030358D01*
X015619Y030328D01*
X015709Y030328D01*
X015649Y030328D02*
X015589Y030268D01*
X015488Y030268D02*
X015368Y030268D01*
X015428Y030268D02*
X015428Y030448D01*
X015488Y030388D01*
X015267Y030418D02*
X015237Y030448D01*
X015177Y030448D01*
X015147Y030418D01*
X015147Y030388D01*
X015177Y030358D01*
X015147Y030328D01*
X015147Y030298D01*
X015177Y030268D01*
X015237Y030268D01*
X015267Y030298D01*
X015207Y030358D02*
X015177Y030358D01*
X014906Y030468D02*
X014906Y029908D01*
X013786Y029908D01*
X013786Y030468D01*
X014906Y030468D01*
X014526Y029498D02*
X014086Y029498D01*
X014086Y028758D01*
X014526Y028758D01*
X014526Y029498D01*
X013866Y029503D02*
X013866Y029383D01*
X013836Y029353D01*
X013776Y029353D01*
X013746Y029383D01*
X013645Y029353D02*
X013525Y029473D01*
X013525Y029503D01*
X013555Y029533D01*
X013615Y029533D01*
X013645Y029503D01*
X013746Y029503D02*
X013776Y029533D01*
X013836Y029533D01*
X013866Y029503D01*
X013645Y029353D02*
X013525Y029353D01*
X013424Y029383D02*
X013394Y029353D01*
X013334Y029353D01*
X013304Y029383D01*
X013304Y029503D01*
X013334Y029533D01*
X013394Y029533D01*
X013424Y029503D01*
X013424Y029473D01*
X013394Y029443D01*
X013304Y029443D01*
X013379Y029228D02*
X013349Y029198D01*
X013469Y029078D01*
X013439Y029048D01*
X013379Y029048D01*
X013349Y029078D01*
X013349Y029198D01*
X013379Y029228D02*
X013439Y029228D01*
X013469Y029198D01*
X013469Y029078D01*
X013570Y029078D02*
X013600Y029048D01*
X013660Y029048D01*
X013690Y029078D01*
X013570Y029198D01*
X013570Y029078D01*
X013690Y029078D02*
X013690Y029198D01*
X013660Y029228D01*
X013600Y029228D01*
X013570Y029198D01*
X013791Y029048D02*
X013911Y029048D01*
X013851Y029048D02*
X013851Y029228D01*
X013911Y029168D01*
X013248Y029168D02*
X013158Y029168D01*
X013128Y029138D01*
X013128Y029048D01*
X013027Y029048D02*
X013027Y029228D01*
X012907Y029228D01*
X012967Y029138D02*
X013027Y029138D01*
X013248Y029168D02*
X013248Y029048D01*
X014666Y028458D02*
X015106Y028458D01*
X015106Y027718D01*
X014666Y027718D01*
X014666Y028458D01*
X015145Y028290D02*
X015205Y028200D01*
X015265Y028290D01*
X015325Y028200D02*
X015145Y028200D01*
X015175Y028099D02*
X015145Y028069D01*
X015145Y028009D01*
X015175Y027979D01*
X015295Y028099D01*
X015175Y028099D01*
X015295Y028099D02*
X015325Y028069D01*
X015325Y028009D01*
X015295Y027979D01*
X015175Y027979D01*
X015145Y027878D02*
X015145Y027758D01*
X015265Y027878D01*
X015295Y027878D01*
X015325Y027848D01*
X015325Y027788D01*
X015295Y027758D01*
X015421Y027745D02*
X015601Y027745D01*
X015601Y027835D01*
X015571Y027865D01*
X015511Y027865D01*
X015481Y027835D01*
X015481Y027745D01*
X015481Y027805D02*
X015421Y027865D01*
X015421Y027966D02*
X015541Y028086D01*
X015571Y028086D01*
X015601Y028056D01*
X015601Y027996D01*
X015571Y027966D01*
X015421Y027966D02*
X015421Y028086D01*
X015451Y028187D02*
X015421Y028217D01*
X015421Y028277D01*
X015451Y028307D01*
X015481Y028307D01*
X015511Y028277D01*
X015511Y028187D01*
X015451Y028187D01*
X015511Y028187D02*
X015571Y028247D01*
X015601Y028307D01*
X015697Y029167D02*
X015817Y029167D01*
X015757Y029167D02*
X015757Y029347D01*
X015817Y029287D01*
X015726Y027268D02*
X015166Y027268D01*
X015166Y026148D01*
X015726Y026148D01*
X015726Y027268D01*
X015826Y026730D02*
X015826Y026610D01*
X015946Y026730D01*
X015976Y026730D01*
X016006Y026700D01*
X016006Y026640D01*
X015976Y026610D01*
X015976Y026509D02*
X015946Y026509D01*
X015916Y026479D01*
X015886Y026509D01*
X015856Y026509D01*
X015826Y026479D01*
X015826Y026419D01*
X015856Y026389D01*
X015916Y026449D02*
X015916Y026479D01*
X015976Y026509D02*
X016006Y026479D01*
X016006Y026419D01*
X015976Y026389D01*
X015976Y026288D02*
X016006Y026258D01*
X016006Y026198D01*
X015976Y026168D01*
X015856Y026168D01*
X015826Y026198D01*
X015826Y026258D01*
X015856Y026288D01*
X015706Y025868D02*
X015146Y025868D01*
X015146Y024748D01*
X015706Y024748D01*
X015706Y025868D01*
X015806Y025727D02*
X015986Y025727D01*
X015986Y025847D01*
X015896Y025787D02*
X015896Y025727D01*
X015926Y025626D02*
X015806Y025626D01*
X015806Y025536D01*
X015836Y025506D01*
X015926Y025506D01*
X015956Y025405D02*
X015836Y025285D01*
X015806Y025315D01*
X015806Y025375D01*
X015836Y025405D01*
X015956Y025405D01*
X015986Y025375D01*
X015986Y025315D01*
X015956Y025285D01*
X015836Y025285D01*
X015806Y025184D02*
X015806Y025064D01*
X015806Y025124D02*
X015986Y025124D01*
X015926Y025064D01*
X016126Y024438D02*
X016566Y024438D01*
X016566Y023698D01*
X016126Y023698D01*
X016126Y024438D01*
X015966Y024398D02*
X015526Y024398D01*
X015526Y023658D01*
X015966Y023658D01*
X015966Y024398D01*
X015346Y024398D02*
X015346Y023658D01*
X014906Y023658D01*
X014906Y024398D01*
X015346Y024398D01*
X014768Y024672D02*
X014587Y024672D01*
X014587Y024612D02*
X014587Y024733D01*
X014491Y024738D02*
X014461Y024768D01*
X014401Y024768D01*
X014371Y024738D01*
X014371Y024648D01*
X014311Y024648D02*
X014491Y024648D01*
X014491Y024738D01*
X014371Y024708D02*
X014311Y024768D01*
X014341Y024869D02*
X014311Y024899D01*
X014311Y024959D01*
X014341Y024989D01*
X014371Y024989D01*
X014401Y024959D01*
X014401Y024929D01*
X014401Y024959D02*
X014431Y024989D01*
X014461Y024989D01*
X014491Y024959D01*
X014491Y024899D01*
X014461Y024869D01*
X014587Y024833D02*
X014768Y024833D01*
X014708Y024924D02*
X014647Y024833D01*
X014587Y024924D01*
X014461Y025090D02*
X014431Y025090D01*
X014401Y025120D01*
X014401Y025180D01*
X014371Y025210D01*
X014341Y025210D01*
X014311Y025180D01*
X014311Y025120D01*
X014341Y025090D01*
X014371Y025090D01*
X014401Y025120D01*
X014401Y025180D02*
X014431Y025210D01*
X014461Y025210D01*
X014491Y025180D01*
X014491Y025120D01*
X014461Y025090D01*
X014866Y025275D02*
X014866Y025335D01*
X014896Y025365D01*
X014866Y025275D02*
X014896Y025245D01*
X015016Y025245D01*
X015046Y025275D01*
X015046Y025335D01*
X015016Y025365D01*
X015016Y025466D02*
X015046Y025496D01*
X015046Y025556D01*
X015016Y025586D01*
X014986Y025586D01*
X014956Y025556D01*
X014926Y025586D01*
X014896Y025586D01*
X014866Y025556D01*
X014866Y025496D01*
X014896Y025466D01*
X014956Y025526D02*
X014956Y025556D01*
X014986Y025687D02*
X015046Y025747D01*
X014866Y025747D01*
X014866Y025687D02*
X014866Y025807D01*
X014886Y026128D02*
X014886Y026248D01*
X014886Y026188D02*
X015066Y026188D01*
X015006Y026128D01*
X015036Y026349D02*
X015066Y026379D01*
X015066Y026439D01*
X015036Y026469D01*
X014916Y026349D01*
X014886Y026379D01*
X014886Y026439D01*
X014916Y026469D01*
X015036Y026469D01*
X015006Y026570D02*
X014916Y026570D01*
X014886Y026600D01*
X014886Y026690D01*
X015006Y026690D01*
X014976Y026791D02*
X014976Y026851D01*
X014886Y026791D02*
X015066Y026791D01*
X015066Y026911D01*
X015036Y026349D02*
X014916Y026349D01*
X014768Y024672D02*
X014708Y024612D01*
X014706Y024438D02*
X014266Y024438D01*
X014266Y023698D01*
X014706Y023698D01*
X014706Y024438D01*
X014766Y023418D02*
X014326Y023418D01*
X014326Y022678D01*
X014766Y022678D01*
X014766Y023418D01*
X014851Y023400D02*
X014881Y023430D01*
X015001Y023430D01*
X015031Y023400D01*
X015031Y023340D01*
X015001Y023310D01*
X014971Y023310D01*
X014941Y023340D01*
X014941Y023430D01*
X014851Y023400D02*
X014851Y023340D01*
X014881Y023310D01*
X014881Y023209D02*
X014851Y023179D01*
X014851Y023119D01*
X014881Y023089D01*
X014941Y023149D02*
X014941Y023179D01*
X014911Y023209D01*
X014881Y023209D01*
X014941Y023179D02*
X014971Y023209D01*
X015001Y023209D01*
X015031Y023179D01*
X015031Y023119D01*
X015001Y023089D01*
X015001Y022988D02*
X014941Y022988D01*
X014911Y022958D01*
X014911Y022868D01*
X014851Y022868D02*
X015031Y022868D01*
X015031Y022958D01*
X015001Y022988D01*
X014911Y022928D02*
X014851Y022988D01*
X015126Y023040D02*
X015156Y023010D01*
X015276Y023130D01*
X015156Y023130D01*
X015126Y023100D01*
X015126Y023040D01*
X015156Y023010D02*
X015276Y023010D01*
X015306Y023040D01*
X015306Y023100D01*
X015276Y023130D01*
X015246Y023231D02*
X015246Y023321D01*
X015216Y023351D01*
X015126Y023351D01*
X015126Y023452D02*
X015306Y023452D01*
X015306Y023572D01*
X015216Y023512D02*
X015216Y023452D01*
X015246Y023231D02*
X015126Y023231D01*
X015156Y022909D02*
X015126Y022879D01*
X015126Y022819D01*
X015156Y022789D01*
X015276Y022909D01*
X015156Y022909D01*
X015156Y022789D02*
X015276Y022789D01*
X015306Y022819D01*
X015306Y022879D01*
X015276Y022909D01*
X015487Y023012D02*
X015487Y023133D01*
X015487Y023072D02*
X015668Y023072D01*
X015608Y023012D01*
X015721Y023047D02*
X015751Y023047D01*
X015871Y023167D01*
X015901Y023167D01*
X015901Y023047D01*
X015871Y022946D02*
X015841Y022946D01*
X015811Y022916D01*
X015781Y022946D01*
X015751Y022946D01*
X015721Y022916D01*
X015721Y022856D01*
X015751Y022826D01*
X015811Y022886D02*
X015811Y022916D01*
X015871Y022946D02*
X015901Y022916D01*
X015901Y022856D01*
X015871Y022826D01*
X015871Y022725D02*
X015901Y022695D01*
X015901Y022635D01*
X015871Y022605D01*
X015751Y022605D01*
X015721Y022635D01*
X015721Y022695D01*
X015751Y022725D01*
X015306Y022628D02*
X015126Y022628D01*
X015126Y022568D02*
X015126Y022688D01*
X015246Y022568D02*
X015306Y022628D01*
X015295Y022023D02*
X015265Y022023D01*
X015235Y021993D01*
X015205Y022023D01*
X015175Y022023D01*
X015145Y021993D01*
X015145Y021933D01*
X015175Y021903D01*
X015175Y021822D02*
X015145Y021822D01*
X015145Y021792D01*
X015175Y021792D01*
X015175Y021822D01*
X015175Y021691D02*
X015145Y021661D01*
X015145Y021601D01*
X015175Y021571D01*
X015235Y021631D02*
X015235Y021661D01*
X015205Y021691D01*
X015175Y021691D01*
X015235Y021661D02*
X015265Y021691D01*
X015295Y021691D01*
X015325Y021661D01*
X015325Y021601D01*
X015295Y021571D01*
X015001Y021575D02*
X015001Y021485D01*
X014821Y021485D01*
X014881Y021485D02*
X014881Y021575D01*
X014911Y021605D01*
X014971Y021605D01*
X015001Y021575D01*
X014881Y021545D02*
X014821Y021605D01*
X014821Y021706D02*
X014821Y021826D01*
X014821Y021766D02*
X015001Y021766D01*
X014941Y021706D01*
X014971Y021927D02*
X015001Y021957D01*
X015001Y022017D01*
X014971Y022047D01*
X014941Y022047D01*
X014821Y021927D01*
X014821Y022047D01*
X015235Y021993D02*
X015235Y021963D01*
X015295Y022023D02*
X015325Y021993D01*
X015325Y021933D01*
X015295Y021903D01*
X014086Y021810D02*
X014056Y021810D01*
X013936Y021690D01*
X013906Y021690D01*
X013906Y021589D02*
X013906Y021469D01*
X013906Y021529D02*
X014086Y021529D01*
X014026Y021469D01*
X014056Y021368D02*
X014086Y021338D01*
X014086Y021278D01*
X014056Y021248D01*
X013936Y021248D01*
X013906Y021278D01*
X013906Y021338D01*
X013936Y021368D01*
X013806Y021228D02*
X013246Y021228D01*
X013246Y022348D01*
X013806Y022348D01*
X013806Y021228D01*
X014086Y021690D02*
X014086Y021810D01*
X013146Y021982D02*
X013146Y022102D01*
X013056Y022042D02*
X013056Y021982D01*
X012966Y021982D02*
X013146Y021982D01*
X013086Y021881D02*
X012966Y021881D01*
X012966Y021791D01*
X012996Y021761D01*
X013086Y021761D01*
X013086Y021660D02*
X013116Y021660D01*
X013146Y021630D01*
X013146Y021570D01*
X013116Y021540D01*
X013086Y021660D02*
X012966Y021540D01*
X012966Y021660D01*
X012966Y021459D02*
X012966Y021429D01*
X012996Y021429D01*
X012996Y021459D01*
X012966Y021459D01*
X012966Y021328D02*
X012966Y021208D01*
X013086Y021328D01*
X013116Y021328D01*
X013146Y021298D01*
X013146Y021238D01*
X013116Y021208D01*
X012816Y022439D02*
X012816Y022469D01*
X012786Y022469D01*
X012786Y022439D01*
X012816Y022439D01*
X012816Y022549D02*
X012936Y022669D01*
X012816Y022669D01*
X012786Y022639D01*
X012786Y022579D01*
X012816Y022549D01*
X012936Y022549D01*
X012966Y022579D01*
X012966Y022639D01*
X012936Y022669D01*
X012906Y022770D02*
X012966Y022830D01*
X012786Y022830D01*
X012786Y022770D02*
X012786Y022890D01*
X012816Y022991D02*
X012786Y023021D01*
X012786Y023111D01*
X012906Y023111D01*
X012876Y023212D02*
X012876Y023272D01*
X012786Y023212D02*
X012966Y023212D01*
X012966Y023332D01*
X012661Y023197D02*
X012631Y023227D01*
X012511Y023107D01*
X012481Y023137D01*
X012481Y023197D01*
X012511Y023227D01*
X012631Y023227D01*
X012661Y023197D02*
X012661Y023137D01*
X012631Y023107D01*
X012511Y023107D01*
X012481Y023006D02*
X012481Y022886D01*
X012601Y023006D01*
X012631Y023006D01*
X012661Y022976D01*
X012661Y022916D01*
X012631Y022886D01*
X012631Y022785D02*
X012661Y022755D01*
X012661Y022695D01*
X012631Y022665D01*
X012511Y022665D01*
X012481Y022695D01*
X012481Y022755D01*
X012511Y022785D01*
X012816Y022991D02*
X012906Y022991D01*
X012241Y023355D02*
X012211Y023325D01*
X012091Y023325D01*
X012061Y023355D01*
X012061Y023415D01*
X012091Y023445D01*
X012061Y023546D02*
X012061Y023666D01*
X012061Y023606D02*
X012241Y023606D01*
X012181Y023546D01*
X012211Y023445D02*
X012241Y023415D01*
X012241Y023355D01*
X011946Y023430D02*
X011766Y023430D01*
X011766Y023370D02*
X011766Y023490D01*
X011796Y023591D02*
X011766Y023621D01*
X011766Y023711D01*
X011886Y023711D01*
X011856Y023812D02*
X011856Y023872D01*
X011766Y023812D02*
X011946Y023812D01*
X011946Y023932D01*
X012061Y023857D02*
X012091Y023887D01*
X012211Y023887D01*
X012241Y023857D01*
X012241Y023797D01*
X012211Y023767D01*
X012181Y023767D01*
X012151Y023797D01*
X012151Y023887D01*
X012061Y023857D02*
X012061Y023797D01*
X012091Y023767D01*
X011886Y023591D02*
X011796Y023591D01*
X011946Y023430D02*
X011886Y023370D01*
X011796Y023290D02*
X011766Y023290D01*
X011766Y023260D01*
X011796Y023260D01*
X011796Y023290D01*
X011506Y023295D02*
X011506Y023235D01*
X011476Y023205D01*
X011356Y023205D01*
X011326Y023235D01*
X011326Y023295D01*
X011356Y023325D01*
X011356Y023426D02*
X011326Y023456D01*
X011326Y023516D01*
X011356Y023546D01*
X011386Y023546D01*
X011416Y023516D01*
X011416Y023486D01*
X011416Y023516D02*
X011446Y023546D01*
X011476Y023546D01*
X011506Y023516D01*
X011506Y023456D01*
X011476Y023426D01*
X011476Y023325D02*
X011506Y023295D01*
X011476Y023647D02*
X011506Y023677D01*
X011506Y023737D01*
X011476Y023767D01*
X011356Y023647D01*
X011326Y023677D01*
X011326Y023737D01*
X011356Y023767D01*
X011476Y023767D01*
X011476Y023647D02*
X011356Y023647D01*
X011126Y023627D02*
X011126Y023747D01*
X011036Y023687D02*
X011036Y023627D01*
X010946Y023627D02*
X011126Y023627D01*
X011066Y023526D02*
X010946Y023526D01*
X010946Y023436D01*
X010976Y023406D01*
X011066Y023406D01*
X011096Y023305D02*
X010976Y023185D01*
X010946Y023215D01*
X010946Y023275D01*
X010976Y023305D01*
X011096Y023305D01*
X011126Y023275D01*
X011126Y023215D01*
X011096Y023185D01*
X010976Y023185D01*
X010946Y023084D02*
X010946Y022964D01*
X010946Y023024D02*
X011126Y023024D01*
X011066Y022964D01*
X010536Y023828D02*
X010536Y024623D01*
X010966Y025108D02*
X010966Y023988D01*
X011526Y023988D01*
X011526Y025108D01*
X010966Y025108D01*
X011746Y024938D02*
X011746Y024198D01*
X012186Y024198D01*
X012186Y024938D01*
X011746Y024938D01*
X013666Y023438D02*
X013666Y022698D01*
X014106Y022698D01*
X014106Y023438D01*
X013666Y023438D01*
X015487Y023454D02*
X015668Y023454D01*
X015638Y023354D02*
X015517Y023233D01*
X015487Y023263D01*
X015487Y023324D01*
X015517Y023354D01*
X015638Y023354D01*
X015668Y023324D01*
X015668Y023263D01*
X015638Y023233D01*
X015517Y023233D01*
X015547Y023454D02*
X015608Y023544D01*
X015547Y023454D02*
X015487Y023544D01*
X016225Y023470D02*
X016285Y023380D01*
X016345Y023470D01*
X016405Y023380D02*
X016225Y023380D01*
X016255Y023279D02*
X016225Y023249D01*
X016225Y023189D01*
X016255Y023159D01*
X016375Y023279D01*
X016255Y023279D01*
X016375Y023279D02*
X016405Y023249D01*
X016405Y023189D01*
X016375Y023159D01*
X016255Y023159D01*
X016225Y023058D02*
X016225Y022938D01*
X016225Y022998D02*
X016405Y022998D01*
X016345Y022938D01*
X016501Y022925D02*
X016681Y022925D01*
X016681Y023015D01*
X016651Y023045D01*
X016591Y023045D01*
X016561Y023015D01*
X016561Y022925D01*
X016561Y022985D02*
X016501Y023045D01*
X016501Y023146D02*
X016621Y023266D01*
X016651Y023266D01*
X016681Y023236D01*
X016681Y023176D01*
X016651Y023146D01*
X016501Y023146D02*
X016501Y023266D01*
X016501Y023367D02*
X016531Y023367D01*
X016651Y023487D01*
X016681Y023487D01*
X016681Y023367D01*
X016921Y023377D02*
X016951Y023347D01*
X016981Y023347D01*
X017011Y023377D01*
X017011Y023437D01*
X016981Y023467D01*
X016951Y023467D01*
X016921Y023437D01*
X016921Y023377D01*
X017011Y023377D02*
X017041Y023347D01*
X017071Y023347D01*
X017101Y023377D01*
X017101Y023437D01*
X017071Y023467D01*
X017041Y023467D01*
X017011Y023437D01*
X017041Y023246D02*
X017071Y023246D01*
X017101Y023216D01*
X017101Y023156D01*
X017071Y023126D01*
X017071Y023025D02*
X017011Y023025D01*
X016981Y022995D01*
X016981Y022905D01*
X016921Y022905D02*
X017101Y022905D01*
X017101Y022995D01*
X017071Y023025D01*
X016981Y022965D02*
X016921Y023025D01*
X016921Y023126D02*
X017041Y023246D01*
X016921Y023246D02*
X016921Y023126D01*
X017245Y023169D02*
X017275Y023139D01*
X017395Y023259D01*
X017275Y023259D01*
X017245Y023229D01*
X017245Y023169D01*
X017275Y023139D02*
X017395Y023139D01*
X017425Y023169D01*
X017425Y023229D01*
X017395Y023259D01*
X017425Y023360D02*
X017245Y023360D01*
X017305Y023360D02*
X017365Y023450D01*
X017305Y023360D02*
X017245Y023450D01*
X017386Y023718D02*
X016946Y023718D01*
X016946Y024458D01*
X017386Y024458D01*
X017386Y023718D01*
X017245Y023038D02*
X017245Y022918D01*
X017245Y022978D02*
X017425Y022978D01*
X017365Y022918D01*
X019501Y018810D02*
X019471Y018780D01*
X019471Y018720D01*
X019501Y018690D01*
X019621Y018810D01*
X019501Y018810D01*
X019501Y018690D02*
X019621Y018690D01*
X019651Y018720D01*
X019651Y018780D01*
X019621Y018810D01*
X019766Y018756D02*
X019946Y018756D01*
X019946Y018876D01*
X019856Y018816D02*
X019856Y018756D01*
X019886Y018655D02*
X019766Y018655D01*
X019766Y018565D01*
X019796Y018535D01*
X019886Y018535D01*
X019766Y018434D02*
X019766Y018314D01*
X019766Y018374D02*
X019946Y018374D01*
X019886Y018314D01*
X019796Y018233D02*
X019766Y018233D01*
X019766Y018203D01*
X019796Y018203D01*
X019796Y018233D01*
X019651Y018278D02*
X019621Y018248D01*
X019501Y018248D01*
X019471Y018278D01*
X019471Y018338D01*
X019501Y018368D01*
X019471Y018469D02*
X019471Y018589D01*
X019471Y018529D02*
X019651Y018529D01*
X019591Y018469D01*
X019621Y018368D02*
X019651Y018338D01*
X019651Y018278D01*
X020026Y018398D02*
X020026Y017658D01*
X020466Y017658D01*
X020466Y018398D01*
X020026Y018398D01*
X020086Y017378D02*
X020086Y016638D01*
X020526Y016638D01*
X020526Y017378D01*
X020086Y017378D01*
X020246Y016536D02*
X020246Y016416D01*
X020066Y016416D01*
X020156Y016416D02*
X020156Y016476D01*
X020186Y016315D02*
X020066Y016315D01*
X020066Y016225D01*
X020096Y016195D01*
X020186Y016195D01*
X020066Y016094D02*
X020066Y015974D01*
X020066Y016034D02*
X020246Y016034D01*
X020186Y015974D01*
X020096Y015893D02*
X020066Y015893D01*
X020066Y015863D01*
X020096Y015863D01*
X020096Y015893D01*
X019806Y015738D02*
X019366Y015738D01*
X019366Y016478D01*
X019806Y016478D01*
X019806Y015738D01*
X019286Y015914D02*
X019106Y015914D01*
X019106Y015854D02*
X019106Y015974D01*
X019136Y016075D02*
X019106Y016105D01*
X019106Y016195D01*
X019226Y016195D01*
X019196Y016296D02*
X019196Y016356D01*
X019286Y016296D02*
X019286Y016416D01*
X019286Y016296D02*
X019106Y016296D01*
X018991Y016279D02*
X018961Y016249D01*
X018931Y016249D01*
X018901Y016279D01*
X018901Y016369D01*
X018841Y016369D02*
X018961Y016369D01*
X018991Y016339D01*
X018991Y016279D01*
X018961Y016148D02*
X018991Y016118D01*
X018991Y016058D01*
X018961Y016028D01*
X018841Y016028D01*
X018811Y016058D01*
X018811Y016118D01*
X018841Y016148D01*
X018841Y016249D02*
X018811Y016279D01*
X018811Y016339D01*
X018841Y016369D01*
X019136Y016075D02*
X019226Y016075D01*
X019286Y015914D02*
X019226Y015854D01*
X019136Y015773D02*
X019106Y015773D01*
X019106Y015743D01*
X019136Y015743D01*
X019136Y015773D01*
X018806Y015197D02*
X018806Y015077D01*
X018626Y015077D01*
X018716Y015077D02*
X018716Y015137D01*
X018746Y014976D02*
X018626Y014976D01*
X018626Y014886D01*
X018656Y014856D01*
X018746Y014856D01*
X018746Y014755D02*
X018626Y014635D01*
X018626Y014755D01*
X018746Y014755D02*
X018776Y014755D01*
X018806Y014725D01*
X018806Y014665D01*
X018776Y014635D01*
X018656Y014554D02*
X018626Y014554D01*
X018626Y014524D01*
X018656Y014524D01*
X018656Y014554D01*
X018626Y014423D02*
X018626Y014303D01*
X018746Y014423D01*
X018776Y014423D01*
X018806Y014393D01*
X018806Y014333D01*
X018776Y014303D01*
X018751Y014070D02*
X018721Y014010D01*
X018661Y013950D01*
X018661Y014040D01*
X018631Y014070D01*
X018601Y014070D01*
X018571Y014040D01*
X018571Y013980D01*
X018601Y013950D01*
X018661Y013950D01*
X018571Y013849D02*
X018571Y013729D01*
X018571Y013789D02*
X018751Y013789D01*
X018691Y013729D01*
X018721Y013628D02*
X018751Y013598D01*
X018751Y013538D01*
X018721Y013508D01*
X018601Y013508D01*
X018571Y013538D01*
X018571Y013598D01*
X018601Y013628D01*
X019051Y013598D02*
X019081Y013628D01*
X019051Y013598D02*
X019051Y013538D01*
X019081Y013508D01*
X019201Y013508D01*
X019231Y013538D01*
X019231Y013598D01*
X019201Y013628D01*
X019171Y013729D02*
X019231Y013789D01*
X019051Y013789D01*
X019051Y013729D02*
X019051Y013849D01*
X019081Y013950D02*
X019051Y013980D01*
X019051Y014040D01*
X019081Y014070D01*
X019141Y014070D01*
X019171Y014040D01*
X019171Y014010D01*
X019141Y013950D01*
X019231Y013950D01*
X019231Y014070D01*
X019136Y014303D02*
X019136Y014333D01*
X019106Y014333D01*
X019106Y014303D01*
X019136Y014303D01*
X019106Y014414D02*
X019106Y014534D01*
X019106Y014474D02*
X019286Y014474D01*
X019226Y014414D01*
X019226Y014635D02*
X019136Y014635D01*
X019106Y014665D01*
X019106Y014755D01*
X019226Y014755D01*
X019196Y014856D02*
X019196Y014916D01*
X019286Y014856D02*
X019286Y014976D01*
X019286Y014856D02*
X019106Y014856D01*
X019486Y014498D02*
X019486Y013758D01*
X019926Y013758D01*
X019926Y014498D01*
X019486Y014498D01*
X020026Y014498D02*
X020026Y013758D01*
X020466Y013758D01*
X020466Y014498D01*
X020026Y014498D01*
X020024Y014713D02*
X020144Y014713D01*
X020084Y014713D02*
X020084Y014893D01*
X020144Y014833D01*
X020245Y014713D02*
X020365Y014713D01*
X020305Y014713D02*
X020305Y014893D01*
X020365Y014833D01*
X020466Y014863D02*
X020496Y014893D01*
X020556Y014893D01*
X020586Y014863D01*
X020586Y014743D01*
X020556Y014713D01*
X020496Y014713D01*
X020466Y014743D01*
X020461Y015008D02*
X020461Y015188D01*
X020521Y015128D01*
X020521Y015008D02*
X020401Y015008D01*
X020300Y015038D02*
X020270Y015008D01*
X020180Y015008D01*
X020180Y015128D01*
X020079Y015098D02*
X020019Y015098D01*
X020079Y015008D02*
X020079Y015188D01*
X019959Y015188D01*
X020300Y015128D02*
X020300Y015038D01*
X020601Y015038D02*
X020601Y015008D01*
X020631Y015008D01*
X020631Y015038D01*
X020601Y015038D01*
X020986Y015338D02*
X020986Y014598D01*
X021426Y014598D01*
X021426Y015338D01*
X020986Y015338D01*
X021550Y015426D02*
X021550Y015190D01*
X022022Y015190D02*
X022022Y015426D01*
X022166Y015238D02*
X022606Y015238D01*
X022606Y015978D01*
X022166Y015978D01*
X022166Y015238D01*
X022266Y014758D02*
X021826Y014758D01*
X021826Y014018D01*
X022266Y014018D01*
X022266Y014758D01*
X022366Y014778D02*
X022806Y014778D01*
X022806Y014038D01*
X022366Y014038D01*
X022366Y014778D01*
X021908Y014476D02*
X021847Y014386D01*
X021787Y014476D01*
X021787Y014386D02*
X021968Y014386D01*
X021968Y014285D02*
X021938Y014225D01*
X021877Y014165D01*
X021877Y014255D01*
X021847Y014285D01*
X021817Y014285D01*
X021787Y014255D01*
X021787Y014195D01*
X021817Y014165D01*
X021877Y014165D01*
X021817Y014084D02*
X021787Y014084D01*
X021787Y014054D01*
X021817Y014054D01*
X021817Y014084D01*
X021787Y013954D02*
X021787Y013833D01*
X021787Y013893D02*
X021968Y013893D01*
X021908Y013833D01*
X021908Y013733D02*
X021877Y013703D01*
X021847Y013733D01*
X021817Y013733D01*
X021787Y013703D01*
X021787Y013642D01*
X021817Y013612D01*
X021877Y013672D02*
X021877Y013703D01*
X021908Y013733D02*
X021938Y013733D01*
X021968Y013703D01*
X021968Y013642D01*
X021938Y013612D01*
X022081Y013566D02*
X022261Y013566D01*
X022261Y013656D01*
X022231Y013686D01*
X022171Y013686D01*
X022141Y013656D01*
X022141Y013566D01*
X022141Y013626D02*
X022081Y013686D01*
X022111Y013787D02*
X022081Y013817D01*
X022081Y013877D01*
X022111Y013907D01*
X022141Y013907D01*
X022171Y013877D01*
X022171Y013847D01*
X022171Y013877D02*
X022201Y013907D01*
X022231Y013907D01*
X022261Y013877D01*
X022261Y013817D01*
X022231Y013787D01*
X022266Y013418D02*
X021826Y013418D01*
X021826Y012678D01*
X022266Y012678D01*
X022266Y013418D01*
X023026Y013738D02*
X023026Y012998D01*
X023466Y012998D01*
X023466Y013738D01*
X023026Y013738D01*
X023556Y013528D02*
X023556Y013968D01*
X024296Y013968D01*
X024296Y013528D01*
X023556Y013528D01*
X023736Y013252D02*
X023736Y013192D01*
X023646Y013192D02*
X023826Y013192D01*
X023826Y013312D01*
X023941Y013327D02*
X023941Y013207D01*
X023941Y013267D02*
X024121Y013267D01*
X024061Y013207D01*
X024091Y013106D02*
X024121Y013076D01*
X024121Y013016D01*
X024091Y012986D01*
X023971Y012986D01*
X023941Y013016D01*
X023941Y013076D01*
X023971Y013106D01*
X023766Y013061D02*
X023736Y013091D01*
X023676Y013091D01*
X023646Y013061D01*
X023646Y012971D01*
X023586Y012971D02*
X023766Y012971D01*
X023766Y013061D01*
X023796Y012870D02*
X023676Y012750D01*
X023646Y012780D01*
X023646Y012840D01*
X023676Y012870D01*
X023796Y012870D01*
X023826Y012840D01*
X023826Y012780D01*
X023796Y012750D01*
X023676Y012750D01*
X023646Y012649D02*
X023646Y012529D01*
X023766Y012649D01*
X023796Y012649D01*
X023826Y012619D01*
X023826Y012559D01*
X023796Y012529D01*
X023826Y012368D02*
X023646Y012368D01*
X023646Y012308D02*
X023646Y012428D01*
X023766Y012308D02*
X023826Y012368D01*
X023341Y012426D02*
X023341Y012516D01*
X023311Y012546D01*
X023251Y012546D01*
X023221Y012516D01*
X023221Y012426D01*
X023161Y012426D02*
X023341Y012426D01*
X023221Y012486D02*
X023161Y012546D01*
X023161Y012647D02*
X023161Y012767D01*
X023161Y012707D02*
X023341Y012707D01*
X023281Y012647D01*
X023065Y012619D02*
X023065Y012499D01*
X022975Y012499D01*
X023005Y012559D01*
X023005Y012589D01*
X022975Y012619D01*
X022915Y012619D01*
X022885Y012589D01*
X022885Y012529D01*
X022915Y012499D01*
X022915Y012398D02*
X022885Y012368D01*
X022885Y012308D01*
X022915Y012278D01*
X023035Y012398D01*
X022915Y012398D01*
X023035Y012398D02*
X023065Y012368D01*
X023065Y012308D01*
X023035Y012278D01*
X022915Y012278D01*
X022885Y012177D02*
X022885Y012057D01*
X023005Y012177D01*
X023035Y012177D01*
X023065Y012147D01*
X023065Y012087D01*
X023035Y012057D01*
X022321Y012086D02*
X022321Y012176D01*
X022291Y012206D01*
X022231Y012206D01*
X022201Y012176D01*
X022201Y012086D01*
X022141Y012086D02*
X022321Y012086D01*
X022201Y012146D02*
X022141Y012206D01*
X022045Y012249D02*
X022045Y012309D01*
X022015Y012339D01*
X021895Y012219D01*
X021865Y012249D01*
X021865Y012309D01*
X021895Y012339D01*
X022015Y012339D01*
X022045Y012249D02*
X022015Y012219D01*
X021895Y012219D01*
X021865Y012118D02*
X021865Y011998D01*
X021865Y012058D02*
X022045Y012058D01*
X021985Y011998D01*
X022171Y012307D02*
X022201Y012307D01*
X022231Y012337D01*
X022231Y012397D01*
X022201Y012427D01*
X022171Y012427D01*
X022141Y012397D01*
X022141Y012337D01*
X022171Y012307D01*
X022231Y012337D02*
X022261Y012307D01*
X022291Y012307D01*
X022321Y012337D01*
X022321Y012397D01*
X022291Y012427D01*
X022261Y012427D01*
X022231Y012397D01*
X022045Y012440D02*
X021865Y012440D01*
X021925Y012440D02*
X021985Y012530D01*
X021925Y012440D02*
X021865Y012530D01*
X021666Y012698D02*
X021226Y012698D01*
X021226Y013438D01*
X021666Y013438D01*
X021666Y012698D01*
X021571Y012467D02*
X021601Y012437D01*
X021601Y012377D01*
X021571Y012347D01*
X021541Y012347D01*
X021511Y012377D01*
X021511Y012467D01*
X021451Y012467D02*
X021571Y012467D01*
X021451Y012467D02*
X021421Y012437D01*
X021421Y012377D01*
X021451Y012347D01*
X021421Y012246D02*
X021481Y012186D01*
X021481Y012216D02*
X021481Y012126D01*
X021421Y012126D02*
X021601Y012126D01*
X021601Y012216D01*
X021571Y012246D01*
X021511Y012246D01*
X021481Y012216D01*
X021325Y012229D02*
X021325Y012289D01*
X021295Y012319D01*
X021175Y012199D01*
X021145Y012229D01*
X021145Y012289D01*
X021175Y012319D01*
X021295Y012319D01*
X021325Y012229D02*
X021295Y012199D01*
X021175Y012199D01*
X021145Y012098D02*
X021145Y011978D01*
X021145Y012038D02*
X021325Y012038D01*
X021265Y011978D01*
X021325Y012420D02*
X021145Y012420D01*
X021205Y012420D02*
X021145Y012510D01*
X021205Y012420D02*
X021265Y012510D01*
X020986Y013258D02*
X020546Y013258D01*
X020546Y013998D01*
X020986Y013998D01*
X020986Y013258D01*
X021206Y013618D02*
X021646Y013618D01*
X021646Y014358D01*
X021206Y014358D01*
X021206Y013618D01*
X021211Y013705D02*
X021091Y013705D01*
X021061Y013735D01*
X021061Y013795D01*
X021091Y013825D01*
X021061Y013926D02*
X021061Y014046D01*
X021061Y013986D02*
X021241Y013986D01*
X021181Y013926D01*
X021211Y013825D02*
X021241Y013795D01*
X021241Y013735D01*
X021211Y013705D01*
X021326Y013783D02*
X021326Y013903D01*
X021326Y013843D02*
X021506Y013843D01*
X021446Y013783D01*
X021446Y014004D02*
X021356Y014004D01*
X021326Y014034D01*
X021326Y014124D01*
X021446Y014124D01*
X021416Y014225D02*
X021416Y014285D01*
X021326Y014225D02*
X021506Y014225D01*
X021506Y014345D01*
X021241Y014237D02*
X021151Y014147D01*
X021151Y014267D01*
X021061Y014237D02*
X021241Y014237D01*
X020401Y013487D02*
X020371Y013487D01*
X020251Y013367D01*
X020221Y013367D01*
X020251Y013266D02*
X020221Y013236D01*
X020221Y013176D01*
X020251Y013146D01*
X020371Y013146D01*
X020401Y013176D01*
X020401Y013236D01*
X020371Y013266D01*
X020401Y013367D02*
X020401Y013487D01*
X020106Y013472D02*
X020106Y013352D01*
X019926Y013352D01*
X020016Y013352D02*
X020016Y013412D01*
X020046Y013251D02*
X019926Y013251D01*
X019926Y013161D01*
X019956Y013131D01*
X020046Y013131D01*
X020016Y012809D02*
X019956Y012809D01*
X019926Y012779D01*
X019926Y012719D01*
X019956Y012689D01*
X020016Y012689D02*
X020046Y012749D01*
X020046Y012779D01*
X020016Y012809D01*
X020106Y012809D02*
X020106Y012689D01*
X020016Y012689D01*
X019926Y012588D02*
X019926Y012468D01*
X019926Y012528D02*
X020106Y012528D01*
X020046Y012468D01*
X020076Y012367D02*
X019956Y012247D01*
X019926Y012277D01*
X019926Y012337D01*
X019956Y012367D01*
X020076Y012367D01*
X020106Y012337D01*
X020106Y012277D01*
X020076Y012247D01*
X019956Y012247D01*
X019956Y012167D02*
X019926Y012167D01*
X019926Y012137D01*
X019956Y012137D01*
X019956Y012167D01*
X020366Y011228D02*
X020926Y011228D01*
X020926Y010108D01*
X020366Y010108D01*
X020366Y011228D01*
X019846Y010928D02*
X019286Y010928D01*
X019286Y009808D01*
X019846Y009808D01*
X019846Y010928D01*
X020206Y009887D02*
X020206Y009767D01*
X020206Y009827D02*
X020386Y009827D01*
X020326Y009767D01*
X020206Y009666D02*
X020206Y009546D01*
X020206Y009606D02*
X020386Y009606D01*
X020326Y009546D01*
X020296Y009445D02*
X020266Y009415D01*
X020266Y009325D01*
X020206Y009325D02*
X020386Y009325D01*
X020386Y009415D01*
X020356Y009445D01*
X020296Y009445D01*
X020266Y009385D02*
X020206Y009445D01*
X020606Y009425D02*
X020606Y009365D01*
X020636Y009335D01*
X020696Y009395D02*
X020696Y009425D01*
X020666Y009455D01*
X020636Y009455D01*
X020606Y009425D01*
X020696Y009425D02*
X020726Y009455D01*
X020756Y009455D01*
X020786Y009425D01*
X020786Y009365D01*
X020756Y009335D01*
X020756Y009556D02*
X020786Y009586D01*
X020786Y009646D01*
X020756Y009676D01*
X020726Y009676D01*
X020696Y009646D01*
X020666Y009676D01*
X020636Y009676D01*
X020606Y009646D01*
X020606Y009586D01*
X020636Y009556D01*
X020696Y009616D02*
X020696Y009646D01*
X020636Y009777D02*
X020756Y009897D01*
X020636Y009897D01*
X020606Y009867D01*
X020606Y009807D01*
X020636Y009777D01*
X020756Y009777D01*
X020786Y009807D01*
X020786Y009867D01*
X020756Y009897D01*
X021446Y010048D02*
X022006Y010048D01*
X022006Y011168D01*
X021446Y011168D01*
X021446Y010048D01*
X021496Y009887D02*
X021466Y009857D01*
X021466Y009797D01*
X021496Y009767D01*
X021616Y009887D01*
X021496Y009887D01*
X021496Y009767D02*
X021616Y009767D01*
X021646Y009797D01*
X021646Y009857D01*
X021616Y009887D01*
X021806Y009867D02*
X021806Y009807D01*
X021836Y009777D01*
X021956Y009897D01*
X021836Y009897D01*
X021806Y009867D01*
X021836Y009777D02*
X021956Y009777D01*
X021986Y009807D01*
X021986Y009867D01*
X021956Y009897D01*
X021956Y009676D02*
X021926Y009676D01*
X021896Y009646D01*
X021866Y009676D01*
X021836Y009676D01*
X021806Y009646D01*
X021806Y009586D01*
X021836Y009556D01*
X021896Y009616D02*
X021896Y009646D01*
X021956Y009676D02*
X021986Y009646D01*
X021986Y009586D01*
X021956Y009556D01*
X021956Y009455D02*
X021926Y009455D01*
X021896Y009425D01*
X021866Y009455D01*
X021836Y009455D01*
X021806Y009425D01*
X021806Y009365D01*
X021836Y009335D01*
X021896Y009395D02*
X021896Y009425D01*
X021956Y009455D02*
X021986Y009425D01*
X021986Y009365D01*
X021956Y009335D01*
X021646Y009325D02*
X021646Y009415D01*
X021616Y009445D01*
X021556Y009445D01*
X021526Y009415D01*
X021526Y009325D01*
X021466Y009325D02*
X021646Y009325D01*
X021526Y009385D02*
X021466Y009445D01*
X021466Y009546D02*
X021466Y009666D01*
X021466Y009606D02*
X021646Y009606D01*
X021586Y009546D01*
X022366Y009546D02*
X022366Y009666D01*
X022366Y009606D02*
X022546Y009606D01*
X022486Y009546D01*
X022456Y009445D02*
X022426Y009415D01*
X022426Y009325D01*
X022366Y009325D02*
X022546Y009325D01*
X022546Y009415D01*
X022516Y009445D01*
X022456Y009445D01*
X022426Y009385D02*
X022366Y009445D01*
X022396Y009767D02*
X022366Y009797D01*
X022366Y009857D01*
X022396Y009887D01*
X022456Y009887D01*
X022486Y009857D01*
X022486Y009827D01*
X022456Y009767D01*
X022546Y009767D01*
X022546Y009887D01*
X022706Y009904D02*
X022766Y009814D01*
X022826Y009904D01*
X022886Y009814D02*
X022706Y009814D01*
X022736Y009713D02*
X022856Y009713D01*
X022886Y009683D01*
X022886Y009623D01*
X022856Y009593D01*
X022826Y009593D01*
X022796Y009623D01*
X022796Y009713D01*
X022736Y009713D02*
X022706Y009683D01*
X022706Y009623D01*
X022736Y009593D01*
X022736Y009492D02*
X022856Y009492D01*
X022886Y009462D01*
X022886Y009402D01*
X022856Y009372D01*
X022826Y009372D01*
X022796Y009402D01*
X022796Y009492D01*
X022736Y009492D02*
X022706Y009462D01*
X022706Y009402D01*
X022736Y009372D01*
X022736Y009291D02*
X022706Y009291D01*
X022706Y009261D01*
X022736Y009261D01*
X022736Y009291D01*
X022796Y009161D02*
X022796Y009040D01*
X022886Y009131D01*
X022706Y009131D01*
X022966Y010048D02*
X022406Y010048D01*
X022406Y011168D01*
X022966Y011168D01*
X022966Y010048D01*
X024636Y012027D02*
X024606Y012057D01*
X024606Y012117D01*
X024636Y012147D01*
X024666Y012147D01*
X024696Y012117D01*
X024696Y012027D01*
X024636Y012027D01*
X024696Y012027D02*
X024756Y012087D01*
X024786Y012147D01*
X024756Y012248D02*
X024726Y012248D01*
X024696Y012278D01*
X024696Y012338D01*
X024666Y012368D01*
X024636Y012368D01*
X024606Y012338D01*
X024606Y012278D01*
X024636Y012248D01*
X024666Y012248D01*
X024696Y012278D01*
X024696Y012338D02*
X024726Y012368D01*
X024756Y012368D01*
X024786Y012338D01*
X024786Y012278D01*
X024756Y012248D01*
X024756Y012469D02*
X024636Y012469D01*
X024756Y012589D01*
X024636Y012589D01*
X024606Y012559D01*
X024606Y012499D01*
X024636Y012469D01*
X024756Y012469D02*
X024786Y012499D01*
X024786Y012559D01*
X024756Y012589D01*
X024756Y012690D02*
X024636Y012690D01*
X024756Y012810D01*
X024636Y012810D01*
X024606Y012780D01*
X024606Y012720D01*
X024636Y012690D01*
X024756Y012690D02*
X024786Y012720D01*
X024786Y012780D01*
X024756Y012810D01*
X024726Y012911D02*
X024726Y013001D01*
X024696Y013031D01*
X024636Y013031D01*
X024606Y013001D01*
X024606Y012911D01*
X024546Y012911D02*
X024726Y012911D01*
X024901Y012896D02*
X024901Y012956D01*
X024931Y012986D01*
X024901Y012896D02*
X024931Y012866D01*
X025051Y012866D01*
X025081Y012896D01*
X025081Y012956D01*
X025051Y012986D01*
X025051Y013087D02*
X025081Y013117D01*
X025081Y013177D01*
X025051Y013207D01*
X025021Y013207D01*
X024901Y013087D01*
X024901Y013207D01*
X024786Y013252D02*
X024786Y013132D01*
X024606Y013132D01*
X024696Y013132D02*
X024696Y013192D01*
X024396Y013508D02*
X024396Y013948D01*
X025136Y013948D01*
X025136Y013508D01*
X024396Y013508D01*
X024756Y014248D02*
X024016Y014248D01*
X024016Y014688D01*
X024756Y014688D01*
X024756Y014248D01*
X025167Y014263D02*
X025167Y014293D01*
X025197Y014323D01*
X025257Y014323D01*
X025287Y014293D01*
X025388Y014293D02*
X025388Y014233D01*
X025418Y014203D01*
X025508Y014203D01*
X025508Y014143D02*
X025508Y014323D01*
X025418Y014323D01*
X025388Y014293D01*
X025448Y014203D02*
X025388Y014143D01*
X025287Y014143D02*
X025167Y014263D01*
X025167Y014143D02*
X025287Y014143D01*
X025316Y014467D02*
X025436Y014467D01*
X025316Y014587D01*
X025316Y014617D01*
X025346Y014647D01*
X025406Y014647D01*
X025436Y014617D01*
X025516Y014497D02*
X025516Y014467D01*
X025546Y014467D01*
X025546Y014497D01*
X025516Y014497D01*
X025647Y014497D02*
X025647Y014527D01*
X025677Y014557D01*
X025767Y014557D01*
X025767Y014497D01*
X025737Y014467D01*
X025677Y014467D01*
X025647Y014497D01*
X025707Y014617D02*
X025767Y014557D01*
X025707Y014617D02*
X025647Y014647D01*
X025928Y014647D02*
X025928Y014467D01*
X025988Y014467D02*
X025868Y014467D01*
X025988Y014587D02*
X025928Y014647D01*
X025321Y015086D02*
X025321Y015176D01*
X025291Y015206D01*
X025231Y015206D01*
X025201Y015176D01*
X025201Y015086D01*
X025141Y015086D02*
X025321Y015086D01*
X025201Y015146D02*
X025141Y015206D01*
X025171Y015307D02*
X025141Y015337D01*
X025141Y015397D01*
X025171Y015427D01*
X025231Y015427D01*
X025261Y015397D01*
X025261Y015367D01*
X025231Y015307D01*
X025321Y015307D01*
X025321Y015427D01*
X024985Y015380D02*
X024805Y015380D01*
X024865Y015380D02*
X024925Y015470D01*
X024865Y015380D02*
X024805Y015470D01*
X024706Y015518D02*
X024706Y014778D01*
X024266Y014778D01*
X024266Y015518D01*
X024706Y015518D01*
X024835Y015279D02*
X024805Y015249D01*
X024805Y015189D01*
X024835Y015159D01*
X024955Y015279D01*
X024835Y015279D01*
X024955Y015279D02*
X024985Y015249D01*
X024985Y015189D01*
X024955Y015159D01*
X024835Y015159D01*
X024805Y015058D02*
X024805Y014938D01*
X024805Y014998D02*
X024985Y014998D01*
X024925Y014938D01*
X025125Y014587D02*
X025215Y014527D01*
X025125Y014467D01*
X025215Y014467D02*
X025215Y014647D01*
X023821Y015656D02*
X023791Y015626D01*
X023671Y015626D01*
X023641Y015656D01*
X023641Y015716D01*
X023671Y015746D01*
X023671Y015847D02*
X023641Y015877D01*
X023641Y015937D01*
X023671Y015967D01*
X023701Y015967D01*
X023731Y015937D01*
X023731Y015907D01*
X023731Y015937D02*
X023761Y015967D01*
X023791Y015967D01*
X023821Y015937D01*
X023821Y015877D01*
X023791Y015847D01*
X023791Y015746D02*
X023821Y015716D01*
X023821Y015656D01*
X023906Y015978D02*
X024346Y015978D01*
X024346Y016718D01*
X023906Y016718D01*
X023906Y015978D01*
X023466Y015960D02*
X023436Y015930D01*
X023466Y015960D02*
X023466Y016020D01*
X023436Y016050D01*
X023406Y016050D01*
X023286Y015930D01*
X023286Y016050D01*
X023316Y016151D02*
X023286Y016181D01*
X023286Y016271D01*
X023406Y016271D01*
X023376Y016372D02*
X023376Y016432D01*
X023286Y016372D02*
X023466Y016372D01*
X023466Y016492D01*
X023166Y016517D02*
X023136Y016547D01*
X023016Y016427D01*
X022986Y016457D01*
X022986Y016517D01*
X023016Y016547D01*
X023136Y016547D01*
X023166Y016517D02*
X023166Y016457D01*
X023136Y016427D01*
X023016Y016427D01*
X023016Y016347D02*
X022986Y016347D01*
X022986Y016317D01*
X023016Y016317D01*
X023016Y016347D01*
X022986Y016648D02*
X023106Y016768D01*
X023136Y016768D01*
X023166Y016738D01*
X023166Y016678D01*
X023136Y016648D01*
X022986Y016648D02*
X022986Y016768D01*
X022986Y016869D02*
X023106Y016989D01*
X023136Y016989D01*
X023166Y016959D01*
X023166Y016899D01*
X023136Y016869D01*
X022986Y016869D02*
X022986Y016989D01*
X023016Y017311D02*
X022986Y017341D01*
X022986Y017431D01*
X023106Y017431D01*
X023076Y017532D02*
X023076Y017592D01*
X022986Y017532D02*
X023166Y017532D01*
X023166Y017652D01*
X023281Y017517D02*
X023461Y017517D01*
X023371Y017427D01*
X023371Y017547D01*
X023311Y017326D02*
X023281Y017296D01*
X023281Y017236D01*
X023311Y017206D01*
X023431Y017206D01*
X023461Y017236D01*
X023461Y017296D01*
X023431Y017326D01*
X023606Y017578D02*
X023606Y016838D01*
X024046Y016838D01*
X024046Y017578D01*
X023606Y017578D01*
X023586Y017998D02*
X023146Y017998D01*
X023146Y018738D01*
X023586Y018738D01*
X023586Y017998D01*
X023671Y018078D02*
X023671Y018138D01*
X023701Y018168D01*
X023671Y018078D02*
X023701Y018048D01*
X023821Y018048D01*
X023851Y018078D01*
X023851Y018138D01*
X023821Y018168D01*
X023851Y018269D02*
X023761Y018269D01*
X023791Y018329D01*
X023791Y018359D01*
X023761Y018389D01*
X023701Y018389D01*
X023671Y018359D01*
X023671Y018299D01*
X023701Y018269D01*
X023851Y018269D02*
X023851Y018389D01*
X024026Y018404D02*
X024146Y018404D01*
X024116Y018505D02*
X024116Y018565D01*
X024026Y018505D02*
X024206Y018505D01*
X024206Y018625D01*
X024026Y018404D02*
X024026Y018314D01*
X024056Y018284D01*
X024146Y018284D01*
X024026Y018183D02*
X024026Y018063D01*
X024026Y018123D02*
X024206Y018123D01*
X024146Y018063D01*
X023106Y017311D02*
X023016Y017311D01*
X022501Y016427D02*
X022471Y016367D01*
X022411Y016307D01*
X022411Y016397D01*
X022381Y016427D01*
X022351Y016427D01*
X022321Y016397D01*
X022321Y016337D01*
X022351Y016307D01*
X022411Y016307D01*
X022411Y016206D02*
X022381Y016176D01*
X022381Y016086D01*
X022321Y016086D02*
X022501Y016086D01*
X022501Y016176D01*
X022471Y016206D01*
X022411Y016206D01*
X022381Y016146D02*
X022321Y016206D01*
X022165Y016163D02*
X021985Y016163D01*
X021985Y016103D02*
X021985Y016223D01*
X022105Y016103D02*
X022165Y016163D01*
X023316Y016151D02*
X023406Y016151D01*
X023316Y015850D02*
X023286Y015850D01*
X023286Y015820D01*
X023316Y015820D01*
X023316Y015850D01*
X023286Y015719D02*
X023286Y015599D01*
X023406Y015719D01*
X023436Y015719D01*
X023466Y015689D01*
X023466Y015629D01*
X023436Y015599D01*
X024506Y016118D02*
X024946Y016118D01*
X024946Y016858D01*
X024506Y016858D01*
X024506Y016118D01*
X025147Y016572D02*
X025147Y016693D01*
X025147Y016632D02*
X025328Y016632D01*
X025268Y016572D01*
X025441Y016546D02*
X025621Y016546D01*
X025621Y016636D01*
X025591Y016666D01*
X025531Y016666D01*
X025501Y016636D01*
X025501Y016546D01*
X025501Y016606D02*
X025441Y016666D01*
X025441Y016767D02*
X025471Y016767D01*
X025591Y016887D01*
X025621Y016887D01*
X025621Y016767D01*
X025328Y016793D02*
X025147Y016793D01*
X025207Y016793D02*
X025268Y016884D01*
X025207Y016793D02*
X025147Y016884D01*
X023566Y019158D02*
X023126Y019158D01*
X023126Y019898D01*
X023566Y019898D01*
X023566Y019158D01*
X023646Y019290D02*
X023646Y019410D01*
X023646Y019350D02*
X023826Y019350D01*
X023766Y019290D01*
X023766Y019511D02*
X023676Y019511D01*
X023646Y019541D01*
X023646Y019631D01*
X023766Y019631D01*
X023736Y019732D02*
X023736Y019792D01*
X023646Y019732D02*
X023826Y019732D01*
X023826Y019852D01*
X024001Y019717D02*
X024031Y019747D01*
X024061Y019747D01*
X024091Y019717D01*
X024091Y019627D01*
X024031Y019627D01*
X024001Y019657D01*
X024001Y019717D01*
X024091Y019627D02*
X024151Y019687D01*
X024181Y019747D01*
X024151Y019526D02*
X024181Y019496D01*
X024181Y019436D01*
X024151Y019406D01*
X024031Y019406D01*
X024001Y019436D01*
X024001Y019496D01*
X024031Y019526D01*
X020551Y016519D02*
X020521Y016549D01*
X020491Y016549D01*
X020461Y016519D01*
X020461Y016459D01*
X020491Y016429D01*
X020521Y016429D01*
X020551Y016459D01*
X020551Y016519D01*
X020461Y016519D02*
X020431Y016549D01*
X020401Y016549D01*
X020371Y016519D01*
X020371Y016459D01*
X020401Y016429D01*
X020431Y016429D01*
X020461Y016459D01*
X020401Y016328D02*
X020371Y016298D01*
X020371Y016238D01*
X020401Y016208D01*
X020521Y016208D01*
X020551Y016238D01*
X020551Y016298D01*
X020521Y016328D01*
X022927Y014704D02*
X022987Y014614D01*
X023048Y014704D01*
X023108Y014614D02*
X022927Y014614D01*
X022957Y014514D02*
X022927Y014484D01*
X022927Y014423D01*
X022957Y014393D01*
X023078Y014514D01*
X022957Y014514D01*
X023078Y014514D02*
X023108Y014484D01*
X023108Y014423D01*
X023078Y014393D01*
X022957Y014393D01*
X022927Y014293D02*
X022927Y014172D01*
X022927Y014232D02*
X023108Y014232D01*
X023048Y014172D01*
X023191Y014268D02*
X023371Y014268D01*
X023371Y014358D01*
X023341Y014388D01*
X023281Y014388D01*
X023251Y014358D01*
X023251Y014268D01*
X023251Y014328D02*
X023191Y014388D01*
X023281Y014489D02*
X023281Y014609D01*
X023191Y014579D02*
X023371Y014579D01*
X023281Y014489D01*
X023005Y012810D02*
X022945Y012720D01*
X022885Y012810D01*
X022885Y012720D02*
X023065Y012720D01*
X019706Y009627D02*
X019676Y009657D01*
X019556Y009537D01*
X019526Y009567D01*
X019526Y009627D01*
X019556Y009657D01*
X019676Y009657D01*
X019706Y009627D02*
X019706Y009567D01*
X019676Y009537D01*
X019556Y009537D01*
X019556Y009436D02*
X019526Y009406D01*
X019526Y009346D01*
X019556Y009316D01*
X019616Y009376D02*
X019616Y009406D01*
X019586Y009436D01*
X019556Y009436D01*
X019616Y009406D02*
X019646Y009436D01*
X019676Y009436D01*
X019706Y009406D01*
X019706Y009346D01*
X019676Y009316D01*
X019676Y009215D02*
X019646Y009215D01*
X019616Y009185D01*
X019586Y009215D01*
X019556Y009215D01*
X019526Y009185D01*
X019526Y009125D01*
X019556Y009095D01*
X019616Y009155D02*
X019616Y009185D01*
X019676Y009215D02*
X019706Y009185D01*
X019706Y009125D01*
X019676Y009095D01*
X019366Y009145D02*
X019366Y009235D01*
X019336Y009265D01*
X019276Y009265D01*
X019246Y009235D01*
X019246Y009145D01*
X019186Y009145D02*
X019366Y009145D01*
X019246Y009205D02*
X019186Y009265D01*
X019186Y009366D02*
X019186Y009486D01*
X019186Y009426D02*
X019366Y009426D01*
X019306Y009366D01*
X019276Y009587D02*
X019276Y009707D01*
X019186Y009677D02*
X019366Y009677D01*
X019276Y009587D01*
X016546Y009898D02*
X016546Y009158D01*
X016106Y009158D01*
X016106Y009898D01*
X016546Y009898D01*
X016321Y010025D02*
X016321Y010115D01*
X016291Y010145D01*
X016231Y010145D01*
X016201Y010115D01*
X016201Y010025D01*
X016141Y010025D02*
X016321Y010025D01*
X016201Y010085D02*
X016141Y010145D01*
X016141Y010246D02*
X016261Y010366D01*
X016291Y010366D01*
X016321Y010336D01*
X016321Y010276D01*
X016291Y010246D01*
X016405Y010259D02*
X016405Y010379D01*
X016405Y010319D02*
X016585Y010319D01*
X016525Y010259D01*
X016585Y010480D02*
X016405Y010480D01*
X016465Y010480D02*
X016525Y010570D01*
X016465Y010480D02*
X016405Y010570D01*
X016321Y010557D02*
X016291Y010587D01*
X016261Y010587D01*
X016231Y010557D01*
X016201Y010587D01*
X016171Y010587D01*
X016141Y010557D01*
X016141Y010497D01*
X016171Y010467D01*
X016231Y010527D02*
X016231Y010557D01*
X016321Y010557D02*
X016321Y010497D01*
X016291Y010467D01*
X016141Y010366D02*
X016141Y010246D01*
X015991Y010308D02*
X015991Y010398D01*
X015961Y010428D01*
X015901Y010428D01*
X015871Y010398D01*
X015871Y010308D01*
X015811Y010308D02*
X015991Y010308D01*
X015871Y010368D02*
X015811Y010428D01*
X015811Y010529D02*
X015931Y010649D01*
X015961Y010649D01*
X015991Y010619D01*
X015991Y010559D01*
X015961Y010529D01*
X015811Y010529D02*
X015811Y010649D01*
X015811Y010750D02*
X015811Y010870D01*
X015811Y010810D02*
X015991Y010810D01*
X015931Y010750D01*
X015728Y010714D02*
X015547Y010714D01*
X015607Y010714D02*
X015668Y010804D01*
X015607Y010714D02*
X015547Y010804D01*
X015577Y010614D02*
X015547Y010584D01*
X015547Y010523D01*
X015577Y010493D01*
X015698Y010614D01*
X015577Y010614D01*
X015698Y010614D02*
X015728Y010584D01*
X015728Y010523D01*
X015698Y010493D01*
X015577Y010493D01*
X015547Y010393D02*
X015547Y010272D01*
X015547Y010332D02*
X015728Y010332D01*
X015668Y010272D01*
X015846Y010158D02*
X015406Y010158D01*
X015406Y009418D01*
X015846Y009418D01*
X015846Y010158D01*
X015046Y010238D02*
X015046Y009498D01*
X014606Y009498D01*
X014606Y010238D01*
X015046Y010238D01*
X015025Y010359D02*
X015085Y010419D01*
X014905Y010419D01*
X014905Y010359D02*
X014905Y010479D01*
X014905Y010580D02*
X015085Y010580D01*
X015025Y010670D02*
X014965Y010580D01*
X014905Y010670D01*
X014791Y010639D02*
X014791Y010579D01*
X014761Y010549D01*
X014791Y010639D02*
X014761Y010669D01*
X014731Y010669D01*
X014611Y010549D01*
X014611Y010669D01*
X014701Y010770D02*
X014701Y010890D01*
X014611Y010860D02*
X014791Y010860D01*
X014701Y010770D01*
X014701Y010448D02*
X014671Y010418D01*
X014671Y010328D01*
X014611Y010328D02*
X014791Y010328D01*
X014791Y010418D01*
X014761Y010448D01*
X014701Y010448D01*
X014671Y010388D02*
X014611Y010448D01*
X014371Y010418D02*
X014341Y010388D01*
X014221Y010388D01*
X014191Y010418D01*
X014191Y010478D01*
X014221Y010508D01*
X014191Y010609D02*
X014311Y010729D01*
X014341Y010729D01*
X014371Y010699D01*
X014371Y010639D01*
X014341Y010609D01*
X014341Y010508D02*
X014371Y010478D01*
X014371Y010418D01*
X014346Y010238D02*
X013906Y010238D01*
X013906Y009498D01*
X014346Y009498D01*
X014346Y010238D01*
X014066Y010433D02*
X014036Y010403D01*
X014066Y010433D02*
X014066Y010493D01*
X014036Y010523D01*
X014006Y010523D01*
X013886Y010403D01*
X013886Y010523D01*
X013886Y010624D02*
X013886Y010654D01*
X013916Y010654D01*
X013916Y010624D01*
X013886Y010624D01*
X013886Y010735D02*
X014006Y010855D01*
X014036Y010855D01*
X014066Y010825D01*
X014066Y010765D01*
X014036Y010735D01*
X013886Y010735D02*
X013886Y010855D01*
X013916Y010956D02*
X013886Y010986D01*
X013886Y011076D01*
X014006Y011076D01*
X013976Y011177D02*
X013976Y011237D01*
X014066Y011177D02*
X014066Y011297D01*
X014066Y011177D02*
X013886Y011177D01*
X013916Y010956D02*
X014006Y010956D01*
X014191Y010830D02*
X014221Y010830D01*
X014341Y010950D01*
X014371Y010950D01*
X014371Y010830D01*
X014191Y010729D02*
X014191Y010609D01*
X013596Y010128D02*
X013596Y009688D01*
X012856Y009688D01*
X012856Y010128D01*
X013596Y010128D01*
X012755Y009738D02*
X012725Y009738D01*
X012725Y009708D01*
X012755Y009708D01*
X012755Y009738D01*
X012644Y009708D02*
X012524Y009708D01*
X012584Y009708D02*
X012584Y009888D01*
X012644Y009828D01*
X012423Y009828D02*
X012423Y009738D01*
X012393Y009708D01*
X012303Y009708D01*
X012303Y009828D01*
X012202Y009798D02*
X012142Y009798D01*
X012202Y009708D02*
X012202Y009888D01*
X012082Y009888D01*
X012054Y010093D02*
X012024Y010123D01*
X012024Y010153D01*
X012054Y010183D01*
X012144Y010183D01*
X012144Y010123D01*
X012114Y010093D01*
X012054Y010093D01*
X012144Y010183D02*
X012084Y010243D01*
X012024Y010273D01*
X012245Y010243D02*
X012275Y010273D01*
X012335Y010273D01*
X012365Y010243D01*
X012466Y010243D02*
X012496Y010273D01*
X012556Y010273D01*
X012586Y010243D01*
X012586Y010123D01*
X012556Y010093D01*
X012496Y010093D01*
X012466Y010123D01*
X012365Y010093D02*
X012245Y010213D01*
X012245Y010243D01*
X012245Y010093D02*
X012365Y010093D01*
X012461Y009548D02*
X012461Y009368D01*
X012521Y009368D02*
X012401Y009368D01*
X012300Y009398D02*
X012270Y009368D01*
X012180Y009368D01*
X012180Y009488D01*
X012079Y009458D02*
X012019Y009458D01*
X012079Y009368D02*
X012079Y009548D01*
X011959Y009548D01*
X012037Y009223D02*
X012007Y009193D01*
X012007Y009163D01*
X012037Y009133D01*
X012007Y009103D01*
X012007Y009073D01*
X012037Y009043D01*
X012097Y009043D01*
X012127Y009073D01*
X012067Y009133D02*
X012037Y009133D01*
X012037Y009223D02*
X012097Y009223D01*
X012127Y009193D01*
X012288Y009223D02*
X012288Y009043D01*
X012348Y009043D02*
X012228Y009043D01*
X012348Y009163D02*
X012288Y009223D01*
X012449Y009193D02*
X012479Y009223D01*
X012539Y009223D01*
X012569Y009193D01*
X012569Y009073D01*
X012539Y009043D01*
X012479Y009043D01*
X012449Y009073D01*
X012746Y009018D02*
X013186Y009018D01*
X013186Y008278D01*
X012746Y008278D01*
X012746Y009018D01*
X012876Y009128D02*
X012876Y009568D01*
X013616Y009568D01*
X013616Y009128D01*
X012876Y009128D01*
X012631Y009368D02*
X012601Y009368D01*
X012601Y009398D01*
X012631Y009398D01*
X012631Y009368D01*
X012521Y009488D02*
X012461Y009548D01*
X012300Y009488D02*
X012300Y009398D01*
X013306Y008978D02*
X013746Y008978D01*
X013746Y008238D01*
X013306Y008238D01*
X013306Y008978D01*
X013105Y008070D02*
X013045Y007980D01*
X012985Y008070D01*
X012985Y007980D02*
X013165Y007980D01*
X013135Y007879D02*
X013015Y007759D01*
X012985Y007789D01*
X012985Y007849D01*
X013015Y007879D01*
X013135Y007879D01*
X013165Y007849D01*
X013165Y007789D01*
X013135Y007759D01*
X013015Y007759D01*
X012985Y007658D02*
X012985Y007538D01*
X012985Y007598D02*
X013165Y007598D01*
X013105Y007538D01*
X012841Y007525D02*
X012841Y007615D01*
X012811Y007645D01*
X012751Y007645D01*
X012721Y007615D01*
X012721Y007525D01*
X012661Y007525D02*
X012841Y007525D01*
X012721Y007585D02*
X012661Y007645D01*
X012661Y007746D02*
X012781Y007866D01*
X012811Y007866D01*
X012841Y007836D01*
X012841Y007776D01*
X012811Y007746D01*
X012661Y007746D02*
X012661Y007866D01*
X012691Y007967D02*
X012811Y008087D01*
X012691Y008087D01*
X012661Y008057D01*
X012661Y007997D01*
X012691Y007967D01*
X012811Y007967D01*
X012841Y007997D01*
X012841Y008057D01*
X012811Y008087D01*
X013387Y007824D02*
X013447Y007734D01*
X013508Y007824D01*
X013568Y007734D02*
X013387Y007734D01*
X013417Y007634D02*
X013387Y007604D01*
X013387Y007543D01*
X013417Y007513D01*
X013538Y007634D01*
X013417Y007634D01*
X013538Y007634D02*
X013568Y007604D01*
X013568Y007543D01*
X013538Y007513D01*
X013417Y007513D01*
X013387Y007413D02*
X013387Y007292D01*
X013387Y007352D02*
X013568Y007352D01*
X013508Y007292D01*
X013651Y007328D02*
X013831Y007328D01*
X013831Y007418D01*
X013801Y007448D01*
X013741Y007448D01*
X013711Y007418D01*
X013711Y007328D01*
X013711Y007388D02*
X013651Y007448D01*
X013651Y007549D02*
X013651Y007669D01*
X013651Y007609D02*
X013831Y007609D01*
X013771Y007549D01*
X013771Y007770D02*
X013741Y007800D01*
X013741Y007890D01*
X013681Y007890D02*
X013801Y007890D01*
X013831Y007860D01*
X013831Y007800D01*
X013801Y007770D01*
X013771Y007770D01*
X013681Y007770D02*
X013651Y007800D01*
X013651Y007860D01*
X013681Y007890D01*
X011986Y006338D02*
X011546Y006338D01*
X011546Y005598D01*
X011986Y005598D01*
X011986Y006338D01*
X011461Y006217D02*
X011431Y006247D01*
X011401Y006247D01*
X011371Y006217D01*
X011371Y006157D01*
X011401Y006127D01*
X011431Y006127D01*
X011461Y006157D01*
X011461Y006217D01*
X011371Y006217D02*
X011341Y006247D01*
X011311Y006247D01*
X011281Y006217D01*
X011281Y006157D01*
X011311Y006127D01*
X011341Y006127D01*
X011371Y006157D01*
X011401Y006026D02*
X011431Y006026D01*
X011461Y005996D01*
X011461Y005936D01*
X011431Y005906D01*
X011431Y005805D02*
X011461Y005775D01*
X011461Y005715D01*
X011431Y005685D01*
X011311Y005685D01*
X011281Y005715D01*
X011281Y005775D01*
X011311Y005805D01*
X011281Y005906D02*
X011401Y006026D01*
X011281Y006026D02*
X011281Y005906D01*
X011166Y005820D02*
X011136Y005850D01*
X011016Y005730D01*
X010986Y005760D01*
X010986Y005820D01*
X011016Y005850D01*
X011136Y005850D01*
X011166Y005820D02*
X011166Y005760D01*
X011136Y005730D01*
X011016Y005730D01*
X011016Y005629D02*
X010986Y005599D01*
X010986Y005539D01*
X011016Y005509D01*
X011136Y005629D01*
X011016Y005629D01*
X011016Y005509D02*
X011136Y005509D01*
X011166Y005539D01*
X011166Y005599D01*
X011136Y005629D01*
X010986Y005408D02*
X010986Y005288D01*
X010986Y005348D02*
X011166Y005348D01*
X011106Y005288D01*
X011106Y005951D02*
X010986Y005951D01*
X010986Y006071D02*
X011076Y006071D01*
X011106Y006041D01*
X011106Y005951D01*
X011076Y006172D02*
X011076Y006232D01*
X010986Y006172D02*
X011166Y006172D01*
X011166Y006292D01*
X016021Y007465D02*
X016201Y007465D01*
X016201Y007555D01*
X016171Y007585D01*
X016111Y007585D01*
X016081Y007555D01*
X016081Y007465D01*
X016081Y007525D02*
X016021Y007585D01*
X016021Y007686D02*
X016141Y007806D01*
X016171Y007806D01*
X016201Y007776D01*
X016201Y007716D01*
X016171Y007686D01*
X016021Y007686D02*
X016021Y007806D01*
X016021Y007907D02*
X016141Y008027D01*
X016171Y008027D01*
X016201Y007997D01*
X016201Y007937D01*
X016171Y007907D01*
X016021Y007907D02*
X016021Y008027D01*
X016106Y008158D02*
X016546Y008158D01*
X016546Y008898D01*
X016106Y008898D01*
X016106Y008158D01*
X016345Y008070D02*
X016405Y007980D01*
X016465Y008070D01*
X016525Y007980D02*
X016345Y007980D01*
X016375Y007879D02*
X016345Y007849D01*
X016345Y007789D01*
X016375Y007759D01*
X016495Y007879D01*
X016375Y007879D01*
X016495Y007879D02*
X016525Y007849D01*
X016525Y007789D01*
X016495Y007759D01*
X016375Y007759D01*
X016345Y007658D02*
X016345Y007538D01*
X016345Y007598D02*
X016525Y007598D01*
X016465Y007538D01*
X009826Y012768D02*
X009706Y012888D01*
X009706Y012918D01*
X009736Y012948D01*
X009796Y012948D01*
X009826Y012918D01*
X009806Y013048D02*
X009806Y013608D01*
X008686Y013608D01*
X008686Y013048D01*
X009806Y013048D01*
X009826Y012768D02*
X009706Y012768D01*
X009605Y012768D02*
X009575Y012768D01*
X009575Y012798D01*
X009605Y012798D01*
X009605Y012768D01*
X009495Y012768D02*
X009375Y012888D01*
X009375Y012918D01*
X009405Y012948D01*
X009465Y012948D01*
X009495Y012918D01*
X009495Y012768D02*
X009375Y012768D01*
X009274Y012798D02*
X009244Y012768D01*
X009154Y012768D01*
X009154Y012888D01*
X009053Y012858D02*
X008993Y012858D01*
X009053Y012768D02*
X009053Y012948D01*
X008933Y012948D01*
X009274Y012888D02*
X009274Y012798D01*
X009224Y013708D02*
X009344Y013708D01*
X009224Y013828D01*
X009224Y013858D01*
X009254Y013888D01*
X009314Y013888D01*
X009344Y013858D01*
X009445Y013858D02*
X009475Y013888D01*
X009535Y013888D01*
X009565Y013858D01*
X009666Y013858D02*
X009696Y013888D01*
X009756Y013888D01*
X009786Y013858D01*
X009786Y013738D01*
X009756Y013708D01*
X009696Y013708D01*
X009666Y013738D01*
X009565Y013708D02*
X009445Y013828D01*
X009445Y013858D01*
X009445Y013708D02*
X009565Y013708D01*
X009575Y015948D02*
X009605Y015948D01*
X009605Y015978D01*
X009575Y015978D01*
X009575Y015948D01*
X009495Y015948D02*
X009375Y016068D01*
X009375Y016098D01*
X009405Y016128D01*
X009465Y016128D01*
X009495Y016098D01*
X009495Y015948D02*
X009375Y015948D01*
X009274Y015978D02*
X009244Y015948D01*
X009154Y015948D01*
X009154Y016068D01*
X009053Y016038D02*
X008993Y016038D01*
X009053Y015948D02*
X009053Y016128D01*
X008933Y016128D01*
X008686Y016228D02*
X009806Y016228D01*
X009806Y016788D01*
X008686Y016788D01*
X008686Y016228D01*
X009274Y016068D02*
X009274Y015978D01*
X009706Y015948D02*
X009826Y015948D01*
X009706Y016068D01*
X009706Y016098D01*
X009736Y016128D01*
X009796Y016128D01*
X009826Y016098D01*
X009756Y016888D02*
X009696Y016888D01*
X009666Y016918D01*
X009756Y016888D02*
X009786Y016918D01*
X009786Y017038D01*
X009756Y017068D01*
X009696Y017068D01*
X009666Y017038D01*
X009565Y017038D02*
X009535Y017068D01*
X009475Y017068D01*
X009445Y017038D01*
X009445Y017008D01*
X009565Y016888D01*
X009445Y016888D01*
X009344Y016888D02*
X009224Y016888D01*
X009284Y016888D02*
X009284Y017068D01*
X009344Y017008D01*
X009556Y023824D02*
X009556Y024632D01*
D14*
X024386Y014468D03*
D15*
X024766Y013740D02*
X024766Y013716D01*
X023926Y013736D02*
X023926Y013760D01*
X021438Y013988D02*
X021414Y013988D01*
X020778Y013628D02*
X020754Y013628D01*
X020258Y014128D02*
X020234Y014128D01*
X019718Y014128D02*
X019694Y014128D01*
X021194Y014968D02*
X021218Y014968D01*
X019598Y016108D02*
X019574Y016108D01*
X020294Y017008D02*
X020318Y017008D01*
X021432Y017804D02*
X022220Y017804D01*
X021826Y017401D01*
X021432Y017804D01*
X020258Y018028D02*
X020234Y018028D01*
X023354Y018368D02*
X023378Y018368D01*
X023334Y019528D02*
X023358Y019528D01*
X023814Y017208D02*
X023838Y017208D01*
X024114Y016348D02*
X024138Y016348D01*
X014138Y009868D02*
X014114Y009868D01*
X013226Y009896D02*
X013226Y009920D01*
X013246Y009360D02*
X013246Y009336D01*
X011778Y005968D02*
X011754Y005968D01*
X013874Y023068D02*
X013898Y023068D01*
X013979Y024371D02*
X013979Y024765D01*
X013113Y024765D02*
X013113Y024371D01*
X011978Y024568D02*
X011954Y024568D01*
X010856Y026518D02*
X010856Y028878D01*
X013436Y028878D01*
X013436Y026518D01*
X016145Y026569D02*
X016432Y026569D01*
X017020Y026569D02*
X017307Y026569D01*
X017307Y025407D02*
X017020Y025407D01*
X016432Y025407D02*
X016145Y025407D01*
X015758Y024028D02*
X015734Y024028D01*
X014318Y029128D02*
X014294Y029128D01*
D16*
X010841Y025136D02*
X010691Y025136D01*
X010691Y025086D02*
X010691Y025186D01*
X010791Y025086D02*
X010841Y025136D01*
X010816Y025039D02*
X010716Y024938D01*
X010691Y024963D01*
X010691Y025013D01*
X010716Y025039D01*
X010816Y025039D01*
X010841Y025013D01*
X010841Y024963D01*
X010816Y024938D01*
X010716Y024938D01*
X010716Y024890D02*
X010691Y024890D01*
X010691Y024865D01*
X010716Y024865D01*
X010716Y024890D01*
X009416Y024866D02*
X009391Y024891D01*
X009341Y024891D01*
X009316Y024866D01*
X009316Y024791D01*
X009266Y024791D02*
X009416Y024791D01*
X009416Y024866D01*
X009391Y024938D02*
X009416Y024963D01*
X009416Y025013D01*
X009391Y025039D01*
X009366Y025039D01*
X009341Y025013D01*
X009316Y025039D01*
X009291Y025039D01*
X009266Y025013D01*
X009266Y024963D01*
X009291Y024938D01*
X009266Y024891D02*
X009316Y024841D01*
X009341Y024988D02*
X009341Y025013D01*
X009291Y025086D02*
X009391Y025186D01*
X009291Y025186D01*
X009266Y025161D01*
X009266Y025111D01*
X009291Y025086D01*
X009391Y025086D01*
X009416Y025111D01*
X009416Y025161D01*
X009391Y025186D01*
X021126Y016106D02*
X021126Y016006D01*
X021126Y015959D02*
X021126Y015858D01*
X021276Y015858D01*
X021341Y015863D02*
X021341Y015939D01*
X021441Y015939D01*
X021416Y015986D02*
X021416Y016086D01*
X021491Y016086D02*
X021341Y016086D01*
X021276Y016056D02*
X021126Y016056D01*
X021226Y016006D02*
X021276Y016056D01*
X021341Y015986D02*
X021491Y015986D01*
X021441Y015838D02*
X021366Y015838D01*
X021341Y015863D01*
X021366Y015791D02*
X021341Y015766D01*
X021341Y015716D01*
X021366Y015691D01*
X021366Y015644D02*
X021341Y015619D01*
X021341Y015569D01*
X021366Y015544D01*
X021416Y015594D02*
X021416Y015619D01*
X021391Y015644D01*
X021366Y015644D01*
X021416Y015619D02*
X021441Y015644D01*
X021466Y015644D01*
X021491Y015619D01*
X021491Y015569D01*
X021466Y015544D01*
X021466Y015691D02*
X021491Y015716D01*
X021491Y015766D01*
X021466Y015791D01*
X021441Y015791D01*
X021416Y015766D01*
X021391Y015791D01*
X021366Y015791D01*
X021416Y015766D02*
X021416Y015741D01*
D17*
X021076Y016838D02*
X021076Y018618D01*
X021616Y019238D02*
X021616Y019468D01*
X021693Y019545D01*
X022000Y019545D01*
X022077Y019468D01*
X022077Y019238D01*
X021616Y019238D01*
X021616Y019698D02*
X021616Y020005D01*
X021616Y019852D02*
X022077Y019852D01*
X021923Y019698D01*
X022576Y018618D02*
X022576Y016838D01*
X018084Y023309D02*
X018084Y023616D01*
X018084Y023463D02*
X017624Y023463D01*
X017624Y023770D02*
X018084Y023770D01*
X018084Y024000D01*
X018008Y024076D01*
X017854Y024076D01*
X017778Y024000D01*
X017778Y023770D01*
X017701Y024230D02*
X017624Y024307D01*
X017624Y024460D01*
X017701Y024537D01*
X017778Y024537D01*
X017854Y024460D01*
X017854Y024307D01*
X017931Y024230D01*
X018008Y024230D01*
X018084Y024307D01*
X018084Y024460D01*
X018008Y024537D01*
X018084Y024690D02*
X017854Y024690D01*
X017931Y024844D01*
X017931Y024921D01*
X017854Y024997D01*
X017701Y024997D01*
X017624Y024921D01*
X017624Y024767D01*
X017701Y024690D01*
X018084Y024690D02*
X018084Y024997D01*
X017931Y025151D02*
X018084Y025304D01*
X017624Y025304D01*
X017624Y025151D02*
X017624Y025458D01*
X017624Y025611D02*
X017624Y025918D01*
X017624Y025765D02*
X018084Y025765D01*
X017931Y025611D01*
X018008Y026072D02*
X018084Y026148D01*
X018084Y026302D01*
X018008Y026378D01*
X017701Y026072D01*
X017624Y026148D01*
X017624Y026302D01*
X017701Y026378D01*
X018008Y026378D01*
X018008Y026532D02*
X018084Y026609D01*
X018084Y026762D01*
X018008Y026839D01*
X017931Y026839D01*
X017854Y026762D01*
X017778Y026839D01*
X017701Y026839D01*
X017624Y026762D01*
X017624Y026609D01*
X017701Y026532D01*
X017854Y026685D02*
X017854Y026762D01*
X017701Y026072D02*
X018008Y026072D01*
X015919Y026148D02*
X015842Y026072D01*
X015535Y026072D01*
X015459Y026148D01*
X015459Y026302D01*
X015535Y026378D01*
X015535Y026532D02*
X015459Y026609D01*
X015459Y026762D01*
X015535Y026839D01*
X015689Y026839D01*
X015766Y026762D01*
X015766Y026685D01*
X015689Y026532D01*
X015919Y026532D01*
X015919Y026839D01*
X015842Y026378D02*
X015919Y026302D01*
X015919Y026148D01*
X015919Y025918D02*
X015919Y025765D01*
X015919Y025841D02*
X015459Y025841D01*
X015459Y025765D02*
X015459Y025918D01*
X010707Y027385D02*
X010630Y027308D01*
X010477Y027308D01*
X010400Y027385D01*
X010400Y027692D01*
X010477Y027768D01*
X010630Y027768D01*
X010707Y027692D01*
X010707Y027385D01*
X010553Y027462D02*
X010400Y027308D01*
X010247Y027385D02*
X010170Y027308D01*
X010016Y027308D01*
X009940Y027385D01*
X009940Y027462D01*
X010016Y027538D01*
X010093Y027538D01*
X010016Y027538D02*
X009940Y027615D01*
X009940Y027692D01*
X010016Y027768D01*
X010170Y027768D01*
X010247Y027692D01*
X010307Y029048D02*
X010614Y029048D01*
X010460Y029048D02*
X010460Y029508D01*
X010153Y029508D02*
X010153Y029201D01*
X010000Y029048D01*
X009847Y029201D01*
X009847Y029508D01*
X009693Y029431D02*
X009616Y029508D01*
X009386Y029508D01*
X009386Y029048D01*
X009616Y029048D01*
X009693Y029124D01*
X009693Y029201D01*
X009616Y029278D01*
X009386Y029278D01*
X009616Y029278D02*
X009693Y029355D01*
X009693Y029431D01*
X009847Y029278D02*
X010153Y029278D01*
X010767Y029278D02*
X011074Y029278D01*
X010921Y029431D02*
X010921Y029124D01*
X008877Y020405D02*
X008877Y020098D01*
X008416Y020098D01*
X008416Y019944D02*
X008723Y019944D01*
X008646Y020098D02*
X008646Y020251D01*
X008416Y019944D02*
X008416Y019714D01*
X008493Y019637D01*
X008723Y019637D01*
X008800Y019484D02*
X008493Y019177D01*
X008416Y019254D01*
X008416Y019407D01*
X008493Y019484D01*
X008800Y019484D01*
X008877Y019407D01*
X008877Y019254D01*
X008800Y019177D01*
X008493Y019177D01*
X008646Y019023D02*
X008646Y018716D01*
X008877Y018947D01*
X008416Y018947D01*
X009076Y019074D02*
X009076Y019227D01*
X009153Y019304D01*
X009076Y019457D02*
X009076Y019764D01*
X009076Y019611D02*
X009537Y019611D01*
X009383Y019457D01*
X009460Y019304D02*
X009537Y019227D01*
X009537Y019074D01*
X009460Y018997D01*
X009153Y018997D01*
X009076Y019074D01*
X008877Y018486D02*
X008416Y018486D01*
X008646Y018563D02*
X008646Y018256D01*
X008877Y018486D01*
X009153Y019918D02*
X009076Y019994D01*
X009076Y020148D01*
X009153Y020225D01*
X009230Y020225D01*
X009306Y020148D01*
X009306Y019994D01*
X009383Y019918D01*
X009460Y019918D01*
X009537Y019994D01*
X009537Y020148D01*
X009460Y020225D01*
X009383Y020225D01*
X009306Y020148D01*
X009306Y019994D02*
X009230Y019918D01*
X009153Y019918D01*
X015027Y007705D02*
X015027Y007398D01*
X014566Y007398D01*
X014566Y007244D02*
X014873Y007244D01*
X014796Y007398D02*
X014796Y007551D01*
X015146Y007585D02*
X015146Y007278D01*
X015453Y007585D01*
X015530Y007585D01*
X015607Y007508D01*
X015607Y007354D01*
X015530Y007278D01*
X015607Y006971D02*
X015146Y006971D01*
X015146Y007124D02*
X015146Y006817D01*
X015027Y006784D02*
X015027Y006477D01*
X015146Y006434D02*
X015146Y006587D01*
X015223Y006664D01*
X015027Y006784D02*
X014950Y006784D01*
X014643Y006477D01*
X014566Y006477D01*
X014566Y006247D02*
X015027Y006247D01*
X014796Y006016D01*
X014796Y006323D01*
X015146Y006434D02*
X015223Y006357D01*
X015530Y006357D01*
X015607Y006434D01*
X015607Y006587D01*
X015530Y006664D01*
X015453Y006817D02*
X015607Y006971D01*
X014873Y006937D02*
X014643Y006937D01*
X014566Y007014D01*
X014566Y007244D01*
D18*
X019566Y010368D03*
X020646Y010668D03*
X021726Y010608D03*
X022686Y010608D03*
D19*
X012146Y029068D03*
D20*
X014346Y030188D03*
D21*
X015434Y026708D02*
X015458Y026708D01*
X015414Y025308D02*
X015438Y025308D01*
X011258Y024548D02*
X011234Y024548D01*
X013514Y021788D02*
X013538Y021788D01*
X009246Y016520D02*
X009246Y016496D01*
X009246Y013340D02*
X009246Y013316D01*
D22*
X013802Y024489D03*
D23*
X009396Y012008D02*
X009398Y012050D01*
X009404Y012092D01*
X009414Y012133D01*
X009427Y012173D01*
X009445Y012211D01*
X009465Y012248D01*
X009490Y012283D01*
X009517Y012315D01*
X009547Y012344D01*
X009580Y012371D01*
X009615Y012394D01*
X009652Y012414D01*
X009691Y012430D01*
X009731Y012443D01*
X009772Y012452D01*
X009814Y012457D01*
X009857Y012458D01*
X009899Y012455D01*
X009940Y012448D01*
X009981Y012437D01*
X010021Y012423D01*
X010059Y012405D01*
X010095Y012383D01*
X010129Y012358D01*
X010160Y012330D01*
X010189Y012299D01*
X010215Y012266D01*
X010237Y012230D01*
X010257Y012192D01*
X010272Y012153D01*
X010284Y012113D01*
X010292Y012071D01*
X010296Y012029D01*
X010296Y011987D01*
X010292Y011945D01*
X010284Y011903D01*
X010272Y011863D01*
X010257Y011824D01*
X010237Y011786D01*
X010215Y011750D01*
X010189Y011717D01*
X010160Y011686D01*
X010129Y011658D01*
X010095Y011633D01*
X010059Y011611D01*
X010021Y011593D01*
X009981Y011579D01*
X009940Y011568D01*
X009899Y011561D01*
X009857Y011558D01*
X009814Y011559D01*
X009772Y011564D01*
X009731Y011573D01*
X009691Y011586D01*
X009652Y011602D01*
X009615Y011622D01*
X009580Y011645D01*
X009547Y011672D01*
X009517Y011701D01*
X009490Y011733D01*
X009465Y011768D01*
X009445Y011805D01*
X009427Y011843D01*
X009414Y011883D01*
X009404Y011924D01*
X009398Y011966D01*
X009396Y012008D01*
X019236Y012008D02*
X019238Y012050D01*
X019244Y012092D01*
X019254Y012133D01*
X019267Y012173D01*
X019285Y012211D01*
X019305Y012248D01*
X019330Y012283D01*
X019357Y012315D01*
X019387Y012344D01*
X019420Y012371D01*
X019455Y012394D01*
X019492Y012414D01*
X019531Y012430D01*
X019571Y012443D01*
X019612Y012452D01*
X019654Y012457D01*
X019697Y012458D01*
X019739Y012455D01*
X019780Y012448D01*
X019821Y012437D01*
X019861Y012423D01*
X019899Y012405D01*
X019935Y012383D01*
X019969Y012358D01*
X020000Y012330D01*
X020029Y012299D01*
X020055Y012266D01*
X020077Y012230D01*
X020097Y012192D01*
X020112Y012153D01*
X020124Y012113D01*
X020132Y012071D01*
X020136Y012029D01*
X020136Y011987D01*
X020132Y011945D01*
X020124Y011903D01*
X020112Y011863D01*
X020097Y011824D01*
X020077Y011786D01*
X020055Y011750D01*
X020029Y011717D01*
X020000Y011686D01*
X019969Y011658D01*
X019935Y011633D01*
X019899Y011611D01*
X019861Y011593D01*
X019821Y011579D01*
X019780Y011568D01*
X019739Y011561D01*
X019697Y011558D01*
X019654Y011559D01*
X019612Y011564D01*
X019571Y011573D01*
X019531Y011586D01*
X019492Y011602D01*
X019455Y011622D01*
X019420Y011645D01*
X019387Y011672D01*
X019357Y011701D01*
X019330Y011733D01*
X019305Y011768D01*
X019285Y011805D01*
X019267Y011843D01*
X019254Y011883D01*
X019244Y011924D01*
X019238Y011966D01*
X019236Y012008D01*
X019236Y002168D02*
X019238Y002210D01*
X019244Y002252D01*
X019254Y002293D01*
X019267Y002333D01*
X019285Y002371D01*
X019305Y002408D01*
X019330Y002443D01*
X019357Y002475D01*
X019387Y002504D01*
X019420Y002531D01*
X019455Y002554D01*
X019492Y002574D01*
X019531Y002590D01*
X019571Y002603D01*
X019612Y002612D01*
X019654Y002617D01*
X019697Y002618D01*
X019739Y002615D01*
X019780Y002608D01*
X019821Y002597D01*
X019861Y002583D01*
X019899Y002565D01*
X019935Y002543D01*
X019969Y002518D01*
X020000Y002490D01*
X020029Y002459D01*
X020055Y002426D01*
X020077Y002390D01*
X020097Y002352D01*
X020112Y002313D01*
X020124Y002273D01*
X020132Y002231D01*
X020136Y002189D01*
X020136Y002147D01*
X020132Y002105D01*
X020124Y002063D01*
X020112Y002023D01*
X020097Y001984D01*
X020077Y001946D01*
X020055Y001910D01*
X020029Y001877D01*
X020000Y001846D01*
X019969Y001818D01*
X019935Y001793D01*
X019899Y001771D01*
X019861Y001753D01*
X019821Y001739D01*
X019780Y001728D01*
X019739Y001721D01*
X019697Y001718D01*
X019654Y001719D01*
X019612Y001724D01*
X019571Y001733D01*
X019531Y001746D01*
X019492Y001762D01*
X019455Y001782D01*
X019420Y001805D01*
X019387Y001832D01*
X019357Y001861D01*
X019330Y001893D01*
X019305Y001928D01*
X019285Y001965D01*
X019267Y002003D01*
X019254Y002043D01*
X019244Y002084D01*
X019238Y002126D01*
X019236Y002168D01*
X009396Y002168D02*
X009398Y002210D01*
X009404Y002252D01*
X009414Y002293D01*
X009427Y002333D01*
X009445Y002371D01*
X009465Y002408D01*
X009490Y002443D01*
X009517Y002475D01*
X009547Y002504D01*
X009580Y002531D01*
X009615Y002554D01*
X009652Y002574D01*
X009691Y002590D01*
X009731Y002603D01*
X009772Y002612D01*
X009814Y002617D01*
X009857Y002618D01*
X009899Y002615D01*
X009940Y002608D01*
X009981Y002597D01*
X010021Y002583D01*
X010059Y002565D01*
X010095Y002543D01*
X010129Y002518D01*
X010160Y002490D01*
X010189Y002459D01*
X010215Y002426D01*
X010237Y002390D01*
X010257Y002352D01*
X010272Y002313D01*
X010284Y002273D01*
X010292Y002231D01*
X010296Y002189D01*
X010296Y002147D01*
X010292Y002105D01*
X010284Y002063D01*
X010272Y002023D01*
X010257Y001984D01*
X010237Y001946D01*
X010215Y001910D01*
X010189Y001877D01*
X010160Y001846D01*
X010129Y001818D01*
X010095Y001793D01*
X010059Y001771D01*
X010021Y001753D01*
X009981Y001739D01*
X009940Y001728D01*
X009899Y001721D01*
X009857Y001718D01*
X009814Y001719D01*
X009772Y001724D01*
X009731Y001733D01*
X009691Y001746D01*
X009652Y001762D01*
X009615Y001782D01*
X009580Y001805D01*
X009547Y001832D01*
X009517Y001861D01*
X009490Y001893D01*
X009465Y001928D01*
X009445Y001965D01*
X009427Y002003D01*
X009414Y002043D01*
X009404Y002084D01*
X009398Y002126D01*
X009396Y002168D01*
M02*
