G75*
%MOIN*%
%OFA0B0*%
%FSLAX24Y24*%
%IPPOS*%
%LPD*%
%AMOC8*
5,1,8,0,0,1.08239X$1,22.5*
%
%ADD10R,0.0280X0.0200*%
%ADD11R,0.0200X0.0280*%
%ADD12R,0.0472X0.0315*%
%ADD13R,0.0945X0.0945*%
%ADD14R,0.0394X0.0433*%
%ADD15R,0.0400X0.0370*%
%ADD16R,0.0630X0.1063*%
%ADD17R,0.2126X0.2441*%
%ADD18R,0.0394X0.0630*%
%ADD19R,0.0370X0.0400*%
%ADD20OC8,0.0660*%
%ADD21C,0.0600*%
%ADD22C,0.0740*%
%ADD23R,0.1000X0.0500*%
%ADD24R,0.0650X0.0945*%
%ADD25C,0.0055*%
%ADD26C,0.0039*%
%ADD27C,0.0600*%
%ADD28R,0.1063X0.0709*%
%ADD29R,0.0138X0.0315*%
%ADD30C,0.0160*%
%ADD31C,0.0100*%
%ADD32C,0.0292*%
%ADD33C,0.0060*%
%ADD34C,0.0240*%
D10*
X011766Y005778D03*
X011766Y006158D03*
X012966Y008458D03*
X012966Y008838D03*
X013526Y008798D03*
X013526Y008418D03*
X014126Y009678D03*
X014126Y010058D03*
X014826Y010058D03*
X014826Y009678D03*
X015626Y009598D03*
X015626Y009978D03*
X016326Y009718D03*
X016326Y009338D03*
X016326Y008718D03*
X016326Y008338D03*
X021446Y012878D03*
X021446Y013258D03*
X022046Y013238D03*
X022046Y012858D03*
X020766Y013438D03*
X020766Y013818D03*
X020246Y013938D03*
X020246Y014318D03*
X019706Y014318D03*
X019706Y013938D03*
X021206Y014778D03*
X021206Y015158D03*
X022046Y014578D03*
X022046Y014198D03*
X022586Y014218D03*
X022586Y014598D03*
X022386Y015418D03*
X022386Y015798D03*
X024126Y016158D03*
X024126Y016538D03*
X023826Y017018D03*
X023826Y017398D03*
X023366Y018178D03*
X023366Y018558D03*
X023346Y019338D03*
X023346Y019718D03*
X020246Y018218D03*
X020246Y017838D03*
X020306Y017198D03*
X020306Y016818D03*
X019586Y016298D03*
X019586Y015918D03*
X021426Y014178D03*
X021426Y013798D03*
X023246Y013558D03*
X023246Y013178D03*
X024486Y014958D03*
X024486Y015338D03*
X024726Y016298D03*
X024726Y016678D03*
X017166Y023898D03*
X017166Y024278D03*
X016346Y024258D03*
X016346Y023878D03*
X015746Y023838D03*
X015746Y024218D03*
X015126Y024218D03*
X015126Y023838D03*
X014486Y023878D03*
X014486Y024258D03*
X014546Y023238D03*
X014546Y022858D03*
X013886Y022878D03*
X013886Y023258D03*
X011966Y024378D03*
X011966Y024758D03*
X014886Y027898D03*
X014886Y028278D03*
X014886Y028918D03*
X014886Y029298D03*
X014306Y029318D03*
X014306Y028938D03*
D11*
X024196Y014468D03*
X024576Y014468D03*
X024116Y013748D03*
X023736Y013748D03*
X024576Y013728D03*
X024956Y013728D03*
X013416Y009908D03*
X013036Y009908D03*
X013056Y009348D03*
X013436Y009348D03*
D12*
X021786Y014954D03*
X021786Y015662D03*
D13*
X021826Y016862D03*
X021826Y018594D03*
D14*
X014886Y009103D03*
X014886Y008433D03*
D15*
X019566Y010073D03*
X019566Y010663D03*
X020646Y010373D03*
X020646Y010963D03*
X021726Y010903D03*
X022686Y010903D03*
X022686Y010313D03*
X021726Y010313D03*
X013526Y021493D03*
X013526Y022083D03*
X011246Y024253D03*
X011246Y024843D03*
X015426Y025013D03*
X015426Y025603D03*
X015446Y026413D03*
X015446Y027003D03*
D16*
X009757Y021248D03*
X008655Y021248D03*
D17*
X012146Y027044D03*
D18*
X011249Y029918D03*
X013044Y029918D03*
D19*
X014051Y030188D03*
X014641Y030188D03*
X009541Y016508D03*
X008951Y016508D03*
X008951Y013328D03*
X009541Y013328D03*
D20*
X027226Y012908D03*
X027226Y011908D03*
X027226Y013908D03*
X027226Y014908D03*
X027226Y015908D03*
X027226Y016908D03*
X027226Y017908D03*
X027226Y018908D03*
X027226Y019908D03*
X027226Y020908D03*
X027226Y022508D03*
X027226Y023508D03*
X027226Y024508D03*
X027226Y025508D03*
X027226Y026508D03*
X027226Y027508D03*
X027226Y028508D03*
X027226Y029508D03*
X046226Y029508D03*
X046226Y028508D03*
X046226Y027508D03*
X046226Y026508D03*
X046226Y025508D03*
X046226Y024508D03*
X046226Y022508D03*
X046226Y021508D03*
X046226Y020508D03*
X046226Y019508D03*
X046226Y018508D03*
X046226Y017508D03*
X046226Y016508D03*
X046226Y015508D03*
D21*
X041306Y015988D03*
X041306Y016988D03*
X041306Y017988D03*
X041306Y018988D03*
X041306Y019988D03*
X041306Y020988D03*
X041306Y021988D03*
X041306Y022988D03*
X041306Y023988D03*
X041306Y024988D03*
X041306Y025988D03*
X032306Y025988D03*
X032306Y024988D03*
X032306Y023988D03*
X032306Y022988D03*
X032306Y021988D03*
X032306Y020988D03*
X032306Y019988D03*
X032306Y018988D03*
X032306Y017988D03*
X032306Y016988D03*
X032306Y015988D03*
X032306Y014988D03*
X032306Y013988D03*
X032306Y012988D03*
X032306Y011988D03*
X032306Y010988D03*
X032306Y009988D03*
X032306Y008988D03*
X032306Y007988D03*
X032306Y006988D03*
X041306Y006988D03*
X041306Y007988D03*
X041306Y008988D03*
X041306Y009988D03*
X041306Y010988D03*
X041306Y011988D03*
X041306Y012988D03*
X041306Y013988D03*
X041306Y014988D03*
D22*
X023186Y025078D03*
X023186Y026858D03*
X020626Y026858D03*
X020626Y025078D03*
D23*
X010106Y030008D03*
D24*
X016726Y025988D03*
D25*
X017167Y026016D02*
X017447Y026016D01*
X017447Y025960D01*
X017167Y025960D01*
X017167Y026016D01*
X017167Y026014D02*
X017447Y026014D01*
X017447Y026213D02*
X017167Y026213D01*
X017447Y026213D02*
X017447Y026157D01*
X017167Y026157D01*
X017167Y026213D01*
X017167Y026211D02*
X017447Y026211D01*
X017447Y026410D02*
X017167Y026410D01*
X017447Y026410D02*
X017447Y026354D01*
X017167Y026354D01*
X017167Y026410D01*
X017167Y026408D02*
X017447Y026408D01*
X017447Y025819D02*
X017167Y025819D01*
X017447Y025819D02*
X017447Y025763D01*
X017167Y025763D01*
X017167Y025819D01*
X017167Y025817D02*
X017447Y025817D01*
X017447Y025622D02*
X017167Y025622D01*
X017447Y025622D02*
X017447Y025566D01*
X017167Y025566D01*
X017167Y025622D01*
X017167Y025620D02*
X017447Y025620D01*
X016285Y025566D02*
X016005Y025566D01*
X016005Y025622D01*
X016285Y025622D01*
X016285Y025566D01*
X016285Y025620D02*
X016005Y025620D01*
X016005Y025763D02*
X016285Y025763D01*
X016005Y025763D02*
X016005Y025819D01*
X016285Y025819D01*
X016285Y025763D01*
X016285Y025817D02*
X016005Y025817D01*
X016005Y025960D02*
X016285Y025960D01*
X016005Y025960D02*
X016005Y026016D01*
X016285Y026016D01*
X016285Y025960D01*
X016285Y026014D02*
X016005Y026014D01*
X016005Y026157D02*
X016285Y026157D01*
X016005Y026157D02*
X016005Y026213D01*
X016285Y026213D01*
X016285Y026157D01*
X016285Y026211D02*
X016005Y026211D01*
X016005Y026354D02*
X016285Y026354D01*
X016005Y026354D02*
X016005Y026410D01*
X016285Y026410D01*
X016285Y026354D01*
X016285Y026408D02*
X016005Y026408D01*
D26*
X016421Y026418D02*
X017031Y026418D01*
X017031Y026441D02*
X016869Y026441D01*
X016869Y026716D01*
X016800Y026716D01*
X016800Y026441D01*
X016652Y026441D01*
X016652Y026716D01*
X016593Y026716D01*
X016588Y026716D01*
X016583Y026716D01*
X016583Y026441D01*
X016421Y026441D01*
X016421Y025535D01*
X016583Y025535D01*
X016583Y025260D01*
X016652Y025260D01*
X016652Y025535D01*
X016800Y025535D01*
X016800Y025260D01*
X016869Y025260D01*
X016869Y025535D01*
X017031Y025535D01*
X017031Y026441D01*
X017031Y026380D02*
X016421Y026380D01*
X016421Y026342D02*
X017031Y026342D01*
X017031Y026304D02*
X016421Y026304D01*
X016421Y026266D02*
X017031Y026266D01*
X017031Y026228D02*
X016421Y026228D01*
X016421Y026191D02*
X017031Y026191D01*
X017031Y026153D02*
X016421Y026153D01*
X016421Y026115D02*
X017031Y026115D01*
X017031Y026077D02*
X016421Y026077D01*
X016421Y026039D02*
X017031Y026039D01*
X017031Y026001D02*
X016421Y026001D01*
X016421Y025963D02*
X017031Y025963D01*
X017031Y025925D02*
X016421Y025925D01*
X016421Y025888D02*
X017031Y025888D01*
X017031Y025850D02*
X016421Y025850D01*
X016421Y025812D02*
X017031Y025812D01*
X017031Y025774D02*
X016421Y025774D01*
X016421Y025736D02*
X017031Y025736D01*
X017031Y025698D02*
X016421Y025698D01*
X016421Y025660D02*
X017031Y025660D01*
X017031Y025622D02*
X016421Y025622D01*
X016421Y025585D02*
X017031Y025585D01*
X017031Y025547D02*
X016421Y025547D01*
X016583Y025509D02*
X016652Y025509D01*
X016652Y025471D02*
X016583Y025471D01*
X016583Y025433D02*
X016652Y025433D01*
X016652Y025395D02*
X016583Y025395D01*
X016583Y025357D02*
X016652Y025357D01*
X016652Y025320D02*
X016583Y025320D01*
X016583Y025282D02*
X016652Y025282D01*
X016800Y025282D02*
X016869Y025282D01*
X016869Y025320D02*
X016800Y025320D01*
X016800Y025357D02*
X016869Y025357D01*
X016869Y025395D02*
X016800Y025395D01*
X016800Y025433D02*
X016869Y025433D01*
X016869Y025471D02*
X016800Y025471D01*
X016800Y025509D02*
X016869Y025509D01*
X016869Y026456D02*
X016800Y026456D01*
X016800Y026494D02*
X016869Y026494D01*
X016869Y026531D02*
X016800Y026531D01*
X016800Y026569D02*
X016869Y026569D01*
X016869Y026607D02*
X016800Y026607D01*
X016800Y026645D02*
X016869Y026645D01*
X016869Y026683D02*
X016800Y026683D01*
X016652Y026683D02*
X016583Y026683D01*
X016583Y026645D02*
X016652Y026645D01*
X016652Y026607D02*
X016583Y026607D01*
X016583Y026569D02*
X016652Y026569D01*
X016652Y026531D02*
X016583Y026531D01*
X016583Y026494D02*
X016652Y026494D01*
X016652Y026456D02*
X016583Y026456D01*
D27*
X018626Y028528D02*
X019226Y028528D01*
X020026Y028508D02*
X020626Y028508D01*
X020626Y029508D02*
X020026Y029508D01*
X019226Y029528D02*
X018626Y029528D01*
X008666Y028128D02*
X008066Y028128D01*
X008066Y027128D02*
X008666Y027128D01*
X020166Y008728D02*
X020166Y008128D01*
X021166Y008128D02*
X021166Y008728D01*
X022166Y008728D02*
X022166Y008128D01*
X023166Y008128D02*
X023166Y008728D01*
D28*
X010046Y023362D03*
X010046Y025094D03*
D29*
X013290Y024903D03*
X013546Y024903D03*
X013802Y024903D03*
X013802Y024233D03*
X013546Y024233D03*
X013290Y024233D03*
D30*
X007606Y026990D02*
X007606Y003508D01*
X047806Y003508D01*
X047806Y030448D01*
X047556Y030448D01*
X047556Y029598D01*
X046679Y028720D01*
X046696Y028703D01*
X046696Y028313D01*
X046421Y028038D01*
X046031Y028038D01*
X045756Y028313D01*
X045756Y028703D01*
X046031Y028978D01*
X046421Y028978D01*
X046438Y028961D01*
X047216Y029738D01*
X047216Y030318D01*
X047087Y030447D01*
X018227Y030388D01*
X018166Y030328D01*
X018166Y029666D01*
X018181Y029712D01*
X018216Y029780D01*
X018260Y029841D01*
X018313Y029894D01*
X018375Y029939D01*
X018442Y029973D01*
X018514Y029996D01*
X018588Y030008D01*
X018906Y030008D01*
X018906Y029548D01*
X018946Y029548D01*
X018946Y030008D01*
X019264Y030008D01*
X019339Y029996D01*
X019410Y029973D01*
X019478Y029939D01*
X019539Y029894D01*
X019592Y029841D01*
X019633Y029784D01*
X019660Y029821D01*
X019713Y029874D01*
X019775Y029919D01*
X019842Y029953D01*
X019914Y029976D01*
X019988Y029988D01*
X020306Y029988D01*
X020306Y029528D01*
X020306Y029488D01*
X019706Y029488D01*
X019706Y029490D01*
X019706Y029508D01*
X018946Y029508D01*
X018946Y029048D01*
X019264Y029048D01*
X019339Y029060D01*
X019410Y029083D01*
X019478Y029118D01*
X019539Y029162D01*
X019592Y029215D01*
X019619Y029252D01*
X019660Y029195D01*
X019713Y029142D01*
X019775Y029098D01*
X019842Y029063D01*
X019914Y029040D01*
X019988Y029028D01*
X020306Y029028D01*
X020306Y029488D01*
X020346Y029488D01*
X020346Y029028D01*
X020664Y029028D01*
X020739Y029040D01*
X020810Y029063D01*
X020878Y029098D01*
X020939Y029142D01*
X020992Y029195D01*
X021037Y029256D01*
X021071Y029324D01*
X021094Y029396D01*
X021106Y029470D01*
X021106Y029488D01*
X020346Y029488D01*
X020346Y029528D01*
X020306Y029528D01*
X019546Y029528D01*
X019546Y029546D01*
X019546Y029548D01*
X018946Y029548D01*
X018946Y029508D01*
X018906Y029508D01*
X018906Y029048D01*
X018588Y029048D01*
X018514Y029060D01*
X018442Y029083D01*
X018375Y029118D01*
X018313Y029162D01*
X018260Y029215D01*
X018216Y029276D01*
X018181Y029344D01*
X018166Y029390D01*
X018166Y027088D01*
X016744Y027088D01*
X016709Y027005D01*
X016629Y026925D01*
X016608Y026916D01*
X016646Y026916D01*
X016646Y026068D01*
X016806Y026068D01*
X016806Y026916D01*
X016895Y026916D01*
X016946Y026902D01*
X016991Y026876D01*
X017029Y026839D01*
X017055Y026793D01*
X017069Y026743D01*
X017069Y026641D01*
X017075Y026641D01*
X017120Y026628D01*
X017161Y026605D01*
X017189Y026577D01*
X017516Y026577D01*
X017614Y026479D01*
X017614Y026337D01*
X017640Y026293D01*
X017654Y026240D01*
X017654Y026185D01*
X017307Y026185D01*
X017307Y026185D01*
X017654Y026185D01*
X017654Y026130D01*
X017640Y026077D01*
X017614Y026032D01*
X017614Y025891D01*
X017613Y025890D01*
X017614Y025888D01*
X017614Y025694D01*
X017613Y025693D01*
X017614Y025691D01*
X017614Y025497D01*
X017516Y025399D01*
X017456Y025399D01*
X017456Y025209D01*
X017345Y025098D01*
X017096Y024849D01*
X017096Y024628D01*
X017520Y024628D01*
X017520Y024685D01*
X017564Y024790D01*
X017644Y024871D01*
X017749Y024914D01*
X017863Y024914D01*
X017968Y024871D01*
X017991Y024848D01*
X019037Y024848D01*
X019217Y024668D01*
X020315Y024668D01*
X020194Y024789D01*
X020116Y024977D01*
X020116Y025180D01*
X020194Y025367D01*
X020337Y025510D01*
X020525Y025588D01*
X020728Y025588D01*
X020915Y025510D01*
X021058Y025367D01*
X021136Y025180D01*
X021136Y024977D01*
X021058Y024789D01*
X020937Y024668D01*
X022875Y024668D01*
X022754Y024789D01*
X022676Y024977D01*
X022676Y025180D01*
X022725Y025298D01*
X022376Y025648D01*
X022376Y027218D01*
X022476Y027318D01*
X023376Y028218D01*
X026851Y028218D01*
X026756Y028313D01*
X026756Y028703D01*
X027031Y028978D01*
X027421Y028978D01*
X027696Y028703D01*
X027696Y028313D01*
X027601Y028218D01*
X027777Y028218D01*
X027876Y028118D01*
X028197Y027798D01*
X043257Y027798D01*
X043356Y027698D01*
X045396Y025658D01*
X045396Y019538D01*
X045994Y018941D01*
X046031Y018978D01*
X046421Y018978D01*
X046696Y018703D01*
X046696Y018313D01*
X046421Y018038D01*
X046177Y018038D01*
X046237Y017978D01*
X046421Y017978D01*
X046696Y017703D01*
X046696Y017313D01*
X046421Y017038D01*
X046031Y017038D01*
X045756Y017313D01*
X045756Y017703D01*
X045894Y017840D01*
X044916Y018818D01*
X044816Y018918D01*
X044816Y025518D01*
X043056Y027278D01*
X027996Y027278D01*
X027696Y027578D01*
X027696Y027313D01*
X027421Y027038D01*
X027031Y027038D01*
X026756Y027313D01*
X026756Y027703D01*
X026811Y027758D01*
X024327Y027758D01*
X023647Y027078D01*
X023696Y026960D01*
X023696Y026757D01*
X023618Y026569D01*
X023475Y026426D01*
X023288Y026348D01*
X023085Y026348D01*
X022897Y026426D01*
X022754Y026569D01*
X022716Y026660D01*
X022716Y025788D01*
X022966Y025539D01*
X023085Y025588D01*
X023288Y025588D01*
X023475Y025510D01*
X023618Y025367D01*
X023696Y025180D01*
X023696Y024977D01*
X023618Y024789D01*
X023497Y024668D01*
X025740Y024668D01*
X025740Y024685D01*
X025784Y024790D01*
X025864Y024871D01*
X025969Y024914D01*
X026083Y024914D01*
X026188Y024871D01*
X026269Y024790D01*
X026312Y024685D01*
X026312Y024571D01*
X026269Y024466D01*
X026188Y024386D01*
X026083Y024342D01*
X026051Y024342D01*
X025937Y024228D01*
X019035Y024228D01*
X018906Y024357D01*
X018855Y024408D01*
X018106Y024408D01*
X018106Y019878D01*
X018712Y019878D01*
X018784Y019951D01*
X018889Y019994D01*
X019003Y019994D01*
X019108Y019951D01*
X019189Y019870D01*
X019232Y019765D01*
X019232Y019651D01*
X019189Y019546D01*
X019108Y019466D01*
X019003Y019422D01*
X018889Y019422D01*
X018784Y019466D01*
X018712Y019538D01*
X018337Y019538D01*
X018357Y019518D01*
X018456Y019418D01*
X018456Y016538D01*
X018481Y016514D01*
X018583Y016514D01*
X018688Y016471D01*
X018769Y016390D01*
X018780Y016362D01*
X018936Y016518D01*
X019368Y016518D01*
X019388Y016538D01*
X019784Y016538D01*
X019854Y016468D01*
X019907Y016468D01*
X020097Y016278D01*
X020572Y016278D01*
X020582Y016288D01*
X020564Y016306D01*
X020520Y016411D01*
X020520Y016525D01*
X020564Y016630D01*
X020582Y016648D01*
X020574Y016648D01*
X020504Y016578D01*
X020108Y016578D01*
X020026Y016660D01*
X020026Y016976D01*
X020058Y017008D01*
X020026Y017040D01*
X020026Y017356D01*
X020108Y017438D01*
X020504Y017438D01*
X020574Y017368D01*
X020582Y017368D01*
X020582Y017368D01*
X020564Y017386D01*
X020520Y017491D01*
X020520Y017605D01*
X020546Y017668D01*
X020514Y017668D01*
X020444Y017598D01*
X020048Y017598D01*
X019966Y017680D01*
X019966Y017858D01*
X019712Y017858D01*
X019712Y017851D01*
X019669Y017746D01*
X019966Y017746D01*
X019669Y017746D02*
X019588Y017666D01*
X019507Y017632D01*
X019549Y017590D01*
X019592Y017485D01*
X019592Y017371D01*
X019549Y017266D01*
X019468Y017186D01*
X019363Y017142D01*
X019249Y017142D01*
X019144Y017186D01*
X019064Y017266D01*
X019020Y017371D01*
X019020Y017474D01*
X018956Y017538D01*
X018956Y018158D01*
X019056Y018258D01*
X019676Y018878D01*
X019676Y018994D01*
X019604Y019066D01*
X019560Y019171D01*
X019560Y019285D01*
X019604Y019390D01*
X019684Y019471D01*
X019789Y019514D01*
X019903Y019514D01*
X020008Y019471D01*
X020089Y019390D01*
X020132Y019285D01*
X020132Y019171D01*
X020089Y019066D01*
X020016Y018994D01*
X020016Y018738D01*
X019477Y018198D01*
X019966Y018198D01*
X019966Y018376D01*
X020048Y018458D01*
X020444Y018458D01*
X020460Y018442D01*
X020460Y018445D01*
X020504Y018550D01*
X020557Y018603D01*
X020520Y018691D01*
X020520Y018805D01*
X020564Y018910D01*
X020644Y018991D01*
X020749Y019034D01*
X020863Y019034D01*
X020968Y018991D01*
X021049Y018910D01*
X021092Y018805D01*
X021092Y018702D01*
X021276Y018518D01*
X021276Y018514D01*
X021746Y018514D01*
X021906Y018514D01*
X021906Y017942D01*
X022322Y017942D01*
X022330Y017944D01*
X022356Y017918D01*
X022716Y017558D01*
X023036Y017558D01*
X022772Y017294D01*
X022669Y017294D01*
X022564Y017251D01*
X022484Y017170D01*
X022440Y017065D01*
X022440Y016951D01*
X022484Y016846D01*
X022502Y016828D01*
X022484Y016810D01*
X022440Y016705D01*
X022440Y016591D01*
X022484Y016486D01*
X022564Y016406D01*
X022603Y016389D01*
X022544Y016330D01*
X022500Y016225D01*
X022500Y016111D01*
X022514Y016078D01*
X022386Y016078D01*
X022222Y016078D01*
X022177Y016066D01*
X022136Y016042D01*
X022102Y016009D01*
X022078Y015968D01*
X022076Y015960D01*
X022076Y016249D01*
X022357Y016249D01*
X022439Y016331D01*
X022439Y017392D01*
X022357Y017474D01*
X021336Y017474D01*
X021336Y017538D01*
X021357Y017558D01*
X021456Y017658D01*
X021456Y017942D01*
X021746Y017942D01*
X021746Y018514D01*
X021746Y018674D01*
X021174Y018674D01*
X021174Y019090D01*
X021186Y019136D01*
X021210Y019177D01*
X021243Y019211D01*
X021284Y019234D01*
X021330Y019247D01*
X021746Y019247D01*
X021746Y018674D01*
X021906Y018674D01*
X021906Y019247D01*
X022256Y019247D01*
X022256Y021398D01*
X022260Y021402D01*
X022260Y021505D01*
X022304Y021610D01*
X022384Y021691D01*
X022489Y021734D01*
X022603Y021734D01*
X022708Y021691D01*
X022789Y021610D01*
X022832Y021505D01*
X022832Y021391D01*
X022789Y021286D01*
X022708Y021206D01*
X022603Y021162D01*
X022596Y021162D01*
X022596Y020298D01*
X022736Y020438D01*
X022836Y020538D01*
X023517Y020538D01*
X023697Y020358D01*
X023796Y020258D01*
X023796Y020078D01*
X024357Y019518D01*
X026157Y019518D01*
X026521Y019154D01*
X026623Y019154D01*
X026728Y019111D01*
X026756Y019083D01*
X026756Y019103D01*
X026774Y019120D01*
X026576Y019318D01*
X026576Y020138D01*
X026676Y020238D01*
X026954Y020516D01*
X026756Y020713D01*
X026756Y020738D01*
X024876Y020738D01*
X023436Y022178D01*
X023141Y022178D01*
X023128Y022166D01*
X023023Y022122D01*
X022909Y022122D01*
X022804Y022166D01*
X022724Y022246D01*
X022680Y022351D01*
X022680Y022465D01*
X022724Y022570D01*
X022804Y022651D01*
X022909Y022694D01*
X023023Y022694D01*
X023128Y022651D01*
X023209Y022570D01*
X023230Y022518D01*
X023577Y022518D01*
X023676Y022418D01*
X024840Y021254D01*
X024840Y021265D01*
X024884Y021370D01*
X024916Y021402D01*
X024829Y021402D01*
X024724Y021446D01*
X024644Y021526D01*
X024600Y021631D01*
X024600Y021745D01*
X024644Y021850D01*
X024724Y021931D01*
X024829Y021974D01*
X024943Y021974D01*
X025048Y021931D01*
X025121Y021858D01*
X025836Y021858D01*
X026096Y022118D01*
X026196Y022218D01*
X026851Y022218D01*
X026756Y022313D01*
X026756Y022703D01*
X026964Y022910D01*
X026876Y022998D01*
X026556Y023318D01*
X018821Y023318D01*
X018748Y023246D01*
X018643Y023202D01*
X018529Y023202D01*
X018424Y023246D01*
X018344Y023326D01*
X018300Y023431D01*
X018300Y023545D01*
X018344Y023650D01*
X018424Y023731D01*
X018529Y023774D01*
X018643Y023774D01*
X018748Y023731D01*
X018821Y023658D01*
X026697Y023658D01*
X026756Y023598D01*
X026756Y023703D01*
X027031Y023978D01*
X027421Y023978D01*
X027438Y023961D01*
X027636Y024158D01*
X031900Y024158D01*
X031933Y024237D01*
X032057Y024361D01*
X032219Y024428D01*
X032394Y024428D01*
X032555Y024361D01*
X032679Y024237D01*
X032746Y024076D01*
X032746Y023901D01*
X032679Y023739D01*
X032555Y023615D01*
X032514Y023598D01*
X039156Y023598D01*
X040320Y024762D01*
X040320Y024865D01*
X040364Y024970D01*
X040444Y025051D01*
X040549Y025094D01*
X040663Y025094D01*
X040768Y025051D01*
X040849Y024970D01*
X040866Y024928D01*
X040866Y025076D01*
X040933Y025237D01*
X041057Y025361D01*
X041219Y025428D01*
X041394Y025428D01*
X041555Y025361D01*
X041636Y025280D01*
X041636Y025418D01*
X041473Y025581D01*
X041394Y025548D01*
X041219Y025548D01*
X041057Y025615D01*
X040933Y025739D01*
X040866Y025901D01*
X040866Y025968D01*
X040237Y025338D01*
X032578Y025338D01*
X032679Y025237D01*
X032746Y025076D01*
X032746Y024901D01*
X032679Y024739D01*
X032555Y024615D01*
X032394Y024548D01*
X032219Y024548D01*
X032057Y024615D01*
X031933Y024739D01*
X031900Y024818D01*
X027777Y024818D01*
X027679Y024720D01*
X031952Y024720D01*
X032186Y024562D02*
X027696Y024562D01*
X027696Y024703D02*
X027679Y024720D01*
X027696Y024703D02*
X027696Y024313D01*
X027421Y024038D01*
X027031Y024038D01*
X026756Y024313D01*
X026756Y024703D01*
X027031Y024978D01*
X027421Y024978D01*
X027438Y024961D01*
X027636Y025158D01*
X031900Y025158D01*
X031933Y025237D01*
X032034Y025338D01*
X027696Y025338D01*
X027696Y025313D01*
X027421Y025038D01*
X027031Y025038D01*
X026756Y025313D01*
X026756Y025703D01*
X027031Y025978D01*
X027421Y025978D01*
X027696Y025703D01*
X027696Y025678D01*
X031994Y025678D01*
X031933Y025739D01*
X031900Y025818D01*
X027676Y025818D01*
X027438Y026056D01*
X027421Y026038D01*
X027031Y026038D01*
X026756Y026313D01*
X026756Y026703D01*
X027031Y026978D01*
X027421Y026978D01*
X027696Y026703D01*
X027696Y026313D01*
X027679Y026296D01*
X027817Y026158D01*
X031900Y026158D01*
X031933Y026237D01*
X032057Y026361D01*
X032219Y026428D01*
X032394Y026428D01*
X032555Y026361D01*
X032679Y026237D01*
X032746Y026076D01*
X032746Y025901D01*
X032679Y025739D01*
X032618Y025678D01*
X040096Y025678D01*
X041036Y026618D01*
X041136Y026718D01*
X041637Y026718D01*
X042177Y026178D01*
X042276Y026078D01*
X042276Y021718D01*
X041713Y021155D01*
X041746Y021076D01*
X041746Y020901D01*
X041713Y020821D01*
X042597Y019938D01*
X042696Y019838D01*
X042696Y008178D01*
X041916Y007398D01*
X041817Y007298D01*
X041674Y007298D01*
X041717Y007240D01*
X041751Y007172D01*
X041774Y007100D01*
X041786Y007026D01*
X041786Y007008D01*
X041326Y007008D01*
X041326Y006968D01*
X041326Y006508D01*
X041344Y006508D01*
X041419Y006520D01*
X041490Y006543D01*
X041558Y006578D01*
X041619Y006622D01*
X041672Y006675D01*
X041717Y006736D01*
X041751Y006804D01*
X041774Y006876D01*
X041786Y006950D01*
X041786Y006968D01*
X041326Y006968D01*
X041286Y006968D01*
X040826Y006968D01*
X040826Y006950D01*
X040838Y006876D01*
X040861Y006804D01*
X040896Y006736D01*
X040940Y006675D01*
X040993Y006622D01*
X041055Y006578D01*
X041122Y006543D01*
X041194Y006520D01*
X041268Y006508D01*
X041286Y006508D01*
X041286Y006968D01*
X041286Y007008D01*
X040826Y007008D01*
X040826Y007026D01*
X040838Y007100D01*
X040861Y007172D01*
X040896Y007240D01*
X040938Y007298D01*
X040737Y007298D01*
X039156Y005718D01*
X039057Y005618D01*
X028361Y005618D01*
X028288Y005546D01*
X028183Y005502D01*
X028069Y005502D01*
X027964Y005546D01*
X027884Y005626D01*
X027840Y005731D01*
X027840Y005845D01*
X027846Y005858D01*
X026517Y005858D01*
X025017Y004358D01*
X024096Y004358D01*
X023436Y005018D01*
X023336Y005118D01*
X023336Y005778D01*
X022836Y006278D01*
X022481Y006278D01*
X022408Y006206D01*
X022303Y006162D01*
X022189Y006162D01*
X022084Y006206D01*
X022004Y006286D01*
X021960Y006391D01*
X021960Y006505D01*
X022004Y006610D01*
X022084Y006691D01*
X022189Y006734D01*
X022303Y006734D01*
X022408Y006691D01*
X022481Y006618D01*
X022977Y006618D01*
X023076Y006518D01*
X023676Y005918D01*
X023676Y005258D01*
X024132Y004803D01*
X024120Y004831D01*
X024120Y004945D01*
X024164Y005050D01*
X024244Y005131D01*
X024349Y005174D01*
X024452Y005174D01*
X026096Y006818D01*
X026096Y007058D01*
X025712Y006674D01*
X025712Y006571D01*
X025669Y006466D01*
X025588Y006386D01*
X025483Y006342D01*
X025369Y006342D01*
X025264Y006386D01*
X025184Y006466D01*
X025140Y006571D01*
X025140Y006685D01*
X025184Y006790D01*
X025232Y006838D01*
X025184Y006886D01*
X025140Y006991D01*
X025140Y007105D01*
X025154Y007139D01*
X024816Y007478D01*
X024716Y007578D01*
X024716Y008082D01*
X024649Y008082D01*
X024544Y008126D01*
X024464Y008206D01*
X024420Y008311D01*
X024420Y008425D01*
X024464Y008530D01*
X024544Y008611D01*
X024649Y008654D01*
X024763Y008654D01*
X024868Y008611D01*
X024938Y008541D01*
X024996Y008598D01*
X025236Y008598D01*
X025512Y008874D01*
X025483Y008862D01*
X025369Y008862D01*
X025264Y008906D01*
X025184Y008986D01*
X025140Y009091D01*
X025140Y009165D01*
X024987Y009318D01*
X020105Y009318D01*
X018656Y007869D01*
X018545Y007758D01*
X017645Y007758D01*
X015925Y006038D01*
X022452Y006038D01*
X022504Y006091D01*
X022609Y006134D01*
X022723Y006134D01*
X022828Y006091D01*
X022909Y006010D01*
X022952Y005905D01*
X022952Y005791D01*
X022909Y005686D01*
X022828Y005606D01*
X022723Y005562D01*
X022609Y005562D01*
X022504Y005606D01*
X022452Y005658D01*
X015785Y005658D01*
X014996Y004869D01*
X015088Y004831D01*
X015169Y004750D01*
X015212Y004645D01*
X015212Y004531D01*
X015169Y004426D01*
X015088Y004346D01*
X014983Y004302D01*
X014869Y004302D01*
X014764Y004346D01*
X014712Y004398D01*
X013745Y004398D01*
X013472Y004125D01*
X013472Y004051D01*
X013429Y003946D01*
X013348Y003866D01*
X013243Y003822D01*
X013129Y003822D01*
X013024Y003866D01*
X012944Y003946D01*
X012900Y004051D01*
X012900Y004165D01*
X012944Y004270D01*
X013024Y004351D01*
X013129Y004394D01*
X013203Y004394D01*
X013387Y004578D01*
X012027Y004578D01*
X011667Y004938D01*
X011556Y005049D01*
X011556Y005550D01*
X011486Y005620D01*
X011486Y005936D01*
X011490Y005940D01*
X011482Y005948D01*
X011458Y005989D01*
X011446Y006034D01*
X011446Y006158D01*
X011766Y006158D01*
X011766Y006158D01*
X011446Y006158D01*
X011446Y006282D01*
X011458Y006328D01*
X011482Y006369D01*
X011516Y006402D01*
X011557Y006426D01*
X011602Y006438D01*
X011766Y006438D01*
X011766Y006158D01*
X011766Y006158D01*
X011766Y006158D01*
X012086Y006158D01*
X012086Y006034D01*
X012076Y005998D01*
X012099Y005998D01*
X012104Y006010D01*
X012184Y006091D01*
X012289Y006134D01*
X012403Y006134D01*
X012456Y006112D01*
X012456Y006249D01*
X011607Y007098D01*
X011496Y007209D01*
X011496Y010468D01*
X009046Y010468D01*
X009046Y012948D01*
X008964Y012948D01*
X008964Y013316D01*
X008939Y013316D01*
X008586Y013316D01*
X008586Y013104D01*
X008598Y013059D01*
X008622Y013018D01*
X008656Y012984D01*
X008697Y012960D01*
X008742Y012948D01*
X008939Y012948D01*
X008939Y013316D01*
X008939Y013341D01*
X008939Y013708D01*
X008742Y013708D01*
X008697Y013696D01*
X008656Y013672D01*
X008622Y013639D01*
X008598Y013598D01*
X008586Y013552D01*
X008586Y013341D01*
X008939Y013341D01*
X008964Y013341D01*
X008964Y013708D01*
X009046Y013708D01*
X009046Y016128D01*
X008964Y016128D01*
X008964Y016496D01*
X008939Y016496D01*
X008586Y016496D01*
X008586Y016284D01*
X008598Y016239D01*
X008622Y016198D01*
X008656Y016164D01*
X008697Y016140D01*
X008742Y016128D01*
X008939Y016128D01*
X008939Y016496D01*
X008939Y016521D01*
X008939Y016888D01*
X008742Y016888D01*
X008697Y016876D01*
X008656Y016852D01*
X008622Y016819D01*
X008598Y016778D01*
X008586Y016732D01*
X008586Y016521D01*
X008939Y016521D01*
X008964Y016521D01*
X008964Y016888D01*
X009046Y016888D01*
X009046Y020553D01*
X009039Y020549D01*
X008994Y020537D01*
X008732Y020537D01*
X008732Y021171D01*
X008577Y021171D01*
X008160Y021171D01*
X008160Y020693D01*
X008172Y020647D01*
X008196Y020606D01*
X008229Y020573D01*
X008271Y020549D01*
X008316Y020537D01*
X008577Y020537D01*
X008577Y021171D01*
X008577Y021326D01*
X008577Y021960D01*
X008316Y021960D01*
X008271Y021947D01*
X008229Y021924D01*
X008196Y021890D01*
X008172Y021849D01*
X008160Y021803D01*
X008160Y021326D01*
X008577Y021326D01*
X008732Y021326D01*
X008732Y021960D01*
X008994Y021960D01*
X009039Y021947D01*
X009046Y021943D01*
X009046Y026834D01*
X009032Y026815D01*
X008979Y026762D01*
X008918Y026718D01*
X008850Y026683D01*
X008779Y026660D01*
X008704Y026648D01*
X008386Y026648D01*
X008386Y027108D01*
X008346Y027108D01*
X008346Y026648D01*
X008028Y026648D01*
X007954Y026660D01*
X007882Y026683D01*
X007815Y026718D01*
X007753Y026762D01*
X007700Y026815D01*
X007656Y026876D01*
X007621Y026944D01*
X007606Y026990D01*
X007606Y026939D02*
X007624Y026939D01*
X007606Y026781D02*
X007735Y026781D01*
X007606Y026622D02*
X009046Y026622D01*
X009046Y026464D02*
X007606Y026464D01*
X007606Y026305D02*
X009046Y026305D01*
X009046Y026147D02*
X007606Y026147D01*
X007606Y025988D02*
X009046Y025988D01*
X009046Y025830D02*
X007606Y025830D01*
X007606Y025671D02*
X009046Y025671D01*
X009046Y025513D02*
X007606Y025513D01*
X007606Y025354D02*
X009046Y025354D01*
X009046Y025196D02*
X007606Y025196D01*
X007606Y025037D02*
X009046Y025037D01*
X009046Y024879D02*
X007606Y024879D01*
X007606Y024720D02*
X009046Y024720D01*
X009046Y024562D02*
X007606Y024562D01*
X007606Y024403D02*
X009046Y024403D01*
X009046Y024245D02*
X007606Y024245D01*
X007606Y024086D02*
X009046Y024086D01*
X009046Y023928D02*
X007606Y023928D01*
X007606Y023769D02*
X009046Y023769D01*
X009046Y023611D02*
X007606Y023611D01*
X007606Y023452D02*
X009046Y023452D01*
X009046Y023294D02*
X007606Y023294D01*
X007606Y023135D02*
X009046Y023135D01*
X009046Y022977D02*
X007606Y022977D01*
X007606Y022818D02*
X009046Y022818D01*
X009046Y022660D02*
X007606Y022660D01*
X007606Y022501D02*
X009046Y022501D01*
X009046Y022343D02*
X007606Y022343D01*
X007606Y022184D02*
X009046Y022184D01*
X009046Y022026D02*
X007606Y022026D01*
X007606Y021867D02*
X008183Y021867D01*
X008160Y021709D02*
X007606Y021709D01*
X007606Y021550D02*
X008160Y021550D01*
X008160Y021392D02*
X007606Y021392D01*
X007606Y021233D02*
X008577Y021233D01*
X008577Y021075D02*
X008732Y021075D01*
X008732Y020916D02*
X008577Y020916D01*
X008577Y020758D02*
X008732Y020758D01*
X008732Y020599D02*
X008577Y020599D01*
X008203Y020599D02*
X007606Y020599D01*
X007606Y020441D02*
X009046Y020441D01*
X009046Y020282D02*
X007606Y020282D01*
X007606Y020124D02*
X009046Y020124D01*
X009046Y019965D02*
X007606Y019965D01*
X007606Y019807D02*
X009046Y019807D01*
X009046Y019648D02*
X007606Y019648D01*
X007606Y019490D02*
X009046Y019490D01*
X009046Y019331D02*
X007606Y019331D01*
X007606Y019173D02*
X009046Y019173D01*
X009046Y019014D02*
X007606Y019014D01*
X007606Y018856D02*
X009046Y018856D01*
X009046Y018697D02*
X007606Y018697D01*
X007606Y018539D02*
X009046Y018539D01*
X009046Y018380D02*
X007606Y018380D01*
X007606Y018222D02*
X009046Y018222D01*
X009046Y018063D02*
X007606Y018063D01*
X007606Y017905D02*
X009046Y017905D01*
X009046Y017746D02*
X007606Y017746D01*
X007606Y017588D02*
X009046Y017588D01*
X009046Y017429D02*
X007606Y017429D01*
X007606Y017271D02*
X009046Y017271D01*
X009046Y017112D02*
X007606Y017112D01*
X007606Y016954D02*
X009046Y016954D01*
X008964Y016795D02*
X008939Y016795D01*
X008939Y016637D02*
X008964Y016637D01*
X008964Y016478D02*
X008939Y016478D01*
X008939Y016320D02*
X008964Y016320D01*
X008964Y016161D02*
X008939Y016161D01*
X009046Y016003D02*
X007606Y016003D01*
X007606Y016161D02*
X008661Y016161D01*
X008586Y016320D02*
X007606Y016320D01*
X007606Y016478D02*
X008586Y016478D01*
X008586Y016637D02*
X007606Y016637D01*
X007606Y016795D02*
X008609Y016795D01*
X009373Y016888D02*
X009389Y020544D01*
X009419Y020537D01*
X009680Y020537D01*
X009680Y021171D01*
X009835Y021171D01*
X009835Y021326D01*
X009680Y021326D01*
X009680Y021960D01*
X009419Y021960D01*
X009395Y021953D01*
X009399Y022868D01*
X009404Y022864D01*
X009445Y022840D01*
X009491Y022828D01*
X009966Y022828D01*
X009966Y023282D01*
X010126Y023282D01*
X010126Y022828D01*
X010601Y022828D01*
X010647Y022840D01*
X010688Y022864D01*
X010722Y022897D01*
X010745Y022938D01*
X010758Y022984D01*
X010758Y023282D01*
X010126Y023282D01*
X010126Y023442D01*
X009966Y023442D01*
X009966Y023896D01*
X009491Y023896D01*
X009445Y023884D01*
X009404Y023860D01*
X009406Y024388D01*
X010866Y024388D01*
X010866Y024266D01*
X011234Y024266D01*
X011234Y024241D01*
X010866Y024241D01*
X010866Y024044D01*
X010878Y023999D01*
X010902Y023958D01*
X010936Y023924D01*
X010977Y023900D01*
X011022Y023888D01*
X011234Y023888D01*
X011234Y024241D01*
X011259Y024241D01*
X011259Y024266D01*
X011626Y024266D01*
X011626Y024388D01*
X011646Y024388D01*
X011646Y024378D01*
X011646Y024254D01*
X011658Y024209D01*
X011682Y024168D01*
X011716Y024134D01*
X011757Y024110D01*
X011802Y024098D01*
X011966Y024098D01*
X011966Y024378D01*
X011646Y024378D01*
X011966Y024378D01*
X011966Y024378D01*
X011966Y024378D01*
X011966Y024098D01*
X012130Y024098D01*
X012176Y024110D01*
X012217Y024134D01*
X012250Y024168D01*
X012274Y024209D01*
X012286Y024254D01*
X012286Y024378D01*
X011966Y024378D01*
X011966Y024378D01*
X012286Y024378D01*
X012286Y024388D01*
X012317Y024388D01*
X013047Y023658D01*
X013296Y023658D01*
X013296Y023387D01*
X013143Y023234D01*
X013069Y023234D01*
X012964Y023191D01*
X012884Y023110D01*
X012840Y023005D01*
X012840Y022891D01*
X012884Y022786D01*
X012964Y022706D01*
X013069Y022662D01*
X013101Y022662D01*
X013306Y022457D01*
X013306Y022408D01*
X013268Y022408D01*
X013186Y022326D01*
X013186Y021840D01*
X013210Y021816D01*
X013182Y021789D01*
X013158Y021748D01*
X013146Y021702D01*
X013146Y021506D01*
X013514Y021506D01*
X013514Y021481D01*
X013146Y021481D01*
X013146Y021284D01*
X013158Y021239D01*
X013182Y021198D01*
X013216Y021164D01*
X013257Y021140D01*
X013302Y021128D01*
X013514Y021128D01*
X013514Y021481D01*
X013539Y021481D01*
X013539Y021506D01*
X013906Y021506D01*
X013906Y021702D01*
X013894Y021748D01*
X013870Y021789D01*
X013842Y021816D01*
X013866Y021840D01*
X013866Y022326D01*
X013784Y022408D01*
X013746Y022408D01*
X013746Y022638D01*
X014084Y022638D01*
X014134Y022688D01*
X014278Y022688D01*
X014348Y022618D01*
X014744Y022618D01*
X014826Y022700D01*
X014826Y023016D01*
X014822Y023020D01*
X014830Y023028D01*
X014854Y023069D01*
X014866Y023114D01*
X014866Y023238D01*
X014546Y023238D01*
X014226Y023238D01*
X014226Y023114D01*
X014238Y023069D01*
X014239Y023068D01*
X014134Y023068D01*
X014166Y023100D01*
X014166Y023416D01*
X014084Y023498D01*
X013688Y023498D01*
X013676Y023486D01*
X013676Y023936D01*
X013929Y023936D01*
X014011Y024018D01*
X014011Y024388D01*
X014048Y024388D01*
X014206Y024230D01*
X014206Y024100D01*
X014238Y024068D01*
X014206Y024036D01*
X014206Y023720D01*
X014288Y023638D01*
X014684Y023638D01*
X014734Y023688D01*
X014846Y023688D01*
X014846Y023680D01*
X014928Y023598D01*
X015324Y023598D01*
X015374Y023648D01*
X015498Y023648D01*
X015548Y023598D01*
X015656Y023598D01*
X015780Y023474D01*
X015780Y023371D01*
X015824Y023266D01*
X015904Y023186D01*
X016009Y023142D01*
X016123Y023142D01*
X016228Y023186D01*
X016309Y023266D01*
X016352Y023371D01*
X016352Y023485D01*
X016309Y023590D01*
X016261Y023638D01*
X016544Y023638D01*
X016594Y023688D01*
X016938Y023688D01*
X016968Y023658D01*
X017364Y023658D01*
X017446Y023740D01*
X017446Y024056D01*
X017442Y024060D01*
X017450Y024068D01*
X017474Y024109D01*
X017486Y024154D01*
X017486Y024278D01*
X017166Y024278D01*
X017166Y024278D01*
X017486Y024278D01*
X017486Y024388D01*
X017642Y024388D01*
X017644Y024386D01*
X017686Y024368D01*
X017706Y019758D01*
X014817Y019758D01*
X014796Y019778D01*
X014796Y021814D01*
X014869Y021886D01*
X014912Y021991D01*
X014912Y022105D01*
X014869Y022210D01*
X014788Y022291D01*
X014683Y022334D01*
X014569Y022334D01*
X014464Y022291D01*
X014384Y022210D01*
X014340Y022105D01*
X014340Y021991D01*
X014384Y021886D01*
X014456Y021814D01*
X014456Y019638D01*
X014516Y019578D01*
X014021Y019578D01*
X013948Y019651D01*
X013843Y019694D01*
X013729Y019694D01*
X013624Y019651D01*
X013544Y019570D01*
X013500Y019465D01*
X013500Y019351D01*
X013544Y019246D01*
X013624Y019166D01*
X013729Y019122D01*
X013843Y019122D01*
X013948Y019166D01*
X014021Y019238D01*
X016056Y019238D01*
X016416Y018878D01*
X016857Y018878D01*
X016956Y018978D01*
X016977Y018998D01*
X016992Y018998D01*
X016964Y018970D01*
X016920Y018865D01*
X016920Y018751D01*
X016964Y018646D01*
X017036Y018574D01*
X017036Y014918D01*
X016952Y014834D01*
X016849Y014834D01*
X016744Y014791D01*
X016664Y014710D01*
X016620Y014605D01*
X016620Y014491D01*
X016664Y014386D01*
X016692Y014358D01*
X015221Y014358D01*
X015148Y014431D01*
X015043Y014474D01*
X014929Y014474D01*
X014824Y014431D01*
X014744Y014350D01*
X014700Y014245D01*
X014700Y014131D01*
X014744Y014026D01*
X014824Y013946D01*
X014929Y013902D01*
X015043Y013902D01*
X015148Y013946D01*
X015221Y014018D01*
X017037Y014018D01*
X017276Y014258D01*
X017276Y013298D01*
X016952Y012974D01*
X016849Y012974D01*
X016744Y012931D01*
X016664Y012850D01*
X016620Y012745D01*
X016620Y012631D01*
X016664Y012526D01*
X016744Y012446D01*
X016849Y012402D01*
X016963Y012402D01*
X017068Y012446D01*
X017149Y012526D01*
X017192Y012631D01*
X017192Y012734D01*
X017396Y012938D01*
X017396Y012038D01*
X017196Y011838D01*
X013901Y011838D01*
X013828Y011911D01*
X013723Y011954D01*
X013609Y011954D01*
X013504Y011911D01*
X013424Y011830D01*
X013380Y011725D01*
X013380Y011611D01*
X013424Y011506D01*
X013504Y011426D01*
X013609Y011382D01*
X013723Y011382D01*
X013828Y011426D01*
X013901Y011498D01*
X017337Y011498D01*
X017637Y011798D01*
X017736Y011898D01*
X017736Y012988D01*
X017746Y010708D01*
X009346Y010708D01*
X009350Y011612D01*
X009489Y011473D01*
X009721Y011377D01*
X009972Y011377D01*
X010204Y011473D01*
X010381Y011651D01*
X010477Y011883D01*
X010477Y012134D01*
X010381Y012366D01*
X010204Y012543D01*
X009972Y012639D01*
X009721Y012639D01*
X009489Y012543D01*
X009354Y012408D01*
X009356Y012948D01*
X009529Y012948D01*
X009529Y013316D01*
X009554Y013316D01*
X009554Y013341D01*
X009529Y013341D01*
X009529Y013708D01*
X009359Y013708D01*
X009370Y016128D01*
X009529Y016128D01*
X009529Y016496D01*
X009554Y016496D01*
X009554Y016521D01*
X009529Y016521D01*
X009529Y016888D01*
X009373Y016888D01*
X009374Y016954D02*
X017036Y016954D01*
X017036Y017112D02*
X009374Y017112D01*
X009375Y017271D02*
X017036Y017271D01*
X017036Y017429D02*
X009376Y017429D01*
X009376Y017588D02*
X017036Y017588D01*
X017036Y017746D02*
X009377Y017746D01*
X009378Y017905D02*
X017036Y017905D01*
X017036Y018063D02*
X009378Y018063D01*
X009379Y018222D02*
X017036Y018222D01*
X017036Y018380D02*
X009380Y018380D01*
X009380Y018539D02*
X017036Y018539D01*
X016943Y018697D02*
X009381Y018697D01*
X009382Y018856D02*
X016920Y018856D01*
X016280Y019014D02*
X009383Y019014D01*
X009383Y019173D02*
X013617Y019173D01*
X013508Y019331D02*
X009384Y019331D01*
X009385Y019490D02*
X013510Y019490D01*
X013622Y019648D02*
X009385Y019648D01*
X009386Y019807D02*
X014456Y019807D01*
X014456Y019965D02*
X009387Y019965D01*
X009387Y020124D02*
X014456Y020124D01*
X014456Y020282D02*
X009388Y020282D01*
X009389Y020441D02*
X014456Y020441D01*
X014456Y020599D02*
X010209Y020599D01*
X010216Y020606D02*
X010240Y020647D01*
X010252Y020693D01*
X010252Y021171D01*
X009835Y021171D01*
X009835Y020537D01*
X010096Y020537D01*
X010142Y020549D01*
X010183Y020573D01*
X010216Y020606D01*
X010252Y020758D02*
X014456Y020758D01*
X014456Y020916D02*
X010252Y020916D01*
X010252Y021075D02*
X014456Y021075D01*
X014456Y021233D02*
X013891Y021233D01*
X013894Y021239D02*
X013906Y021284D01*
X013906Y021481D01*
X013539Y021481D01*
X013539Y021128D01*
X013750Y021128D01*
X013796Y021140D01*
X013837Y021164D01*
X013870Y021198D01*
X013894Y021239D01*
X013906Y021392D02*
X014456Y021392D01*
X014456Y021550D02*
X013906Y021550D01*
X013904Y021709D02*
X014456Y021709D01*
X014403Y021867D02*
X013866Y021867D01*
X013866Y022026D02*
X014340Y022026D01*
X014373Y022184D02*
X013866Y022184D01*
X013850Y022343D02*
X017695Y022343D01*
X017694Y022501D02*
X013746Y022501D01*
X013526Y022548D02*
X013526Y022083D01*
X013186Y022026D02*
X009396Y022026D01*
X009396Y022184D02*
X013186Y022184D01*
X013203Y022343D02*
X009397Y022343D01*
X009398Y022501D02*
X013262Y022501D01*
X013103Y022660D02*
X009399Y022660D01*
X009399Y022818D02*
X012870Y022818D01*
X012840Y022977D02*
X010756Y022977D01*
X010758Y023135D02*
X012909Y023135D01*
X013126Y022948D02*
X013526Y022548D01*
X014106Y022660D02*
X014307Y022660D01*
X014786Y022660D02*
X017694Y022660D01*
X017693Y022818D02*
X014826Y022818D01*
X014826Y022977D02*
X017692Y022977D01*
X017692Y023135D02*
X014866Y023135D01*
X014866Y023238D02*
X014866Y023362D01*
X014854Y023408D01*
X014830Y023449D01*
X014797Y023482D01*
X014756Y023506D01*
X014710Y023518D01*
X014546Y023518D01*
X014382Y023518D01*
X014337Y023506D01*
X014296Y023482D01*
X014262Y023449D01*
X014238Y023408D01*
X014226Y023362D01*
X014226Y023238D01*
X014546Y023238D01*
X014546Y023238D01*
X014546Y023518D01*
X014546Y023238D01*
X014546Y023238D01*
X014546Y023238D01*
X014866Y023238D01*
X014866Y023294D02*
X015812Y023294D01*
X015780Y023452D02*
X014827Y023452D01*
X014916Y023611D02*
X013676Y023611D01*
X013676Y023769D02*
X014206Y023769D01*
X014206Y023928D02*
X013676Y023928D01*
X014011Y024086D02*
X014220Y024086D01*
X014191Y024245D02*
X014011Y024245D01*
X014446Y024628D02*
X016716Y024628D01*
X016716Y025007D01*
X016806Y025097D01*
X016806Y025908D01*
X016646Y025908D01*
X016646Y025060D01*
X016557Y025060D01*
X016506Y025074D01*
X016461Y025100D01*
X016424Y025137D01*
X016397Y025183D01*
X016384Y025233D01*
X016384Y025336D01*
X016378Y025336D01*
X016332Y025348D01*
X016291Y025372D01*
X016263Y025399D01*
X016261Y025399D01*
X016225Y025363D01*
X016232Y025345D01*
X016232Y025231D01*
X016189Y025126D01*
X016108Y025046D01*
X016003Y025002D01*
X015889Y025002D01*
X015806Y025036D01*
X015806Y025026D01*
X015439Y025026D01*
X015439Y025001D01*
X015806Y025001D01*
X015806Y024804D01*
X015794Y024759D01*
X015770Y024718D01*
X015737Y024684D01*
X015696Y024660D01*
X015650Y024648D01*
X015439Y024648D01*
X015439Y025001D01*
X015414Y025001D01*
X015046Y025001D01*
X015046Y024804D01*
X015058Y024759D01*
X015082Y024718D01*
X015116Y024684D01*
X015157Y024660D01*
X015202Y024648D01*
X015414Y024648D01*
X015414Y025001D01*
X015414Y025026D01*
X015046Y025026D01*
X015046Y025222D01*
X015058Y025268D01*
X015082Y025309D01*
X015110Y025336D01*
X015108Y025339D01*
X015032Y025263D01*
X015032Y025231D01*
X014989Y025126D01*
X014908Y025046D01*
X014803Y025002D01*
X014689Y025002D01*
X014584Y025046D01*
X014504Y025126D01*
X014460Y025231D01*
X014460Y025345D01*
X014495Y025428D01*
X014446Y025428D01*
X014446Y024628D01*
X014446Y024720D02*
X015081Y024720D01*
X015046Y024879D02*
X014446Y024879D01*
X014446Y025037D02*
X014605Y025037D01*
X014475Y025196D02*
X014446Y025196D01*
X014446Y025354D02*
X014464Y025354D01*
X014746Y025288D02*
X015046Y025588D01*
X015466Y025588D01*
X015946Y025395D02*
X016145Y025594D01*
X016228Y025354D02*
X016321Y025354D01*
X016394Y025196D02*
X016217Y025196D01*
X016088Y025037D02*
X016746Y025037D01*
X016716Y024879D02*
X015806Y024879D01*
X015772Y024720D02*
X016716Y024720D01*
X016546Y024988D02*
X016521Y025013D01*
X016646Y025196D02*
X016806Y025196D01*
X016806Y025354D02*
X016646Y025354D01*
X016546Y025348D02*
X016546Y025808D01*
X016726Y025988D01*
X016646Y025830D02*
X016806Y025830D01*
X016806Y025671D02*
X016646Y025671D01*
X016646Y025513D02*
X016806Y025513D01*
X017456Y025354D02*
X020188Y025354D01*
X020123Y025196D02*
X017442Y025196D01*
X017284Y025037D02*
X020116Y025037D01*
X020157Y024879D02*
X017949Y024879D01*
X017664Y024879D02*
X017125Y024879D01*
X017096Y024720D02*
X017535Y024720D01*
X017806Y024628D02*
X018946Y024628D01*
X019126Y024448D01*
X025846Y024448D01*
X026026Y024628D01*
X025755Y024720D02*
X023549Y024720D01*
X023656Y024879D02*
X025884Y024879D01*
X026169Y024879D02*
X026932Y024879D01*
X026774Y024720D02*
X026298Y024720D01*
X026308Y024562D02*
X026756Y024562D01*
X026756Y024403D02*
X026206Y024403D01*
X025954Y024245D02*
X026825Y024245D01*
X026983Y024086D02*
X018106Y024086D01*
X018106Y023928D02*
X026981Y023928D01*
X026822Y023769D02*
X018655Y023769D01*
X018517Y023769D02*
X018106Y023769D01*
X018106Y023611D02*
X018327Y023611D01*
X018300Y023452D02*
X018106Y023452D01*
X018106Y023294D02*
X018376Y023294D01*
X018106Y023135D02*
X026739Y023135D01*
X026897Y022977D02*
X018106Y022977D01*
X018106Y022818D02*
X026871Y022818D01*
X026756Y022660D02*
X023106Y022660D01*
X022826Y022660D02*
X018106Y022660D01*
X018106Y022501D02*
X022695Y022501D01*
X022684Y022343D02*
X018106Y022343D01*
X018106Y022184D02*
X022786Y022184D01*
X022665Y021709D02*
X023905Y021709D01*
X023747Y021867D02*
X018106Y021867D01*
X018106Y021709D02*
X022428Y021709D01*
X022279Y021550D02*
X018106Y021550D01*
X018106Y021392D02*
X022256Y021392D01*
X022256Y021233D02*
X018106Y021233D01*
X018106Y021075D02*
X022256Y021075D01*
X022256Y020916D02*
X018106Y020916D01*
X018106Y020758D02*
X022256Y020758D01*
X022256Y020599D02*
X018106Y020599D01*
X018106Y020441D02*
X022256Y020441D01*
X022256Y020282D02*
X018106Y020282D01*
X018106Y020124D02*
X022256Y020124D01*
X022256Y019965D02*
X019073Y019965D01*
X019215Y019807D02*
X022256Y019807D01*
X022256Y019648D02*
X019231Y019648D01*
X019132Y019490D02*
X019730Y019490D01*
X019579Y019331D02*
X018456Y019331D01*
X018456Y019173D02*
X019560Y019173D01*
X019656Y019014D02*
X018456Y019014D01*
X018456Y018856D02*
X019653Y018856D01*
X019495Y018697D02*
X018456Y018697D01*
X018456Y018539D02*
X019336Y018539D01*
X019178Y018380D02*
X018456Y018380D01*
X018456Y018222D02*
X019019Y018222D01*
X018956Y018063D02*
X018456Y018063D01*
X018456Y017905D02*
X018956Y017905D01*
X018956Y017746D02*
X018456Y017746D01*
X018456Y017588D02*
X018956Y017588D01*
X019020Y017429D02*
X018456Y017429D01*
X018456Y017271D02*
X019062Y017271D01*
X019550Y017271D02*
X020026Y017271D01*
X020026Y017112D02*
X018456Y017112D01*
X018456Y016954D02*
X020026Y016954D01*
X020026Y016795D02*
X018456Y016795D01*
X018456Y016637D02*
X020050Y016637D01*
X019844Y016478D02*
X020520Y016478D01*
X020558Y016320D02*
X020055Y016320D01*
X020563Y016637D02*
X020570Y016637D01*
X020546Y017429D02*
X020513Y017429D01*
X020520Y017588D02*
X019550Y017588D01*
X019592Y017429D02*
X020099Y017429D01*
X018896Y016478D02*
X018670Y016478D01*
X017036Y016478D02*
X016821Y016478D01*
X016849Y016450D02*
X016768Y016531D01*
X016663Y016574D01*
X016549Y016574D01*
X016444Y016531D01*
X016364Y016450D01*
X016320Y016345D01*
X016320Y016278D01*
X014256Y016278D01*
X013772Y015794D01*
X013669Y015794D01*
X013564Y015751D01*
X013484Y015670D01*
X013440Y015565D01*
X013440Y015451D01*
X013484Y015346D01*
X013564Y015266D01*
X013669Y015222D01*
X013783Y015222D01*
X013888Y015266D01*
X013969Y015346D01*
X014012Y015451D01*
X014012Y015554D01*
X014397Y015938D01*
X016497Y015938D01*
X016561Y016002D01*
X016663Y016002D01*
X016768Y016046D01*
X016849Y016126D01*
X016892Y016231D01*
X016892Y016345D01*
X016849Y016450D01*
X016892Y016320D02*
X017036Y016320D01*
X017036Y016161D02*
X016863Y016161D01*
X017036Y016003D02*
X016664Y016003D01*
X017036Y015844D02*
X014303Y015844D01*
X014144Y015686D02*
X017036Y015686D01*
X017036Y015527D02*
X014012Y015527D01*
X013978Y015369D02*
X017036Y015369D01*
X017036Y015210D02*
X009366Y015210D01*
X009365Y015052D02*
X017036Y015052D01*
X017011Y014893D02*
X009364Y014893D01*
X009364Y014735D02*
X016688Y014735D01*
X016620Y014576D02*
X009363Y014576D01*
X009362Y014418D02*
X014811Y014418D01*
X014706Y014259D02*
X009362Y014259D01*
X009361Y014101D02*
X014713Y014101D01*
X014833Y013942D02*
X009360Y013942D01*
X009360Y013784D02*
X017276Y013784D01*
X017276Y013942D02*
X015140Y013942D01*
X015161Y014418D02*
X016651Y014418D01*
X017119Y014101D02*
X017276Y014101D01*
X017276Y013625D02*
X009878Y013625D01*
X009870Y013639D02*
X009837Y013672D01*
X009796Y013696D01*
X009750Y013708D01*
X009554Y013708D01*
X009554Y013341D01*
X009906Y013341D01*
X009906Y013552D01*
X009894Y013598D01*
X009870Y013639D01*
X009906Y013467D02*
X017276Y013467D01*
X017276Y013308D02*
X009906Y013308D01*
X009906Y013316D02*
X009554Y013316D01*
X009554Y012948D01*
X009750Y012948D01*
X009796Y012960D01*
X009837Y012984D01*
X009870Y013018D01*
X009894Y013059D01*
X009906Y013104D01*
X009906Y013316D01*
X009906Y013150D02*
X017127Y013150D01*
X016969Y012991D02*
X009844Y012991D01*
X009554Y012991D02*
X009529Y012991D01*
X009529Y013150D02*
X009554Y013150D01*
X009554Y013308D02*
X009529Y013308D01*
X009529Y013467D02*
X009554Y013467D01*
X009554Y013625D02*
X009529Y013625D01*
X009046Y013784D02*
X007606Y013784D01*
X007606Y013942D02*
X009046Y013942D01*
X009046Y014101D02*
X007606Y014101D01*
X007606Y014259D02*
X009046Y014259D01*
X009046Y014418D02*
X007606Y014418D01*
X007606Y014576D02*
X009046Y014576D01*
X009046Y014735D02*
X007606Y014735D01*
X007606Y014893D02*
X009046Y014893D01*
X009046Y015052D02*
X007606Y015052D01*
X007606Y015210D02*
X009046Y015210D01*
X009046Y015369D02*
X007606Y015369D01*
X007606Y015527D02*
X009046Y015527D01*
X009046Y015686D02*
X007606Y015686D01*
X007606Y015844D02*
X009046Y015844D01*
X009369Y015844D02*
X013822Y015844D01*
X013980Y016003D02*
X009369Y016003D01*
X009554Y016128D02*
X009750Y016128D01*
X009796Y016140D01*
X009837Y016164D01*
X009870Y016198D01*
X009894Y016239D01*
X009906Y016284D01*
X009906Y016496D01*
X009554Y016496D01*
X009554Y016128D01*
X009554Y016161D02*
X009529Y016161D01*
X009529Y016320D02*
X009554Y016320D01*
X009554Y016478D02*
X009529Y016478D01*
X009554Y016521D02*
X009906Y016521D01*
X009906Y016732D01*
X009894Y016778D01*
X009870Y016819D01*
X009837Y016852D01*
X009796Y016876D01*
X009750Y016888D01*
X009554Y016888D01*
X009554Y016521D01*
X009554Y016637D02*
X009529Y016637D01*
X009529Y016795D02*
X009554Y016795D01*
X009884Y016795D02*
X017036Y016795D01*
X017036Y016637D02*
X009906Y016637D01*
X009906Y016478D02*
X016392Y016478D01*
X016320Y016320D02*
X009906Y016320D01*
X009832Y016161D02*
X014139Y016161D01*
X013499Y015686D02*
X009368Y015686D01*
X009367Y015527D02*
X013440Y015527D01*
X013474Y015369D02*
X009367Y015369D01*
X008964Y013625D02*
X008939Y013625D01*
X008939Y013467D02*
X008964Y013467D01*
X008964Y013308D02*
X008939Y013308D01*
X008939Y013150D02*
X008964Y013150D01*
X008964Y012991D02*
X008939Y012991D01*
X009046Y012833D02*
X007606Y012833D01*
X007606Y012991D02*
X008649Y012991D01*
X008586Y013150D02*
X007606Y013150D01*
X007606Y013308D02*
X008586Y013308D01*
X008586Y013467D02*
X007606Y013467D01*
X007606Y013625D02*
X008614Y013625D01*
X009046Y012674D02*
X007606Y012674D01*
X007606Y012516D02*
X009046Y012516D01*
X009046Y012357D02*
X007606Y012357D01*
X007606Y012199D02*
X009046Y012199D01*
X009046Y012040D02*
X007606Y012040D01*
X007606Y011882D02*
X009046Y011882D01*
X009046Y011723D02*
X007606Y011723D01*
X007606Y011565D02*
X009046Y011565D01*
X009046Y011406D02*
X007606Y011406D01*
X007606Y011248D02*
X009046Y011248D01*
X009046Y011089D02*
X007606Y011089D01*
X007606Y010931D02*
X009046Y010931D01*
X009046Y010772D02*
X007606Y010772D01*
X007606Y010614D02*
X009046Y010614D01*
X009346Y010772D02*
X017746Y010772D01*
X017745Y010931D02*
X009347Y010931D01*
X009348Y011089D02*
X017744Y011089D01*
X017744Y011248D02*
X009349Y011248D01*
X009349Y011406D02*
X009651Y011406D01*
X009397Y011565D02*
X009350Y011565D01*
X010042Y011406D02*
X013551Y011406D01*
X013399Y011565D02*
X010295Y011565D01*
X010411Y011723D02*
X013380Y011723D01*
X013475Y011882D02*
X010477Y011882D01*
X010477Y012040D02*
X017396Y012040D01*
X017396Y012199D02*
X010450Y012199D01*
X010385Y012357D02*
X017396Y012357D01*
X017396Y012516D02*
X017138Y012516D01*
X017192Y012674D02*
X017396Y012674D01*
X017396Y012833D02*
X017291Y012833D01*
X017736Y012833D02*
X017737Y012833D01*
X017736Y012674D02*
X017738Y012674D01*
X017736Y012516D02*
X017738Y012516D01*
X017736Y012357D02*
X017739Y012357D01*
X017736Y012199D02*
X017740Y012199D01*
X017736Y012040D02*
X017740Y012040D01*
X017741Y011882D02*
X017720Y011882D01*
X017742Y011723D02*
X017562Y011723D01*
X017403Y011565D02*
X017742Y011565D01*
X017743Y011406D02*
X013781Y011406D01*
X013857Y011882D02*
X017239Y011882D01*
X018150Y011882D02*
X019056Y011882D01*
X019055Y011883D02*
X019151Y011651D01*
X019329Y011473D01*
X019561Y011377D01*
X019812Y011377D01*
X020044Y011473D01*
X020221Y011651D01*
X020317Y011883D01*
X020317Y012134D01*
X020221Y012366D01*
X020044Y012543D01*
X019812Y012639D01*
X019561Y012639D01*
X019329Y012543D01*
X019151Y012366D01*
X019055Y012134D01*
X019055Y011883D01*
X019055Y012040D02*
X018148Y012040D01*
X018146Y012199D02*
X019082Y012199D01*
X019148Y012357D02*
X018145Y012357D01*
X018143Y012516D02*
X019301Y012516D01*
X020071Y012516D02*
X021576Y012516D01*
X021576Y012638D02*
X020981Y012638D01*
X020908Y012566D01*
X020803Y012522D01*
X020689Y012522D01*
X020584Y012566D01*
X020504Y012646D01*
X020460Y012751D01*
X020460Y012865D01*
X020504Y012970D01*
X020584Y013051D01*
X020689Y013094D01*
X020803Y013094D01*
X020908Y013051D01*
X020981Y012978D01*
X021166Y012978D01*
X021166Y013036D01*
X021198Y013068D01*
X021166Y013100D01*
X021166Y013416D01*
X021236Y013486D01*
X021236Y013558D01*
X021228Y013558D01*
X021146Y013640D01*
X021146Y013956D01*
X021150Y013960D01*
X021142Y013968D01*
X021118Y014009D01*
X021106Y014054D01*
X021106Y014178D01*
X021426Y014178D01*
X021426Y014178D01*
X021106Y014178D01*
X021106Y014258D01*
X021027Y014258D01*
X021032Y014245D01*
X021032Y014131D01*
X020991Y014031D01*
X021046Y013976D01*
X021046Y013660D01*
X021042Y013656D01*
X021050Y013649D01*
X021074Y013608D01*
X021086Y013562D01*
X021086Y013438D01*
X020766Y013438D01*
X020446Y013438D01*
X020446Y013314D01*
X020458Y013269D01*
X020482Y013228D01*
X020516Y013194D01*
X020557Y013170D01*
X020602Y013158D01*
X020766Y013158D01*
X020766Y013438D01*
X020766Y013438D01*
X020766Y013438D01*
X020446Y013438D01*
X020446Y013562D01*
X020458Y013608D01*
X020482Y013649D01*
X020490Y013656D01*
X020486Y013660D01*
X020486Y013688D01*
X020456Y013670D01*
X020410Y013658D01*
X020246Y013658D01*
X020246Y013938D01*
X019706Y013938D01*
X019386Y013938D01*
X019386Y013814D01*
X019398Y013769D01*
X019422Y013728D01*
X019456Y013694D01*
X019497Y013670D01*
X019542Y013658D01*
X019706Y013658D01*
X019706Y013938D01*
X019706Y013938D01*
X019706Y013938D01*
X019386Y013938D01*
X019386Y013968D01*
X019317Y013898D01*
X018177Y013898D01*
X018128Y013849D01*
X018166Y010468D01*
X011876Y010468D01*
X011876Y007367D01*
X012836Y006407D01*
X012836Y005649D01*
X012698Y005511D01*
X012748Y005491D01*
X012821Y005418D01*
X014376Y005418D01*
X016560Y007602D01*
X014743Y007602D01*
X014848Y007646D01*
X014929Y007726D01*
X014972Y007831D01*
X014972Y007905D01*
X015076Y008009D01*
X015076Y008077D01*
X015141Y008077D01*
X015223Y008159D01*
X015223Y008708D01*
X015191Y008740D01*
X015194Y008742D01*
X015227Y008776D01*
X015251Y008817D01*
X015263Y008862D01*
X015263Y009084D01*
X014905Y009084D01*
X014905Y009121D01*
X015263Y009121D01*
X015263Y009278D01*
X015547Y009278D01*
X015627Y009358D01*
X015716Y009358D01*
X015716Y009263D01*
X015644Y009190D01*
X015600Y009085D01*
X015600Y008971D01*
X015644Y008866D01*
X015697Y008813D01*
X015660Y008725D01*
X015660Y008611D01*
X015704Y008506D01*
X015752Y008458D01*
X015704Y008410D01*
X015660Y008305D01*
X015660Y008191D01*
X015704Y008086D01*
X015784Y008006D01*
X015889Y007962D01*
X016003Y007962D01*
X016108Y008006D01*
X016189Y008086D01*
X016194Y008098D01*
X016326Y008098D01*
X016466Y007958D01*
X017307Y007958D01*
X017109Y007760D01*
X017089Y007810D01*
X017008Y007891D01*
X016903Y007934D01*
X016789Y007934D01*
X016684Y007891D01*
X016604Y007810D01*
X016560Y007705D01*
X016560Y007602D01*
X016583Y007761D02*
X014943Y007761D01*
X014986Y007919D02*
X016753Y007919D01*
X016939Y007919D02*
X017268Y007919D01*
X017110Y007761D02*
X017109Y007761D01*
X017330Y007444D02*
X024850Y007444D01*
X024716Y007602D02*
X017489Y007602D01*
X017172Y007285D02*
X025009Y007285D01*
X025149Y007127D02*
X017013Y007127D01*
X016855Y006968D02*
X025150Y006968D01*
X025203Y006810D02*
X016696Y006810D01*
X016538Y006651D02*
X022045Y006651D01*
X021960Y006493D02*
X016379Y006493D01*
X016221Y006334D02*
X021984Y006334D01*
X022157Y006176D02*
X016062Y006176D01*
X015609Y006651D02*
X012592Y006651D01*
X012750Y006493D02*
X015450Y006493D01*
X015292Y006334D02*
X012836Y006334D01*
X012836Y006176D02*
X015133Y006176D01*
X014975Y006017D02*
X012836Y006017D01*
X012836Y005859D02*
X014816Y005859D01*
X014658Y005700D02*
X012836Y005700D01*
X012728Y005542D02*
X014499Y005542D01*
X015034Y004908D02*
X023546Y004908D01*
X023388Y005066D02*
X015193Y005066D01*
X015351Y005225D02*
X023336Y005225D01*
X023336Y005383D02*
X015510Y005383D01*
X015668Y005542D02*
X023336Y005542D01*
X023336Y005700D02*
X022914Y005700D01*
X022952Y005859D02*
X023255Y005859D01*
X023097Y006017D02*
X022902Y006017D01*
X022938Y006176D02*
X022336Y006176D01*
X022448Y006651D02*
X025140Y006651D01*
X025173Y006493D02*
X023102Y006493D01*
X023261Y006334D02*
X025612Y006334D01*
X025680Y006493D02*
X025770Y006493D01*
X025712Y006651D02*
X025929Y006651D01*
X025848Y006810D02*
X026087Y006810D01*
X026096Y006968D02*
X026007Y006968D01*
X025453Y006176D02*
X023419Y006176D01*
X023578Y006017D02*
X025295Y006017D01*
X025136Y005859D02*
X023676Y005859D01*
X023676Y005700D02*
X024978Y005700D01*
X024819Y005542D02*
X023676Y005542D01*
X023676Y005383D02*
X024661Y005383D01*
X024502Y005225D02*
X023710Y005225D01*
X023869Y005066D02*
X024180Y005066D01*
X024120Y004908D02*
X024027Y004908D01*
X023863Y004591D02*
X015212Y004591D01*
X015169Y004749D02*
X023705Y004749D01*
X024022Y004432D02*
X015171Y004432D01*
X013620Y004274D02*
X047806Y004274D01*
X047806Y004432D02*
X025091Y004432D01*
X025249Y004591D02*
X047806Y004591D01*
X047806Y004749D02*
X025408Y004749D01*
X025566Y004908D02*
X047806Y004908D01*
X047806Y005066D02*
X025725Y005066D01*
X025883Y005225D02*
X047806Y005225D01*
X047806Y005383D02*
X026042Y005383D01*
X026200Y005542D02*
X027974Y005542D01*
X027853Y005700D02*
X026359Y005700D01*
X028278Y005542D02*
X047806Y005542D01*
X047806Y005700D02*
X039139Y005700D01*
X039297Y005859D02*
X047806Y005859D01*
X047806Y006017D02*
X039456Y006017D01*
X039614Y006176D02*
X047806Y006176D01*
X047806Y006334D02*
X039773Y006334D01*
X039931Y006493D02*
X047806Y006493D01*
X047806Y006651D02*
X041648Y006651D01*
X041753Y006810D02*
X047806Y006810D01*
X047806Y006968D02*
X041326Y006968D01*
X041286Y006968D02*
X040407Y006968D01*
X040565Y007127D02*
X040846Y007127D01*
X040929Y007285D02*
X040724Y007285D01*
X040859Y006810D02*
X040248Y006810D01*
X040090Y006651D02*
X040964Y006651D01*
X041286Y006651D02*
X041326Y006651D01*
X041326Y006810D02*
X041286Y006810D01*
X041766Y007127D02*
X047806Y007127D01*
X047806Y007285D02*
X041684Y007285D01*
X041962Y007444D02*
X047806Y007444D01*
X047806Y007602D02*
X042121Y007602D01*
X042279Y007761D02*
X047806Y007761D01*
X047806Y007919D02*
X042438Y007919D01*
X042596Y008078D02*
X047806Y008078D01*
X047806Y008236D02*
X042696Y008236D01*
X042696Y008395D02*
X047806Y008395D01*
X047806Y008553D02*
X042696Y008553D01*
X042696Y008712D02*
X047806Y008712D01*
X047806Y008870D02*
X042696Y008870D01*
X042696Y009029D02*
X047806Y009029D01*
X047806Y009187D02*
X042696Y009187D01*
X042696Y009346D02*
X047806Y009346D01*
X047806Y009504D02*
X042696Y009504D01*
X042696Y009663D02*
X047806Y009663D01*
X047806Y009821D02*
X042696Y009821D01*
X042696Y009980D02*
X047806Y009980D01*
X047806Y010138D02*
X042696Y010138D01*
X042696Y010297D02*
X047806Y010297D01*
X047806Y010455D02*
X042696Y010455D01*
X042696Y010614D02*
X047806Y010614D01*
X047806Y010772D02*
X042696Y010772D01*
X042696Y010931D02*
X047806Y010931D01*
X047806Y011089D02*
X042696Y011089D01*
X042696Y011248D02*
X047806Y011248D01*
X047806Y011406D02*
X042696Y011406D01*
X042696Y011565D02*
X047806Y011565D01*
X047806Y011723D02*
X042696Y011723D01*
X042696Y011882D02*
X047806Y011882D01*
X047806Y012040D02*
X042696Y012040D01*
X042696Y012199D02*
X047806Y012199D01*
X047806Y012357D02*
X042696Y012357D01*
X042696Y012516D02*
X047806Y012516D01*
X047806Y012674D02*
X042696Y012674D01*
X042696Y012833D02*
X047806Y012833D01*
X047806Y012991D02*
X042696Y012991D01*
X042696Y013150D02*
X047806Y013150D01*
X047806Y013308D02*
X042696Y013308D01*
X042696Y013467D02*
X047806Y013467D01*
X047806Y013625D02*
X042696Y013625D01*
X042696Y013784D02*
X047806Y013784D01*
X047806Y013942D02*
X042696Y013942D01*
X042696Y014101D02*
X047806Y014101D01*
X047806Y014259D02*
X042696Y014259D01*
X042696Y014418D02*
X047806Y014418D01*
X047806Y014576D02*
X042696Y014576D01*
X042696Y014735D02*
X047806Y014735D01*
X047806Y014893D02*
X042696Y014893D01*
X042696Y015052D02*
X046018Y015052D01*
X046031Y015038D02*
X046421Y015038D01*
X046696Y015313D01*
X046696Y015703D01*
X046421Y015978D01*
X046031Y015978D01*
X045756Y015703D01*
X045756Y015313D01*
X046031Y015038D01*
X045859Y015210D02*
X042696Y015210D01*
X042696Y015369D02*
X045756Y015369D01*
X045756Y015527D02*
X042696Y015527D01*
X042696Y015686D02*
X045756Y015686D01*
X045897Y015844D02*
X042696Y015844D01*
X042696Y016003D02*
X047806Y016003D01*
X047806Y016161D02*
X046544Y016161D01*
X046421Y016038D02*
X046696Y016313D01*
X046696Y016703D01*
X046421Y016978D01*
X046031Y016978D01*
X045756Y016703D01*
X045756Y016313D01*
X046031Y016038D01*
X046421Y016038D01*
X046555Y015844D02*
X047806Y015844D01*
X047806Y015686D02*
X046696Y015686D01*
X046696Y015527D02*
X047806Y015527D01*
X047806Y015369D02*
X046696Y015369D01*
X046593Y015210D02*
X047806Y015210D01*
X047806Y015052D02*
X046434Y015052D01*
X045908Y016161D02*
X042696Y016161D01*
X042696Y016320D02*
X045756Y016320D01*
X045756Y016478D02*
X042696Y016478D01*
X042696Y016637D02*
X045756Y016637D01*
X045848Y016795D02*
X042696Y016795D01*
X042696Y016954D02*
X046007Y016954D01*
X045957Y017112D02*
X042696Y017112D01*
X042696Y017271D02*
X045799Y017271D01*
X045756Y017429D02*
X042696Y017429D01*
X042696Y017588D02*
X045756Y017588D01*
X045799Y017746D02*
X042696Y017746D01*
X042696Y017905D02*
X045829Y017905D01*
X045671Y018063D02*
X042696Y018063D01*
X042696Y018222D02*
X045512Y018222D01*
X045354Y018380D02*
X042696Y018380D01*
X042696Y018539D02*
X045195Y018539D01*
X045037Y018697D02*
X042696Y018697D01*
X042696Y018856D02*
X044878Y018856D01*
X044816Y019014D02*
X042696Y019014D01*
X042696Y019173D02*
X044816Y019173D01*
X044816Y019331D02*
X042696Y019331D01*
X042696Y019490D02*
X044816Y019490D01*
X044816Y019648D02*
X042696Y019648D01*
X042696Y019807D02*
X044816Y019807D01*
X044816Y019965D02*
X042570Y019965D01*
X042411Y020124D02*
X044816Y020124D01*
X044816Y020282D02*
X042253Y020282D01*
X042094Y020441D02*
X044816Y020441D01*
X044816Y020599D02*
X041936Y020599D01*
X041777Y020758D02*
X044816Y020758D01*
X044816Y020916D02*
X041746Y020916D01*
X041746Y021075D02*
X044816Y021075D01*
X044816Y021233D02*
X041792Y021233D01*
X041950Y021392D02*
X044816Y021392D01*
X044816Y021550D02*
X042109Y021550D01*
X042267Y021709D02*
X044816Y021709D01*
X044816Y021867D02*
X042276Y021867D01*
X042276Y022026D02*
X044816Y022026D01*
X044816Y022184D02*
X042276Y022184D01*
X042276Y022343D02*
X044816Y022343D01*
X044816Y022501D02*
X042276Y022501D01*
X042276Y022660D02*
X044816Y022660D01*
X044816Y022818D02*
X042276Y022818D01*
X042276Y022977D02*
X044816Y022977D01*
X044816Y023135D02*
X042276Y023135D01*
X042276Y023294D02*
X044816Y023294D01*
X044816Y023452D02*
X042276Y023452D01*
X042276Y023611D02*
X044816Y023611D01*
X044816Y023769D02*
X042276Y023769D01*
X042276Y023928D02*
X044816Y023928D01*
X044816Y024086D02*
X042276Y024086D01*
X042276Y024245D02*
X044816Y024245D01*
X044816Y024403D02*
X042276Y024403D01*
X042276Y024562D02*
X044816Y024562D01*
X044816Y024720D02*
X042276Y024720D01*
X042276Y024879D02*
X044816Y024879D01*
X044816Y025037D02*
X042276Y025037D01*
X042276Y025196D02*
X044816Y025196D01*
X044816Y025354D02*
X042276Y025354D01*
X042276Y025513D02*
X044816Y025513D01*
X044663Y025671D02*
X042276Y025671D01*
X042276Y025830D02*
X044504Y025830D01*
X044346Y025988D02*
X042276Y025988D01*
X042208Y026147D02*
X044187Y026147D01*
X044029Y026305D02*
X042050Y026305D01*
X041891Y026464D02*
X043870Y026464D01*
X043712Y026622D02*
X041733Y026622D01*
X041040Y026622D02*
X027696Y026622D01*
X027696Y026464D02*
X040881Y026464D01*
X040723Y026305D02*
X032611Y026305D01*
X032717Y026147D02*
X040564Y026147D01*
X040406Y025988D02*
X032746Y025988D01*
X032717Y025830D02*
X040247Y025830D01*
X040411Y025513D02*
X041541Y025513D01*
X041562Y025354D02*
X041636Y025354D01*
X041050Y025354D02*
X040253Y025354D01*
X040431Y025037D02*
X032746Y025037D01*
X032737Y024879D02*
X040326Y024879D01*
X040278Y024720D02*
X032660Y024720D01*
X032426Y024562D02*
X040119Y024562D01*
X039961Y024403D02*
X032454Y024403D01*
X032672Y024245D02*
X039802Y024245D01*
X039644Y024086D02*
X032742Y024086D01*
X032746Y023928D02*
X039485Y023928D01*
X039327Y023769D02*
X032692Y023769D01*
X032545Y023611D02*
X039168Y023611D01*
X040782Y025037D02*
X040866Y025037D01*
X040916Y025196D02*
X032696Y025196D01*
X031916Y025196D02*
X027578Y025196D01*
X027515Y025037D02*
X023696Y025037D01*
X023689Y025196D02*
X026874Y025196D01*
X026756Y025354D02*
X023624Y025354D01*
X023470Y025513D02*
X026756Y025513D01*
X026756Y025671D02*
X022834Y025671D01*
X022716Y025830D02*
X026883Y025830D01*
X026923Y026147D02*
X022716Y026147D01*
X022716Y026305D02*
X026764Y026305D01*
X026756Y026464D02*
X023513Y026464D01*
X023640Y026622D02*
X026756Y026622D01*
X026834Y026781D02*
X023696Y026781D01*
X023696Y026939D02*
X026993Y026939D01*
X026972Y027098D02*
X023666Y027098D01*
X023825Y027256D02*
X026813Y027256D01*
X026756Y027415D02*
X023983Y027415D01*
X024142Y027573D02*
X026756Y027573D01*
X026785Y027732D02*
X024300Y027732D01*
X023365Y028207D02*
X020947Y028207D01*
X020999Y028259D02*
X020875Y028135D01*
X020714Y028068D01*
X019939Y028068D01*
X019777Y028135D01*
X019653Y028259D01*
X019622Y028334D01*
X019599Y028279D01*
X019475Y028155D01*
X019314Y028088D01*
X018539Y028088D01*
X018377Y028155D01*
X018253Y028279D01*
X018186Y028441D01*
X018186Y028616D01*
X018253Y028777D01*
X018377Y028901D01*
X018539Y028968D01*
X019314Y028968D01*
X019475Y028901D01*
X019599Y028777D01*
X019630Y028702D01*
X019653Y028757D01*
X019777Y028881D01*
X019939Y028948D01*
X020714Y028948D01*
X020875Y028881D01*
X020999Y028757D01*
X021066Y028596D01*
X021066Y028421D01*
X020999Y028259D01*
X021043Y028366D02*
X026756Y028366D01*
X026756Y028524D02*
X021066Y028524D01*
X021030Y028683D02*
X026756Y028683D01*
X026895Y028841D02*
X020915Y028841D01*
X020955Y029158D02*
X026911Y029158D01*
X027031Y029038D02*
X027421Y029038D01*
X027696Y029313D01*
X027696Y029703D01*
X027421Y029978D01*
X027031Y029978D01*
X026756Y029703D01*
X026756Y029313D01*
X027031Y029038D01*
X026756Y029317D02*
X021067Y029317D01*
X021106Y029475D02*
X026756Y029475D01*
X026756Y029634D02*
X021090Y029634D01*
X021094Y029620D02*
X021071Y029692D01*
X021037Y029760D01*
X020992Y029821D01*
X020939Y029874D01*
X020878Y029919D01*
X020810Y029953D01*
X020739Y029976D01*
X020664Y029988D01*
X020346Y029988D01*
X020346Y029528D01*
X021106Y029528D01*
X021106Y029546D01*
X021094Y029620D01*
X021013Y029792D02*
X026846Y029792D01*
X027004Y029951D02*
X020815Y029951D01*
X020346Y029951D02*
X020306Y029951D01*
X020306Y029792D02*
X020346Y029792D01*
X020346Y029634D02*
X020306Y029634D01*
X020306Y029475D02*
X020346Y029475D01*
X020346Y029317D02*
X020306Y029317D01*
X020306Y029158D02*
X020346Y029158D01*
X019697Y029158D02*
X019534Y029158D01*
X019535Y028841D02*
X019737Y028841D01*
X019705Y028207D02*
X019527Y028207D01*
X018325Y028207D02*
X018166Y028207D01*
X018166Y028049D02*
X023206Y028049D01*
X023048Y027890D02*
X018166Y027890D01*
X018166Y027732D02*
X022889Y027732D01*
X022731Y027573D02*
X018166Y027573D01*
X018166Y027415D02*
X022572Y027415D01*
X022414Y027256D02*
X020949Y027256D01*
X020915Y027290D02*
X020728Y027368D01*
X020525Y027368D01*
X020337Y027290D01*
X020194Y027147D01*
X020116Y026960D01*
X020116Y026757D01*
X020194Y026569D01*
X020337Y026426D01*
X020525Y026348D01*
X020728Y026348D01*
X020915Y026426D01*
X021058Y026569D01*
X021136Y026757D01*
X021136Y026960D01*
X021058Y027147D01*
X020915Y027290D01*
X021079Y027098D02*
X022376Y027098D01*
X022376Y026939D02*
X021136Y026939D01*
X021136Y026781D02*
X022376Y026781D01*
X022376Y026622D02*
X021080Y026622D01*
X020953Y026464D02*
X022376Y026464D01*
X022376Y026305D02*
X017633Y026305D01*
X017614Y026464D02*
X020299Y026464D01*
X020172Y026622D02*
X017131Y026622D01*
X017058Y026781D02*
X020116Y026781D01*
X020116Y026939D02*
X016643Y026939D01*
X016646Y026781D02*
X016806Y026781D01*
X016806Y026622D02*
X016646Y026622D01*
X016646Y026464D02*
X016806Y026464D01*
X016806Y026305D02*
X016646Y026305D01*
X016646Y026147D02*
X016806Y026147D01*
X017614Y025988D02*
X022376Y025988D01*
X022376Y025830D02*
X017614Y025830D01*
X017614Y025671D02*
X022376Y025671D01*
X022511Y025513D02*
X020910Y025513D01*
X021064Y025354D02*
X022670Y025354D01*
X022683Y025196D02*
X021129Y025196D01*
X021136Y025037D02*
X022676Y025037D01*
X022717Y024879D02*
X021096Y024879D01*
X020989Y024720D02*
X022823Y024720D01*
X022716Y025988D02*
X027506Y025988D01*
X027569Y025830D02*
X027664Y025830D01*
X027688Y026305D02*
X032001Y026305D01*
X032158Y024403D02*
X027696Y024403D01*
X027627Y024245D02*
X031940Y024245D01*
X027859Y027415D02*
X027696Y027415D01*
X027696Y027573D02*
X027701Y027573D01*
X027639Y027256D02*
X043078Y027256D01*
X043236Y027098D02*
X027480Y027098D01*
X027460Y026939D02*
X043395Y026939D01*
X043553Y026781D02*
X027618Y026781D01*
X028105Y027890D02*
X045944Y027890D01*
X046031Y027978D02*
X045756Y027703D01*
X045756Y027313D01*
X046031Y027038D01*
X046421Y027038D01*
X046696Y027313D01*
X046696Y027703D01*
X046421Y027978D01*
X046031Y027978D01*
X046021Y028049D02*
X027946Y028049D01*
X027788Y028207D02*
X045862Y028207D01*
X045756Y028366D02*
X027696Y028366D01*
X027696Y028524D02*
X045756Y028524D01*
X045756Y028683D02*
X027696Y028683D01*
X027558Y028841D02*
X045895Y028841D01*
X046031Y029038D02*
X045756Y029313D01*
X045756Y029703D01*
X046031Y029978D01*
X046421Y029978D01*
X046696Y029703D01*
X046696Y029313D01*
X046421Y029038D01*
X046031Y029038D01*
X045911Y029158D02*
X027541Y029158D01*
X027696Y029317D02*
X045756Y029317D01*
X045756Y029475D02*
X027696Y029475D01*
X027696Y029634D02*
X045756Y029634D01*
X045846Y029792D02*
X027607Y029792D01*
X027448Y029951D02*
X046004Y029951D01*
X046448Y029951D02*
X047216Y029951D01*
X047216Y030109D02*
X018166Y030109D01*
X018166Y029951D02*
X018398Y029951D01*
X018225Y029792D02*
X018166Y029792D01*
X018166Y030268D02*
X047216Y030268D01*
X047108Y030426D02*
X036961Y030426D01*
X040728Y025830D02*
X040896Y025830D01*
X041001Y025671D02*
X040570Y025671D01*
X043323Y027732D02*
X045785Y027732D01*
X045756Y027573D02*
X043482Y027573D01*
X043640Y027415D02*
X045756Y027415D01*
X045813Y027256D02*
X043799Y027256D01*
X043957Y027098D02*
X045972Y027098D01*
X046031Y026978D02*
X045756Y026703D01*
X045756Y026313D01*
X046031Y026038D01*
X046421Y026038D01*
X046696Y026313D01*
X046696Y026703D01*
X046421Y026978D01*
X046031Y026978D01*
X045993Y026939D02*
X044116Y026939D01*
X044274Y026781D02*
X045834Y026781D01*
X045756Y026622D02*
X044433Y026622D01*
X044591Y026464D02*
X045756Y026464D01*
X045764Y026305D02*
X044750Y026305D01*
X044908Y026147D02*
X045923Y026147D01*
X046031Y025978D02*
X045756Y025703D01*
X045756Y025313D01*
X046031Y025038D01*
X046421Y025038D01*
X046696Y025313D01*
X046696Y025703D01*
X046421Y025978D01*
X046031Y025978D01*
X045883Y025830D02*
X045225Y025830D01*
X045067Y025988D02*
X047806Y025988D01*
X047806Y025830D02*
X046569Y025830D01*
X046696Y025671D02*
X047806Y025671D01*
X047806Y025513D02*
X046696Y025513D01*
X046696Y025354D02*
X047806Y025354D01*
X047806Y025196D02*
X046578Y025196D01*
X046421Y024978D02*
X046031Y024978D01*
X045756Y024703D01*
X045756Y024313D01*
X046031Y024038D01*
X046421Y024038D01*
X046696Y024313D01*
X046696Y024703D01*
X046421Y024978D01*
X046520Y024879D02*
X047806Y024879D01*
X047806Y025037D02*
X045396Y025037D01*
X045396Y024879D02*
X045932Y024879D01*
X045774Y024720D02*
X045396Y024720D01*
X045396Y024562D02*
X045756Y024562D01*
X045756Y024403D02*
X045396Y024403D01*
X045396Y024245D02*
X045825Y024245D01*
X045983Y024086D02*
X045396Y024086D01*
X045396Y023928D02*
X047806Y023928D01*
X047806Y024086D02*
X046469Y024086D01*
X046627Y024245D02*
X047806Y024245D01*
X047806Y024403D02*
X046696Y024403D01*
X046696Y024562D02*
X047806Y024562D01*
X047806Y024720D02*
X046679Y024720D01*
X045874Y025196D02*
X045396Y025196D01*
X045396Y025354D02*
X045756Y025354D01*
X045756Y025513D02*
X045396Y025513D01*
X045384Y025671D02*
X045756Y025671D01*
X046529Y026147D02*
X047806Y026147D01*
X047806Y026305D02*
X046688Y026305D01*
X046696Y026464D02*
X047806Y026464D01*
X047806Y026622D02*
X046696Y026622D01*
X046618Y026781D02*
X047806Y026781D01*
X047806Y026939D02*
X046460Y026939D01*
X046480Y027098D02*
X047806Y027098D01*
X047806Y027256D02*
X046639Y027256D01*
X046696Y027415D02*
X047806Y027415D01*
X047806Y027573D02*
X046696Y027573D01*
X046667Y027732D02*
X047806Y027732D01*
X047806Y027890D02*
X046509Y027890D01*
X046431Y028049D02*
X047806Y028049D01*
X047806Y028207D02*
X046590Y028207D01*
X046696Y028366D02*
X047806Y028366D01*
X047806Y028524D02*
X046696Y028524D01*
X046696Y028683D02*
X047806Y028683D01*
X047806Y028841D02*
X046800Y028841D01*
X046958Y029000D02*
X047806Y029000D01*
X047806Y029158D02*
X047117Y029158D01*
X047275Y029317D02*
X047806Y029317D01*
X047806Y029475D02*
X047434Y029475D01*
X047556Y029634D02*
X047806Y029634D01*
X047806Y029792D02*
X047556Y029792D01*
X047556Y029951D02*
X047806Y029951D01*
X047806Y030109D02*
X047556Y030109D01*
X047556Y030268D02*
X047806Y030268D01*
X047806Y030426D02*
X047556Y030426D01*
X047216Y029792D02*
X046607Y029792D01*
X046696Y029634D02*
X047111Y029634D01*
X046953Y029475D02*
X046696Y029475D01*
X046696Y029317D02*
X046794Y029317D01*
X046636Y029158D02*
X046541Y029158D01*
X046477Y029000D02*
X018166Y029000D01*
X018166Y029158D02*
X018319Y029158D01*
X018195Y029317D02*
X018166Y029317D01*
X018166Y028841D02*
X018317Y028841D01*
X018214Y028683D02*
X018166Y028683D01*
X018166Y028524D02*
X018186Y028524D01*
X018166Y028366D02*
X018217Y028366D01*
X018906Y029158D02*
X018946Y029158D01*
X018946Y029317D02*
X018906Y029317D01*
X018906Y029475D02*
X018946Y029475D01*
X018946Y029634D02*
X018906Y029634D01*
X018906Y029792D02*
X018946Y029792D01*
X018946Y029951D02*
X018906Y029951D01*
X019454Y029951D02*
X019837Y029951D01*
X019639Y029792D02*
X019628Y029792D01*
X020303Y027256D02*
X018166Y027256D01*
X018166Y027098D02*
X020173Y027098D01*
X020343Y025513D02*
X017614Y025513D01*
X017654Y026147D02*
X022376Y026147D01*
X022716Y026464D02*
X022859Y026464D01*
X022732Y026622D02*
X022716Y026622D01*
X020263Y024720D02*
X019165Y024720D01*
X018860Y024403D02*
X018106Y024403D01*
X018106Y024245D02*
X019018Y024245D01*
X017687Y024245D02*
X017486Y024245D01*
X017461Y024086D02*
X017687Y024086D01*
X017688Y023928D02*
X017446Y023928D01*
X017446Y023769D02*
X017689Y023769D01*
X017690Y023611D02*
X016288Y023611D01*
X016352Y023452D02*
X017690Y023452D01*
X017691Y023294D02*
X016320Y023294D01*
X015536Y023611D02*
X015337Y023611D01*
X014546Y023452D02*
X014546Y023452D01*
X014546Y023294D02*
X014546Y023294D01*
X014226Y023294D02*
X014166Y023294D01*
X014166Y023135D02*
X014226Y023135D01*
X014266Y023452D02*
X014130Y023452D01*
X013296Y023452D02*
X010758Y023452D01*
X010758Y023442D02*
X010758Y023740D01*
X010745Y023786D01*
X010722Y023827D01*
X010688Y023860D01*
X010647Y023884D01*
X010601Y023896D01*
X010126Y023896D01*
X010126Y023442D01*
X010046Y023362D01*
X010126Y023294D02*
X013203Y023294D01*
X013296Y023611D02*
X010758Y023611D01*
X010750Y023769D02*
X012936Y023769D01*
X012778Y023928D02*
X011560Y023928D01*
X011557Y023924D02*
X011590Y023958D01*
X011614Y023999D01*
X011626Y024044D01*
X011626Y024241D01*
X011259Y024241D01*
X011259Y023888D01*
X011470Y023888D01*
X011516Y023900D01*
X011557Y023924D01*
X011626Y024086D02*
X012619Y024086D01*
X012461Y024245D02*
X012284Y024245D01*
X011966Y024245D02*
X011966Y024245D01*
X011649Y024245D02*
X011259Y024245D01*
X011246Y024253D02*
X010771Y024253D01*
X010726Y024298D01*
X010726Y025048D01*
X011086Y025408D01*
X011986Y025408D01*
X012226Y025648D01*
X013666Y025648D01*
X014686Y025648D01*
X015026Y025988D01*
X016145Y025988D01*
X015946Y025395D02*
X015946Y025288D01*
X015439Y024879D02*
X015414Y024879D01*
X015414Y024720D02*
X015439Y024720D01*
X015046Y025037D02*
X014888Y025037D01*
X015017Y025196D02*
X015046Y025196D01*
X014146Y025196D02*
X013934Y025196D01*
X013929Y025200D02*
X013736Y025200D01*
X013736Y025329D01*
X013835Y025428D01*
X014146Y025428D01*
X014146Y024827D01*
X014011Y024963D01*
X014011Y025118D01*
X013929Y025200D01*
X014011Y025037D02*
X014146Y025037D01*
X014146Y024879D02*
X014095Y024879D01*
X013290Y024903D02*
X013290Y024903D01*
X013290Y025240D01*
X013198Y025240D01*
X013152Y025228D01*
X013111Y025204D01*
X013077Y025171D01*
X013054Y025130D01*
X013041Y025084D01*
X013041Y024903D01*
X013290Y024903D01*
X013290Y024903D01*
X013290Y025240D01*
X013356Y025240D01*
X013356Y025428D01*
X012317Y025428D01*
X012206Y025317D01*
X012206Y025317D01*
X012077Y025188D01*
X011177Y025188D01*
X011157Y025168D01*
X011504Y025168D01*
X011586Y025086D01*
X011586Y024948D01*
X011718Y024948D01*
X011768Y024998D01*
X012164Y024998D01*
X012246Y024916D01*
X012246Y024818D01*
X012425Y024818D01*
X012536Y024707D01*
X012555Y024688D01*
X013050Y024688D01*
X013041Y024722D01*
X013041Y024903D01*
X013290Y024903D01*
X013290Y025037D02*
X013290Y025037D01*
X013290Y025196D02*
X013290Y025196D01*
X013356Y025354D02*
X012243Y025354D01*
X012466Y025348D02*
X013186Y025348D01*
X013102Y025196D02*
X012085Y025196D01*
X012246Y024879D02*
X013041Y024879D01*
X013041Y025037D02*
X011586Y025037D01*
X010995Y025628D02*
X010758Y025391D01*
X010758Y025472D01*
X010745Y025518D01*
X010722Y025559D01*
X010688Y025593D01*
X010647Y025616D01*
X010601Y025629D01*
X010126Y025629D01*
X010126Y025174D01*
X009966Y025174D01*
X009966Y025629D01*
X009491Y025629D01*
X009445Y025616D01*
X009406Y025594D01*
X009406Y027088D01*
X012066Y027088D01*
X012066Y026964D01*
X010903Y026964D01*
X010903Y025800D01*
X010915Y025754D01*
X010939Y025713D01*
X010973Y025679D01*
X011014Y025656D01*
X011059Y025643D01*
X011910Y025643D01*
X011895Y025628D01*
X010995Y025628D01*
X010987Y025671D02*
X009406Y025671D01*
X009406Y025830D02*
X010903Y025830D01*
X010903Y025988D02*
X009406Y025988D01*
X009406Y026147D02*
X010903Y026147D01*
X010903Y026305D02*
X009406Y026305D01*
X009406Y026464D02*
X010903Y026464D01*
X010903Y026622D02*
X009406Y026622D01*
X009406Y026781D02*
X010903Y026781D01*
X010903Y026939D02*
X009406Y026939D01*
X009046Y026781D02*
X008998Y026781D01*
X008386Y026781D02*
X008346Y026781D01*
X008346Y026939D02*
X008386Y026939D01*
X008386Y027098D02*
X008346Y027098D01*
X008346Y027148D02*
X008346Y027608D01*
X008028Y027608D01*
X007954Y027596D01*
X007882Y027573D01*
X007815Y027539D01*
X007753Y027494D01*
X007700Y027441D01*
X007656Y027380D01*
X007621Y027312D01*
X007606Y027266D01*
X007606Y027990D01*
X007621Y027944D01*
X007656Y027876D01*
X007700Y027815D01*
X007753Y027762D01*
X007815Y027718D01*
X007882Y027683D01*
X007954Y027660D01*
X008028Y027648D01*
X008346Y027648D01*
X008346Y028108D01*
X008386Y028108D01*
X008386Y027648D01*
X008704Y027648D01*
X008779Y027660D01*
X008850Y027683D01*
X008918Y027718D01*
X008979Y027762D01*
X009032Y027815D01*
X009046Y027834D01*
X009046Y027422D01*
X009032Y027441D01*
X008979Y027494D01*
X008918Y027539D01*
X008850Y027573D01*
X009046Y027573D01*
X009046Y027732D02*
X008937Y027732D01*
X008850Y027573D02*
X008779Y027596D01*
X008704Y027608D01*
X008386Y027608D01*
X008386Y027148D01*
X008346Y027148D01*
X008346Y027256D02*
X008386Y027256D01*
X008386Y027415D02*
X008346Y027415D01*
X008346Y027573D02*
X008386Y027573D01*
X008386Y027732D02*
X008346Y027732D01*
X008346Y027890D02*
X008386Y027890D01*
X008386Y028049D02*
X008346Y028049D01*
X008346Y028148D02*
X008346Y028608D01*
X008028Y028608D01*
X007954Y028596D01*
X007882Y028573D01*
X007815Y028539D01*
X007753Y028494D01*
X007700Y028441D01*
X007656Y028380D01*
X007621Y028312D01*
X007606Y028266D01*
X007606Y030508D01*
X009046Y030508D01*
X009046Y028422D01*
X009032Y028441D01*
X008979Y028494D01*
X008918Y028539D01*
X008850Y028573D01*
X008779Y028596D01*
X008704Y028608D01*
X008386Y028608D01*
X008386Y028148D01*
X008346Y028148D01*
X008346Y028207D02*
X008386Y028207D01*
X008386Y028366D02*
X008346Y028366D01*
X008346Y028524D02*
X008386Y028524D01*
X008938Y028524D02*
X009046Y028524D01*
X009046Y028683D02*
X007606Y028683D01*
X007606Y028841D02*
X009046Y028841D01*
X009046Y029000D02*
X007606Y029000D01*
X007606Y029158D02*
X009046Y029158D01*
X009046Y029317D02*
X007606Y029317D01*
X007606Y029475D02*
X009046Y029475D01*
X009046Y029634D02*
X007606Y029634D01*
X007606Y029792D02*
X009046Y029792D01*
X009046Y029951D02*
X007606Y029951D01*
X007606Y030109D02*
X009046Y030109D01*
X009046Y030268D02*
X007606Y030268D01*
X007606Y030426D02*
X009046Y030426D01*
X009406Y030426D02*
X009538Y030426D01*
X009537Y030426D02*
X009496Y030402D01*
X009462Y030369D01*
X009438Y030328D01*
X009426Y030282D01*
X009426Y030053D01*
X010061Y030053D01*
X010061Y029963D01*
X009426Y029963D01*
X009426Y029734D01*
X009438Y029689D01*
X009462Y029648D01*
X009496Y029614D01*
X009537Y029590D01*
X009582Y029578D01*
X010061Y029578D01*
X010061Y029963D01*
X010151Y029963D01*
X010151Y029578D01*
X010630Y029578D01*
X010676Y029590D01*
X010717Y029614D01*
X010750Y029648D01*
X010774Y029689D01*
X010786Y029734D01*
X010786Y029963D01*
X010151Y029963D01*
X010151Y030053D01*
X010061Y030053D01*
X010061Y030438D01*
X009582Y030438D01*
X009537Y030426D01*
X009406Y030568D02*
X011531Y030568D01*
X011336Y030373D01*
X010994Y030373D01*
X010912Y030291D01*
X010912Y029545D01*
X010994Y029463D01*
X011503Y029463D01*
X011585Y029545D01*
X011585Y029887D01*
X011946Y030248D01*
X012667Y030248D01*
X012667Y029936D01*
X013025Y029936D01*
X013025Y029899D01*
X013062Y029899D01*
X013062Y029423D01*
X013264Y029423D01*
X013310Y029435D01*
X013351Y029459D01*
X013385Y029492D01*
X013408Y029533D01*
X013421Y029579D01*
X013421Y029899D01*
X013062Y029899D01*
X013062Y029936D01*
X013421Y029936D01*
X013421Y030248D01*
X013623Y030248D01*
X013726Y030145D01*
X013726Y029930D01*
X013808Y029848D01*
X014116Y029848D01*
X014116Y029558D01*
X014108Y029558D01*
X014026Y029476D01*
X014026Y029160D01*
X014058Y029128D01*
X014026Y029096D01*
X014026Y028780D01*
X014108Y028698D01*
X014504Y028698D01*
X014554Y028748D01*
X014618Y028748D01*
X014688Y028678D01*
X014696Y028678D01*
X014696Y028518D01*
X014688Y028518D01*
X014606Y028436D01*
X014606Y028120D01*
X014638Y028088D01*
X013349Y028088D01*
X013349Y028322D01*
X013267Y028404D01*
X011025Y028404D01*
X010943Y028322D01*
X010943Y027448D01*
X009406Y027448D01*
X009406Y030568D01*
X009406Y030268D02*
X009426Y030268D01*
X009426Y030109D02*
X009406Y030109D01*
X009406Y029951D02*
X009426Y029951D01*
X009426Y029792D02*
X009406Y029792D01*
X009406Y029634D02*
X009476Y029634D01*
X009406Y029475D02*
X010981Y029475D01*
X010912Y029634D02*
X010736Y029634D01*
X010786Y029792D02*
X010912Y029792D01*
X010912Y029951D02*
X010786Y029951D01*
X010786Y030053D02*
X010786Y030282D01*
X010774Y030328D01*
X010750Y030369D01*
X010717Y030402D01*
X010676Y030426D01*
X010630Y030438D01*
X010151Y030438D01*
X010151Y030053D01*
X010786Y030053D01*
X010786Y030109D02*
X010912Y030109D01*
X010912Y030268D02*
X010786Y030268D01*
X010674Y030426D02*
X011389Y030426D01*
X011807Y030109D02*
X012667Y030109D01*
X012667Y029951D02*
X011649Y029951D01*
X011585Y029792D02*
X012667Y029792D01*
X012667Y029899D02*
X012667Y029579D01*
X012679Y029533D01*
X012703Y029492D01*
X012736Y029459D01*
X012777Y029435D01*
X012823Y029423D01*
X013025Y029423D01*
X013025Y029899D01*
X012667Y029899D01*
X012667Y029634D02*
X011585Y029634D01*
X011516Y029475D02*
X012720Y029475D01*
X013025Y029475D02*
X013062Y029475D01*
X013062Y029634D02*
X013025Y029634D01*
X013025Y029792D02*
X013062Y029792D01*
X013421Y029792D02*
X014116Y029792D01*
X014116Y029634D02*
X013421Y029634D01*
X013367Y029475D02*
X014026Y029475D01*
X014026Y029317D02*
X009406Y029317D01*
X009406Y029158D02*
X014028Y029158D01*
X014026Y029000D02*
X009406Y029000D01*
X009406Y028841D02*
X014026Y028841D01*
X014606Y028366D02*
X013306Y028366D01*
X013349Y028207D02*
X014606Y028207D01*
X014638Y028088D02*
X014638Y028088D01*
X014696Y028524D02*
X009406Y028524D01*
X009406Y028366D02*
X010986Y028366D01*
X010943Y028207D02*
X009406Y028207D01*
X009406Y028049D02*
X010943Y028049D01*
X010943Y027890D02*
X009406Y027890D01*
X009406Y027732D02*
X010943Y027732D01*
X010943Y027573D02*
X009406Y027573D01*
X009406Y028683D02*
X014684Y028683D01*
X013726Y029951D02*
X013421Y029951D01*
X013421Y030109D02*
X013726Y030109D01*
X010151Y030109D02*
X010061Y030109D01*
X010061Y029951D02*
X010151Y029951D01*
X010151Y029792D02*
X010061Y029792D01*
X010061Y029634D02*
X010151Y029634D01*
X010151Y030268D02*
X010061Y030268D01*
X010061Y030426D02*
X010151Y030426D01*
X007795Y028524D02*
X007606Y028524D01*
X007606Y028366D02*
X007648Y028366D01*
X007649Y027890D02*
X007606Y027890D01*
X007606Y027732D02*
X007795Y027732D01*
X007883Y027573D02*
X007606Y027573D01*
X007606Y027415D02*
X007681Y027415D01*
X009966Y025513D02*
X010126Y025513D01*
X010126Y025354D02*
X009966Y025354D01*
X009966Y025196D02*
X010126Y025196D01*
X010046Y025094D02*
X010540Y025588D01*
X010786Y025588D01*
X010747Y025513D02*
X010880Y025513D01*
X010771Y024253D02*
X010126Y023608D01*
X010126Y023442D01*
X010758Y023442D01*
X010932Y023928D02*
X009404Y023928D01*
X009404Y023860D02*
X009404Y023860D01*
X009405Y024086D02*
X010866Y024086D01*
X011234Y024086D02*
X011259Y024086D01*
X011259Y023928D02*
X011234Y023928D01*
X011234Y024245D02*
X009406Y024245D01*
X009966Y023769D02*
X010126Y023769D01*
X010126Y023611D02*
X009966Y023611D01*
X009966Y023452D02*
X010126Y023452D01*
X010126Y023135D02*
X009966Y023135D01*
X009966Y022977D02*
X010126Y022977D01*
X010096Y021960D02*
X009835Y021960D01*
X009835Y021326D01*
X010252Y021326D01*
X010252Y021803D01*
X010240Y021849D01*
X010216Y021890D01*
X010183Y021924D01*
X010142Y021947D01*
X010096Y021960D01*
X010230Y021867D02*
X013186Y021867D01*
X013148Y021709D02*
X010252Y021709D01*
X010252Y021550D02*
X013146Y021550D01*
X013146Y021392D02*
X010252Y021392D01*
X009835Y021392D02*
X009680Y021392D01*
X009680Y021550D02*
X009835Y021550D01*
X009835Y021709D02*
X009680Y021709D01*
X009680Y021867D02*
X009835Y021867D01*
X009835Y021233D02*
X013162Y021233D01*
X013514Y021233D02*
X013539Y021233D01*
X013539Y021392D02*
X013514Y021392D01*
X014796Y021392D02*
X017699Y021392D01*
X017699Y021550D02*
X014796Y021550D01*
X014796Y021709D02*
X017698Y021709D01*
X017697Y021867D02*
X014850Y021867D01*
X014912Y022026D02*
X017697Y022026D01*
X017696Y022184D02*
X014879Y022184D01*
X014796Y021233D02*
X017700Y021233D01*
X017701Y021075D02*
X014796Y021075D01*
X014796Y020916D02*
X017701Y020916D01*
X017702Y020758D02*
X014796Y020758D01*
X014796Y020599D02*
X017703Y020599D01*
X017703Y020441D02*
X014796Y020441D01*
X014796Y020282D02*
X017704Y020282D01*
X017705Y020124D02*
X014796Y020124D01*
X014796Y019965D02*
X017706Y019965D01*
X017706Y019807D02*
X014796Y019807D01*
X014456Y019648D02*
X013951Y019648D01*
X013955Y019173D02*
X016121Y019173D01*
X018106Y019965D02*
X018819Y019965D01*
X018760Y019490D02*
X018385Y019490D01*
X019962Y019490D02*
X022256Y019490D01*
X022256Y019331D02*
X020113Y019331D01*
X020132Y019173D02*
X021207Y019173D01*
X021174Y019014D02*
X020911Y019014D01*
X020701Y019014D02*
X020037Y019014D01*
X020016Y018856D02*
X020541Y018856D01*
X020520Y018697D02*
X019976Y018697D01*
X019817Y018539D02*
X020499Y018539D01*
X019970Y018380D02*
X019659Y018380D01*
X019500Y018222D02*
X019966Y018222D01*
X021098Y018697D02*
X021174Y018697D01*
X021174Y018856D02*
X021071Y018856D01*
X021256Y018539D02*
X021746Y018539D01*
X021746Y018697D02*
X021906Y018697D01*
X021906Y018856D02*
X021746Y018856D01*
X021746Y019014D02*
X021906Y019014D01*
X021906Y019173D02*
X021746Y019173D01*
X021746Y018380D02*
X021906Y018380D01*
X021906Y018222D02*
X021746Y018222D01*
X021746Y018063D02*
X021906Y018063D01*
X021456Y017905D02*
X022369Y017905D01*
X022528Y017746D02*
X021456Y017746D01*
X021386Y017588D02*
X022686Y017588D01*
X022907Y017429D02*
X022402Y017429D01*
X022439Y017271D02*
X022613Y017271D01*
X022460Y017112D02*
X022439Y017112D01*
X022439Y016954D02*
X022440Y016954D01*
X022439Y016795D02*
X022477Y016795D01*
X022439Y016637D02*
X022440Y016637D01*
X022439Y016478D02*
X022492Y016478D01*
X022539Y016320D02*
X022427Y016320D01*
X022500Y016161D02*
X022076Y016161D01*
X022076Y016003D02*
X022099Y016003D01*
X022076Y015960D02*
X022076Y015960D01*
X022386Y016003D02*
X022386Y016003D01*
X022386Y016078D02*
X022386Y015798D01*
X022386Y015798D01*
X022386Y016078D01*
X022386Y015844D02*
X022386Y015844D01*
X022447Y014598D02*
X022586Y014598D01*
X022447Y014598D01*
X022447Y014598D01*
X022586Y014598D02*
X022586Y014598D01*
X023439Y014060D02*
X023496Y014118D01*
X023604Y014226D01*
X023644Y014186D01*
X023749Y014142D01*
X023863Y014142D01*
X023968Y014186D01*
X024004Y014222D01*
X024026Y014200D01*
X024026Y014028D01*
X023958Y014028D01*
X023954Y014024D01*
X023947Y014032D01*
X023906Y014056D01*
X023860Y014068D01*
X023736Y014068D01*
X023612Y014068D01*
X023567Y014056D01*
X023526Y014032D01*
X023492Y013999D01*
X023479Y013976D01*
X023449Y014050D01*
X023439Y014060D01*
X023479Y014101D02*
X024026Y014101D01*
X023736Y014068D02*
X023736Y013748D01*
X023736Y013748D01*
X023736Y013428D01*
X023612Y013428D01*
X023567Y013440D01*
X023526Y013464D01*
X023526Y013400D01*
X023522Y013396D01*
X023530Y013389D01*
X023554Y013348D01*
X023566Y013302D01*
X023566Y013178D01*
X023246Y013178D01*
X023246Y013178D01*
X023246Y012898D01*
X023082Y012898D01*
X023037Y012910D01*
X022996Y012934D01*
X022984Y012946D01*
X022832Y012794D01*
X022832Y012691D01*
X022789Y012586D01*
X022708Y012506D01*
X022603Y012462D01*
X022489Y012462D01*
X022384Y012506D01*
X022312Y012578D01*
X022086Y012578D01*
X022046Y012618D01*
X021956Y012618D01*
X021956Y011469D01*
X021715Y011228D01*
X021984Y011228D01*
X022065Y011147D01*
X022129Y011174D01*
X022243Y011174D01*
X022315Y011144D01*
X022318Y011158D01*
X022342Y011199D01*
X022376Y011232D01*
X022417Y011256D01*
X022462Y011268D01*
X022674Y011268D01*
X022674Y010916D01*
X022699Y010916D01*
X022699Y011268D01*
X022910Y011268D01*
X022956Y011256D01*
X022997Y011232D01*
X023030Y011199D01*
X023054Y011158D01*
X023066Y011112D01*
X023066Y010916D01*
X022699Y010916D01*
X022699Y010891D01*
X023066Y010891D01*
X023066Y010694D01*
X023054Y010649D01*
X023032Y010610D01*
X023089Y010634D01*
X023203Y010634D01*
X023308Y010591D01*
X023389Y010510D01*
X023432Y010405D01*
X023432Y010291D01*
X023389Y010186D01*
X023308Y010106D01*
X023203Y010062D01*
X023089Y010062D01*
X023026Y010088D01*
X023026Y010070D01*
X022944Y009988D01*
X022428Y009988D01*
X022346Y010070D01*
X022346Y010105D01*
X022243Y010062D01*
X022129Y010062D01*
X022066Y010088D01*
X022066Y010070D01*
X021984Y009988D01*
X021468Y009988D01*
X021386Y010070D01*
X021386Y010217D01*
X021349Y010126D01*
X021268Y010046D01*
X021163Y010002D01*
X021049Y010002D01*
X020944Y010046D01*
X020923Y010067D01*
X020904Y010048D01*
X020388Y010048D01*
X020306Y010130D01*
X020306Y010284D01*
X020248Y010226D01*
X020143Y010182D01*
X020041Y010182D01*
X019906Y010048D01*
X019906Y009858D01*
X025377Y009858D01*
X025381Y009854D01*
X025483Y009854D01*
X025588Y009811D01*
X025616Y009783D01*
X025616Y013122D01*
X025609Y013122D01*
X025504Y013166D01*
X025424Y013246D01*
X025380Y013351D01*
X025380Y013465D01*
X025424Y013570D01*
X025504Y013651D01*
X025609Y013694D01*
X025723Y013694D01*
X025736Y013689D01*
X025736Y014022D01*
X025729Y014022D01*
X025624Y014066D01*
X025544Y014146D01*
X025500Y014251D01*
X025500Y014365D01*
X025544Y014470D01*
X025624Y014551D01*
X025729Y014594D01*
X025843Y014594D01*
X025856Y014589D01*
X025856Y015018D01*
X025736Y015138D01*
X025736Y015514D01*
X025664Y015586D01*
X025620Y015691D01*
X025620Y015805D01*
X025664Y015910D01*
X025744Y015991D01*
X025849Y016034D01*
X025963Y016034D01*
X026068Y015991D01*
X026149Y015910D01*
X026192Y015805D01*
X026192Y015691D01*
X026160Y015614D01*
X026203Y015614D01*
X026308Y015571D01*
X026389Y015490D01*
X026432Y015385D01*
X026432Y015271D01*
X026389Y015166D01*
X026316Y015094D01*
X026316Y014198D01*
X026516Y013998D01*
X026516Y014258D01*
X026616Y014358D01*
X026835Y014578D01*
X026716Y014697D01*
X026716Y014890D01*
X027208Y014890D01*
X027208Y014926D01*
X026716Y014926D01*
X026716Y015119D01*
X027015Y015418D01*
X027208Y015418D01*
X027208Y014927D01*
X027245Y014927D01*
X027245Y015418D01*
X027437Y015418D01*
X027736Y015119D01*
X027736Y014926D01*
X027245Y014926D01*
X027245Y014890D01*
X027736Y014890D01*
X027736Y014697D01*
X027697Y014658D01*
X032014Y014658D01*
X031933Y014739D01*
X031866Y014901D01*
X031866Y015076D01*
X031933Y015237D01*
X032057Y015361D01*
X032146Y015398D01*
X031956Y015398D01*
X031856Y015498D01*
X031616Y015738D01*
X027696Y015738D01*
X027696Y015713D01*
X027421Y015438D01*
X027031Y015438D01*
X026756Y015713D01*
X026756Y016103D01*
X026831Y016178D01*
X025857Y016178D01*
X025236Y015558D01*
X025137Y015458D01*
X024806Y015458D01*
X024806Y015338D01*
X024486Y015338D01*
X024486Y015338D01*
X024806Y015338D01*
X024806Y015214D01*
X024794Y015169D01*
X024770Y015128D01*
X024762Y015120D01*
X024766Y015116D01*
X024766Y014800D01*
X024714Y014748D01*
X024734Y014748D01*
X024816Y014666D01*
X024816Y014270D01*
X024746Y014200D01*
X024746Y014012D01*
X024787Y014036D01*
X024832Y014048D01*
X024956Y014048D01*
X024956Y013728D01*
X024956Y013728D01*
X024956Y013408D01*
X024832Y013408D01*
X024787Y013420D01*
X024746Y013444D01*
X024738Y013452D01*
X024734Y013448D01*
X024418Y013448D01*
X024336Y013530D01*
X024336Y013530D01*
X024274Y013468D01*
X023958Y013468D01*
X023954Y013472D01*
X023947Y013464D01*
X023906Y013440D01*
X023860Y013428D01*
X023736Y013428D01*
X023736Y013748D01*
X023736Y014068D01*
X023736Y013942D02*
X023736Y013942D01*
X023736Y013784D02*
X023736Y013784D01*
X023736Y013748D02*
X023736Y013748D01*
X023736Y013625D02*
X023736Y013625D01*
X023736Y013467D02*
X023736Y013467D01*
X023949Y013467D02*
X024400Y013467D01*
X024956Y013467D02*
X024956Y013467D01*
X024956Y013408D02*
X025080Y013408D01*
X025126Y013420D01*
X025167Y013444D01*
X025200Y013478D01*
X025224Y013519D01*
X025236Y013564D01*
X025236Y013728D01*
X024956Y013728D01*
X024956Y013408D01*
X024956Y013625D02*
X024956Y013625D01*
X024956Y013728D02*
X024956Y013728D01*
X024956Y013728D01*
X024956Y014048D01*
X025080Y014048D01*
X025126Y014036D01*
X025167Y014012D01*
X025200Y013979D01*
X025224Y013938D01*
X025236Y013892D01*
X025236Y013728D01*
X024956Y013728D01*
X024956Y013784D02*
X024956Y013784D01*
X024956Y013942D02*
X024956Y013942D01*
X024746Y014101D02*
X025589Y014101D01*
X025500Y014259D02*
X024805Y014259D01*
X024816Y014418D02*
X025522Y014418D01*
X025686Y014576D02*
X024816Y014576D01*
X024748Y014735D02*
X025856Y014735D01*
X025856Y014893D02*
X024766Y014893D01*
X024766Y015052D02*
X025822Y015052D01*
X025736Y015210D02*
X024805Y015210D01*
X024806Y015369D02*
X025736Y015369D01*
X025723Y015527D02*
X025206Y015527D01*
X025364Y015686D02*
X025622Y015686D01*
X025636Y015844D02*
X025523Y015844D01*
X025681Y016003D02*
X025773Y016003D01*
X025840Y016161D02*
X026814Y016161D01*
X026756Y016003D02*
X026039Y016003D01*
X026176Y015844D02*
X026756Y015844D01*
X026784Y015686D02*
X026190Y015686D01*
X026352Y015527D02*
X026942Y015527D01*
X026965Y015369D02*
X026432Y015369D01*
X026407Y015210D02*
X026807Y015210D01*
X026716Y015052D02*
X026316Y015052D01*
X026316Y014893D02*
X027208Y014893D01*
X027245Y014893D02*
X031869Y014893D01*
X031866Y015052D02*
X027736Y015052D01*
X027645Y015210D02*
X031922Y015210D01*
X032075Y015369D02*
X027487Y015369D01*
X027510Y015527D02*
X031827Y015527D01*
X031668Y015686D02*
X027668Y015686D01*
X027245Y015369D02*
X027208Y015369D01*
X027208Y015210D02*
X027245Y015210D01*
X027245Y015052D02*
X027208Y015052D01*
X026716Y014735D02*
X026316Y014735D01*
X026316Y014576D02*
X026834Y014576D01*
X026675Y014418D02*
X026316Y014418D01*
X026316Y014259D02*
X026517Y014259D01*
X026516Y014101D02*
X026414Y014101D01*
X025736Y013942D02*
X025221Y013942D01*
X025236Y013784D02*
X025736Y013784D01*
X025479Y013625D02*
X025236Y013625D01*
X025189Y013467D02*
X025381Y013467D01*
X025398Y013308D02*
X023564Y013308D01*
X023566Y013178D02*
X023246Y013178D01*
X023246Y012898D01*
X023410Y012898D01*
X023456Y012910D01*
X023497Y012934D01*
X023530Y012968D01*
X023554Y013009D01*
X023566Y013054D01*
X023566Y013178D01*
X023566Y013150D02*
X025543Y013150D01*
X025616Y012991D02*
X023544Y012991D01*
X023246Y012991D02*
X023246Y012991D01*
X023246Y013150D02*
X023246Y013150D01*
X023246Y013178D02*
X023246Y013178D01*
X022871Y012833D02*
X025616Y012833D01*
X025616Y012674D02*
X022825Y012674D01*
X022718Y012516D02*
X025616Y012516D01*
X025616Y012357D02*
X021956Y012357D01*
X021956Y012199D02*
X025616Y012199D01*
X025616Y012040D02*
X021956Y012040D01*
X021956Y011882D02*
X025616Y011882D01*
X025616Y011723D02*
X021956Y011723D01*
X021956Y011565D02*
X025616Y011565D01*
X025616Y011406D02*
X021893Y011406D01*
X021734Y011248D02*
X022402Y011248D01*
X022674Y011248D02*
X022699Y011248D01*
X022699Y011089D02*
X022674Y011089D01*
X022674Y010931D02*
X022699Y010931D01*
X023066Y010931D02*
X025616Y010931D01*
X025616Y011089D02*
X023066Y011089D01*
X022970Y011248D02*
X025616Y011248D01*
X025616Y010772D02*
X023066Y010772D01*
X023040Y010614D02*
X023034Y010614D01*
X023252Y010614D02*
X025616Y010614D01*
X025616Y010455D02*
X023411Y010455D01*
X023432Y010297D02*
X025616Y010297D01*
X025616Y010138D02*
X023341Y010138D01*
X023204Y009208D02*
X023186Y009208D01*
X023186Y008448D01*
X023146Y008448D01*
X023146Y008408D01*
X022686Y008408D01*
X022686Y008090D01*
X022698Y008016D01*
X022721Y007944D01*
X022756Y007876D01*
X022800Y007815D01*
X022853Y007762D01*
X022915Y007718D01*
X022982Y007683D01*
X023054Y007660D01*
X023128Y007648D01*
X023146Y007648D01*
X023146Y008408D01*
X023186Y008408D01*
X023186Y007648D01*
X023204Y007648D01*
X023279Y007660D01*
X023350Y007683D01*
X023418Y007718D01*
X023479Y007762D01*
X023532Y007815D01*
X023577Y007876D01*
X023611Y007944D01*
X023634Y008016D01*
X023646Y008090D01*
X023646Y008408D01*
X023186Y008408D01*
X023186Y008448D01*
X023646Y008448D01*
X023646Y008766D01*
X023634Y008840D01*
X023611Y008912D01*
X023577Y008980D01*
X023532Y009041D01*
X023479Y009094D01*
X023418Y009139D01*
X023350Y009173D01*
X023279Y009196D01*
X023204Y009208D01*
X023186Y009187D02*
X023146Y009187D01*
X023146Y009208D02*
X023128Y009208D01*
X023054Y009196D01*
X022982Y009173D01*
X022915Y009139D01*
X022853Y009094D01*
X022800Y009041D01*
X022756Y008980D01*
X022721Y008912D01*
X022698Y008840D01*
X022686Y008766D01*
X022686Y008448D01*
X023146Y008448D01*
X023146Y009208D01*
X023026Y009187D02*
X019974Y009187D01*
X019917Y009101D02*
X019793Y008977D01*
X019726Y008816D01*
X019726Y008041D01*
X019793Y007879D01*
X019917Y007755D01*
X020079Y007688D01*
X020254Y007688D01*
X020415Y007755D01*
X020539Y007879D01*
X020606Y008041D01*
X020606Y008816D01*
X020539Y008977D01*
X020415Y009101D01*
X020254Y009168D01*
X020079Y009168D01*
X019917Y009101D01*
X019844Y009029D02*
X019815Y009029D01*
X019749Y008870D02*
X019657Y008870D01*
X019726Y008712D02*
X019498Y008712D01*
X019340Y008553D02*
X019726Y008553D01*
X019726Y008395D02*
X019181Y008395D01*
X019023Y008236D02*
X019726Y008236D01*
X019726Y008078D02*
X018864Y008078D01*
X018706Y007919D02*
X019776Y007919D01*
X019911Y007761D02*
X018547Y007761D01*
X018336Y008298D02*
X016607Y008298D01*
X016606Y008298D01*
X016606Y008496D01*
X016574Y008528D01*
X016606Y008560D01*
X016606Y008876D01*
X016524Y008958D01*
X016496Y008958D01*
X016496Y009098D01*
X016524Y009098D01*
X016606Y009180D01*
X016606Y009496D01*
X016574Y009528D01*
X016606Y009560D01*
X016606Y009758D01*
X016676Y009827D01*
X016768Y009866D01*
X016849Y009946D01*
X016892Y010051D01*
X016892Y010165D01*
X016849Y010270D01*
X016768Y010351D01*
X016663Y010394D01*
X016549Y010394D01*
X016444Y010351D01*
X016364Y010270D01*
X016320Y010165D01*
X016320Y010051D01*
X016349Y009981D01*
X016326Y009958D01*
X016128Y009958D01*
X016046Y009876D01*
X016046Y009798D01*
X015906Y009938D01*
X015906Y010136D01*
X015824Y010218D01*
X015627Y010218D01*
X015617Y010228D01*
X015094Y010228D01*
X015024Y010298D01*
X014628Y010298D01*
X014546Y010216D01*
X014546Y009900D01*
X014550Y009896D01*
X014542Y009889D01*
X014518Y009848D01*
X014506Y009802D01*
X014506Y009748D01*
X014409Y009846D01*
X014410Y009848D01*
X014434Y009889D01*
X014446Y009934D01*
X014446Y010058D01*
X014126Y010058D01*
X013806Y010058D01*
X013806Y009934D01*
X013818Y009889D01*
X013842Y009848D01*
X013850Y009840D01*
X013846Y009836D01*
X013846Y009520D01*
X013928Y009438D01*
X014316Y009438D01*
X014118Y009240D01*
X014089Y009310D01*
X014008Y009391D01*
X013903Y009434D01*
X013789Y009434D01*
X013775Y009428D01*
X013676Y009428D01*
X013676Y009546D01*
X013606Y009616D01*
X013606Y009660D01*
X013656Y009710D01*
X013656Y010106D01*
X013574Y010188D01*
X013258Y010188D01*
X013254Y010184D01*
X013247Y010192D01*
X013206Y010216D01*
X013160Y010228D01*
X013036Y010228D01*
X012912Y010228D01*
X012867Y010216D01*
X012826Y010192D01*
X012792Y010159D01*
X012768Y010118D01*
X012756Y010072D01*
X012756Y009908D01*
X012756Y009744D01*
X012768Y009699D01*
X012792Y009658D01*
X012826Y009624D01*
X012833Y009620D01*
X012812Y009599D01*
X012788Y009558D01*
X012776Y009512D01*
X012776Y009348D01*
X012776Y009184D01*
X012788Y009139D01*
X012801Y009118D01*
X012757Y009106D01*
X012716Y009082D01*
X012682Y009049D01*
X012658Y009008D01*
X012646Y008962D01*
X012646Y008838D01*
X012646Y008714D01*
X012658Y008669D01*
X012682Y008628D01*
X012690Y008620D01*
X012686Y008616D01*
X012686Y008300D01*
X012768Y008218D01*
X013164Y008218D01*
X013194Y008248D01*
X013258Y008248D01*
X013328Y008178D01*
X013496Y008178D01*
X013500Y008174D01*
X013500Y008071D01*
X013544Y007966D01*
X013624Y007886D01*
X013729Y007842D01*
X013843Y007842D01*
X013948Y007886D01*
X014029Y007966D01*
X014072Y008071D01*
X014072Y008185D01*
X014038Y008268D01*
X014128Y008306D01*
X014209Y008386D01*
X014252Y008491D01*
X014252Y008605D01*
X014209Y008710D01*
X014139Y008780D01*
X014509Y009151D01*
X014509Y009121D01*
X014868Y009121D01*
X014868Y009084D01*
X014509Y009084D01*
X014509Y008862D01*
X014522Y008817D01*
X014545Y008776D01*
X014579Y008742D01*
X014582Y008740D01*
X014549Y008708D01*
X014549Y008159D01*
X014562Y008146D01*
X014524Y008131D01*
X014444Y008050D01*
X014400Y007945D01*
X014400Y007831D01*
X014444Y007726D01*
X014524Y007646D01*
X014629Y007602D01*
X011876Y007602D01*
X011876Y007444D02*
X016401Y007444D01*
X016243Y007285D02*
X011958Y007285D01*
X012116Y007127D02*
X016084Y007127D01*
X015926Y006968D02*
X012275Y006968D01*
X012433Y006810D02*
X015767Y006810D01*
X014743Y007602D02*
X014629Y007602D01*
X014429Y007761D02*
X011876Y007761D01*
X011876Y007919D02*
X013591Y007919D01*
X013500Y008078D02*
X011876Y008078D01*
X011876Y008236D02*
X012750Y008236D01*
X012686Y008395D02*
X011876Y008395D01*
X011876Y008553D02*
X012686Y008553D01*
X012647Y008712D02*
X011876Y008712D01*
X011876Y008870D02*
X012646Y008870D01*
X012646Y008838D02*
X012966Y008838D01*
X012646Y008838D01*
X012671Y009029D02*
X011876Y009029D01*
X011876Y009187D02*
X012776Y009187D01*
X012776Y009346D02*
X011876Y009346D01*
X011876Y009504D02*
X012776Y009504D01*
X012776Y009348D02*
X013056Y009348D01*
X012776Y009348D01*
X013056Y009348D02*
X013056Y009348D01*
X012789Y009663D02*
X011876Y009663D01*
X011876Y009821D02*
X012756Y009821D01*
X012756Y009908D02*
X013036Y009908D01*
X013036Y009908D01*
X012756Y009908D01*
X012756Y009980D02*
X011876Y009980D01*
X011876Y010138D02*
X012780Y010138D01*
X013036Y010138D02*
X013036Y010138D01*
X013036Y010228D02*
X013036Y009908D01*
X013036Y010228D01*
X013036Y009980D02*
X013036Y009980D01*
X013036Y009908D02*
X013036Y009908D01*
X013609Y009663D02*
X013846Y009663D01*
X013846Y009821D02*
X013656Y009821D01*
X013656Y009980D02*
X013806Y009980D01*
X013806Y010058D02*
X014126Y010058D01*
X014126Y010058D01*
X014126Y010338D01*
X013962Y010338D01*
X013917Y010326D01*
X013876Y010302D01*
X013842Y010269D01*
X013818Y010228D01*
X013806Y010182D01*
X013806Y010058D01*
X013806Y010138D02*
X013624Y010138D01*
X013870Y010297D02*
X011876Y010297D01*
X011876Y010455D02*
X019186Y010455D01*
X019186Y010454D02*
X019198Y010409D01*
X019222Y010368D01*
X019250Y010340D01*
X019226Y010316D01*
X019226Y009830D01*
X019308Y009748D01*
X019786Y009748D01*
X018336Y008298D01*
X018432Y008395D02*
X016606Y008395D01*
X016599Y008553D02*
X018591Y008553D01*
X018749Y008712D02*
X016606Y008712D01*
X016606Y008870D02*
X018908Y008870D01*
X019066Y009029D02*
X016496Y009029D01*
X016606Y009187D02*
X019225Y009187D01*
X019383Y009346D02*
X016606Y009346D01*
X016598Y009504D02*
X019542Y009504D01*
X019700Y009663D02*
X016606Y009663D01*
X016670Y009821D02*
X019235Y009821D01*
X019226Y009980D02*
X016862Y009980D01*
X016892Y010138D02*
X019226Y010138D01*
X019226Y010297D02*
X016822Y010297D01*
X016390Y010297D02*
X015026Y010297D01*
X014627Y010297D02*
X014382Y010297D01*
X014377Y010302D02*
X014336Y010326D01*
X014290Y010338D01*
X014126Y010338D01*
X014126Y010058D01*
X014126Y010058D01*
X014126Y010058D01*
X014446Y010058D01*
X014446Y010182D01*
X014434Y010228D01*
X014410Y010269D01*
X014377Y010302D01*
X014446Y010138D02*
X014546Y010138D01*
X014546Y009980D02*
X014446Y009980D01*
X014434Y009821D02*
X014511Y009821D01*
X014826Y009678D02*
X015146Y009678D01*
X014826Y009678D01*
X014826Y009678D01*
X015146Y009678D02*
X015146Y009618D01*
X015346Y009618D01*
X015346Y009756D01*
X015378Y009788D01*
X015346Y009820D01*
X015346Y009888D01*
X015110Y009888D01*
X015134Y009848D01*
X015146Y009802D01*
X015146Y009678D01*
X015146Y009663D02*
X015346Y009663D01*
X015346Y009821D02*
X015141Y009821D01*
X015614Y009346D02*
X015716Y009346D01*
X015642Y009187D02*
X015263Y009187D01*
X015263Y009029D02*
X015600Y009029D01*
X015642Y008870D02*
X015263Y008870D01*
X015219Y008712D02*
X015660Y008712D01*
X015684Y008553D02*
X015223Y008553D01*
X015223Y008395D02*
X015697Y008395D01*
X015660Y008236D02*
X015223Y008236D01*
X015142Y008078D02*
X015712Y008078D01*
X016180Y008078D02*
X016346Y008078D01*
X014549Y008236D02*
X014051Y008236D01*
X014072Y008078D02*
X014471Y008078D01*
X014400Y007919D02*
X013982Y007919D01*
X014212Y008395D02*
X014549Y008395D01*
X014549Y008553D02*
X014252Y008553D01*
X014207Y008712D02*
X014553Y008712D01*
X014509Y008870D02*
X014229Y008870D01*
X014387Y009029D02*
X014509Y009029D01*
X014223Y009346D02*
X014053Y009346D01*
X013862Y009504D02*
X013676Y009504D01*
X014126Y010138D02*
X014126Y010138D01*
X014126Y010297D02*
X014126Y010297D01*
X015904Y010138D02*
X016320Y010138D01*
X016347Y009980D02*
X015906Y009980D01*
X016024Y009821D02*
X016046Y009821D01*
X018163Y010772D02*
X019186Y010772D01*
X019186Y010676D02*
X019186Y010872D01*
X019198Y010918D01*
X019222Y010959D01*
X019256Y010992D01*
X019297Y011016D01*
X019342Y011028D01*
X019554Y011028D01*
X019554Y010676D01*
X019579Y010676D01*
X019579Y011028D01*
X019790Y011028D01*
X019822Y011020D01*
X019800Y011071D01*
X019800Y011185D01*
X019844Y011290D01*
X019924Y011371D01*
X020029Y011414D01*
X020143Y011414D01*
X020248Y011371D01*
X020321Y011298D01*
X020552Y011298D01*
X020562Y011288D01*
X020904Y011288D01*
X020986Y011206D01*
X020986Y011173D01*
X021004Y011191D01*
X021109Y011234D01*
X021183Y011234D01*
X021576Y011627D01*
X021576Y012638D01*
X021576Y012357D02*
X020225Y012357D01*
X020290Y012199D02*
X021576Y012199D01*
X021576Y012040D02*
X020317Y012040D01*
X020317Y011882D02*
X021576Y011882D01*
X021576Y011723D02*
X020251Y011723D01*
X020135Y011565D02*
X021514Y011565D01*
X021355Y011406D02*
X020162Y011406D01*
X020010Y011406D02*
X019882Y011406D01*
X019826Y011248D02*
X018157Y011248D01*
X018155Y011406D02*
X019491Y011406D01*
X019237Y011565D02*
X018154Y011565D01*
X018152Y011723D02*
X019121Y011723D01*
X019206Y010931D02*
X018161Y010931D01*
X018159Y011089D02*
X019800Y011089D01*
X019579Y010931D02*
X019554Y010931D01*
X019554Y010772D02*
X019579Y010772D01*
X019554Y010676D02*
X019554Y010651D01*
X019186Y010651D01*
X019186Y010454D01*
X019186Y010614D02*
X018164Y010614D01*
X019186Y010676D02*
X019554Y010676D01*
X019997Y010138D02*
X020306Y010138D01*
X019906Y009980D02*
X025616Y009980D01*
X025616Y009821D02*
X025563Y009821D01*
X025118Y009187D02*
X023307Y009187D01*
X023186Y009029D02*
X023146Y009029D01*
X023146Y008870D02*
X023186Y008870D01*
X023186Y008712D02*
X023146Y008712D01*
X023146Y008553D02*
X023186Y008553D01*
X023186Y008395D02*
X023146Y008395D01*
X023146Y008236D02*
X023186Y008236D01*
X023186Y008078D02*
X023146Y008078D01*
X023146Y007919D02*
X023186Y007919D01*
X023186Y007761D02*
X023146Y007761D01*
X022855Y007761D02*
X022421Y007761D01*
X022415Y007755D02*
X022539Y007879D01*
X022606Y008041D01*
X022606Y008816D01*
X022539Y008977D01*
X022415Y009101D01*
X022254Y009168D01*
X022079Y009168D01*
X021917Y009101D01*
X021793Y008977D01*
X021726Y008816D01*
X021726Y008041D01*
X021793Y007879D01*
X021917Y007755D01*
X022079Y007688D01*
X022254Y007688D01*
X022415Y007755D01*
X022556Y007919D02*
X022734Y007919D01*
X022688Y008078D02*
X022606Y008078D01*
X022606Y008236D02*
X022686Y008236D01*
X022686Y008395D02*
X022606Y008395D01*
X022606Y008553D02*
X022686Y008553D01*
X022686Y008712D02*
X022606Y008712D01*
X022584Y008870D02*
X022708Y008870D01*
X022791Y009029D02*
X022488Y009029D01*
X021844Y009029D02*
X021488Y009029D01*
X021539Y008977D02*
X021415Y009101D01*
X021254Y009168D01*
X021079Y009168D01*
X020917Y009101D01*
X020793Y008977D01*
X020726Y008816D01*
X020726Y008041D01*
X020793Y007879D01*
X020917Y007755D01*
X021079Y007688D01*
X021254Y007688D01*
X021415Y007755D01*
X021539Y007879D01*
X021606Y008041D01*
X021606Y008816D01*
X021539Y008977D01*
X021584Y008870D02*
X021749Y008870D01*
X021726Y008712D02*
X021606Y008712D01*
X021606Y008553D02*
X021726Y008553D01*
X021726Y008395D02*
X021606Y008395D01*
X021606Y008236D02*
X021726Y008236D01*
X021726Y008078D02*
X021606Y008078D01*
X021556Y007919D02*
X021776Y007919D01*
X021911Y007761D02*
X021421Y007761D01*
X020911Y007761D02*
X020421Y007761D01*
X020556Y007919D02*
X020776Y007919D01*
X020726Y008078D02*
X020606Y008078D01*
X020606Y008236D02*
X020726Y008236D01*
X020726Y008395D02*
X020606Y008395D01*
X020606Y008553D02*
X020726Y008553D01*
X020726Y008712D02*
X020606Y008712D01*
X020584Y008870D02*
X020749Y008870D01*
X020844Y009029D02*
X020488Y009029D01*
X021354Y010138D02*
X021386Y010138D01*
X021197Y011248D02*
X020945Y011248D01*
X021956Y012516D02*
X022374Y012516D01*
X021166Y012991D02*
X020968Y012991D01*
X020930Y013158D02*
X020976Y013170D01*
X021017Y013194D01*
X021050Y013228D01*
X021074Y013269D01*
X021086Y013314D01*
X021086Y013438D01*
X020766Y013438D01*
X020766Y013158D01*
X020930Y013158D01*
X021084Y013308D02*
X021166Y013308D01*
X021166Y013150D02*
X018136Y013150D01*
X018134Y013308D02*
X020448Y013308D01*
X020446Y013467D02*
X018132Y013467D01*
X018130Y013625D02*
X020469Y013625D01*
X020246Y013658D02*
X020246Y013938D01*
X020246Y013938D01*
X020246Y013938D01*
X020026Y013938D01*
X019706Y013938D01*
X019706Y013658D01*
X019870Y013658D01*
X019916Y013670D01*
X019957Y013694D01*
X019976Y013714D01*
X019996Y013694D01*
X020037Y013670D01*
X020082Y013658D01*
X020246Y013658D01*
X020246Y013784D02*
X020246Y013784D01*
X019706Y013784D02*
X019706Y013784D01*
X019706Y013938D02*
X019706Y013938D01*
X019386Y013942D02*
X019361Y013942D01*
X019394Y013784D02*
X018128Y013784D01*
X018137Y012991D02*
X020525Y012991D01*
X020460Y012833D02*
X018139Y012833D01*
X018141Y012674D02*
X020492Y012674D01*
X020766Y013308D02*
X020766Y013308D01*
X020766Y013438D02*
X020766Y013438D01*
X021086Y013467D02*
X021217Y013467D01*
X021161Y013625D02*
X021064Y013625D01*
X021046Y013784D02*
X021146Y013784D01*
X021146Y013942D02*
X021046Y013942D01*
X021019Y014101D02*
X021106Y014101D01*
X024126Y016158D02*
X024296Y016158D01*
X024296Y016158D01*
X024126Y016158D01*
X024126Y016158D01*
X024406Y016518D02*
X024406Y016696D01*
X024324Y016778D01*
X023928Y016778D01*
X023914Y016764D01*
X023901Y016778D01*
X024024Y016778D01*
X024106Y016860D01*
X024106Y017176D01*
X024074Y017208D01*
X024106Y017240D01*
X024106Y017428D01*
X024234Y017300D01*
X024164Y017230D01*
X024120Y017125D01*
X024120Y017011D01*
X024164Y016906D01*
X024244Y016826D01*
X024349Y016782D01*
X024406Y016782D01*
X024406Y016678D01*
X024406Y016554D01*
X024416Y016518D01*
X024406Y016518D01*
X024406Y016637D02*
X024406Y016637D01*
X024406Y016678D02*
X024726Y016678D01*
X024726Y016678D01*
X024406Y016678D01*
X024318Y016795D02*
X024041Y016795D01*
X024106Y016954D02*
X024144Y016954D01*
X024120Y017112D02*
X024106Y017112D01*
X024106Y017271D02*
X024204Y017271D01*
X024576Y017303D02*
X024576Y017438D01*
X024216Y017798D01*
X024117Y017898D01*
X022857Y017898D01*
X022596Y018158D01*
X022596Y018354D01*
X022624Y018326D01*
X022729Y018282D01*
X022843Y018282D01*
X022948Y018326D01*
X023011Y018388D01*
X023082Y018388D01*
X023058Y018348D01*
X023046Y018302D01*
X023046Y018178D01*
X023046Y018054D01*
X023058Y018009D01*
X023082Y017968D01*
X023116Y017934D01*
X023157Y017910D01*
X023202Y017898D01*
X023366Y017898D01*
X023366Y018178D01*
X023046Y018178D01*
X023366Y018178D01*
X023366Y018178D01*
X023366Y018178D01*
X023366Y017898D01*
X023530Y017898D01*
X023576Y017910D01*
X023617Y017934D01*
X023650Y017968D01*
X023674Y018009D01*
X023686Y018054D01*
X023686Y018178D01*
X023366Y018178D01*
X023366Y018178D01*
X023686Y018178D01*
X023686Y018302D01*
X023674Y018348D01*
X023650Y018389D01*
X023642Y018396D01*
X023646Y018400D01*
X023646Y018716D01*
X023564Y018798D01*
X023168Y018798D01*
X023098Y018728D01*
X023029Y018728D01*
X023029Y018730D01*
X023011Y018748D01*
X023029Y018766D01*
X023072Y018871D01*
X023072Y018985D01*
X023029Y019090D01*
X022981Y019138D01*
X023021Y019178D01*
X023068Y019178D01*
X023148Y019098D01*
X023544Y019098D01*
X023626Y019180D01*
X023626Y019496D01*
X023622Y019500D01*
X023630Y019508D01*
X023654Y019549D01*
X023666Y019594D01*
X023666Y019718D01*
X023346Y019718D01*
X023026Y019718D01*
X023026Y019594D01*
X023038Y019549D01*
X023056Y019518D01*
X023021Y019518D01*
X022948Y019591D01*
X022843Y019634D01*
X022729Y019634D01*
X022716Y019629D01*
X022716Y019938D01*
X022977Y020198D01*
X023376Y020198D01*
X023456Y020118D01*
X023456Y019998D01*
X023346Y019998D01*
X023182Y019998D01*
X023137Y019986D01*
X023096Y019962D01*
X023062Y019929D01*
X023038Y019888D01*
X023026Y019842D01*
X023026Y019718D01*
X023346Y019718D01*
X023346Y019718D01*
X023346Y019998D01*
X023346Y019718D01*
X023346Y019718D01*
X023346Y019718D01*
X023666Y019718D01*
X023666Y019728D01*
X024116Y019278D01*
X024216Y019178D01*
X026016Y019178D01*
X026280Y018914D01*
X026280Y018811D01*
X026310Y018738D01*
X024761Y018738D01*
X024688Y018811D01*
X024583Y018854D01*
X024469Y018854D01*
X024364Y018811D01*
X024284Y018730D01*
X024240Y018625D01*
X024240Y018511D01*
X024284Y018406D01*
X024364Y018326D01*
X024469Y018282D01*
X024583Y018282D01*
X024660Y018314D01*
X024660Y018211D01*
X024704Y018106D01*
X024784Y018026D01*
X024889Y017982D01*
X025003Y017982D01*
X025108Y018026D01*
X025181Y018098D01*
X025197Y018098D01*
X025377Y018278D01*
X026931Y018278D01*
X026756Y018103D01*
X026756Y017713D01*
X027031Y017438D01*
X027421Y017438D01*
X027696Y017713D01*
X027696Y017738D01*
X030056Y017738D01*
X029396Y017078D01*
X027696Y017078D01*
X027696Y017103D01*
X027421Y017378D01*
X027031Y017378D01*
X026756Y017103D01*
X026756Y016713D01*
X026831Y016638D01*
X025476Y016638D01*
X025376Y016538D01*
X025006Y016168D01*
X025006Y016456D01*
X025002Y016460D01*
X025010Y016468D01*
X025034Y016509D01*
X025046Y016554D01*
X025046Y016678D01*
X024726Y016678D01*
X024726Y016958D01*
X024670Y016958D01*
X024692Y017011D01*
X024692Y017125D01*
X024649Y017230D01*
X024576Y017303D01*
X024608Y017271D02*
X026924Y017271D01*
X026765Y017112D02*
X024692Y017112D01*
X024726Y016958D02*
X024726Y016678D01*
X024726Y016678D01*
X024726Y016678D01*
X025046Y016678D01*
X025046Y016802D01*
X025034Y016848D01*
X025010Y016889D01*
X024977Y016922D01*
X024936Y016946D01*
X024890Y016958D01*
X024726Y016958D01*
X024726Y016954D02*
X024726Y016954D01*
X024726Y016795D02*
X024726Y016795D01*
X024907Y016954D02*
X026756Y016954D01*
X026756Y016795D02*
X025046Y016795D01*
X025046Y016637D02*
X025474Y016637D01*
X025316Y016478D02*
X025016Y016478D01*
X025006Y016320D02*
X025157Y016320D01*
X024576Y017429D02*
X029747Y017429D01*
X029905Y017588D02*
X027570Y017588D01*
X027528Y017271D02*
X029588Y017271D01*
X029430Y017112D02*
X027687Y017112D01*
X026882Y017588D02*
X024427Y017588D01*
X024269Y017746D02*
X026756Y017746D01*
X026756Y017905D02*
X023554Y017905D01*
X023366Y017905D02*
X023366Y017905D01*
X023366Y018063D02*
X023366Y018063D01*
X023178Y017905D02*
X022850Y017905D01*
X022692Y018063D02*
X023046Y018063D01*
X023046Y018222D02*
X022596Y018222D01*
X023003Y018380D02*
X023077Y018380D01*
X023066Y018856D02*
X026280Y018856D01*
X026180Y019014D02*
X023060Y019014D01*
X023074Y019173D02*
X023015Y019173D01*
X023026Y019648D02*
X022716Y019648D01*
X022716Y019807D02*
X023026Y019807D01*
X023101Y019965D02*
X022744Y019965D01*
X022902Y020124D02*
X023450Y020124D01*
X023346Y019965D02*
X023346Y019965D01*
X023346Y019807D02*
X023346Y019807D01*
X023666Y019648D02*
X023746Y019648D01*
X023626Y019490D02*
X023904Y019490D01*
X024063Y019331D02*
X023626Y019331D01*
X023619Y019173D02*
X026021Y019173D01*
X026185Y019490D02*
X026576Y019490D01*
X026576Y019648D02*
X024227Y019648D01*
X024068Y019807D02*
X026576Y019807D01*
X026576Y019965D02*
X023910Y019965D01*
X023796Y020124D02*
X026576Y020124D01*
X026720Y020282D02*
X023773Y020282D01*
X023614Y020441D02*
X026878Y020441D01*
X026870Y020599D02*
X022596Y020599D01*
X022596Y020441D02*
X022738Y020441D01*
X022596Y020758D02*
X024856Y020758D01*
X024698Y020916D02*
X022596Y020916D01*
X022596Y021075D02*
X024539Y021075D01*
X024381Y021233D02*
X022736Y021233D01*
X022832Y021392D02*
X024222Y021392D01*
X024064Y021550D02*
X022813Y021550D01*
X023588Y022026D02*
X018106Y022026D01*
X018796Y023294D02*
X026580Y023294D01*
X026744Y023611D02*
X026756Y023611D01*
X027469Y024086D02*
X027564Y024086D01*
X026756Y022501D02*
X023594Y022501D01*
X023752Y022343D02*
X026756Y022343D01*
X026162Y022184D02*
X023911Y022184D01*
X024069Y022026D02*
X026003Y022026D01*
X025845Y021867D02*
X025112Y021867D01*
X024661Y021867D02*
X024228Y021867D01*
X024386Y021709D02*
X024600Y021709D01*
X024634Y021550D02*
X024545Y021550D01*
X024703Y021392D02*
X024905Y021392D01*
X026344Y019331D02*
X026576Y019331D01*
X026502Y019173D02*
X026721Y019173D01*
X026875Y018222D02*
X025320Y018222D01*
X025146Y018063D02*
X026756Y018063D01*
X024747Y018063D02*
X023686Y018063D01*
X023686Y018222D02*
X024660Y018222D01*
X024310Y018380D02*
X023655Y018380D01*
X023646Y018539D02*
X024240Y018539D01*
X024270Y018697D02*
X023646Y018697D01*
X027736Y014735D02*
X031937Y014735D01*
X025166Y009029D02*
X023541Y009029D01*
X023625Y008870D02*
X025350Y008870D01*
X025502Y008870D02*
X025508Y008870D01*
X025349Y008712D02*
X023646Y008712D01*
X023646Y008553D02*
X024487Y008553D01*
X024420Y008395D02*
X023646Y008395D01*
X023646Y008236D02*
X024451Y008236D01*
X024716Y008078D02*
X023644Y008078D01*
X023598Y007919D02*
X024716Y007919D01*
X024716Y007761D02*
X023477Y007761D01*
X024926Y008553D02*
X024951Y008553D01*
X016674Y012516D02*
X010231Y012516D01*
X009461Y012516D02*
X009354Y012516D01*
X009355Y012674D02*
X016620Y012674D01*
X016656Y012833D02*
X009355Y012833D01*
X007606Y010455D02*
X011496Y010455D01*
X011496Y010297D02*
X007606Y010297D01*
X007606Y010138D02*
X011496Y010138D01*
X011496Y009980D02*
X007606Y009980D01*
X007606Y009821D02*
X011496Y009821D01*
X011496Y009663D02*
X007606Y009663D01*
X007606Y009504D02*
X011496Y009504D01*
X011496Y009346D02*
X007606Y009346D01*
X007606Y009187D02*
X011496Y009187D01*
X011496Y009029D02*
X007606Y009029D01*
X007606Y008870D02*
X011496Y008870D01*
X011496Y008712D02*
X007606Y008712D01*
X007606Y008553D02*
X011496Y008553D01*
X011496Y008395D02*
X007606Y008395D01*
X007606Y008236D02*
X011496Y008236D01*
X011496Y008078D02*
X007606Y008078D01*
X007606Y007919D02*
X011496Y007919D01*
X011496Y007761D02*
X007606Y007761D01*
X007606Y007602D02*
X011496Y007602D01*
X011496Y007444D02*
X007606Y007444D01*
X007606Y007285D02*
X011496Y007285D01*
X011579Y007127D02*
X007606Y007127D01*
X007606Y006968D02*
X011737Y006968D01*
X011896Y006810D02*
X007606Y006810D01*
X007606Y006651D02*
X012054Y006651D01*
X012213Y006493D02*
X007606Y006493D01*
X007606Y006334D02*
X011462Y006334D01*
X011446Y006176D02*
X007606Y006176D01*
X007606Y006017D02*
X011451Y006017D01*
X011486Y005859D02*
X007606Y005859D01*
X007606Y005700D02*
X011486Y005700D01*
X011556Y005542D02*
X007606Y005542D01*
X007606Y005383D02*
X011556Y005383D01*
X011556Y005225D02*
X007606Y005225D01*
X007606Y005066D02*
X011556Y005066D01*
X011698Y004908D02*
X007606Y004908D01*
X007606Y004749D02*
X011856Y004749D01*
X012015Y004591D02*
X007606Y004591D01*
X007606Y004432D02*
X013241Y004432D01*
X012947Y004274D02*
X007606Y004274D01*
X007606Y004115D02*
X012900Y004115D01*
X012939Y003957D02*
X007606Y003957D01*
X007606Y003798D02*
X047806Y003798D01*
X047806Y003640D02*
X007606Y003640D01*
X011756Y005788D02*
X011766Y005778D01*
X012276Y005778D01*
X012346Y005848D01*
X012111Y006017D02*
X012082Y006017D01*
X012086Y006158D02*
X012086Y006282D01*
X012074Y006328D01*
X012050Y006369D01*
X012017Y006402D01*
X011976Y006426D01*
X011930Y006438D01*
X011766Y006438D01*
X011766Y006158D01*
X012086Y006158D01*
X012086Y006176D02*
X012456Y006176D01*
X012371Y006334D02*
X012070Y006334D01*
X011766Y006334D02*
X011766Y006334D01*
X011766Y006176D02*
X011766Y006176D01*
X013472Y004115D02*
X047806Y004115D01*
X047806Y003957D02*
X013433Y003957D01*
X013270Y008236D02*
X013182Y008236D01*
X012966Y008838D02*
X012966Y008838D01*
X009835Y020599D02*
X009680Y020599D01*
X009680Y020758D02*
X009835Y020758D01*
X009835Y020916D02*
X009680Y020916D01*
X009680Y021075D02*
X009835Y021075D01*
X008732Y021392D02*
X008577Y021392D01*
X008577Y021550D02*
X008732Y021550D01*
X008732Y021709D02*
X008577Y021709D01*
X008577Y021867D02*
X008732Y021867D01*
X008160Y021075D02*
X007606Y021075D01*
X007606Y020916D02*
X008160Y020916D01*
X008160Y020758D02*
X007606Y020758D01*
X012855Y024388D02*
X013041Y024388D01*
X013041Y024233D01*
X013041Y024202D01*
X012855Y024388D01*
X012998Y024245D02*
X013041Y024245D01*
X013041Y024233D02*
X013290Y024233D01*
X013041Y024233D01*
X013290Y024233D02*
X013290Y024233D01*
X013042Y024720D02*
X012523Y024720D01*
X013761Y025354D02*
X014146Y025354D01*
X014146Y025868D02*
X013763Y025868D01*
X013772Y025891D01*
X013772Y025923D01*
X014042Y026193D01*
X014146Y026193D01*
X014146Y025868D01*
X014146Y025988D02*
X013837Y025988D01*
X013996Y026147D02*
X014146Y026147D01*
X013951Y026413D02*
X013486Y025948D01*
X013389Y026217D02*
X013389Y026964D01*
X012226Y026964D01*
X012226Y027088D01*
X014146Y027088D01*
X014146Y026633D01*
X013860Y026633D01*
X013461Y026234D01*
X013429Y026234D01*
X013389Y026217D01*
X013389Y026305D02*
X013532Y026305D01*
X013389Y026464D02*
X013691Y026464D01*
X013849Y026622D02*
X013389Y026622D01*
X013389Y026781D02*
X014146Y026781D01*
X014146Y026939D02*
X013389Y026939D01*
X013951Y026413D02*
X015446Y026413D01*
X015786Y026375D02*
X015786Y026656D01*
X015762Y026680D01*
X015790Y026708D01*
X015814Y026749D01*
X015826Y026794D01*
X015826Y026991D01*
X015459Y026991D01*
X015459Y027016D01*
X015826Y027016D01*
X015826Y027088D01*
X016076Y027088D01*
X015925Y026937D01*
X015925Y026566D01*
X015838Y026479D01*
X015838Y026375D01*
X015786Y026375D01*
X015786Y026464D02*
X015838Y026464D01*
X015786Y026622D02*
X015925Y026622D01*
X015925Y026781D02*
X015822Y026781D01*
X015826Y026939D02*
X015927Y026939D01*
X016145Y026846D02*
X016467Y027167D01*
X016145Y026846D02*
X016145Y026382D01*
X015446Y027003D02*
X015291Y026848D01*
X014926Y026848D01*
X015066Y026794D02*
X015078Y026749D01*
X015102Y026708D01*
X015130Y026680D01*
X015106Y026656D01*
X015106Y026633D01*
X014446Y026633D01*
X014446Y027088D01*
X015066Y027088D01*
X015066Y027016D01*
X015434Y027016D01*
X015434Y026991D01*
X015066Y026991D01*
X015066Y026794D01*
X015070Y026781D02*
X014446Y026781D01*
X014446Y026939D02*
X015066Y026939D01*
X045396Y023769D02*
X047806Y023769D01*
X047806Y023611D02*
X045396Y023611D01*
X045396Y023452D02*
X047806Y023452D01*
X047806Y023294D02*
X045396Y023294D01*
X045396Y023135D02*
X047806Y023135D01*
X047806Y022977D02*
X046422Y022977D01*
X046421Y022978D02*
X046031Y022978D01*
X045756Y022703D01*
X045756Y022313D01*
X046031Y022038D01*
X046421Y022038D01*
X046696Y022313D01*
X046696Y022703D01*
X046421Y022978D01*
X046581Y022818D02*
X047806Y022818D01*
X047806Y022660D02*
X046696Y022660D01*
X046696Y022501D02*
X047806Y022501D01*
X047806Y022343D02*
X046696Y022343D01*
X046567Y022184D02*
X047806Y022184D01*
X047806Y022026D02*
X045396Y022026D01*
X045396Y022184D02*
X045885Y022184D01*
X045756Y022343D02*
X045396Y022343D01*
X045396Y022501D02*
X045756Y022501D01*
X045756Y022660D02*
X045396Y022660D01*
X045396Y022818D02*
X045871Y022818D01*
X046030Y022977D02*
X045396Y022977D01*
X046015Y022018D02*
X045716Y021719D01*
X045716Y021526D01*
X046208Y021526D01*
X046208Y021490D01*
X045716Y021490D01*
X045716Y021297D01*
X046005Y021008D01*
X045716Y020719D01*
X045716Y020526D01*
X046208Y020526D01*
X046208Y020490D01*
X045716Y020490D01*
X045716Y020297D01*
X046015Y019998D01*
X046208Y019998D01*
X046208Y020490D01*
X046245Y020490D01*
X046245Y020526D01*
X046736Y020526D01*
X046736Y020719D01*
X046447Y021008D01*
X046736Y021297D01*
X046736Y021490D01*
X046245Y021490D01*
X046245Y021526D01*
X046736Y021526D01*
X046736Y021719D01*
X046437Y022018D01*
X046245Y022018D01*
X046245Y021527D01*
X046208Y021527D01*
X046208Y022018D01*
X046015Y022018D01*
X045864Y021867D02*
X045396Y021867D01*
X045396Y021709D02*
X045716Y021709D01*
X045716Y021550D02*
X045396Y021550D01*
X045396Y021392D02*
X045716Y021392D01*
X045780Y021233D02*
X045396Y021233D01*
X045396Y021075D02*
X045938Y021075D01*
X045913Y020916D02*
X045396Y020916D01*
X045396Y020758D02*
X045754Y020758D01*
X045716Y020599D02*
X045396Y020599D01*
X045396Y020441D02*
X045716Y020441D01*
X045731Y020282D02*
X045396Y020282D01*
X045396Y020124D02*
X045889Y020124D01*
X046031Y019978D02*
X045756Y019703D01*
X045756Y019313D01*
X046031Y019038D01*
X046421Y019038D01*
X046696Y019313D01*
X046696Y019703D01*
X046421Y019978D01*
X046031Y019978D01*
X046018Y019965D02*
X045396Y019965D01*
X045396Y019807D02*
X045860Y019807D01*
X045756Y019648D02*
X045396Y019648D01*
X045445Y019490D02*
X045756Y019490D01*
X045756Y019331D02*
X045604Y019331D01*
X045762Y019173D02*
X045897Y019173D01*
X045921Y019014D02*
X047806Y019014D01*
X047806Y018856D02*
X046543Y018856D01*
X046696Y018697D02*
X047806Y018697D01*
X047806Y018539D02*
X046696Y018539D01*
X046696Y018380D02*
X047806Y018380D01*
X047806Y018222D02*
X046604Y018222D01*
X046446Y018063D02*
X047806Y018063D01*
X047806Y017905D02*
X046494Y017905D01*
X046653Y017746D02*
X047806Y017746D01*
X047806Y017588D02*
X046696Y017588D01*
X046696Y017429D02*
X047806Y017429D01*
X047806Y017271D02*
X046653Y017271D01*
X046495Y017112D02*
X047806Y017112D01*
X047806Y016954D02*
X046445Y016954D01*
X046604Y016795D02*
X047806Y016795D01*
X047806Y016637D02*
X046696Y016637D01*
X046696Y016478D02*
X047806Y016478D01*
X047806Y016320D02*
X046696Y016320D01*
X046555Y019173D02*
X047806Y019173D01*
X047806Y019331D02*
X046696Y019331D01*
X046696Y019490D02*
X047806Y019490D01*
X047806Y019648D02*
X046696Y019648D01*
X046592Y019807D02*
X047806Y019807D01*
X047806Y019965D02*
X046434Y019965D01*
X046437Y019998D02*
X046736Y020297D01*
X046736Y020490D01*
X046245Y020490D01*
X046245Y019998D01*
X046437Y019998D01*
X046563Y020124D02*
X047806Y020124D01*
X047806Y020282D02*
X046721Y020282D01*
X046736Y020441D02*
X047806Y020441D01*
X047806Y020599D02*
X046736Y020599D01*
X046698Y020758D02*
X047806Y020758D01*
X047806Y020916D02*
X046539Y020916D01*
X046514Y021075D02*
X047806Y021075D01*
X047806Y021233D02*
X046672Y021233D01*
X046736Y021392D02*
X047806Y021392D01*
X047806Y021550D02*
X046736Y021550D01*
X046736Y021709D02*
X047806Y021709D01*
X047806Y021867D02*
X046588Y021867D01*
X046245Y021867D02*
X046208Y021867D01*
X046208Y021709D02*
X046245Y021709D01*
X046245Y021550D02*
X046208Y021550D01*
X046208Y021490D02*
X046245Y021490D01*
X046245Y020527D01*
X046208Y020527D01*
X046208Y020998D01*
X046208Y021490D01*
X046208Y021392D02*
X046245Y021392D01*
X046245Y021233D02*
X046208Y021233D01*
X046208Y021075D02*
X046245Y021075D01*
X046245Y020916D02*
X046208Y020916D01*
X046208Y020758D02*
X046245Y020758D01*
X046245Y020599D02*
X046208Y020599D01*
X046208Y020441D02*
X046245Y020441D01*
X046245Y020282D02*
X046208Y020282D01*
X046208Y020124D02*
X046245Y020124D01*
D31*
X025426Y009148D02*
X025066Y009508D01*
X020026Y009508D01*
X018466Y007948D01*
X017566Y007948D01*
X014566Y004948D01*
X012466Y004948D01*
X012286Y005128D01*
X012286Y005368D01*
X012646Y005728D01*
X012646Y006328D01*
X011686Y007288D01*
X011686Y011128D01*
X012226Y008848D02*
X012236Y008838D01*
X012966Y008838D01*
X014886Y008433D02*
X014886Y008088D01*
X014686Y007888D01*
X015706Y005848D02*
X014626Y004768D01*
X012106Y004768D01*
X011746Y005128D01*
X011746Y005758D01*
X011766Y005778D01*
X013186Y004108D02*
X013666Y004588D01*
X014926Y004588D01*
X015706Y005848D02*
X022666Y005848D01*
X022686Y010313D02*
X023111Y010313D01*
X023146Y010348D01*
X022186Y010348D02*
X022151Y010313D01*
X021726Y010313D01*
X021106Y010288D02*
X020731Y010288D01*
X020646Y010373D01*
X021166Y010948D02*
X021766Y011548D01*
X021766Y012988D01*
X022016Y013238D01*
X022046Y013238D01*
X022026Y013258D01*
X021446Y013258D01*
X021426Y013278D01*
X021426Y013798D01*
X021786Y015662D02*
X021886Y015762D01*
X021886Y016802D01*
X021826Y016862D01*
X014546Y022858D02*
X014526Y022878D01*
X013886Y022878D01*
X013886Y023258D02*
X013546Y023258D01*
X013486Y023318D01*
X013486Y024028D01*
X013306Y023848D01*
X013126Y023848D01*
X012346Y024628D01*
X012096Y024628D01*
X011966Y024758D01*
X011331Y024758D01*
X011246Y024843D01*
X011246Y024253D02*
X011841Y024253D01*
X011966Y024378D01*
X013290Y024233D02*
X013306Y024249D01*
X013306Y024508D01*
X013546Y024748D01*
X013546Y024903D01*
X013546Y025408D01*
X013726Y025588D01*
X013666Y025648D01*
X013802Y024903D02*
X014447Y024258D01*
X014486Y024258D01*
X014486Y023878D02*
X015086Y023878D01*
X015126Y023838D01*
X015746Y023838D01*
X015746Y024218D02*
X015126Y024218D01*
X015126Y023838D02*
X015106Y023818D01*
X015746Y024218D02*
X015786Y024258D01*
X016346Y024258D01*
X016546Y024458D01*
X016546Y024988D01*
X016906Y024928D02*
X017266Y025288D01*
X017266Y025554D01*
X017307Y025594D01*
X017307Y025791D01*
X017307Y026185D02*
X017304Y026188D01*
X016966Y026188D01*
X016766Y025988D01*
X016726Y025988D01*
X016145Y025791D02*
X015669Y025791D01*
X015466Y025588D01*
X015426Y025603D02*
X015614Y025791D01*
X016145Y025791D01*
X016145Y026185D02*
X015674Y026185D01*
X015446Y026413D01*
X014886Y027898D02*
X013000Y027898D01*
X012146Y027044D01*
X014306Y028938D02*
X014886Y028938D01*
X014886Y028918D01*
X014886Y028278D01*
X014886Y029298D02*
X014326Y029298D01*
X014306Y029318D01*
X014306Y029853D01*
X014641Y030188D01*
X014806Y029608D02*
X014886Y029528D01*
X014886Y029298D01*
X016906Y024928D02*
X016906Y024088D01*
X017096Y023898D01*
X017166Y023898D01*
X017146Y023878D01*
X016346Y023878D01*
X013802Y024233D02*
X013546Y024233D01*
X013486Y024173D01*
X013486Y024028D01*
X013436Y023258D02*
X013126Y022948D01*
X013436Y023258D02*
X013546Y023258D01*
D32*
X013126Y022948D03*
X014626Y022048D03*
X013066Y021028D03*
X012646Y020608D03*
X012226Y020188D03*
X013066Y020188D03*
X013786Y019408D03*
X012226Y021028D03*
X016066Y023428D03*
X016546Y024988D03*
X015946Y025288D03*
X014746Y025288D03*
X013486Y025948D03*
X012466Y025348D03*
X010786Y025588D03*
X014926Y026848D03*
X016467Y027167D03*
X014806Y029608D03*
X017806Y024628D03*
X018586Y023488D03*
X022546Y021448D03*
X022966Y022408D03*
X024886Y021688D03*
X025126Y021208D03*
X023326Y020128D03*
X022786Y019348D03*
X022786Y018928D03*
X022786Y018568D03*
X024526Y018568D03*
X024946Y018268D03*
X026566Y018868D03*
X024406Y017068D03*
X023686Y016588D03*
X023686Y016228D03*
X022786Y016168D03*
X022786Y015808D03*
X022786Y015388D03*
X022786Y014968D03*
X023686Y015388D03*
X024046Y015208D03*
X023806Y014848D03*
X023806Y014428D03*
X023206Y013888D03*
X022606Y013828D03*
X022546Y012748D03*
X023386Y011608D03*
X022186Y010888D03*
X022186Y010348D03*
X023146Y010348D03*
X021106Y010288D03*
X021166Y010948D03*
X020086Y011128D03*
X020086Y010468D03*
X017446Y010888D03*
X016606Y010108D03*
X015226Y009688D03*
X015886Y009028D03*
X015946Y008668D03*
X015946Y008248D03*
X016846Y007648D03*
X014686Y007888D03*
X013786Y008128D03*
X013966Y008548D03*
X013846Y009148D03*
X012226Y008848D03*
X012106Y006448D03*
X012346Y005848D03*
X012586Y005248D03*
X013186Y004108D03*
X014926Y004588D03*
X017506Y005368D03*
X021406Y005188D03*
X022666Y005848D03*
X022246Y006448D03*
X023926Y005368D03*
X024406Y004888D03*
X024826Y004888D03*
X026446Y005368D03*
X025426Y006628D03*
X025426Y007048D03*
X025186Y007948D03*
X024706Y008368D03*
X025426Y009148D03*
X025426Y009568D03*
X026146Y012028D03*
X026686Y012328D03*
X025666Y013408D03*
X025786Y014308D03*
X026146Y015328D03*
X025906Y015748D03*
X022726Y016648D03*
X022726Y017008D03*
X020806Y016828D03*
X020806Y016468D03*
X020806Y016108D03*
X020806Y015748D03*
X020806Y015208D03*
X020806Y014668D03*
X020746Y014188D03*
X019846Y014668D03*
X019846Y015388D03*
X018826Y015808D03*
X018526Y016228D03*
X019366Y016888D03*
X019306Y017428D03*
X019426Y017908D03*
X020806Y017908D03*
X020806Y017548D03*
X020806Y017188D03*
X020746Y018388D03*
X020806Y018748D03*
X019846Y019228D03*
X018946Y019708D03*
X017746Y018928D03*
X017686Y018568D03*
X017806Y018208D03*
X017206Y018808D03*
X016546Y019348D03*
X013006Y017188D03*
X012586Y016768D03*
X012166Y016348D03*
X013006Y016348D03*
X012166Y017188D03*
X013726Y015508D03*
X014986Y014188D03*
X016906Y014548D03*
X016606Y016288D03*
X012946Y013288D03*
X012526Y012868D03*
X012106Y012448D03*
X012106Y013288D03*
X012946Y012448D03*
X013666Y011668D03*
X016906Y012688D03*
X020746Y012808D03*
X028126Y005788D03*
X033226Y016588D03*
X033886Y016828D03*
X031006Y017848D03*
X030706Y016948D03*
X026026Y024628D03*
X040606Y024808D03*
D33*
X039226Y023428D01*
X027886Y023428D01*
X027526Y023068D01*
X027046Y023068D01*
X026626Y023488D01*
X018586Y023488D01*
X016066Y023428D02*
X015746Y023748D01*
X015746Y023838D01*
X014626Y022048D02*
X014626Y019708D01*
X014746Y019588D01*
X018046Y019588D01*
X018286Y019348D01*
X018286Y016468D01*
X018526Y016228D01*
X018586Y015928D02*
X019006Y016348D01*
X019536Y016348D01*
X019586Y016298D01*
X019576Y016288D01*
X019586Y016298D02*
X019836Y016298D01*
X020026Y016108D01*
X020806Y016108D01*
X020746Y015808D02*
X020806Y015748D01*
X020746Y015808D02*
X019846Y015808D01*
X019736Y015918D01*
X019586Y015918D01*
X020026Y015568D02*
X020626Y015568D01*
X020686Y015508D01*
X021046Y015508D01*
X021136Y015418D01*
X021136Y015088D01*
X021206Y015158D01*
X021282Y015158D01*
X021786Y015662D01*
X022126Y015748D02*
X022186Y015808D01*
X022376Y015808D01*
X022386Y015798D01*
X022126Y015748D02*
X022126Y015028D01*
X022556Y014598D01*
X022586Y014598D01*
X022846Y014368D02*
X022696Y014218D01*
X022586Y014218D01*
X022226Y014578D01*
X022046Y014578D01*
X021936Y014308D02*
X022046Y014198D01*
X021646Y013798D01*
X021426Y013798D01*
X021826Y014308D02*
X021936Y014308D01*
X021826Y014308D02*
X021646Y014488D01*
X021646Y014814D01*
X021786Y014954D01*
X021646Y014488D02*
X021106Y014488D01*
X021046Y014428D01*
X020626Y014428D01*
X020506Y014548D01*
X020506Y014908D01*
X020806Y015208D01*
X021196Y015148D02*
X021206Y015158D01*
X021206Y014778D02*
X021096Y014668D01*
X020806Y014668D01*
X020746Y014188D02*
X020746Y013838D01*
X020766Y013818D01*
X020246Y014318D02*
X019706Y014318D01*
X019496Y014318D01*
X019246Y014068D01*
X018106Y014068D01*
X017746Y013708D01*
X017746Y011188D01*
X017446Y010888D01*
X017266Y011668D02*
X017566Y011968D01*
X017566Y017968D01*
X017806Y018208D01*
X017446Y018328D02*
X017686Y018568D01*
X017446Y018328D02*
X017446Y013228D01*
X016906Y012688D01*
X017266Y011668D02*
X013666Y011668D01*
X014126Y010058D02*
X014256Y010058D01*
X014626Y009688D01*
X014876Y009688D01*
X014866Y009678D01*
X014826Y009678D01*
X014876Y009628D01*
X015166Y009628D01*
X015226Y009688D01*
X015476Y009448D02*
X015626Y009598D01*
X015476Y009448D02*
X014566Y009448D01*
X013966Y008848D01*
X013966Y008548D01*
X013786Y008128D02*
X013526Y008388D01*
X013526Y008418D01*
X013006Y008418D01*
X012966Y008458D01*
X012966Y008838D02*
X012966Y009258D01*
X013056Y009348D01*
X013056Y009888D01*
X013036Y009908D01*
X013036Y010018D01*
X013416Y009908D02*
X013436Y009888D01*
X013436Y009348D01*
X013526Y009258D01*
X013736Y009258D01*
X013846Y009148D01*
X013526Y009258D02*
X013526Y008798D01*
X014336Y009678D02*
X014566Y009448D01*
X014336Y009678D02*
X014126Y009678D01*
X014826Y010058D02*
X015546Y010058D01*
X015626Y009978D01*
X015886Y009718D01*
X015886Y009028D01*
X015996Y008718D02*
X015946Y008668D01*
X015996Y008718D02*
X016326Y008718D01*
X016326Y009338D01*
X016326Y009718D02*
X016606Y009998D01*
X016606Y010108D01*
X016326Y008338D02*
X016036Y008338D01*
X015946Y008248D01*
X016326Y008338D02*
X016536Y008128D01*
X018406Y008128D01*
X019966Y009688D01*
X025306Y009688D01*
X025426Y009568D01*
X025786Y008908D02*
X025786Y013288D01*
X025666Y013408D01*
X026446Y013468D02*
X026686Y013228D01*
X026686Y012328D01*
X026446Y012088D01*
X026446Y011968D01*
X026146Y011668D01*
X026146Y007348D01*
X025426Y006628D01*
X025546Y006748D01*
X025426Y007048D02*
X025426Y007108D01*
X024886Y007648D01*
X024886Y008068D01*
X025126Y008308D01*
X025366Y008308D01*
X025906Y008848D01*
X025906Y014188D01*
X025786Y014308D01*
X026146Y014128D02*
X026446Y013828D01*
X026446Y013468D01*
X026686Y013448D02*
X027226Y012908D01*
X027246Y012928D01*
X027226Y012908D02*
X027226Y012508D01*
X026266Y011548D01*
X026266Y006748D01*
X024406Y004888D01*
X024466Y004888D01*
X024826Y004888D02*
X026386Y006448D01*
X026386Y011428D01*
X026866Y011908D01*
X027226Y011908D01*
X027826Y012508D01*
X027826Y012988D01*
X027466Y013348D01*
X027046Y013348D01*
X026806Y013588D01*
X026806Y014128D01*
X027046Y014368D01*
X027466Y014368D01*
X028306Y013528D01*
X032626Y013528D01*
X033586Y014488D01*
X041506Y014488D01*
X041806Y014788D01*
X041806Y015088D01*
X041306Y015588D01*
X041306Y015988D01*
X041746Y016468D02*
X040846Y016468D01*
X039946Y015568D01*
X032026Y015568D01*
X031686Y015908D01*
X027226Y015908D01*
X027586Y016348D02*
X025786Y016348D01*
X025066Y015628D01*
X022966Y015628D01*
X022786Y015808D01*
X022786Y016168D02*
X023026Y016168D01*
X023266Y015928D01*
X024226Y015928D01*
X024346Y015808D01*
X024886Y015808D01*
X025546Y016468D01*
X027466Y016468D01*
X027646Y016648D01*
X031966Y016648D01*
X032026Y016588D01*
X033226Y016588D01*
X033406Y016348D02*
X032566Y016348D01*
X032506Y016408D01*
X032026Y016408D01*
X031906Y016528D01*
X027766Y016528D01*
X027586Y016348D01*
X027226Y016908D02*
X029466Y016908D01*
X030706Y018148D01*
X031306Y018148D01*
X031966Y017488D01*
X040066Y017488D01*
X040966Y016588D01*
X041626Y016588D01*
X041926Y016888D01*
X041926Y017368D01*
X041306Y017988D01*
X042046Y018248D02*
X041306Y018988D01*
X042226Y019068D02*
X041306Y019988D01*
X042226Y019068D02*
X042226Y008248D01*
X041566Y007588D01*
X040606Y007588D01*
X039046Y006028D01*
X026446Y006028D01*
X024946Y004528D01*
X024166Y004528D01*
X023506Y005188D01*
X023506Y005848D01*
X022906Y006448D01*
X022246Y006448D01*
X024826Y004888D02*
X024886Y004888D01*
X028126Y005788D02*
X038986Y005788D01*
X040666Y007468D01*
X041746Y007468D01*
X042526Y008248D01*
X042526Y019768D01*
X041306Y020988D01*
X042106Y021788D01*
X042106Y026008D01*
X041566Y026548D01*
X041206Y026548D01*
X040166Y025508D01*
X027226Y025508D01*
X027706Y024988D02*
X027226Y024508D01*
X027706Y024988D02*
X032306Y024988D01*
X032306Y025988D02*
X027746Y025988D01*
X027226Y026508D01*
X028066Y027448D02*
X027586Y027928D01*
X024256Y027928D01*
X023186Y026858D01*
X022546Y027148D02*
X022546Y025718D01*
X023186Y025078D01*
X022546Y027148D02*
X023446Y028048D01*
X027706Y028048D01*
X028126Y027628D01*
X043186Y027628D01*
X045226Y025588D01*
X045226Y019468D01*
X046186Y018508D01*
X046226Y018508D01*
X046226Y017748D02*
X044986Y018988D01*
X044986Y025588D01*
X043126Y027448D01*
X028066Y027448D01*
X027706Y023988D02*
X027226Y023508D01*
X027706Y023988D02*
X032306Y023988D01*
X032306Y022988D02*
X027706Y022988D01*
X027226Y022508D01*
X026266Y022048D02*
X031306Y022048D01*
X031846Y022588D01*
X038906Y022588D01*
X041306Y024988D01*
X041146Y024568D02*
X041506Y024568D01*
X041806Y024868D01*
X041806Y025488D01*
X041306Y025988D01*
X041146Y024568D02*
X039046Y022468D01*
X031966Y022468D01*
X031426Y021928D01*
X026326Y021928D01*
X025606Y021208D01*
X025126Y021208D01*
X024946Y020908D02*
X023506Y022348D01*
X023026Y022348D01*
X022966Y022408D01*
X022546Y021448D02*
X022426Y021328D01*
X022426Y018088D01*
X022786Y017728D01*
X024046Y017728D01*
X024406Y017368D01*
X024406Y017068D01*
X024726Y016678D02*
X024876Y016528D01*
X025006Y016528D01*
X025066Y016468D01*
X025066Y016168D01*
X024826Y015928D01*
X024466Y015928D01*
X024236Y016158D01*
X024126Y016158D01*
X024346Y016348D02*
X023806Y016348D01*
X023686Y016228D01*
X023736Y016538D02*
X023686Y016588D01*
X023736Y016538D02*
X024126Y016538D01*
X024346Y016348D02*
X024396Y016298D01*
X024726Y016298D01*
X023826Y017018D02*
X023096Y017018D01*
X022726Y016648D01*
X022726Y017008D02*
X023116Y017398D01*
X023826Y017398D01*
X023366Y018558D02*
X022796Y018558D01*
X022786Y018568D01*
X022786Y018928D02*
X022726Y018928D01*
X022546Y019108D01*
X022546Y020008D01*
X022906Y020368D01*
X023446Y020368D01*
X023626Y020188D01*
X023626Y020008D01*
X024286Y019348D01*
X026086Y019348D01*
X026566Y018868D01*
X026886Y018568D02*
X027226Y018908D01*
X026746Y019388D01*
X026746Y020068D01*
X027046Y020368D01*
X027586Y020368D01*
X028366Y019588D01*
X032506Y019588D01*
X032746Y019828D01*
X032746Y020128D01*
X032306Y020568D01*
X032306Y020988D01*
X032866Y021028D02*
X032866Y019708D01*
X032626Y019468D01*
X027666Y019468D01*
X027226Y019908D01*
X027646Y019488D01*
X027646Y018628D01*
X027466Y018448D01*
X025306Y018448D01*
X025126Y018268D01*
X024946Y018268D01*
X024526Y018568D02*
X026886Y018568D01*
X027226Y017908D02*
X030166Y017908D01*
X030646Y018388D01*
X039906Y018388D01*
X041306Y016988D01*
X041746Y016468D02*
X042046Y016768D01*
X042046Y018248D01*
X046226Y017748D02*
X046226Y017508D01*
X041306Y014988D02*
X033126Y014988D01*
X032626Y014488D01*
X026986Y014488D01*
X026686Y014188D01*
X026686Y013448D01*
X027226Y013908D02*
X031846Y009288D01*
X031846Y007648D01*
X032306Y007188D01*
X032306Y006988D01*
X026026Y008788D02*
X026026Y011908D01*
X026146Y012028D01*
X026026Y012148D01*
X026026Y015088D01*
X025906Y015208D01*
X025906Y015748D01*
X026146Y015328D02*
X026146Y014128D01*
X024576Y014468D02*
X024576Y013728D01*
X024196Y013828D02*
X024116Y013748D01*
X024196Y013828D02*
X024196Y014468D01*
X023846Y014468D01*
X023806Y014428D01*
X023506Y014368D02*
X023326Y014188D01*
X023146Y014188D01*
X022966Y014008D01*
X022966Y013168D01*
X022546Y012748D01*
X022156Y012748D01*
X022046Y012858D01*
X021446Y012878D02*
X021376Y012808D01*
X020746Y012808D01*
X022606Y013828D02*
X022966Y014188D01*
X022966Y014668D01*
X023686Y015388D01*
X023686Y015148D02*
X023986Y015148D01*
X024046Y015208D01*
X023916Y014958D02*
X023806Y014848D01*
X023916Y014958D02*
X024486Y014958D01*
X023686Y015148D02*
X023506Y014968D01*
X023506Y014368D01*
X023206Y013888D02*
X023246Y013848D01*
X023246Y013558D01*
X022846Y014368D02*
X022846Y014908D01*
X022786Y014968D01*
X022786Y015388D02*
X022756Y015418D01*
X022386Y015418D01*
X021046Y016588D02*
X021046Y017308D01*
X021166Y017428D01*
X021166Y017608D01*
X021286Y017728D01*
X021286Y017968D01*
X021106Y018148D01*
X021106Y018448D01*
X020806Y018748D01*
X020746Y018388D02*
X020576Y018218D01*
X020246Y018218D01*
X020446Y018028D02*
X020506Y018088D01*
X020626Y018088D01*
X020686Y018148D01*
X020926Y018148D01*
X021046Y018028D01*
X021046Y017788D01*
X020806Y017548D01*
X020736Y017838D02*
X020246Y017838D01*
X020446Y018028D02*
X019546Y018028D01*
X019426Y017908D01*
X019126Y018088D02*
X019126Y017608D01*
X019306Y017428D01*
X019126Y018088D02*
X019846Y018808D01*
X019846Y019228D01*
X018946Y019708D02*
X017446Y019708D01*
X017326Y019828D01*
X018046Y019348D02*
X018166Y019228D01*
X018166Y016108D01*
X018346Y015928D01*
X018586Y015928D01*
X018826Y015808D02*
X018286Y015808D01*
X018046Y016048D01*
X018046Y018988D01*
X017866Y019168D01*
X016906Y019168D01*
X016786Y019048D01*
X016486Y019048D01*
X016126Y019408D01*
X013786Y019408D01*
X016546Y019348D02*
X018046Y019348D01*
X017746Y018928D02*
X017686Y018928D01*
X017326Y018568D01*
X017326Y014548D01*
X016966Y014188D01*
X014986Y014188D01*
X013726Y015508D02*
X014326Y016108D01*
X016426Y016108D01*
X016606Y016288D01*
X017206Y014848D02*
X016906Y014548D01*
X017206Y014848D02*
X017206Y018808D01*
X020306Y017198D02*
X020796Y017198D01*
X020806Y017188D01*
X020806Y016828D02*
X020796Y016818D01*
X020306Y016818D01*
X020806Y016468D02*
X020926Y016468D01*
X021046Y016588D01*
X020026Y015568D02*
X019846Y015388D01*
X019846Y014668D02*
X019706Y014528D01*
X019706Y014318D01*
X022686Y010908D02*
X023386Y011608D01*
X022686Y010908D02*
X022686Y010903D01*
X022186Y010888D02*
X021741Y010888D01*
X021726Y010903D01*
X020646Y010963D02*
X020481Y011128D01*
X020086Y011128D01*
X020086Y010468D02*
X019691Y010073D01*
X019566Y010073D01*
X016846Y007648D02*
X014446Y005248D01*
X012586Y005248D01*
X011816Y006158D02*
X012106Y006448D01*
X011816Y006158D02*
X011766Y006158D01*
X014886Y008433D02*
X014926Y008393D01*
X024706Y008368D02*
X025006Y008368D01*
X025066Y008428D01*
X025306Y008428D01*
X025786Y008908D01*
X026026Y008788D02*
X025186Y007948D01*
X025246Y008008D01*
X033406Y016348D02*
X033886Y016828D01*
X031006Y017248D02*
X030706Y016948D01*
X031006Y017248D02*
X031006Y017848D01*
X032306Y019988D02*
X031386Y020908D01*
X027226Y020908D01*
X024946Y020908D01*
X024886Y021688D02*
X025906Y021688D01*
X026266Y022048D01*
X023326Y020128D02*
X023326Y019738D01*
X023346Y019718D01*
X023336Y019348D02*
X022786Y019348D01*
X023336Y019348D02*
X023346Y019338D01*
X020806Y017908D02*
X020736Y017838D01*
X032306Y021588D02*
X032866Y021028D01*
X032306Y021588D02*
X032306Y021988D01*
X046226Y028508D02*
X047386Y029668D01*
X047386Y030388D01*
X047146Y030628D01*
X018226Y030628D01*
X015876Y028278D01*
X014886Y028278D01*
D34*
X014051Y030188D02*
X013731Y030508D01*
X011839Y030508D01*
X011249Y029918D01*
M02*
