G75*
%MOIN*%
%OFA0B0*%
%FSLAX24Y24*%
%IPPOS*%
%LPD*%
%AMOC8*
5,1,8,0,0,1.08239X$1,22.5*
%
%ADD10R,0.0433X0.0118*%
%ADD11R,0.1421X0.2756*%
%ADD12R,0.1776X0.1691*%
%ADD13R,0.0266X0.0262*%
%ADD14R,0.0266X0.0295*%
%ADD15R,0.0315X0.0315*%
%ADD16R,0.0354X0.0315*%
%ADD17R,0.1063X0.0709*%
%ADD18R,0.0400X0.0370*%
%ADD19R,0.0433X0.0177*%
%ADD20OC8,0.0660*%
%ADD21C,0.0600*%
%ADD22C,0.0740*%
%ADD23R,0.1000X0.0500*%
%ADD24R,0.0118X0.0453*%
%ADD25R,0.0407X0.0394*%
%ADD26R,0.0563X0.0181*%
%ADD27R,0.0630X0.0460*%
%ADD28R,0.0460X0.0630*%
%ADD29C,0.0600*%
%ADD30R,0.0984X0.0472*%
%ADD31C,0.0100*%
%ADD32C,0.0292*%
%ADD33C,0.0060*%
%ADD34C,0.0160*%
%ADD35C,0.0500*%
D10*
X020290Y014251D03*
X020290Y014447D03*
X020290Y014644D03*
X020290Y014841D03*
X020290Y015038D03*
X020290Y015235D03*
X020290Y015432D03*
X020290Y015629D03*
X020290Y015825D03*
X020290Y016022D03*
X020290Y016219D03*
X020290Y016416D03*
X020290Y016613D03*
X020290Y016810D03*
X020290Y017006D03*
X020290Y017203D03*
X020290Y017400D03*
X020290Y017597D03*
X020290Y017794D03*
X020290Y017991D03*
X020290Y018188D03*
X020290Y018384D03*
X020290Y018581D03*
X020290Y018778D03*
X020290Y018975D03*
X020290Y019172D03*
X020290Y019369D03*
X020290Y019566D03*
X023243Y019566D03*
X023243Y019369D03*
X023243Y019172D03*
X023243Y018975D03*
X023243Y018778D03*
X023243Y018581D03*
X023243Y018384D03*
X023243Y018188D03*
X023243Y017991D03*
X023243Y017794D03*
X023243Y017597D03*
X023243Y017400D03*
X023243Y017203D03*
X023243Y017006D03*
X023243Y016810D03*
X023243Y016613D03*
X023243Y016416D03*
X023243Y016219D03*
X023243Y016022D03*
X023243Y015825D03*
X023243Y015629D03*
X023243Y015432D03*
X023243Y015235D03*
X023243Y015038D03*
X023243Y014841D03*
X023243Y014644D03*
X023243Y014447D03*
X023243Y014251D03*
D11*
X021766Y015530D03*
X021766Y018286D03*
D12*
X015454Y016292D03*
X012598Y016704D03*
X012538Y012844D03*
X015454Y012532D03*
X015334Y020352D03*
X012658Y020624D03*
D13*
X012894Y021599D03*
X012413Y021599D03*
X011903Y021600D03*
X013413Y021599D03*
X014579Y019377D03*
X015099Y019377D03*
X015579Y019377D03*
X016089Y019376D03*
X013353Y017679D03*
X012834Y017679D03*
X012353Y017679D03*
X011843Y017680D03*
X014699Y015317D03*
X015219Y015317D03*
X015699Y015317D03*
X016209Y015316D03*
X013293Y013819D03*
X012774Y013819D03*
X012293Y013819D03*
X011783Y013820D03*
X014699Y011557D03*
X015219Y011557D03*
X015699Y011557D03*
X016209Y011556D03*
D14*
X016209Y013743D03*
X015699Y013743D03*
X015219Y013743D03*
X014703Y013743D03*
X013349Y015493D03*
X012834Y015493D03*
X012353Y015493D03*
X011843Y015493D03*
X014703Y017503D03*
X015219Y017503D03*
X015699Y017503D03*
X016209Y017503D03*
X013409Y019413D03*
X012894Y019413D03*
X012413Y019413D03*
X011903Y019413D03*
X014583Y021563D03*
X015099Y021563D03*
X015579Y021563D03*
X016089Y021563D03*
X013289Y011633D03*
X012774Y011633D03*
X012293Y011633D03*
X011783Y011633D03*
D15*
X019646Y010663D03*
X019646Y010073D03*
X020706Y010313D03*
X020706Y010903D03*
X021766Y010943D03*
X022646Y010923D03*
X022646Y010333D03*
X021766Y010353D03*
X019786Y022293D03*
X019786Y022883D03*
D16*
X021132Y012342D03*
X021132Y011594D03*
X021959Y011968D03*
X022872Y011594D03*
X023699Y011968D03*
X022872Y012342D03*
D17*
X017666Y012022D03*
X017666Y013754D03*
X017706Y015762D03*
X017706Y017494D03*
X017766Y019842D03*
X017766Y021574D03*
D18*
X018846Y021103D03*
X018846Y020513D03*
X019786Y021033D03*
X019786Y021623D03*
X018766Y017503D03*
X018766Y016913D03*
X018686Y014363D03*
X018686Y013773D03*
D19*
X015418Y009196D03*
X015418Y008940D03*
X015418Y008684D03*
X015418Y008428D03*
X014394Y008428D03*
X014394Y008684D03*
X014394Y008940D03*
X014394Y009196D03*
D20*
X027226Y011908D03*
X027226Y012908D03*
X027226Y013908D03*
X027226Y014908D03*
X027226Y015908D03*
X027226Y016908D03*
X027226Y017908D03*
X027226Y018908D03*
X027226Y019908D03*
X027226Y020908D03*
X027226Y022508D03*
X027226Y023508D03*
X027226Y024508D03*
X027226Y025508D03*
X027226Y026508D03*
X027226Y027508D03*
X027226Y028508D03*
X027226Y029508D03*
X046226Y029508D03*
X046226Y028508D03*
X046226Y027508D03*
X046226Y026508D03*
X046226Y025508D03*
X046226Y024508D03*
X046226Y022508D03*
X046226Y021508D03*
X046226Y020508D03*
X046226Y019508D03*
X046226Y018508D03*
X046226Y017508D03*
X046226Y016508D03*
X046226Y015508D03*
D21*
X041306Y015988D03*
X041306Y016988D03*
X041306Y017988D03*
X041306Y018988D03*
X041306Y019988D03*
X041306Y020988D03*
X041306Y021988D03*
X041306Y022988D03*
X041306Y023988D03*
X041306Y024988D03*
X041306Y025988D03*
X032306Y025988D03*
X032306Y024988D03*
X032306Y023988D03*
X032306Y022988D03*
X032306Y021988D03*
X032306Y020988D03*
X032306Y019988D03*
X032306Y018988D03*
X032306Y017988D03*
X032306Y016988D03*
X032306Y015988D03*
X032306Y014988D03*
X032306Y013988D03*
X032306Y012988D03*
X032306Y011988D03*
X032306Y010988D03*
X032306Y009988D03*
X032306Y008988D03*
X032306Y007988D03*
X032306Y006988D03*
X041306Y006988D03*
X041306Y007988D03*
X041306Y008988D03*
X041306Y009988D03*
X041306Y010988D03*
X041306Y011988D03*
X041306Y012988D03*
X041306Y013988D03*
X041306Y014988D03*
D22*
X023186Y025078D03*
X023186Y026858D03*
X020626Y026858D03*
X020626Y025078D03*
D23*
X010386Y019368D03*
X009966Y015948D03*
X009966Y013728D03*
X009986Y007388D03*
X010026Y026808D03*
D24*
X017794Y005367D03*
X017991Y005367D03*
X018188Y005367D03*
X018385Y005367D03*
X018581Y005367D03*
X018778Y005367D03*
X021694Y005367D03*
X021891Y005367D03*
X022088Y005367D03*
X022285Y005367D03*
X022481Y005367D03*
X022678Y005367D03*
X024214Y005367D03*
X024411Y005367D03*
X024608Y005367D03*
X024805Y005367D03*
X025001Y005367D03*
X025198Y005367D03*
X026734Y005367D03*
X026931Y005367D03*
X027128Y005367D03*
X027325Y005367D03*
X027521Y005367D03*
X027718Y005367D03*
D25*
X028174Y004235D03*
X026278Y004235D03*
X025654Y004235D03*
X023758Y004235D03*
X023134Y004235D03*
X021238Y004235D03*
X019234Y004235D03*
X017338Y004235D03*
D26*
X016201Y005220D03*
X016201Y005476D03*
X016201Y005732D03*
X016201Y005988D03*
X016201Y006244D03*
X016201Y006499D03*
X016201Y006755D03*
X016201Y007011D03*
X016201Y007267D03*
X016201Y007523D03*
X013213Y007523D03*
X013213Y007267D03*
X013213Y007011D03*
X013213Y006755D03*
X013213Y006499D03*
X013213Y006244D03*
X013213Y005988D03*
X013213Y005732D03*
X013213Y005476D03*
X013213Y005220D03*
D27*
X020206Y005268D03*
X020206Y005868D03*
X020206Y004668D03*
X024106Y020448D03*
X024106Y021048D03*
D28*
X016046Y018568D03*
X015446Y018568D03*
X019006Y013048D03*
X019606Y013048D03*
X024106Y007408D03*
X024706Y007408D03*
X024726Y006208D03*
X024126Y006208D03*
X017486Y028108D03*
X016886Y028108D03*
X016286Y028108D03*
X016486Y029488D03*
X015886Y029488D03*
X017086Y029488D03*
D29*
X018626Y029528D02*
X019226Y029528D01*
X020026Y029508D02*
X020626Y029508D01*
X020626Y028508D02*
X020026Y028508D01*
X019226Y028528D02*
X018626Y028528D01*
X008666Y028128D02*
X008066Y028128D01*
X008066Y027128D02*
X008666Y027128D01*
X020166Y008728D02*
X020166Y008128D01*
X021166Y008128D02*
X021166Y008728D01*
X022166Y008728D02*
X022166Y008128D01*
X023166Y008128D02*
X023166Y008728D01*
D30*
X022969Y020944D03*
X022969Y021928D03*
X022969Y022912D03*
X020803Y022912D03*
X020803Y021928D03*
X020803Y020944D03*
D31*
X020201Y020919D02*
X020136Y020919D01*
X020136Y020991D02*
X019829Y020991D01*
X019829Y021076D01*
X020136Y021076D01*
X020136Y021238D01*
X020126Y021276D01*
X020106Y021310D01*
X020078Y021338D01*
X020055Y021351D01*
X020096Y021393D01*
X020096Y021854D01*
X020032Y021918D01*
X019946Y021918D01*
X019946Y022025D01*
X019989Y022025D01*
X020054Y022090D01*
X020054Y022496D01*
X019989Y022560D01*
X019583Y022560D01*
X019519Y022496D01*
X019519Y022090D01*
X019583Y022025D01*
X019626Y022025D01*
X019626Y021918D01*
X019541Y021918D01*
X019476Y021854D01*
X019476Y021393D01*
X019517Y021351D01*
X019494Y021338D01*
X019466Y021310D01*
X019446Y021276D01*
X019436Y021238D01*
X019436Y021076D01*
X019744Y021076D01*
X019744Y020991D01*
X019436Y020991D01*
X019436Y020828D01*
X019446Y020790D01*
X019466Y020756D01*
X019494Y020728D01*
X019528Y020708D01*
X019566Y020698D01*
X019744Y020698D01*
X019744Y020991D01*
X019829Y020991D01*
X019829Y020698D01*
X020006Y020698D01*
X020044Y020708D01*
X020078Y020728D01*
X020106Y020756D01*
X020126Y020790D01*
X020136Y020828D01*
X020136Y020991D01*
X020201Y021018D02*
X019829Y021018D01*
X019744Y021018D02*
X019156Y021018D01*
X019156Y021116D02*
X019436Y021116D01*
X019436Y021215D02*
X019156Y021215D01*
X019156Y021313D02*
X019469Y021313D01*
X019476Y021412D02*
X018408Y021412D01*
X018408Y021510D02*
X019476Y021510D01*
X019476Y021609D02*
X018408Y021609D01*
X018408Y021707D02*
X019476Y021707D01*
X019476Y021806D02*
X018408Y021806D01*
X018408Y021904D02*
X019527Y021904D01*
X019626Y022003D02*
X018379Y022003D01*
X018408Y021974D02*
X018343Y022039D01*
X017189Y022039D01*
X017125Y021974D01*
X017125Y021923D01*
X017026Y021923D01*
X017026Y022468D01*
X009356Y022468D01*
X009356Y025329D01*
X009785Y025758D01*
X010594Y025758D01*
X010569Y025733D01*
X010530Y025639D01*
X010530Y025537D01*
X010569Y025443D01*
X010641Y025371D01*
X010735Y025332D01*
X010773Y025332D01*
X010947Y025158D01*
X012294Y025158D01*
X012321Y025131D01*
X012415Y025092D01*
X012517Y025092D01*
X012611Y025131D01*
X012683Y025203D01*
X012722Y025297D01*
X012722Y025399D01*
X012683Y025493D01*
X012611Y025565D01*
X012517Y025604D01*
X012415Y025604D01*
X012321Y025565D01*
X012294Y025538D01*
X011105Y025538D01*
X011042Y025601D01*
X011042Y025639D01*
X011003Y025733D01*
X010978Y025758D01*
X013314Y025758D01*
X013341Y025731D01*
X013435Y025692D01*
X013537Y025692D01*
X013631Y025731D01*
X013703Y025803D01*
X013742Y025897D01*
X013742Y025999D01*
X013703Y026093D01*
X013631Y026165D01*
X013537Y026204D01*
X013435Y026204D01*
X013341Y026165D01*
X013314Y026138D01*
X009627Y026138D01*
X009087Y025598D01*
X008976Y025487D01*
X008976Y022468D01*
X007606Y022468D01*
X007606Y030508D01*
X023806Y030568D01*
X023806Y024368D01*
X021940Y024368D01*
X021846Y024274D01*
X021666Y024094D01*
X021666Y023074D01*
X021406Y022814D01*
X021406Y023194D01*
X021341Y023259D01*
X020266Y023259D01*
X020201Y023194D01*
X020201Y023072D01*
X020054Y023072D01*
X020054Y023086D01*
X020201Y023086D01*
X020201Y023185D02*
X016147Y023185D01*
X016117Y023172D02*
X016211Y023211D01*
X016283Y023283D01*
X016285Y023288D01*
X018424Y023288D01*
X018441Y023271D01*
X018535Y023232D01*
X018637Y023232D01*
X018731Y023271D01*
X018803Y023343D01*
X018842Y023437D01*
X018842Y023539D01*
X018803Y023633D01*
X018731Y023705D01*
X018637Y023744D01*
X018535Y023744D01*
X018441Y023705D01*
X018369Y023633D01*
X018342Y023568D01*
X016285Y023568D01*
X016283Y023573D01*
X016211Y023645D01*
X016117Y023684D01*
X016015Y023684D01*
X015921Y023645D01*
X015849Y023573D01*
X015810Y023479D01*
X015810Y023377D01*
X015849Y023283D01*
X015921Y023211D01*
X016015Y023172D01*
X016117Y023172D01*
X015985Y023185D02*
X009356Y023185D01*
X009356Y023283D02*
X015849Y023283D01*
X015810Y023382D02*
X009356Y023382D01*
X009356Y023480D02*
X015811Y023480D01*
X015855Y023579D02*
X009356Y023579D01*
X009356Y023677D02*
X015998Y023677D01*
X016134Y023677D02*
X018413Y023677D01*
X018347Y023579D02*
X016278Y023579D01*
X016283Y023283D02*
X018429Y023283D01*
X018743Y023283D02*
X021666Y023283D01*
X021666Y023185D02*
X021406Y023185D01*
X021406Y023086D02*
X021666Y023086D01*
X021579Y022988D02*
X021406Y022988D01*
X021406Y022889D02*
X021481Y022889D01*
X021736Y022692D02*
X022367Y022692D01*
X022367Y022631D02*
X022431Y022566D01*
X022762Y022566D01*
X022749Y022553D01*
X022710Y022459D01*
X022710Y022357D01*
X022744Y022274D01*
X022431Y022274D01*
X022367Y022210D01*
X022367Y021646D01*
X022375Y021638D01*
X022329Y021593D01*
X022290Y021499D01*
X022290Y021397D01*
X022329Y021303D01*
X022358Y021274D01*
X022357Y021272D01*
X022337Y021238D01*
X022327Y021200D01*
X022327Y020994D01*
X022919Y020994D01*
X022919Y021330D01*
X022774Y021330D01*
X022802Y021397D01*
X022802Y021499D01*
X022783Y021545D01*
X022821Y021582D01*
X023507Y021582D01*
X023571Y021646D01*
X023571Y022210D01*
X023507Y022274D01*
X023188Y022274D01*
X023222Y022357D01*
X023222Y022459D01*
X023183Y022553D01*
X023170Y022566D01*
X023507Y022566D01*
X023571Y022631D01*
X023571Y023194D01*
X023507Y023259D01*
X022431Y023259D01*
X022367Y023194D01*
X022367Y022631D01*
X022404Y022594D02*
X021638Y022594D01*
X021539Y022495D02*
X022725Y022495D01*
X022710Y022397D02*
X021441Y022397D01*
X021342Y022298D02*
X022735Y022298D01*
X022367Y022200D02*
X021406Y022200D01*
X021406Y022210D02*
X021341Y022274D01*
X021319Y022274D01*
X021892Y022848D01*
X021986Y022942D01*
X021986Y023962D01*
X022072Y024048D01*
X023806Y024048D01*
X023806Y021388D01*
X023746Y021388D01*
X023681Y021324D01*
X023681Y021041D01*
X023606Y020966D01*
X023534Y020894D01*
X023019Y020894D01*
X023019Y020994D01*
X022919Y020994D01*
X022919Y020894D01*
X023019Y020894D01*
X023019Y020558D01*
X023481Y020558D01*
X023486Y020559D01*
X023486Y019773D01*
X023479Y019775D01*
X023243Y019775D01*
X023243Y019566D01*
X023243Y019566D01*
X023243Y019775D01*
X023006Y019775D01*
X022968Y019764D01*
X022934Y019745D01*
X022906Y019717D01*
X022886Y019683D01*
X022876Y019644D01*
X022876Y019588D01*
X022837Y019604D01*
X022735Y019604D01*
X022641Y019565D01*
X022627Y019551D01*
X022627Y019684D01*
X022617Y019722D01*
X022597Y019756D01*
X022569Y019784D01*
X022535Y019804D01*
X022497Y019814D01*
X021816Y019814D01*
X021816Y018336D01*
X021716Y018336D01*
X021716Y019814D01*
X021036Y019814D01*
X020998Y019804D01*
X020963Y019784D01*
X020935Y019756D01*
X020916Y019722D01*
X020906Y019684D01*
X020906Y018984D01*
X020857Y019004D01*
X020755Y019004D01*
X020661Y018965D01*
X020656Y018960D01*
X020656Y018975D01*
X020656Y019054D01*
X020646Y019092D01*
X020626Y019126D01*
X020616Y019136D01*
X020616Y019208D01*
X020626Y019218D01*
X020646Y019252D01*
X020656Y019290D01*
X020656Y019369D01*
X020656Y019448D01*
X020646Y019486D01*
X020626Y019520D01*
X020616Y019530D01*
X020616Y019670D01*
X020552Y019735D01*
X020028Y019735D01*
X019999Y019706D01*
X019202Y019706D01*
X019202Y019759D01*
X019163Y019853D01*
X019091Y019925D01*
X018997Y019964D01*
X018895Y019964D01*
X018801Y019925D01*
X018729Y019853D01*
X018690Y019759D01*
X018690Y019657D01*
X018729Y019563D01*
X018801Y019491D01*
X018895Y019452D01*
X018997Y019452D01*
X019002Y019454D01*
X019028Y019428D01*
X018436Y019428D01*
X018437Y019430D01*
X018448Y019468D01*
X018448Y019792D01*
X017816Y019792D01*
X017816Y019892D01*
X017716Y019892D01*
X017716Y020346D01*
X017322Y020346D01*
X017939Y020963D01*
X018151Y020963D01*
X018171Y020943D01*
X018536Y020943D01*
X018536Y020873D01*
X018577Y020831D01*
X018554Y020818D01*
X018526Y020790D01*
X018506Y020756D01*
X018496Y020718D01*
X018496Y020556D01*
X018804Y020556D01*
X018804Y020471D01*
X018496Y020471D01*
X018496Y020308D01*
X018506Y020270D01*
X018526Y020236D01*
X018554Y020208D01*
X018588Y020188D01*
X018626Y020178D01*
X018804Y020178D01*
X018804Y020471D01*
X018889Y020471D01*
X018889Y020556D01*
X019196Y020556D01*
X019196Y020718D01*
X019186Y020756D01*
X019166Y020790D01*
X019138Y020818D01*
X019115Y020831D01*
X019156Y020873D01*
X019156Y021334D01*
X019092Y021398D01*
X018601Y021398D01*
X018536Y021334D01*
X018536Y021263D01*
X018408Y021263D01*
X018408Y021974D01*
X017766Y021574D02*
X018237Y021103D01*
X018846Y021103D01*
X018536Y020919D02*
X017895Y020919D01*
X017797Y020821D02*
X018558Y020821D01*
X018497Y020722D02*
X017698Y020722D01*
X017600Y020624D02*
X018496Y020624D01*
X018496Y020427D02*
X017403Y020427D01*
X017501Y020525D02*
X018804Y020525D01*
X018889Y020525D02*
X023486Y020525D01*
X023486Y020427D02*
X019196Y020427D01*
X019196Y020471D02*
X018889Y020471D01*
X018889Y020178D01*
X019066Y020178D01*
X019104Y020188D01*
X019138Y020208D01*
X019166Y020236D01*
X019186Y020270D01*
X019196Y020308D01*
X019196Y020471D01*
X019196Y020328D02*
X023486Y020328D01*
X023486Y020230D02*
X019160Y020230D01*
X018889Y020230D02*
X018804Y020230D01*
X018804Y020328D02*
X018889Y020328D01*
X018889Y020427D02*
X018804Y020427D01*
X018496Y020328D02*
X018369Y020328D01*
X018356Y020336D02*
X018317Y020346D01*
X017816Y020346D01*
X017816Y019892D01*
X018448Y019892D01*
X018448Y020216D01*
X018437Y020254D01*
X018418Y020288D01*
X018390Y020316D01*
X018356Y020336D01*
X018444Y020230D02*
X018532Y020230D01*
X018448Y020131D02*
X023486Y020131D01*
X023486Y020033D02*
X018448Y020033D01*
X018448Y019934D02*
X018823Y019934D01*
X018722Y019836D02*
X017816Y019836D01*
X017816Y019934D02*
X017716Y019934D01*
X017716Y020033D02*
X017816Y020033D01*
X017816Y020131D02*
X017716Y020131D01*
X017716Y020230D02*
X017816Y020230D01*
X017816Y020328D02*
X017716Y020328D01*
X018448Y019737D02*
X018690Y019737D01*
X018698Y019639D02*
X018448Y019639D01*
X018448Y019540D02*
X018752Y019540D01*
X019015Y019442D02*
X018441Y019442D01*
X019069Y019934D02*
X023486Y019934D01*
X023486Y019836D02*
X019170Y019836D01*
X019202Y019737D02*
X020925Y019737D01*
X020906Y019639D02*
X020616Y019639D01*
X020616Y019540D02*
X020906Y019540D01*
X020906Y019442D02*
X020656Y019442D01*
X020656Y019369D02*
X020290Y019369D01*
X020290Y019369D01*
X020656Y019369D01*
X020656Y019343D02*
X020906Y019343D01*
X020906Y019245D02*
X020642Y019245D01*
X020616Y019146D02*
X020906Y019146D01*
X020906Y019048D02*
X020656Y019048D01*
X020656Y018975D02*
X020290Y018975D01*
X020290Y018975D01*
X020656Y018975D01*
X021716Y018949D02*
X021816Y018949D01*
X021816Y018851D02*
X021716Y018851D01*
X021716Y018752D02*
X021816Y018752D01*
X021816Y018654D02*
X021716Y018654D01*
X021716Y018555D02*
X021816Y018555D01*
X021816Y018457D02*
X021716Y018457D01*
X021716Y018358D02*
X021816Y018358D01*
X021816Y018336D02*
X022627Y018336D01*
X022627Y018365D01*
X022641Y018351D01*
X022735Y018312D01*
X022837Y018312D01*
X022916Y018345D01*
X022916Y017180D01*
X022871Y017225D01*
X022777Y017264D01*
X022675Y017264D01*
X022627Y017244D01*
X022627Y018236D01*
X021816Y018236D01*
X021816Y017058D01*
X021816Y015580D01*
X021716Y015580D01*
X021000Y015580D01*
X020951Y015531D01*
X020888Y015505D01*
X020912Y015480D01*
X021716Y015480D01*
X021716Y015580D01*
X021716Y018236D01*
X021816Y018236D01*
X021816Y018336D01*
X021816Y018260D02*
X022916Y018260D01*
X022916Y018161D02*
X022627Y018161D01*
X022627Y018063D02*
X022916Y018063D01*
X022916Y017964D02*
X022627Y017964D01*
X022627Y017866D02*
X022916Y017866D01*
X022916Y017767D02*
X022627Y017767D01*
X022627Y017669D02*
X022916Y017669D01*
X022916Y017570D02*
X022627Y017570D01*
X022627Y017472D02*
X022916Y017472D01*
X022916Y017373D02*
X022627Y017373D01*
X022627Y017275D02*
X022916Y017275D01*
X021816Y017275D02*
X021716Y017275D01*
X021716Y017373D02*
X021816Y017373D01*
X021816Y017472D02*
X021716Y017472D01*
X021716Y017570D02*
X021816Y017570D01*
X021816Y017669D02*
X021716Y017669D01*
X021716Y017767D02*
X021816Y017767D01*
X021816Y017866D02*
X021716Y017866D01*
X021716Y017964D02*
X021816Y017964D01*
X021816Y018063D02*
X021716Y018063D01*
X021716Y018161D02*
X021816Y018161D01*
X022627Y018358D02*
X022634Y018358D01*
X021816Y019048D02*
X021716Y019048D01*
X021716Y019146D02*
X021816Y019146D01*
X021816Y019245D02*
X021716Y019245D01*
X021716Y019343D02*
X021816Y019343D01*
X021816Y019442D02*
X021716Y019442D01*
X021716Y019540D02*
X021816Y019540D01*
X021816Y019639D02*
X021716Y019639D01*
X021716Y019737D02*
X021816Y019737D01*
X022608Y019737D02*
X022926Y019737D01*
X022876Y019639D02*
X022627Y019639D01*
X023243Y019639D02*
X023243Y019639D01*
X023243Y019737D02*
X023243Y019737D01*
X022919Y020558D02*
X022457Y020558D01*
X022419Y020568D01*
X022385Y020588D01*
X022357Y020615D01*
X022337Y020650D01*
X022327Y020688D01*
X022327Y020894D01*
X022919Y020894D01*
X022919Y020558D01*
X022919Y020624D02*
X023019Y020624D01*
X023019Y020722D02*
X022919Y020722D01*
X022919Y020821D02*
X023019Y020821D01*
X023019Y020919D02*
X023559Y020919D01*
X023611Y020994D02*
X023611Y021200D01*
X023601Y021238D01*
X023581Y021272D01*
X023553Y021300D01*
X023519Y021320D01*
X023481Y021330D01*
X023019Y021330D01*
X023019Y020994D01*
X023611Y020994D01*
X023611Y021018D02*
X023658Y021018D01*
X023681Y021116D02*
X023611Y021116D01*
X023607Y021215D02*
X023681Y021215D01*
X023681Y021313D02*
X023530Y021313D01*
X023806Y021412D02*
X022802Y021412D01*
X022798Y021510D02*
X023806Y021510D01*
X023806Y021609D02*
X023533Y021609D01*
X023571Y021707D02*
X023806Y021707D01*
X023806Y021806D02*
X023571Y021806D01*
X023571Y021904D02*
X023806Y021904D01*
X023806Y022003D02*
X023571Y022003D01*
X023571Y022101D02*
X023806Y022101D01*
X023806Y022200D02*
X023571Y022200D01*
X023806Y022298D02*
X023198Y022298D01*
X023222Y022397D02*
X023806Y022397D01*
X023806Y022495D02*
X023207Y022495D01*
X023534Y022594D02*
X023806Y022594D01*
X023806Y022692D02*
X023571Y022692D01*
X023571Y022791D02*
X023806Y022791D01*
X023806Y022889D02*
X023571Y022889D01*
X023571Y022988D02*
X023806Y022988D01*
X023806Y023086D02*
X023571Y023086D01*
X023571Y023185D02*
X023806Y023185D01*
X023806Y023283D02*
X021986Y023283D01*
X021986Y023185D02*
X022367Y023185D01*
X022367Y023086D02*
X021986Y023086D01*
X021986Y022988D02*
X022367Y022988D01*
X022367Y022889D02*
X021933Y022889D01*
X021835Y022791D02*
X022367Y022791D01*
X021826Y023008D02*
X021826Y024028D01*
X022006Y024208D01*
X024286Y024208D01*
X023806Y023973D02*
X021997Y023973D01*
X021986Y023874D02*
X023806Y023874D01*
X023806Y023776D02*
X021986Y023776D01*
X021986Y023677D02*
X023806Y023677D01*
X023806Y023579D02*
X021986Y023579D01*
X021986Y023480D02*
X023806Y023480D01*
X023806Y023382D02*
X021986Y023382D01*
X021666Y023382D02*
X018819Y023382D01*
X018842Y023480D02*
X021666Y023480D01*
X021666Y023579D02*
X018826Y023579D01*
X018759Y023677D02*
X021666Y023677D01*
X021666Y023776D02*
X009356Y023776D01*
X009356Y023874D02*
X021666Y023874D01*
X021666Y023973D02*
X009356Y023973D01*
X009356Y024071D02*
X021666Y024071D01*
X021741Y024170D02*
X009356Y024170D01*
X009356Y024268D02*
X021840Y024268D01*
X021938Y024367D02*
X009356Y024367D01*
X009356Y024465D02*
X016200Y024465D01*
X016227Y024438D02*
X017634Y024438D01*
X017661Y024411D01*
X017755Y024372D01*
X017857Y024372D01*
X017951Y024411D01*
X018023Y024483D01*
X018062Y024577D01*
X018062Y024679D01*
X018023Y024773D01*
X017951Y024845D01*
X017857Y024884D01*
X017755Y024884D01*
X017661Y024845D01*
X017634Y024818D01*
X016385Y024818D01*
X016112Y025091D01*
X016163Y025143D01*
X016202Y025237D01*
X016202Y025275D01*
X017076Y026149D01*
X017076Y027683D01*
X017154Y027683D01*
X017164Y027673D01*
X017198Y027653D01*
X017236Y027643D01*
X017436Y027643D01*
X017436Y028058D01*
X017536Y028058D01*
X017536Y027643D01*
X017736Y027643D01*
X017774Y027653D01*
X017808Y027673D01*
X017836Y027701D01*
X017856Y027735D01*
X017866Y027773D01*
X017866Y028058D01*
X017536Y028058D01*
X017536Y028158D01*
X017866Y028158D01*
X017866Y028379D01*
X018567Y027678D01*
X018725Y027678D01*
X019607Y027678D01*
X019765Y027678D01*
X020185Y028098D01*
X020708Y028098D01*
X020858Y028160D01*
X020974Y028276D01*
X021036Y028427D01*
X021036Y028590D01*
X020974Y028740D01*
X020858Y028856D01*
X020708Y028918D01*
X019945Y028918D01*
X019794Y028856D01*
X019679Y028740D01*
X019630Y028624D01*
X019574Y028760D01*
X019458Y028876D01*
X019308Y028938D01*
X018785Y028938D01*
X018645Y029078D01*
X018876Y029078D01*
X018876Y029478D01*
X018245Y029478D01*
X018045Y029678D01*
X017426Y029678D01*
X017426Y029849D01*
X017362Y029913D01*
X016811Y029913D01*
X016786Y029889D01*
X016762Y029913D01*
X016218Y029913D01*
X016208Y029923D01*
X016174Y029943D01*
X016136Y029953D01*
X015936Y029953D01*
X015936Y029538D01*
X015836Y029538D01*
X015836Y029438D01*
X015506Y029438D01*
X015506Y029153D01*
X015516Y029115D01*
X015536Y029081D01*
X015564Y029053D01*
X015598Y029033D01*
X015636Y029023D01*
X015836Y029023D01*
X015836Y029438D01*
X015936Y029438D01*
X015936Y029023D01*
X016136Y029023D01*
X016174Y029033D01*
X016208Y029053D01*
X016218Y029063D01*
X016236Y029063D01*
X016236Y029018D01*
X015747Y029018D01*
X015507Y028778D01*
X015396Y028667D01*
X015396Y027609D01*
X015507Y027498D01*
X015507Y027498D01*
X016028Y026977D01*
X016295Y026977D01*
X016322Y026950D01*
X016416Y026911D01*
X016518Y026911D01*
X016612Y026950D01*
X016684Y027022D01*
X016696Y027052D01*
X016696Y026307D01*
X015933Y025544D01*
X015895Y025544D01*
X015801Y025505D01*
X015729Y025433D01*
X015690Y025339D01*
X015690Y025237D01*
X015729Y025143D01*
X015754Y025118D01*
X015185Y025118D01*
X015002Y025301D01*
X015002Y025339D01*
X014963Y025433D01*
X014891Y025505D01*
X014797Y025544D01*
X014695Y025544D01*
X014601Y025505D01*
X014529Y025433D01*
X014490Y025339D01*
X014490Y025237D01*
X014529Y025143D01*
X014601Y025071D01*
X014695Y025032D01*
X014733Y025032D01*
X014916Y024849D01*
X015027Y024738D01*
X015927Y024738D01*
X016116Y024549D01*
X016227Y024438D01*
X016102Y024564D02*
X009356Y024564D01*
X009356Y024662D02*
X016003Y024662D01*
X016245Y024958D02*
X020156Y024958D01*
X020146Y024983D02*
X020219Y024806D01*
X020354Y024671D01*
X020531Y024598D01*
X020722Y024598D01*
X020898Y024671D01*
X021033Y024806D01*
X021079Y024918D01*
X022733Y024918D01*
X022779Y024806D01*
X022914Y024671D01*
X023091Y024598D01*
X023282Y024598D01*
X023458Y024671D01*
X023593Y024806D01*
X023666Y024983D01*
X023666Y025174D01*
X023593Y025350D01*
X023458Y025485D01*
X023282Y025558D01*
X023091Y025558D01*
X022914Y025485D01*
X022779Y025350D01*
X022733Y025238D01*
X021079Y025238D01*
X021033Y025350D01*
X020898Y025485D01*
X020722Y025558D01*
X020531Y025558D01*
X020354Y025485D01*
X020219Y025350D01*
X020146Y025174D01*
X020146Y024983D01*
X020146Y025056D02*
X016147Y025056D01*
X016168Y025155D02*
X020146Y025155D01*
X020179Y025253D02*
X016202Y025253D01*
X016278Y025352D02*
X020221Y025352D01*
X020319Y025450D02*
X016377Y025450D01*
X016475Y025549D02*
X020508Y025549D01*
X020744Y025549D02*
X023068Y025549D01*
X022879Y025450D02*
X020933Y025450D01*
X021031Y025352D02*
X022781Y025352D01*
X022739Y025253D02*
X021073Y025253D01*
X020626Y025078D02*
X023186Y025078D01*
X023633Y025253D02*
X023806Y025253D01*
X023806Y025155D02*
X023666Y025155D01*
X023666Y025056D02*
X023806Y025056D01*
X023806Y024958D02*
X023656Y024958D01*
X023615Y024859D02*
X023806Y024859D01*
X023806Y024761D02*
X023548Y024761D01*
X023436Y024662D02*
X023806Y024662D01*
X023806Y024564D02*
X018057Y024564D01*
X018062Y024662D02*
X020376Y024662D01*
X020265Y024761D02*
X018028Y024761D01*
X017917Y024859D02*
X020197Y024859D01*
X020876Y024662D02*
X022936Y024662D01*
X022825Y024761D02*
X020988Y024761D01*
X021055Y024859D02*
X022757Y024859D01*
X023304Y025549D02*
X023806Y025549D01*
X023806Y025647D02*
X016574Y025647D01*
X016672Y025746D02*
X023806Y025746D01*
X023806Y025844D02*
X016771Y025844D01*
X016869Y025943D02*
X023806Y025943D01*
X023806Y026041D02*
X016968Y026041D01*
X017066Y026140D02*
X023806Y026140D01*
X023806Y026238D02*
X017076Y026238D01*
X017076Y026337D02*
X023806Y026337D01*
X023806Y026435D02*
X023419Y026435D01*
X023458Y026451D02*
X023593Y026586D01*
X023666Y026763D01*
X023666Y026954D01*
X023593Y027130D01*
X023458Y027265D01*
X023282Y027338D01*
X023091Y027338D01*
X022914Y027265D01*
X022779Y027130D01*
X022733Y027018D01*
X021079Y027018D01*
X021033Y027130D01*
X020898Y027265D01*
X020722Y027338D01*
X020531Y027338D01*
X020354Y027265D01*
X020219Y027130D01*
X020146Y026954D01*
X020146Y026763D01*
X020219Y026586D01*
X020354Y026451D01*
X020531Y026378D01*
X020722Y026378D01*
X020898Y026451D01*
X021033Y026586D01*
X021079Y026698D01*
X022733Y026698D01*
X022779Y026586D01*
X022914Y026451D01*
X023091Y026378D01*
X023282Y026378D01*
X023458Y026451D01*
X023541Y026534D02*
X023806Y026534D01*
X023806Y026632D02*
X023612Y026632D01*
X023653Y026731D02*
X023806Y026731D01*
X023806Y026829D02*
X023666Y026829D01*
X023666Y026928D02*
X023806Y026928D01*
X023806Y027026D02*
X023636Y027026D01*
X023595Y027125D02*
X023806Y027125D01*
X023806Y027223D02*
X023500Y027223D01*
X023321Y027322D02*
X023806Y027322D01*
X023806Y027420D02*
X017076Y027420D01*
X017076Y027322D02*
X020491Y027322D01*
X020312Y027223D02*
X017076Y027223D01*
X017076Y027125D02*
X020217Y027125D01*
X020176Y027026D02*
X017076Y027026D01*
X017076Y026928D02*
X020146Y026928D01*
X020146Y026829D02*
X017076Y026829D01*
X017076Y026731D02*
X020159Y026731D01*
X020200Y026632D02*
X017076Y026632D01*
X017076Y026534D02*
X020272Y026534D01*
X020393Y026435D02*
X017076Y026435D01*
X016696Y026435D02*
X010613Y026435D01*
X010618Y026438D02*
X010646Y026466D01*
X010666Y026500D01*
X010676Y026538D01*
X010676Y026758D01*
X010076Y026758D01*
X010076Y026408D01*
X010546Y026408D01*
X010584Y026418D01*
X010618Y026438D01*
X010675Y026534D02*
X016696Y026534D01*
X016696Y026632D02*
X010676Y026632D01*
X010676Y026731D02*
X016696Y026731D01*
X016696Y026829D02*
X010076Y026829D01*
X010076Y026858D02*
X010676Y026858D01*
X010676Y027078D01*
X010666Y027116D01*
X010646Y027150D01*
X010618Y027178D01*
X010584Y027198D01*
X010546Y027208D01*
X010076Y027208D01*
X010076Y026858D01*
X009976Y026858D01*
X009976Y026758D01*
X009376Y026758D01*
X009376Y026538D01*
X009386Y026500D01*
X009406Y026466D01*
X009434Y026438D01*
X009468Y026418D01*
X009506Y026408D01*
X009976Y026408D01*
X009976Y026758D01*
X010076Y026758D01*
X010076Y026858D01*
X010076Y026928D02*
X009976Y026928D01*
X009976Y026858D02*
X009976Y027208D01*
X009506Y027208D01*
X009468Y027198D01*
X009434Y027178D01*
X009406Y027150D01*
X009386Y027116D01*
X009376Y027078D01*
X009376Y026858D01*
X009976Y026858D01*
X009976Y026829D02*
X009004Y026829D01*
X009009Y026835D02*
X009051Y026892D01*
X009083Y026955D01*
X009105Y027023D01*
X009114Y027078D01*
X008416Y027078D01*
X008416Y026678D01*
X008702Y026678D01*
X008772Y026689D01*
X008839Y026711D01*
X008902Y026743D01*
X008959Y026785D01*
X009009Y026835D01*
X009069Y026928D02*
X009376Y026928D01*
X009376Y027026D02*
X009106Y027026D01*
X009114Y027178D02*
X009105Y027233D01*
X009083Y027301D01*
X009051Y027364D01*
X009009Y027421D01*
X008959Y027471D01*
X008902Y027513D01*
X008839Y027545D01*
X008772Y027567D01*
X008702Y027578D01*
X008416Y027578D01*
X008416Y027178D01*
X008316Y027178D01*
X008316Y027078D01*
X007618Y027078D01*
X007627Y027023D01*
X007649Y026955D01*
X007681Y026892D01*
X007723Y026835D01*
X007773Y026785D01*
X007830Y026743D01*
X007893Y026711D01*
X007961Y026689D01*
X008031Y026678D01*
X008316Y026678D01*
X008316Y027078D01*
X008416Y027078D01*
X008416Y027178D01*
X009114Y027178D01*
X009107Y027223D02*
X015782Y027223D01*
X015684Y027322D02*
X009073Y027322D01*
X009010Y027420D02*
X015585Y027420D01*
X015487Y027519D02*
X008891Y027519D01*
X008839Y027711D02*
X008902Y027743D01*
X008959Y027785D01*
X009009Y027835D01*
X009051Y027892D01*
X009083Y027955D01*
X009105Y028023D01*
X009114Y028078D01*
X008416Y028078D01*
X008416Y027678D01*
X008702Y027678D01*
X008772Y027689D01*
X008839Y027711D01*
X008848Y027716D02*
X015396Y027716D01*
X015396Y027814D02*
X008989Y027814D01*
X009061Y027913D02*
X015396Y027913D01*
X015396Y028011D02*
X009101Y028011D01*
X009114Y028178D02*
X009105Y028233D01*
X009083Y028301D01*
X009051Y028364D01*
X009009Y028421D01*
X008959Y028471D01*
X008902Y028513D01*
X008839Y028545D01*
X008772Y028567D01*
X008702Y028578D01*
X008416Y028578D01*
X008416Y028178D01*
X008316Y028178D01*
X008316Y028078D01*
X007618Y028078D01*
X007627Y028023D01*
X007649Y027955D01*
X007681Y027892D01*
X007723Y027835D01*
X007773Y027785D01*
X007830Y027743D01*
X007893Y027711D01*
X007961Y027689D01*
X008031Y027678D01*
X008316Y027678D01*
X008316Y028078D01*
X008416Y028078D01*
X008416Y028178D01*
X009114Y028178D01*
X009109Y028208D02*
X015396Y028208D01*
X015396Y028110D02*
X008416Y028110D01*
X008416Y028208D02*
X008316Y028208D01*
X008316Y028178D02*
X008316Y028578D01*
X008031Y028578D01*
X007961Y028567D01*
X007893Y028545D01*
X007830Y028513D01*
X007773Y028471D01*
X007723Y028421D01*
X007681Y028364D01*
X007649Y028301D01*
X007627Y028233D01*
X007618Y028178D01*
X008316Y028178D01*
X008316Y028110D02*
X007606Y028110D01*
X007606Y028208D02*
X007623Y028208D01*
X007606Y028307D02*
X007652Y028307D01*
X007606Y028405D02*
X007711Y028405D01*
X007606Y028504D02*
X007817Y028504D01*
X007606Y028602D02*
X015396Y028602D01*
X015396Y028504D02*
X008915Y028504D01*
X009021Y028405D02*
X015396Y028405D01*
X015396Y028307D02*
X009080Y028307D01*
X008416Y028307D02*
X008316Y028307D01*
X008316Y028405D02*
X008416Y028405D01*
X008416Y028504D02*
X008316Y028504D01*
X008316Y028011D02*
X008416Y028011D01*
X008416Y027913D02*
X008316Y027913D01*
X008316Y027814D02*
X008416Y027814D01*
X008416Y027716D02*
X008316Y027716D01*
X008316Y027578D02*
X008031Y027578D01*
X007961Y027567D01*
X007893Y027545D01*
X007830Y027513D01*
X007773Y027471D01*
X007723Y027421D01*
X007681Y027364D01*
X007649Y027301D01*
X007627Y027233D01*
X007618Y027178D01*
X008316Y027178D01*
X008316Y027578D01*
X008316Y027519D02*
X008416Y027519D01*
X008416Y027420D02*
X008316Y027420D01*
X008316Y027322D02*
X008416Y027322D01*
X008416Y027223D02*
X008316Y027223D01*
X008316Y027125D02*
X007606Y027125D01*
X007606Y027223D02*
X007626Y027223D01*
X007606Y027322D02*
X007660Y027322D01*
X007606Y027420D02*
X007722Y027420D01*
X007606Y027519D02*
X007841Y027519D01*
X007884Y027716D02*
X007606Y027716D01*
X007606Y027814D02*
X007744Y027814D01*
X007671Y027913D02*
X007606Y027913D01*
X007606Y028011D02*
X007631Y028011D01*
X007606Y027617D02*
X015396Y027617D01*
X015881Y027125D02*
X010661Y027125D01*
X010676Y027026D02*
X015979Y027026D01*
X016377Y026928D02*
X010676Y026928D01*
X010076Y027026D02*
X009976Y027026D01*
X009976Y027125D02*
X010076Y027125D01*
X009391Y027125D02*
X008416Y027125D01*
X008416Y027026D02*
X008316Y027026D01*
X008316Y026928D02*
X008416Y026928D01*
X008416Y026829D02*
X008316Y026829D01*
X008316Y026731D02*
X008416Y026731D01*
X008877Y026731D02*
X009376Y026731D01*
X009376Y026632D02*
X007606Y026632D01*
X007606Y026534D02*
X009377Y026534D01*
X009439Y026435D02*
X007606Y026435D01*
X007606Y026337D02*
X016696Y026337D01*
X016628Y026238D02*
X007606Y026238D01*
X007606Y026140D02*
X013316Y026140D01*
X013657Y026140D02*
X016529Y026140D01*
X016431Y026041D02*
X013725Y026041D01*
X013742Y025943D02*
X016332Y025943D01*
X016234Y025844D02*
X013720Y025844D01*
X013646Y025746D02*
X016135Y025746D01*
X016037Y025647D02*
X011039Y025647D01*
X010991Y025746D02*
X013327Y025746D01*
X012701Y025450D02*
X014546Y025450D01*
X014495Y025352D02*
X012722Y025352D01*
X012704Y025253D02*
X014490Y025253D01*
X014524Y025155D02*
X012635Y025155D01*
X012298Y025155D02*
X009356Y025155D01*
X009356Y025253D02*
X010852Y025253D01*
X010688Y025352D02*
X009378Y025352D01*
X009477Y025450D02*
X010566Y025450D01*
X010530Y025549D02*
X009575Y025549D01*
X009674Y025647D02*
X010534Y025647D01*
X010582Y025746D02*
X009772Y025746D01*
X009531Y026041D02*
X007606Y026041D01*
X007606Y025943D02*
X009432Y025943D01*
X009334Y025844D02*
X007606Y025844D01*
X007606Y025746D02*
X009235Y025746D01*
X009137Y025647D02*
X007606Y025647D01*
X007606Y025549D02*
X009038Y025549D01*
X008976Y025450D02*
X007606Y025450D01*
X007606Y025352D02*
X008976Y025352D01*
X008976Y025253D02*
X007606Y025253D01*
X007606Y025155D02*
X008976Y025155D01*
X008976Y025056D02*
X007606Y025056D01*
X007606Y024958D02*
X008976Y024958D01*
X008976Y024859D02*
X007606Y024859D01*
X007606Y024761D02*
X008976Y024761D01*
X008976Y024662D02*
X007606Y024662D01*
X007606Y024564D02*
X008976Y024564D01*
X008976Y024465D02*
X007606Y024465D01*
X007606Y024367D02*
X008976Y024367D01*
X008976Y024268D02*
X007606Y024268D01*
X007606Y024170D02*
X008976Y024170D01*
X008976Y024071D02*
X007606Y024071D01*
X007606Y023973D02*
X008976Y023973D01*
X008976Y023874D02*
X007606Y023874D01*
X007606Y023776D02*
X008976Y023776D01*
X008976Y023677D02*
X007606Y023677D01*
X007606Y023579D02*
X008976Y023579D01*
X008976Y023480D02*
X007606Y023480D01*
X007606Y023382D02*
X008976Y023382D01*
X008976Y023283D02*
X007606Y023283D01*
X007606Y023185D02*
X008976Y023185D01*
X008976Y023086D02*
X007606Y023086D01*
X007606Y022988D02*
X008976Y022988D01*
X008976Y022889D02*
X007606Y022889D01*
X007606Y022791D02*
X008976Y022791D01*
X008976Y022692D02*
X007606Y022692D01*
X007606Y022594D02*
X008976Y022594D01*
X008976Y022495D02*
X007606Y022495D01*
X009356Y022495D02*
X019519Y022495D01*
X019519Y022397D02*
X017026Y022397D01*
X017026Y022298D02*
X019519Y022298D01*
X019519Y022200D02*
X017026Y022200D01*
X017026Y022101D02*
X019519Y022101D01*
X019786Y022293D02*
X019786Y021623D01*
X020096Y021609D02*
X020239Y021609D01*
X020266Y021582D02*
X021341Y021582D01*
X021406Y021646D01*
X021406Y022210D01*
X021406Y022101D02*
X022367Y022101D01*
X022367Y022003D02*
X021406Y022003D01*
X021406Y021904D02*
X022367Y021904D01*
X022367Y021806D02*
X021406Y021806D01*
X021406Y021707D02*
X022367Y021707D01*
X022345Y021609D02*
X021368Y021609D01*
X021341Y021290D02*
X020266Y021290D01*
X020201Y021226D01*
X020201Y020662D01*
X020266Y020598D01*
X021341Y020598D01*
X021406Y020662D01*
X021406Y021226D01*
X021341Y021290D01*
X021406Y021215D02*
X022331Y021215D01*
X022325Y021313D02*
X020103Y021313D01*
X020096Y021412D02*
X022290Y021412D01*
X022295Y021510D02*
X020096Y021510D01*
X020201Y021646D02*
X020266Y021582D01*
X020201Y021646D02*
X020201Y022210D01*
X020266Y022274D01*
X020866Y022274D01*
X021158Y022566D01*
X020266Y022566D01*
X020201Y022631D01*
X020201Y022752D01*
X020054Y022752D01*
X020054Y022680D01*
X019989Y022616D01*
X019583Y022616D01*
X019519Y022680D01*
X019519Y023086D01*
X009356Y023086D01*
X009356Y022988D02*
X019519Y022988D01*
X019519Y023086D02*
X019583Y023151D01*
X019989Y023151D01*
X020054Y023086D01*
X019815Y022912D02*
X019786Y022883D01*
X019815Y022912D02*
X020803Y022912D01*
X021087Y022495D02*
X020054Y022495D01*
X020054Y022397D02*
X020988Y022397D01*
X020890Y022298D02*
X020054Y022298D01*
X020054Y022200D02*
X020201Y022200D01*
X020201Y022101D02*
X020054Y022101D01*
X019946Y022003D02*
X020201Y022003D01*
X020201Y021904D02*
X020046Y021904D01*
X020096Y021806D02*
X020201Y021806D01*
X020201Y021707D02*
X020096Y021707D01*
X020136Y021215D02*
X020201Y021215D01*
X020201Y021116D02*
X020136Y021116D01*
X020134Y020821D02*
X020201Y020821D01*
X020201Y020722D02*
X020068Y020722D01*
X020240Y020624D02*
X019196Y020624D01*
X019195Y020722D02*
X019504Y020722D01*
X019438Y020821D02*
X019134Y020821D01*
X019156Y020919D02*
X019436Y020919D01*
X019744Y020919D02*
X019829Y020919D01*
X019829Y020821D02*
X019744Y020821D01*
X019744Y020722D02*
X019829Y020722D01*
X018536Y021313D02*
X018408Y021313D01*
X017153Y022003D02*
X017026Y022003D01*
X016786Y021203D02*
X016372Y021203D01*
X016372Y020402D01*
X015384Y020402D01*
X015384Y020302D01*
X016372Y020302D01*
X016372Y019528D01*
X016372Y019527D01*
X016372Y019392D01*
X016319Y019392D01*
X016314Y019387D01*
X016280Y019367D01*
X016256Y019361D01*
X016372Y019361D01*
X016372Y019226D01*
X016362Y019187D01*
X016342Y019153D01*
X016314Y019125D01*
X016280Y019106D01*
X016242Y019095D01*
X016105Y019095D01*
X016105Y019357D01*
X016074Y019357D01*
X016074Y019095D01*
X015937Y019095D01*
X015898Y019106D01*
X015864Y019125D01*
X015836Y019153D01*
X015834Y019157D01*
X015832Y019154D01*
X015804Y019126D01*
X015770Y019106D01*
X015732Y019096D01*
X015594Y019096D01*
X015594Y019357D01*
X015564Y019357D01*
X015564Y019096D01*
X015426Y019096D01*
X015388Y019106D01*
X015354Y019126D01*
X015339Y019141D01*
X015324Y019126D01*
X015289Y019106D01*
X015251Y019096D01*
X015114Y019096D01*
X015114Y019357D01*
X015083Y019357D01*
X015083Y019096D01*
X014946Y019096D01*
X014908Y019106D01*
X014874Y019126D01*
X014846Y019154D01*
X014839Y019166D01*
X014832Y019154D01*
X014804Y019126D01*
X014770Y019106D01*
X014732Y019096D01*
X014594Y019096D01*
X014594Y019357D01*
X014564Y019357D01*
X014564Y019096D01*
X014426Y019096D01*
X014388Y019106D01*
X014354Y019126D01*
X014326Y019154D01*
X014306Y019188D01*
X014296Y019226D01*
X014296Y019362D01*
X014409Y019362D01*
X014388Y019367D01*
X014354Y019387D01*
X014348Y019392D01*
X014296Y019392D01*
X014296Y020302D01*
X015284Y020302D01*
X015284Y020402D01*
X014296Y020402D01*
X014296Y021218D01*
X014306Y021256D01*
X014326Y021290D01*
X014354Y021318D01*
X014378Y021332D01*
X014340Y021370D01*
X014340Y021756D01*
X014405Y021821D01*
X014443Y021821D01*
X014443Y021869D01*
X014409Y021903D01*
X014370Y021997D01*
X014370Y022099D01*
X014409Y022193D01*
X014481Y022265D01*
X014537Y022288D01*
X009406Y022288D01*
X009406Y018328D01*
X014788Y018328D01*
X015106Y018646D01*
X015106Y018929D01*
X015171Y018993D01*
X015722Y018993D01*
X015746Y018969D01*
X015771Y018993D01*
X016322Y018993D01*
X016386Y018929D01*
X016386Y018846D01*
X016786Y019246D01*
X016786Y021203D01*
X016786Y021116D02*
X016372Y021116D01*
X016372Y021018D02*
X016786Y021018D01*
X016786Y020919D02*
X016372Y020919D01*
X016372Y020821D02*
X016786Y020821D01*
X016786Y020722D02*
X016372Y020722D01*
X016372Y020624D02*
X016786Y020624D01*
X016786Y020525D02*
X016372Y020525D01*
X016372Y020427D02*
X016786Y020427D01*
X016786Y020328D02*
X015384Y020328D01*
X015284Y020328D02*
X013656Y020328D01*
X013656Y020230D02*
X014296Y020230D01*
X014296Y020131D02*
X013656Y020131D01*
X013656Y020033D02*
X014296Y020033D01*
X014296Y019934D02*
X013656Y019934D01*
X013656Y019836D02*
X014296Y019836D01*
X014296Y019737D02*
X013656Y019737D01*
X013656Y019733D02*
X013656Y021776D01*
X013592Y021840D01*
X013235Y021840D01*
X013170Y021776D01*
X013170Y021579D01*
X013136Y021579D01*
X013136Y021776D01*
X013072Y021840D01*
X012715Y021840D01*
X012653Y021778D01*
X012592Y021840D01*
X012235Y021840D01*
X012170Y021776D01*
X012170Y021579D01*
X012146Y021579D01*
X012146Y021776D01*
X012081Y021841D01*
X011725Y021841D01*
X011660Y021776D01*
X011660Y021423D01*
X011661Y021423D01*
X011661Y019733D01*
X011700Y019693D01*
X011678Y019681D01*
X011650Y019653D01*
X011630Y019619D01*
X011620Y019580D01*
X011620Y019430D01*
X011887Y019430D01*
X011887Y019397D01*
X011919Y019397D01*
X011919Y019115D01*
X012056Y019115D01*
X012094Y019126D01*
X012128Y019145D01*
X012156Y019173D01*
X012158Y019177D01*
X012160Y019173D01*
X012188Y019145D01*
X012222Y019126D01*
X012261Y019115D01*
X012397Y019115D01*
X012397Y019397D01*
X011919Y019397D01*
X011919Y019430D01*
X012186Y019430D01*
X012397Y019430D01*
X012397Y019397D01*
X012430Y019397D01*
X012611Y019397D01*
X012877Y019397D01*
X012877Y019430D01*
X012430Y019430D01*
X012430Y019397D01*
X012430Y019115D01*
X012566Y019115D01*
X012604Y019126D01*
X012638Y019145D01*
X012653Y019161D01*
X012669Y019145D01*
X012703Y019126D01*
X012741Y019115D01*
X012877Y019115D01*
X012877Y019397D01*
X012910Y019397D01*
X012910Y019115D01*
X013046Y019115D01*
X013084Y019126D01*
X013119Y019145D01*
X013146Y019173D01*
X013166Y019208D01*
X013169Y019217D01*
X013231Y019155D01*
X013588Y019155D01*
X013632Y019200D01*
X013641Y019191D01*
X013735Y019152D01*
X013837Y019152D01*
X013931Y019191D01*
X014003Y019263D01*
X014042Y019357D01*
X014042Y019459D01*
X014003Y019553D01*
X013931Y019625D01*
X013837Y019664D01*
X013735Y019664D01*
X013641Y019625D01*
X013637Y019621D01*
X013590Y019668D01*
X013592Y019668D01*
X013656Y019733D01*
X013674Y019639D02*
X013620Y019639D01*
X013899Y019639D02*
X014296Y019639D01*
X014296Y019540D02*
X014009Y019540D01*
X014042Y019442D02*
X014296Y019442D01*
X014296Y019343D02*
X014036Y019343D01*
X013985Y019245D02*
X014296Y019245D01*
X014334Y019146D02*
X013119Y019146D01*
X012910Y019146D02*
X012877Y019146D01*
X012877Y019245D02*
X012910Y019245D01*
X012910Y019343D02*
X012877Y019343D01*
X012668Y019146D02*
X012639Y019146D01*
X012430Y019146D02*
X012397Y019146D01*
X012397Y019245D02*
X012430Y019245D01*
X012430Y019343D02*
X012397Y019343D01*
X012188Y019146D02*
X012129Y019146D01*
X011919Y019146D02*
X011887Y019146D01*
X011887Y019115D02*
X011887Y019397D01*
X011620Y019397D01*
X011620Y019246D01*
X011630Y019208D01*
X011650Y019173D01*
X011678Y019145D01*
X011712Y019126D01*
X011750Y019115D01*
X011887Y019115D01*
X011887Y019245D02*
X011919Y019245D01*
X011919Y019343D02*
X011887Y019343D01*
X011620Y019343D02*
X010436Y019343D01*
X010436Y019318D02*
X010436Y019418D01*
X010336Y019418D01*
X010336Y019318D01*
X009736Y019318D01*
X009736Y019098D01*
X009746Y019060D01*
X009766Y019026D01*
X009794Y018998D01*
X009828Y018978D01*
X009866Y018968D01*
X010336Y018968D01*
X010336Y019318D01*
X010436Y019318D01*
X010436Y018968D01*
X010906Y018968D01*
X010944Y018978D01*
X010978Y018998D01*
X011006Y019026D01*
X011026Y019060D01*
X011036Y019098D01*
X011036Y019318D01*
X010436Y019318D01*
X010436Y019245D02*
X010336Y019245D01*
X010336Y019343D02*
X009406Y019343D01*
X009406Y019245D02*
X009736Y019245D01*
X009736Y019146D02*
X009406Y019146D01*
X009406Y019048D02*
X009754Y019048D01*
X009406Y018949D02*
X015127Y018949D01*
X015106Y018851D02*
X009406Y018851D01*
X009406Y018752D02*
X015106Y018752D01*
X015106Y018654D02*
X009406Y018654D01*
X009406Y018555D02*
X015015Y018555D01*
X014917Y018457D02*
X009406Y018457D01*
X009406Y018358D02*
X014818Y018358D01*
X014548Y018088D02*
X014328Y017868D01*
X014246Y017786D01*
X014246Y017250D01*
X014306Y017190D01*
X014388Y017108D01*
X014416Y017108D01*
X014416Y016342D01*
X015404Y016342D01*
X015404Y016242D01*
X014416Y016242D01*
X014416Y015332D01*
X014468Y015332D01*
X014474Y015327D01*
X014508Y015307D01*
X014529Y015302D01*
X014416Y015302D01*
X014416Y015166D01*
X014426Y015128D01*
X014446Y015094D01*
X014474Y015066D01*
X014508Y015046D01*
X014546Y015036D01*
X014684Y015036D01*
X014684Y015297D01*
X014714Y015297D01*
X014714Y015036D01*
X014852Y015036D01*
X014890Y015046D01*
X014924Y015066D01*
X014952Y015094D01*
X014959Y015106D01*
X014966Y015094D01*
X014994Y015066D01*
X015028Y015046D01*
X015066Y015036D01*
X015203Y015036D01*
X015203Y015297D01*
X015234Y015297D01*
X015234Y015036D01*
X015371Y015036D01*
X015409Y015046D01*
X015444Y015066D01*
X015459Y015081D01*
X015474Y015066D01*
X015508Y015046D01*
X015546Y015036D01*
X015684Y015036D01*
X015684Y015297D01*
X015714Y015297D01*
X015714Y015036D01*
X015852Y015036D01*
X015890Y015046D01*
X015924Y015066D01*
X015952Y015094D01*
X015954Y015097D01*
X015956Y015093D01*
X015984Y015065D01*
X016018Y015046D01*
X016057Y015035D01*
X016194Y015035D01*
X016194Y015297D01*
X016225Y015297D01*
X016225Y015035D01*
X016362Y015035D01*
X016400Y015046D01*
X016434Y015065D01*
X016462Y015093D01*
X016482Y015127D01*
X016492Y015166D01*
X016492Y015301D01*
X016376Y015301D01*
X016400Y015307D01*
X016434Y015327D01*
X016439Y015332D01*
X016492Y015332D01*
X016492Y015467D01*
X016492Y015468D01*
X016492Y016058D01*
X016555Y016032D01*
X016657Y016032D01*
X016751Y016071D01*
X016786Y016106D01*
X016786Y014775D01*
X016761Y014765D01*
X016689Y014693D01*
X016650Y014599D01*
X016650Y014497D01*
X016652Y014492D01*
X016408Y014248D01*
X015238Y014248D01*
X015203Y014333D01*
X015131Y014405D01*
X015037Y014444D01*
X014935Y014444D01*
X014841Y014405D01*
X014769Y014333D01*
X014734Y014248D01*
X009406Y014248D01*
X009406Y015560D01*
X009408Y015558D01*
X009446Y015548D01*
X009916Y015548D01*
X009916Y015898D01*
X010016Y015898D01*
X010016Y015548D01*
X010486Y015548D01*
X010524Y015558D01*
X010558Y015578D01*
X010586Y015606D01*
X010606Y015640D01*
X010616Y015678D01*
X010616Y015898D01*
X010016Y015898D01*
X010016Y015998D01*
X009916Y015998D01*
X009916Y016348D01*
X009446Y016348D01*
X009408Y016338D01*
X009406Y016337D01*
X009406Y018088D01*
X014548Y018088D01*
X014523Y018063D02*
X009406Y018063D01*
X009406Y017964D02*
X014424Y017964D01*
X014326Y017866D02*
X013586Y017866D01*
X013596Y017856D02*
X013532Y017920D01*
X013175Y017920D01*
X013110Y017856D01*
X013110Y017659D01*
X013076Y017659D01*
X013076Y017856D01*
X013012Y017920D01*
X012655Y017920D01*
X012593Y017858D01*
X012532Y017920D01*
X012175Y017920D01*
X012110Y017856D01*
X012110Y017659D01*
X012086Y017659D01*
X012086Y017856D01*
X012021Y017921D01*
X011665Y017921D01*
X011600Y017856D01*
X011600Y017503D01*
X011601Y017503D01*
X011601Y015813D01*
X011640Y015773D01*
X011618Y015761D01*
X011590Y015733D01*
X011570Y015699D01*
X011560Y015660D01*
X011560Y015510D01*
X011827Y015510D01*
X011827Y015477D01*
X011859Y015477D01*
X011859Y015195D01*
X011996Y015195D01*
X012034Y015206D01*
X012068Y015225D01*
X012096Y015253D01*
X012098Y015257D01*
X012100Y015253D01*
X012128Y015225D01*
X012162Y015206D01*
X012035Y015206D01*
X012162Y015206D02*
X012201Y015195D01*
X012337Y015195D01*
X012337Y015477D01*
X011859Y015477D01*
X011859Y015510D01*
X012126Y015510D01*
X012337Y015510D01*
X012337Y015477D01*
X012370Y015477D01*
X012551Y015477D01*
X012817Y015477D01*
X012817Y015510D01*
X012370Y015510D01*
X012370Y015477D01*
X012370Y015195D01*
X012506Y015195D01*
X012544Y015206D01*
X012578Y015225D01*
X012593Y015241D01*
X012609Y015225D01*
X012643Y015206D01*
X012681Y015195D01*
X012817Y015195D01*
X012817Y015477D01*
X012850Y015477D01*
X012850Y015195D01*
X012986Y015195D01*
X013024Y015206D01*
X013059Y015225D01*
X013086Y015253D01*
X013106Y015288D01*
X013109Y015297D01*
X013171Y015235D01*
X013528Y015235D01*
X013583Y015290D01*
X013675Y015252D01*
X013777Y015252D01*
X013871Y015291D01*
X013943Y015363D01*
X013982Y015457D01*
X013982Y015559D01*
X013943Y015653D01*
X013871Y015725D01*
X013777Y015764D01*
X013675Y015764D01*
X013581Y015725D01*
X013567Y015711D01*
X013530Y015748D01*
X013532Y015748D01*
X013596Y015813D01*
X013596Y017856D01*
X013596Y017767D02*
X014246Y017767D01*
X014246Y017669D02*
X013596Y017669D01*
X013596Y017570D02*
X014246Y017570D01*
X014246Y017472D02*
X013596Y017472D01*
X013596Y017373D02*
X014246Y017373D01*
X014246Y017275D02*
X013596Y017275D01*
X013596Y017176D02*
X014320Y017176D01*
X014416Y017078D02*
X013596Y017078D01*
X013596Y016979D02*
X014416Y016979D01*
X014416Y016881D02*
X013596Y016881D01*
X013596Y016782D02*
X014416Y016782D01*
X014416Y016684D02*
X013596Y016684D01*
X013596Y016585D02*
X014416Y016585D01*
X014416Y016487D02*
X013596Y016487D01*
X013596Y016388D02*
X014416Y016388D01*
X014416Y016191D02*
X013596Y016191D01*
X013596Y016093D02*
X014416Y016093D01*
X014416Y015994D02*
X013596Y015994D01*
X013596Y015896D02*
X014416Y015896D01*
X014416Y015797D02*
X013581Y015797D01*
X013898Y015699D02*
X014416Y015699D01*
X014416Y015600D02*
X013965Y015600D01*
X013982Y015502D02*
X014416Y015502D01*
X014416Y015403D02*
X013960Y015403D01*
X013885Y015305D02*
X014518Y015305D01*
X014416Y015206D02*
X013025Y015206D01*
X012850Y015206D02*
X012817Y015206D01*
X012817Y015305D02*
X012850Y015305D01*
X012850Y015403D02*
X012817Y015403D01*
X012817Y015502D02*
X012370Y015502D01*
X012337Y015502D02*
X011859Y015502D01*
X011827Y015502D02*
X009406Y015502D01*
X009406Y015403D02*
X011560Y015403D01*
X011560Y015477D02*
X011560Y015326D01*
X011570Y015288D01*
X011590Y015253D01*
X011618Y015225D01*
X011652Y015206D01*
X011690Y015195D01*
X011827Y015195D01*
X011827Y015477D01*
X011560Y015477D01*
X011560Y015600D02*
X010580Y015600D01*
X010616Y015699D02*
X011570Y015699D01*
X011616Y015797D02*
X010616Y015797D01*
X010616Y015896D02*
X011601Y015896D01*
X011601Y015994D02*
X010016Y015994D01*
X010016Y015998D02*
X010616Y015998D01*
X010616Y016218D01*
X010606Y016256D01*
X010586Y016290D01*
X010558Y016318D01*
X010524Y016338D01*
X010486Y016348D01*
X010016Y016348D01*
X010016Y015998D01*
X010016Y016093D02*
X009916Y016093D01*
X009916Y016191D02*
X010016Y016191D01*
X010016Y016290D02*
X009916Y016290D01*
X009916Y015896D02*
X010016Y015896D01*
X010016Y015797D02*
X009916Y015797D01*
X009916Y015699D02*
X010016Y015699D01*
X010016Y015600D02*
X009916Y015600D01*
X009406Y015305D02*
X011566Y015305D01*
X011652Y015206D02*
X009406Y015206D01*
X009406Y015108D02*
X014438Y015108D01*
X014684Y015108D02*
X014714Y015108D01*
X014714Y015206D02*
X014684Y015206D01*
X015203Y015206D02*
X015234Y015206D01*
X015234Y015108D02*
X015203Y015108D01*
X015684Y015108D02*
X015714Y015108D01*
X015714Y015206D02*
X015684Y015206D01*
X016194Y015206D02*
X016225Y015206D01*
X016225Y015108D02*
X016194Y015108D01*
X016470Y015108D02*
X016786Y015108D01*
X016786Y015206D02*
X016492Y015206D01*
X016390Y015305D02*
X016786Y015305D01*
X016786Y015403D02*
X016492Y015403D01*
X016492Y015502D02*
X016786Y015502D01*
X016786Y015600D02*
X016492Y015600D01*
X016492Y015699D02*
X016786Y015699D01*
X016786Y015797D02*
X016492Y015797D01*
X016492Y015896D02*
X016786Y015896D01*
X016786Y015994D02*
X016492Y015994D01*
X016773Y016093D02*
X016786Y016093D01*
X017202Y016266D02*
X017264Y016328D01*
X018290Y016328D01*
X018270Y016279D01*
X018270Y016263D01*
X018257Y016266D01*
X017756Y016266D01*
X017756Y015812D01*
X017656Y015812D01*
X017656Y016266D01*
X017202Y016266D01*
X017226Y016290D02*
X018275Y016290D01*
X018388Y016008D02*
X018475Y015972D01*
X018577Y015972D01*
X018664Y016008D01*
X018609Y015953D01*
X018570Y015859D01*
X018570Y015757D01*
X018609Y015663D01*
X018681Y015591D01*
X018775Y015552D01*
X018877Y015552D01*
X018971Y015591D01*
X019043Y015663D01*
X019082Y015757D01*
X019082Y015806D01*
X019124Y015848D01*
X019963Y015848D01*
X019963Y015733D01*
X019963Y015617D01*
X019897Y015644D01*
X019795Y015644D01*
X019701Y015605D01*
X019629Y015533D01*
X019590Y015439D01*
X019590Y015337D01*
X019629Y015243D01*
X019701Y015171D01*
X019795Y015132D01*
X019897Y015132D01*
X019963Y015159D01*
X019963Y014897D01*
X019897Y014924D01*
X019795Y014924D01*
X019701Y014885D01*
X019629Y014813D01*
X019590Y014719D01*
X019590Y014617D01*
X019629Y014523D01*
X019701Y014451D01*
X019795Y014412D01*
X019897Y014412D01*
X019963Y014439D01*
X019963Y014146D01*
X020028Y014082D01*
X020513Y014082D01*
X020529Y014043D01*
X020601Y013971D01*
X020695Y013932D01*
X020797Y013932D01*
X020891Y013971D01*
X020958Y014038D01*
X020963Y014032D01*
X020998Y014012D01*
X021036Y014002D01*
X021716Y014002D01*
X021716Y015480D01*
X021816Y015480D01*
X021816Y014002D01*
X022418Y014002D01*
X022389Y013973D01*
X022387Y013968D01*
X021708Y013968D01*
X020802Y013062D01*
X020797Y013064D01*
X020695Y013064D01*
X020601Y013025D01*
X020529Y012953D01*
X020490Y012859D01*
X020490Y012757D01*
X020529Y012663D01*
X020601Y012591D01*
X020606Y012589D01*
X020606Y012510D01*
X020786Y012330D01*
X020845Y012271D01*
X020845Y012139D01*
X020910Y012075D01*
X021355Y012075D01*
X021420Y012139D01*
X021420Y012545D01*
X021355Y012610D01*
X020910Y012610D01*
X020906Y012606D01*
X020963Y012663D01*
X021002Y012757D01*
X021002Y012859D01*
X021000Y012864D01*
X021824Y013688D01*
X022387Y013688D01*
X022389Y013683D01*
X022461Y013611D01*
X022555Y013572D01*
X022657Y013572D01*
X022751Y013611D01*
X022823Y013683D01*
X022862Y013777D01*
X022862Y013879D01*
X022823Y013973D01*
X022751Y014045D01*
X022657Y014084D01*
X022611Y014084D01*
X022617Y014094D01*
X022627Y014132D01*
X022627Y014765D01*
X022641Y014751D01*
X022646Y014749D01*
X022646Y014730D01*
X022766Y014610D01*
X022848Y014528D01*
X022916Y014528D01*
X022916Y014146D01*
X022980Y014082D01*
X023038Y014082D01*
X022989Y014033D01*
X022950Y013939D01*
X022950Y013837D01*
X022989Y013743D01*
X023061Y013671D01*
X023155Y013632D01*
X023257Y013632D01*
X023351Y013671D01*
X023423Y013743D01*
X023462Y013837D01*
X023462Y013939D01*
X023423Y014033D01*
X023375Y014082D01*
X023505Y014082D01*
X023569Y014146D01*
X023569Y014288D01*
X023587Y014288D01*
X023589Y014283D01*
X023661Y014211D01*
X023755Y014172D01*
X023806Y014172D01*
X023806Y012276D01*
X023728Y012276D01*
X023728Y011997D01*
X023670Y011997D01*
X023670Y011939D01*
X023372Y011939D01*
X023372Y011791D01*
X023382Y011753D01*
X023402Y011718D01*
X023430Y011691D01*
X023464Y011671D01*
X023502Y011661D01*
X023670Y011661D01*
X023670Y011939D01*
X023728Y011939D01*
X023728Y011661D01*
X023806Y011661D01*
X023806Y011428D01*
X023160Y011428D01*
X023160Y011797D01*
X023095Y011862D01*
X022650Y011862D01*
X022585Y011797D01*
X022585Y011734D01*
X022354Y011734D01*
X022128Y011508D01*
X022048Y011428D01*
X021420Y011428D01*
X021420Y011797D01*
X021355Y011862D01*
X020910Y011862D01*
X020845Y011797D01*
X020845Y011734D01*
X020494Y011734D01*
X020188Y011428D01*
X019856Y011428D01*
X020027Y011499D01*
X020196Y011668D01*
X020287Y011889D01*
X020287Y012128D01*
X020196Y012349D01*
X020027Y012518D01*
X019806Y012609D01*
X019567Y012609D01*
X019346Y012518D01*
X019177Y012349D01*
X019085Y012128D01*
X019085Y011889D01*
X019177Y011668D01*
X019346Y011499D01*
X019516Y011428D01*
X017026Y011428D01*
X017026Y011564D01*
X017043Y011548D01*
X017077Y011528D01*
X017115Y011518D01*
X017616Y011518D01*
X017616Y011972D01*
X017716Y011972D01*
X017716Y011518D01*
X018217Y011518D01*
X018256Y011528D01*
X018290Y011548D01*
X018318Y011575D01*
X018337Y011610D01*
X018348Y011648D01*
X018348Y011972D01*
X017716Y011972D01*
X017716Y012072D01*
X017616Y012072D01*
X017616Y012526D01*
X017302Y012526D01*
X017346Y012570D01*
X017346Y012806D01*
X017264Y012888D01*
X017026Y013126D01*
X017026Y013353D01*
X017089Y013290D01*
X018243Y013290D01*
X018308Y013354D01*
X018308Y013594D01*
X018376Y013594D01*
X018376Y013543D01*
X018441Y013478D01*
X018546Y013478D01*
X018546Y013310D01*
X018666Y013190D01*
X018666Y012688D01*
X018731Y012623D01*
X019282Y012623D01*
X019306Y012648D01*
X019331Y012623D01*
X019882Y012623D01*
X019946Y012688D01*
X019946Y013409D01*
X019882Y013473D01*
X019686Y013473D01*
X019686Y013646D01*
X019206Y014126D01*
X019124Y014208D01*
X019036Y014208D01*
X019036Y014321D01*
X018729Y014321D01*
X018729Y014406D01*
X018644Y014406D01*
X018644Y014698D01*
X018466Y014698D01*
X018428Y014688D01*
X018394Y014668D01*
X018366Y014640D01*
X018346Y014606D01*
X018336Y014568D01*
X018336Y014406D01*
X018644Y014406D01*
X018644Y014321D01*
X018412Y014321D01*
X018344Y014388D01*
X018044Y014388D01*
X017175Y015258D01*
X017656Y015258D01*
X017656Y015712D01*
X017756Y015712D01*
X017756Y015258D01*
X018257Y015258D01*
X018296Y015268D01*
X018330Y015288D01*
X018358Y015315D01*
X018377Y015350D01*
X018388Y015388D01*
X018388Y015712D01*
X017756Y015712D01*
X017756Y015812D01*
X018388Y015812D01*
X018388Y016008D01*
X018388Y015994D02*
X018422Y015994D01*
X018388Y015896D02*
X018585Y015896D01*
X018570Y015797D02*
X017756Y015797D01*
X017756Y015699D02*
X017656Y015699D01*
X017656Y015600D02*
X017756Y015600D01*
X017756Y015502D02*
X017656Y015502D01*
X017656Y015403D02*
X017756Y015403D01*
X017756Y015305D02*
X017656Y015305D01*
X017423Y015009D02*
X019963Y015009D01*
X019963Y014911D02*
X019930Y014911D01*
X019763Y014911D02*
X017522Y014911D01*
X017620Y014812D02*
X019629Y014812D01*
X019590Y014714D02*
X017719Y014714D01*
X017817Y014615D02*
X018352Y014615D01*
X018336Y014517D02*
X017916Y014517D01*
X018014Y014418D02*
X018336Y014418D01*
X018644Y014418D02*
X018729Y014418D01*
X018729Y014406D02*
X018729Y014698D01*
X018906Y014698D01*
X018944Y014688D01*
X018978Y014668D01*
X019006Y014640D01*
X019026Y014606D01*
X019036Y014568D01*
X019036Y014406D01*
X018729Y014406D01*
X018729Y014517D02*
X018644Y014517D01*
X018644Y014615D02*
X018729Y014615D01*
X019021Y014615D02*
X019591Y014615D01*
X019636Y014517D02*
X019036Y014517D01*
X019036Y014418D02*
X019781Y014418D01*
X019912Y014418D02*
X019963Y014418D01*
X019963Y014320D02*
X019036Y014320D01*
X019036Y014221D02*
X019963Y014221D01*
X019987Y014123D02*
X019210Y014123D01*
X019308Y014024D02*
X020548Y014024D01*
X020944Y014024D02*
X020977Y014024D01*
X021370Y013630D02*
X019686Y013630D01*
X019686Y013532D02*
X021272Y013532D01*
X021173Y013433D02*
X019922Y013433D01*
X019946Y013335D02*
X021075Y013335D01*
X020976Y013236D02*
X019946Y013236D01*
X019946Y013138D02*
X020878Y013138D01*
X020635Y013039D02*
X019946Y013039D01*
X019946Y012941D02*
X020524Y012941D01*
X020490Y012842D02*
X019946Y012842D01*
X019946Y012744D02*
X020496Y012744D01*
X020547Y012645D02*
X019904Y012645D01*
X019957Y012547D02*
X020606Y012547D01*
X020668Y012448D02*
X020096Y012448D01*
X020195Y012350D02*
X020767Y012350D01*
X020845Y012251D02*
X020236Y012251D01*
X020277Y012153D02*
X020845Y012153D01*
X020905Y011857D02*
X020274Y011857D01*
X020287Y011956D02*
X021930Y011956D01*
X021930Y011939D02*
X021632Y011939D01*
X021632Y011791D01*
X021642Y011753D01*
X021662Y011718D01*
X021690Y011691D01*
X021724Y011671D01*
X021762Y011661D01*
X021930Y011661D01*
X021930Y011939D01*
X021930Y011997D01*
X021632Y011997D01*
X021632Y012145D01*
X021642Y012183D01*
X021662Y012218D01*
X021690Y012246D01*
X021724Y012265D01*
X021762Y012276D01*
X021930Y012276D01*
X021930Y011997D01*
X021988Y011997D01*
X021988Y012276D01*
X022156Y012276D01*
X022194Y012265D01*
X022228Y012246D01*
X022256Y012218D01*
X022276Y012183D01*
X022286Y012145D01*
X022286Y011997D01*
X021988Y011997D01*
X021988Y011939D01*
X021988Y011661D01*
X022156Y011661D01*
X022194Y011671D01*
X022228Y011691D01*
X022256Y011718D01*
X022276Y011753D01*
X022286Y011791D01*
X022286Y011939D01*
X021988Y011939D01*
X021930Y011939D01*
X021988Y011956D02*
X023670Y011956D01*
X023670Y011997D02*
X023372Y011997D01*
X023372Y012145D01*
X023382Y012183D01*
X023402Y012218D01*
X023430Y012246D01*
X023464Y012265D01*
X023502Y012276D01*
X023670Y012276D01*
X023670Y011997D01*
X023670Y012054D02*
X023728Y012054D01*
X023728Y012153D02*
X023670Y012153D01*
X023670Y012251D02*
X023728Y012251D01*
X023806Y012350D02*
X023160Y012350D01*
X023160Y012448D02*
X023806Y012448D01*
X023806Y012547D02*
X023158Y012547D01*
X023160Y012545D02*
X023095Y012610D01*
X022803Y012610D01*
X022777Y012636D01*
X022802Y012697D01*
X022802Y012799D01*
X022763Y012893D01*
X022691Y012965D01*
X022597Y013004D01*
X022495Y013004D01*
X022401Y012965D01*
X022329Y012893D01*
X022290Y012799D01*
X022290Y012697D01*
X022329Y012603D01*
X022401Y012531D01*
X022495Y012492D01*
X022524Y012492D01*
X022585Y012431D01*
X022585Y012139D01*
X022650Y012075D01*
X023095Y012075D01*
X023160Y012139D01*
X023160Y012545D01*
X023160Y012251D02*
X023440Y012251D01*
X023374Y012153D02*
X023160Y012153D01*
X023372Y012054D02*
X022286Y012054D01*
X022284Y012153D02*
X022585Y012153D01*
X022585Y012251D02*
X022219Y012251D01*
X021988Y012251D02*
X021930Y012251D01*
X021930Y012153D02*
X021988Y012153D01*
X021988Y012054D02*
X021930Y012054D01*
X021930Y011857D02*
X021988Y011857D01*
X021988Y011759D02*
X021930Y011759D01*
X021641Y011759D02*
X021420Y011759D01*
X021420Y011660D02*
X022280Y011660D01*
X022278Y011759D02*
X022585Y011759D01*
X022645Y011857D02*
X022286Y011857D01*
X022182Y011562D02*
X021420Y011562D01*
X021420Y011463D02*
X022083Y011463D01*
X021632Y011857D02*
X021360Y011857D01*
X021420Y012153D02*
X021634Y012153D01*
X021632Y012054D02*
X020287Y012054D01*
X020233Y011759D02*
X020845Y011759D01*
X020420Y011660D02*
X020188Y011660D01*
X020090Y011562D02*
X020322Y011562D01*
X020223Y011463D02*
X019941Y011463D01*
X019431Y011463D02*
X017026Y011463D01*
X017026Y011562D02*
X017029Y011562D01*
X016706Y011562D02*
X016425Y011562D01*
X016434Y011567D02*
X016439Y011572D01*
X016492Y011572D01*
X016492Y011707D01*
X016492Y011708D01*
X016492Y012482D01*
X015504Y012482D01*
X015504Y012582D01*
X016492Y012582D01*
X016492Y013264D01*
X016786Y012970D01*
X016786Y012406D01*
X016706Y012326D01*
X016706Y010648D01*
X009406Y010648D01*
X009406Y011598D01*
X009506Y011499D01*
X009727Y011407D01*
X009966Y011407D01*
X010187Y011499D01*
X010356Y011668D01*
X010447Y011889D01*
X010447Y012128D01*
X010356Y012349D01*
X010187Y012518D01*
X009966Y012609D01*
X009727Y012609D01*
X009506Y012518D01*
X009406Y012418D01*
X009406Y013340D01*
X009408Y013338D01*
X009446Y013328D01*
X009916Y013328D01*
X009916Y013678D01*
X010016Y013678D01*
X010016Y013328D01*
X010486Y013328D01*
X010524Y013338D01*
X010558Y013358D01*
X010586Y013386D01*
X010606Y013420D01*
X010616Y013458D01*
X010616Y013678D01*
X010016Y013678D01*
X010016Y013778D01*
X010616Y013778D01*
X010616Y013998D01*
X010606Y014036D01*
X010587Y014068D01*
X014668Y014068D01*
X014601Y014001D01*
X014525Y014001D01*
X014460Y013936D01*
X014460Y013550D01*
X014498Y013512D01*
X014474Y013498D01*
X014446Y013470D01*
X014426Y013436D01*
X014416Y013398D01*
X014416Y012582D01*
X015404Y012582D01*
X015404Y012482D01*
X014416Y012482D01*
X014416Y011572D01*
X014468Y011572D01*
X014474Y011567D01*
X014508Y011547D01*
X014529Y011542D01*
X014416Y011542D01*
X014416Y011406D01*
X014426Y011368D01*
X014446Y011334D01*
X014474Y011306D01*
X014508Y011286D01*
X014546Y011276D01*
X014684Y011276D01*
X014684Y011537D01*
X014714Y011537D01*
X014714Y011276D01*
X014852Y011276D01*
X014890Y011286D01*
X014924Y011306D01*
X014952Y011334D01*
X014959Y011346D01*
X014966Y011334D01*
X014994Y011306D01*
X015028Y011286D01*
X015066Y011276D01*
X015203Y011276D01*
X015203Y011537D01*
X015234Y011537D01*
X015234Y011276D01*
X015371Y011276D01*
X015409Y011286D01*
X015444Y011306D01*
X015459Y011321D01*
X015474Y011306D01*
X015508Y011286D01*
X015546Y011276D01*
X015684Y011276D01*
X015684Y011537D01*
X015714Y011537D01*
X015714Y011276D01*
X015852Y011276D01*
X015890Y011286D01*
X015924Y011306D01*
X015952Y011334D01*
X015954Y011337D01*
X015956Y011333D01*
X015984Y011305D01*
X016018Y011286D01*
X016057Y011275D01*
X016194Y011275D01*
X016194Y011537D01*
X016225Y011537D01*
X016225Y011275D01*
X016362Y011275D01*
X016400Y011286D01*
X016434Y011305D01*
X016462Y011333D01*
X016482Y011367D01*
X016492Y011406D01*
X016492Y011541D01*
X016376Y011541D01*
X016400Y011547D01*
X016434Y011567D01*
X016492Y011660D02*
X016706Y011660D01*
X016706Y011759D02*
X016492Y011759D01*
X016492Y011857D02*
X016706Y011857D01*
X016706Y011956D02*
X016492Y011956D01*
X016492Y012054D02*
X016706Y012054D01*
X016706Y012153D02*
X016492Y012153D01*
X016492Y012251D02*
X016706Y012251D01*
X016730Y012350D02*
X016492Y012350D01*
X016492Y012448D02*
X016786Y012448D01*
X016786Y012547D02*
X015504Y012547D01*
X015404Y012547D02*
X013536Y012547D01*
X013536Y012645D02*
X014416Y012645D01*
X014416Y012744D02*
X013536Y012744D01*
X013536Y012842D02*
X014416Y012842D01*
X014416Y012941D02*
X013536Y012941D01*
X013536Y013039D02*
X014416Y013039D01*
X014416Y013138D02*
X013536Y013138D01*
X013536Y013236D02*
X014416Y013236D01*
X014416Y013335D02*
X013536Y013335D01*
X013536Y013433D02*
X014426Y013433D01*
X014478Y013532D02*
X013536Y013532D01*
X013536Y013630D02*
X014460Y013630D01*
X014460Y013729D02*
X013536Y013729D01*
X013536Y013827D02*
X014460Y013827D01*
X014460Y013926D02*
X013536Y013926D01*
X013536Y013996D02*
X013472Y014060D01*
X013115Y014060D01*
X013050Y013996D01*
X013050Y013799D01*
X013016Y013799D01*
X013016Y013996D01*
X012952Y014060D01*
X012595Y014060D01*
X012533Y013998D01*
X012472Y014060D01*
X012115Y014060D01*
X012050Y013996D01*
X012050Y013799D01*
X012026Y013799D01*
X012026Y013996D01*
X011961Y014061D01*
X011605Y014061D01*
X011540Y013996D01*
X011540Y013643D01*
X011541Y013643D01*
X011541Y011953D01*
X011580Y011913D01*
X011558Y011901D01*
X011530Y011873D01*
X011510Y011839D01*
X011500Y011800D01*
X011500Y011650D01*
X011767Y011650D01*
X011767Y011617D01*
X011799Y011617D01*
X011799Y011335D01*
X011936Y011335D01*
X011974Y011346D01*
X012008Y011365D01*
X012036Y011393D01*
X012038Y011397D01*
X012040Y011393D01*
X012068Y011365D01*
X012102Y011346D01*
X012141Y011335D01*
X012277Y011335D01*
X012277Y011617D01*
X011799Y011617D01*
X011799Y011650D01*
X012066Y011650D01*
X012277Y011650D01*
X012277Y011617D01*
X012310Y011617D01*
X012491Y011617D01*
X012757Y011617D01*
X012757Y011650D01*
X012310Y011650D01*
X012310Y011617D01*
X012310Y011335D01*
X012446Y011335D01*
X012484Y011346D01*
X012518Y011365D01*
X012533Y011381D01*
X012549Y011365D01*
X012583Y011346D01*
X012621Y011335D01*
X012757Y011335D01*
X012757Y011617D01*
X012790Y011617D01*
X012790Y011335D01*
X012926Y011335D01*
X012964Y011346D01*
X012999Y011365D01*
X013026Y011393D01*
X013046Y011428D01*
X013049Y011437D01*
X013111Y011375D01*
X013468Y011375D01*
X013532Y011440D01*
X013532Y011446D01*
X013615Y011412D01*
X013717Y011412D01*
X013811Y011451D01*
X013883Y011523D01*
X013922Y011617D01*
X013922Y011719D01*
X013883Y011813D01*
X013811Y011885D01*
X013717Y011924D01*
X013615Y011924D01*
X013521Y011885D01*
X013497Y011861D01*
X013470Y011888D01*
X013472Y011888D01*
X013536Y011953D01*
X013536Y013996D01*
X013508Y014024D02*
X014624Y014024D01*
X014764Y014320D02*
X009406Y014320D01*
X009406Y014418D02*
X014873Y014418D01*
X015100Y014418D02*
X016578Y014418D01*
X016650Y014517D02*
X009406Y014517D01*
X009406Y014615D02*
X016657Y014615D01*
X016710Y014714D02*
X009406Y014714D01*
X009406Y014812D02*
X016786Y014812D01*
X016786Y014911D02*
X009406Y014911D01*
X009406Y015009D02*
X016786Y015009D01*
X017226Y015206D02*
X019666Y015206D01*
X019604Y015305D02*
X018347Y015305D01*
X018388Y015403D02*
X019590Y015403D01*
X019616Y015502D02*
X018388Y015502D01*
X018388Y015600D02*
X018672Y015600D01*
X018594Y015699D02*
X018388Y015699D01*
X018630Y015994D02*
X018650Y015994D01*
X019082Y015797D02*
X019963Y015797D01*
X019963Y015699D02*
X019058Y015699D01*
X018980Y015600D02*
X019696Y015600D01*
X019963Y015108D02*
X017325Y015108D01*
X017656Y015896D02*
X017756Y015896D01*
X017756Y015994D02*
X017656Y015994D01*
X017656Y016093D02*
X017756Y016093D01*
X017756Y016191D02*
X017656Y016191D01*
X018384Y016908D02*
X018432Y016956D01*
X018724Y016956D01*
X018724Y016871D01*
X018442Y016871D01*
X018404Y016908D01*
X018384Y016908D01*
X018432Y016881D02*
X018724Y016881D01*
X018809Y016881D02*
X019581Y016881D01*
X019679Y016979D02*
X019116Y016979D01*
X019116Y016956D02*
X019116Y017048D01*
X019748Y017048D01*
X019428Y016728D01*
X019116Y016728D01*
X019116Y016871D01*
X018809Y016871D01*
X018809Y016956D01*
X019116Y016956D01*
X019116Y016782D02*
X019482Y016782D01*
X018766Y017503D02*
X017715Y017503D01*
X017706Y017494D01*
X016391Y018851D02*
X016386Y018851D01*
X016366Y018949D02*
X016489Y018949D01*
X016588Y019048D02*
X011019Y019048D01*
X011036Y019146D02*
X011677Y019146D01*
X011620Y019245D02*
X011036Y019245D01*
X011036Y019418D02*
X010436Y019418D01*
X010436Y019768D01*
X010906Y019768D01*
X010944Y019758D01*
X010978Y019738D01*
X011006Y019710D01*
X011026Y019676D01*
X011036Y019638D01*
X011036Y019418D01*
X011036Y019442D02*
X011620Y019442D01*
X011620Y019540D02*
X011036Y019540D01*
X011036Y019639D02*
X011642Y019639D01*
X011661Y019737D02*
X010979Y019737D01*
X010436Y019737D02*
X010336Y019737D01*
X010336Y019768D02*
X009866Y019768D01*
X009828Y019758D01*
X009794Y019738D01*
X009766Y019710D01*
X009746Y019676D01*
X009736Y019638D01*
X009736Y019418D01*
X010336Y019418D01*
X010336Y019768D01*
X010336Y019639D02*
X010436Y019639D01*
X010436Y019540D02*
X010336Y019540D01*
X010336Y019442D02*
X010436Y019442D01*
X010436Y019146D02*
X010336Y019146D01*
X010336Y019048D02*
X010436Y019048D01*
X009736Y019442D02*
X009406Y019442D01*
X009406Y019540D02*
X009736Y019540D01*
X009736Y019639D02*
X009406Y019639D01*
X009406Y019737D02*
X009793Y019737D01*
X009406Y019836D02*
X011661Y019836D01*
X011661Y019934D02*
X009406Y019934D01*
X009406Y020033D02*
X011661Y020033D01*
X011661Y020131D02*
X009406Y020131D01*
X009406Y020230D02*
X011661Y020230D01*
X011661Y020328D02*
X009406Y020328D01*
X009406Y020427D02*
X011661Y020427D01*
X011661Y020525D02*
X009406Y020525D01*
X009406Y020624D02*
X011661Y020624D01*
X011661Y020722D02*
X009406Y020722D01*
X009406Y020821D02*
X011661Y020821D01*
X011661Y020919D02*
X009406Y020919D01*
X009406Y021018D02*
X011661Y021018D01*
X011661Y021116D02*
X009406Y021116D01*
X009406Y021215D02*
X011661Y021215D01*
X011661Y021313D02*
X009406Y021313D01*
X009406Y021412D02*
X011661Y021412D01*
X011660Y021510D02*
X009406Y021510D01*
X009406Y021609D02*
X011660Y021609D01*
X011660Y021707D02*
X009406Y021707D01*
X009406Y021806D02*
X011689Y021806D01*
X012117Y021806D02*
X012200Y021806D01*
X012170Y021707D02*
X012146Y021707D01*
X012146Y021609D02*
X012170Y021609D01*
X012626Y021806D02*
X012681Y021806D01*
X013106Y021806D02*
X013200Y021806D01*
X013170Y021707D02*
X013136Y021707D01*
X013136Y021609D02*
X013170Y021609D01*
X013656Y021609D02*
X014340Y021609D01*
X014340Y021707D02*
X013656Y021707D01*
X013626Y021806D02*
X014390Y021806D01*
X014409Y021904D02*
X009406Y021904D01*
X009406Y022003D02*
X014370Y022003D01*
X014371Y022101D02*
X009406Y022101D01*
X009406Y022200D02*
X014416Y022200D01*
X014340Y021510D02*
X013656Y021510D01*
X013656Y021412D02*
X014340Y021412D01*
X014349Y021313D02*
X013656Y021313D01*
X013656Y021215D02*
X014296Y021215D01*
X014296Y021116D02*
X013656Y021116D01*
X013656Y021018D02*
X014296Y021018D01*
X014296Y020919D02*
X013656Y020919D01*
X013656Y020821D02*
X014296Y020821D01*
X014296Y020722D02*
X013656Y020722D01*
X013656Y020624D02*
X014296Y020624D01*
X014296Y020525D02*
X013656Y020525D01*
X013656Y020427D02*
X014296Y020427D01*
X014564Y019343D02*
X014594Y019343D01*
X014594Y019245D02*
X014564Y019245D01*
X014564Y019146D02*
X014594Y019146D01*
X014824Y019146D02*
X014854Y019146D01*
X015083Y019146D02*
X015114Y019146D01*
X015114Y019245D02*
X015083Y019245D01*
X015083Y019343D02*
X015114Y019343D01*
X015564Y019343D02*
X015594Y019343D01*
X015594Y019245D02*
X015564Y019245D01*
X015564Y019146D02*
X015594Y019146D01*
X015824Y019146D02*
X015843Y019146D01*
X016074Y019146D02*
X016105Y019146D01*
X016105Y019245D02*
X016074Y019245D01*
X016074Y019343D02*
X016105Y019343D01*
X016372Y019343D02*
X016786Y019343D01*
X016785Y019245D02*
X016372Y019245D01*
X016335Y019146D02*
X016686Y019146D01*
X016786Y019442D02*
X016372Y019442D01*
X016372Y019540D02*
X016786Y019540D01*
X016786Y019639D02*
X016372Y019639D01*
X016372Y019737D02*
X016786Y019737D01*
X016786Y019836D02*
X016372Y019836D01*
X016372Y019934D02*
X016786Y019934D01*
X016786Y020033D02*
X016372Y020033D01*
X016372Y020131D02*
X016786Y020131D01*
X016786Y020230D02*
X016372Y020230D01*
X013120Y017866D02*
X013066Y017866D01*
X013076Y017767D02*
X013110Y017767D01*
X013110Y017669D02*
X013076Y017669D01*
X012601Y017866D02*
X012586Y017866D01*
X012120Y017866D02*
X012077Y017866D01*
X012086Y017767D02*
X012110Y017767D01*
X012110Y017669D02*
X012086Y017669D01*
X011600Y017669D02*
X009406Y017669D01*
X009406Y017767D02*
X011600Y017767D01*
X011609Y017866D02*
X009406Y017866D01*
X009406Y017570D02*
X011600Y017570D01*
X011601Y017472D02*
X009406Y017472D01*
X009406Y017373D02*
X011601Y017373D01*
X011601Y017275D02*
X009406Y017275D01*
X009406Y017176D02*
X011601Y017176D01*
X011601Y017078D02*
X009406Y017078D01*
X009406Y016979D02*
X011601Y016979D01*
X011601Y016881D02*
X009406Y016881D01*
X009406Y016782D02*
X011601Y016782D01*
X011601Y016684D02*
X009406Y016684D01*
X009406Y016585D02*
X011601Y016585D01*
X011601Y016487D02*
X009406Y016487D01*
X009406Y016388D02*
X011601Y016388D01*
X011601Y016290D02*
X010586Y016290D01*
X010616Y016191D02*
X011601Y016191D01*
X011601Y016093D02*
X010616Y016093D01*
X011827Y015403D02*
X011859Y015403D01*
X011859Y015305D02*
X011827Y015305D01*
X011827Y015206D02*
X011859Y015206D01*
X012337Y015206D02*
X012370Y015206D01*
X012370Y015305D02*
X012337Y015305D01*
X012337Y015403D02*
X012370Y015403D01*
X012545Y015206D02*
X012642Y015206D01*
X012559Y014024D02*
X012508Y014024D01*
X012079Y014024D02*
X011998Y014024D01*
X012026Y013926D02*
X012050Y013926D01*
X012050Y013827D02*
X012026Y013827D01*
X011540Y013827D02*
X010616Y013827D01*
X010616Y013926D02*
X011540Y013926D01*
X011568Y014024D02*
X010609Y014024D01*
X010616Y013630D02*
X011541Y013630D01*
X011541Y013532D02*
X010616Y013532D01*
X010609Y013433D02*
X011541Y013433D01*
X011541Y013335D02*
X010510Y013335D01*
X010016Y013335D02*
X009916Y013335D01*
X009916Y013433D02*
X010016Y013433D01*
X010016Y013532D02*
X009916Y013532D01*
X009916Y013630D02*
X010016Y013630D01*
X010016Y013729D02*
X011540Y013729D01*
X011541Y013236D02*
X009406Y013236D01*
X009406Y013138D02*
X011541Y013138D01*
X011541Y013039D02*
X009406Y013039D01*
X009406Y012941D02*
X011541Y012941D01*
X011541Y012842D02*
X009406Y012842D01*
X009406Y012744D02*
X011541Y012744D01*
X011541Y012645D02*
X009406Y012645D01*
X009406Y012547D02*
X009576Y012547D01*
X009436Y012448D02*
X009406Y012448D01*
X010117Y012547D02*
X011541Y012547D01*
X011541Y012448D02*
X010256Y012448D01*
X010355Y012350D02*
X011541Y012350D01*
X011541Y012251D02*
X010396Y012251D01*
X010437Y012153D02*
X011541Y012153D01*
X011541Y012054D02*
X010447Y012054D01*
X010447Y011956D02*
X011541Y011956D01*
X011521Y011857D02*
X010434Y011857D01*
X010393Y011759D02*
X011500Y011759D01*
X011500Y011660D02*
X010348Y011660D01*
X010250Y011562D02*
X011500Y011562D01*
X011500Y011617D02*
X011500Y011466D01*
X011510Y011428D01*
X011530Y011393D01*
X011558Y011365D01*
X011592Y011346D01*
X011630Y011335D01*
X011767Y011335D01*
X011767Y011617D01*
X011500Y011617D01*
X011501Y011463D02*
X010101Y011463D01*
X009591Y011463D02*
X009406Y011463D01*
X009406Y011365D02*
X011560Y011365D01*
X011767Y011365D02*
X011799Y011365D01*
X011799Y011463D02*
X011767Y011463D01*
X011767Y011562D02*
X011799Y011562D01*
X012007Y011365D02*
X012070Y011365D01*
X012277Y011365D02*
X012310Y011365D01*
X012310Y011463D02*
X012277Y011463D01*
X012277Y011562D02*
X012310Y011562D01*
X012517Y011365D02*
X012550Y011365D01*
X012757Y011365D02*
X012790Y011365D01*
X012790Y011463D02*
X012757Y011463D01*
X012757Y011562D02*
X012790Y011562D01*
X012997Y011365D02*
X014428Y011365D01*
X014416Y011463D02*
X013823Y011463D01*
X013899Y011562D02*
X014483Y011562D01*
X014416Y011660D02*
X013922Y011660D01*
X013906Y011759D02*
X014416Y011759D01*
X014416Y011857D02*
X013839Y011857D01*
X013536Y011956D02*
X014416Y011956D01*
X014416Y012054D02*
X013536Y012054D01*
X013536Y012153D02*
X014416Y012153D01*
X014416Y012251D02*
X013536Y012251D01*
X013536Y012350D02*
X014416Y012350D01*
X014416Y012448D02*
X013536Y012448D01*
X014684Y011463D02*
X014714Y011463D01*
X014714Y011365D02*
X014684Y011365D01*
X015203Y011365D02*
X015234Y011365D01*
X015234Y011463D02*
X015203Y011463D01*
X015684Y011463D02*
X015714Y011463D01*
X015714Y011365D02*
X015684Y011365D01*
X016194Y011365D02*
X016225Y011365D01*
X016225Y011463D02*
X016194Y011463D01*
X016492Y011463D02*
X016706Y011463D01*
X016706Y011365D02*
X016480Y011365D01*
X016706Y011266D02*
X009406Y011266D01*
X009406Y011168D02*
X016706Y011168D01*
X016706Y011069D02*
X009406Y011069D01*
X009406Y010971D02*
X016706Y010971D01*
X016706Y010872D02*
X009406Y010872D01*
X009406Y010774D02*
X016706Y010774D01*
X016706Y010675D02*
X009406Y010675D01*
X009406Y011562D02*
X009443Y011562D01*
X009406Y013335D02*
X009422Y013335D01*
X013016Y013827D02*
X013050Y013827D01*
X013050Y013926D02*
X013016Y013926D01*
X012988Y014024D02*
X013079Y014024D01*
X015209Y014320D02*
X016480Y014320D01*
X016492Y013236D02*
X016520Y013236D01*
X016492Y013138D02*
X016619Y013138D01*
X016717Y013039D02*
X016492Y013039D01*
X016492Y012941D02*
X016786Y012941D01*
X016786Y012842D02*
X016492Y012842D01*
X016492Y012744D02*
X016786Y012744D01*
X016786Y012645D02*
X016492Y012645D01*
X017026Y013138D02*
X018666Y013138D01*
X018666Y013039D02*
X017113Y013039D01*
X017212Y012941D02*
X018666Y012941D01*
X018666Y012842D02*
X017310Y012842D01*
X017346Y012744D02*
X018666Y012744D01*
X018709Y012645D02*
X017346Y012645D01*
X017323Y012547D02*
X019416Y012547D01*
X019309Y012645D02*
X019304Y012645D01*
X019276Y012448D02*
X018329Y012448D01*
X018337Y012434D02*
X018318Y012468D01*
X018290Y012496D01*
X018256Y012516D01*
X018217Y012526D01*
X017716Y012526D01*
X017716Y012072D01*
X018348Y012072D01*
X018348Y012396D01*
X018337Y012434D01*
X018348Y012350D02*
X019178Y012350D01*
X019136Y012251D02*
X018348Y012251D01*
X018348Y012153D02*
X019095Y012153D01*
X019085Y012054D02*
X017716Y012054D01*
X017716Y011956D02*
X017616Y011956D01*
X017616Y011857D02*
X017716Y011857D01*
X017716Y011759D02*
X017616Y011759D01*
X017616Y011660D02*
X017716Y011660D01*
X017716Y011562D02*
X017616Y011562D01*
X017616Y012153D02*
X017716Y012153D01*
X017716Y012251D02*
X017616Y012251D01*
X017616Y012350D02*
X017716Y012350D01*
X017716Y012448D02*
X017616Y012448D01*
X018348Y011956D02*
X019085Y011956D01*
X019098Y011857D02*
X018348Y011857D01*
X018348Y011759D02*
X019139Y011759D01*
X019184Y011660D02*
X018348Y011660D01*
X018304Y011562D02*
X019283Y011562D01*
X020906Y012606D02*
X020906Y012606D01*
X020945Y012645D02*
X022312Y012645D01*
X022290Y012744D02*
X020997Y012744D01*
X021002Y012842D02*
X022308Y012842D01*
X022377Y012941D02*
X021077Y012941D01*
X021175Y013039D02*
X023806Y013039D01*
X023806Y012941D02*
X022716Y012941D01*
X022784Y012842D02*
X023806Y012842D01*
X023806Y012744D02*
X022802Y012744D01*
X022781Y012645D02*
X023806Y012645D01*
X023806Y013138D02*
X021274Y013138D01*
X021372Y013236D02*
X023806Y013236D01*
X023806Y013335D02*
X021471Y013335D01*
X021569Y013433D02*
X023806Y013433D01*
X023806Y013532D02*
X021668Y013532D01*
X021766Y013630D02*
X022442Y013630D01*
X022770Y013630D02*
X023806Y013630D01*
X023806Y013729D02*
X023409Y013729D01*
X023458Y013827D02*
X023806Y013827D01*
X023806Y013926D02*
X023462Y013926D01*
X023427Y014024D02*
X023806Y014024D01*
X023806Y014123D02*
X023546Y014123D01*
X023569Y014221D02*
X023651Y014221D01*
X022985Y014024D02*
X022772Y014024D01*
X022843Y013926D02*
X022950Y013926D01*
X022954Y013827D02*
X022862Y013827D01*
X022842Y013729D02*
X023004Y013729D01*
X022939Y014123D02*
X022624Y014123D01*
X022627Y014221D02*
X022916Y014221D01*
X022916Y014320D02*
X022627Y014320D01*
X022627Y014418D02*
X022916Y014418D01*
X022916Y014517D02*
X022627Y014517D01*
X022627Y014615D02*
X022761Y014615D01*
X022663Y014714D02*
X022627Y014714D01*
X021816Y014714D02*
X021716Y014714D01*
X021716Y014812D02*
X021816Y014812D01*
X021816Y014911D02*
X021716Y014911D01*
X021716Y015009D02*
X021816Y015009D01*
X021816Y015108D02*
X021716Y015108D01*
X021716Y015206D02*
X021816Y015206D01*
X021816Y015305D02*
X021716Y015305D01*
X021716Y015403D02*
X021816Y015403D01*
X021716Y015502D02*
X020891Y015502D01*
X021716Y015600D02*
X021816Y015600D01*
X021816Y015699D02*
X021716Y015699D01*
X021716Y015797D02*
X021816Y015797D01*
X021816Y015896D02*
X021716Y015896D01*
X021716Y015994D02*
X021816Y015994D01*
X021816Y016093D02*
X021716Y016093D01*
X021716Y016191D02*
X021816Y016191D01*
X021816Y016290D02*
X021716Y016290D01*
X021716Y016388D02*
X021816Y016388D01*
X021816Y016487D02*
X021716Y016487D01*
X021716Y016585D02*
X021816Y016585D01*
X021816Y016684D02*
X021716Y016684D01*
X021716Y016782D02*
X021816Y016782D01*
X021816Y016881D02*
X021716Y016881D01*
X021716Y016979D02*
X021816Y016979D01*
X021816Y017078D02*
X021716Y017078D01*
X021716Y017176D02*
X021816Y017176D01*
X021816Y014615D02*
X021716Y014615D01*
X021716Y014517D02*
X021816Y014517D01*
X021816Y014418D02*
X021716Y014418D01*
X021716Y014320D02*
X021816Y014320D01*
X021816Y014221D02*
X021716Y014221D01*
X021716Y014123D02*
X021816Y014123D01*
X021816Y014024D02*
X021716Y014024D01*
X021666Y013926D02*
X019407Y013926D01*
X019505Y013827D02*
X021567Y013827D01*
X021469Y013729D02*
X019604Y013729D01*
X018615Y013754D02*
X017666Y013754D01*
X018308Y013532D02*
X018387Y013532D01*
X018308Y013433D02*
X018546Y013433D01*
X018546Y013335D02*
X018288Y013335D01*
X018620Y013236D02*
X017026Y013236D01*
X017026Y013335D02*
X017044Y013335D01*
X015404Y016290D02*
X013596Y016290D01*
X021166Y010948D02*
X021166Y010888D01*
X021081Y010313D02*
X021106Y010288D01*
X021081Y010313D02*
X020706Y010313D01*
X021766Y010353D02*
X021771Y010348D01*
X022186Y010348D01*
X022646Y010333D02*
X022661Y010348D01*
X023146Y010348D01*
X023160Y011463D02*
X023806Y011463D01*
X023806Y011562D02*
X023160Y011562D01*
X023160Y011660D02*
X023806Y011660D01*
X023728Y011759D02*
X023670Y011759D01*
X023670Y011857D02*
X023728Y011857D01*
X023372Y011857D02*
X023100Y011857D01*
X023160Y011759D02*
X023381Y011759D01*
X022585Y012350D02*
X021420Y012350D01*
X021420Y012448D02*
X022568Y012448D01*
X022386Y012547D02*
X021418Y012547D01*
X021420Y012251D02*
X021700Y012251D01*
X025426Y009148D02*
X026146Y008428D01*
X032746Y008428D01*
X033186Y007988D01*
X041306Y007988D01*
X046846Y013528D01*
X046846Y021988D01*
X046326Y022508D01*
X046226Y022508D01*
X023806Y024465D02*
X018005Y024465D01*
X017695Y024859D02*
X016344Y024859D01*
X015724Y025155D02*
X015148Y025155D01*
X015050Y025253D02*
X015690Y025253D01*
X015695Y025352D02*
X014997Y025352D01*
X014946Y025450D02*
X015746Y025450D01*
X015938Y025549D02*
X012628Y025549D01*
X012305Y025549D02*
X011094Y025549D01*
X010076Y026435D02*
X009976Y026435D01*
X009976Y026534D02*
X010076Y026534D01*
X010076Y026632D02*
X009976Y026632D01*
X009976Y026731D02*
X010076Y026731D01*
X009356Y025056D02*
X014637Y025056D01*
X014808Y024958D02*
X009356Y024958D01*
X009356Y024859D02*
X014906Y024859D01*
X015005Y024761D02*
X009356Y024761D01*
X009356Y022889D02*
X019519Y022889D01*
X019519Y022791D02*
X009356Y022791D01*
X009356Y022692D02*
X019519Y022692D01*
X020054Y022692D02*
X020201Y022692D01*
X020238Y022594D02*
X009356Y022594D01*
X007855Y026731D02*
X007606Y026731D01*
X007606Y026829D02*
X007729Y026829D01*
X007663Y026928D02*
X007606Y026928D01*
X007606Y027026D02*
X007627Y027026D01*
X007606Y028701D02*
X015430Y028701D01*
X015507Y028778D02*
X015507Y028778D01*
X015529Y028799D02*
X007606Y028799D01*
X007606Y028898D02*
X015627Y028898D01*
X015726Y028996D02*
X007606Y028996D01*
X007606Y029095D02*
X015528Y029095D01*
X015506Y029193D02*
X007606Y029193D01*
X007606Y029292D02*
X015506Y029292D01*
X015506Y029390D02*
X007606Y029390D01*
X007606Y029489D02*
X015836Y029489D01*
X015836Y029538D02*
X015506Y029538D01*
X015506Y029823D01*
X015516Y029861D01*
X015536Y029895D01*
X015564Y029923D01*
X015598Y029943D01*
X015636Y029953D01*
X015836Y029953D01*
X015836Y029538D01*
X015836Y029587D02*
X015936Y029587D01*
X015936Y029686D02*
X015836Y029686D01*
X015836Y029784D02*
X015936Y029784D01*
X015936Y029883D02*
X015836Y029883D01*
X015529Y029883D02*
X007606Y029883D01*
X007606Y029981D02*
X023806Y029981D01*
X023806Y029883D02*
X020876Y029883D01*
X020862Y029893D02*
X020799Y029925D01*
X020732Y029947D01*
X020662Y029958D01*
X020376Y029958D01*
X020376Y029558D01*
X020276Y029558D01*
X020276Y029458D01*
X019671Y029458D01*
X019674Y029478D01*
X018976Y029478D01*
X018976Y029078D01*
X019262Y029078D01*
X019332Y029089D01*
X019399Y029111D01*
X019462Y029143D01*
X019519Y029185D01*
X019569Y029235D01*
X019611Y029292D01*
X019621Y029312D01*
X019641Y029272D01*
X019683Y029215D01*
X019733Y029165D01*
X019790Y029123D01*
X019853Y029091D01*
X019921Y029069D01*
X019991Y029058D01*
X020276Y029058D01*
X020276Y029458D01*
X020376Y029458D01*
X020376Y029058D01*
X020662Y029058D01*
X020732Y029069D01*
X020799Y029091D01*
X020862Y029123D01*
X020919Y029165D01*
X020969Y029215D01*
X021011Y029272D01*
X021043Y029335D01*
X021065Y029403D01*
X021074Y029458D01*
X020376Y029458D01*
X020376Y029558D01*
X021074Y029558D01*
X021065Y029613D01*
X021043Y029681D01*
X021011Y029744D01*
X020969Y029801D01*
X020919Y029851D01*
X020862Y029893D01*
X020982Y029784D02*
X023806Y029784D01*
X023806Y029686D02*
X021041Y029686D01*
X021069Y029587D02*
X023806Y029587D01*
X023806Y029489D02*
X020376Y029489D01*
X020376Y029587D02*
X020276Y029587D01*
X020276Y029558D02*
X020276Y029958D01*
X019991Y029958D01*
X019921Y029947D01*
X019853Y029925D01*
X019790Y029893D01*
X019733Y029851D01*
X019683Y029801D01*
X019641Y029744D01*
X019631Y029724D01*
X019611Y029764D01*
X019569Y029821D01*
X019519Y029871D01*
X019462Y029913D01*
X019399Y029945D01*
X019332Y029967D01*
X019262Y029978D01*
X018976Y029978D01*
X018976Y029578D01*
X018876Y029578D01*
X018876Y029478D01*
X018976Y029478D01*
X018976Y029578D01*
X019582Y029578D01*
X019578Y029558D01*
X020276Y029558D01*
X020276Y029489D02*
X018976Y029489D01*
X018976Y029587D02*
X018876Y029587D01*
X018876Y029578D02*
X018876Y029978D01*
X018591Y029978D01*
X018521Y029967D01*
X018453Y029945D01*
X018390Y029913D01*
X018333Y029871D01*
X018283Y029821D01*
X018241Y029764D01*
X018209Y029701D01*
X018187Y029633D01*
X018178Y029578D01*
X018876Y029578D01*
X018876Y029489D02*
X018234Y029489D01*
X018180Y029587D02*
X018136Y029587D01*
X018204Y029686D02*
X017426Y029686D01*
X017426Y029784D02*
X018256Y029784D01*
X018349Y029883D02*
X017392Y029883D01*
X018876Y029883D02*
X018976Y029883D01*
X018976Y029784D02*
X018876Y029784D01*
X018876Y029686D02*
X018976Y029686D01*
X018976Y029390D02*
X018876Y029390D01*
X018876Y029292D02*
X018976Y029292D01*
X018976Y029193D02*
X018876Y029193D01*
X018876Y029095D02*
X018976Y029095D01*
X018727Y028996D02*
X023806Y028996D01*
X023806Y028898D02*
X020757Y028898D01*
X020915Y028799D02*
X023806Y028799D01*
X023806Y028701D02*
X020990Y028701D01*
X021031Y028602D02*
X023806Y028602D01*
X023806Y028504D02*
X021036Y028504D01*
X021027Y028405D02*
X023806Y028405D01*
X023806Y028307D02*
X020986Y028307D01*
X020906Y028208D02*
X023806Y028208D01*
X023806Y028110D02*
X020736Y028110D01*
X020098Y028011D02*
X023806Y028011D01*
X023806Y027913D02*
X019999Y027913D01*
X019901Y027814D02*
X023806Y027814D01*
X023806Y027716D02*
X019802Y027716D01*
X020761Y027322D02*
X023051Y027322D01*
X022872Y027223D02*
X020940Y027223D01*
X021035Y027125D02*
X022777Y027125D01*
X022736Y027026D02*
X021076Y027026D01*
X021052Y026632D02*
X022760Y026632D01*
X022832Y026534D02*
X020981Y026534D01*
X020859Y026435D02*
X022953Y026435D01*
X023186Y026858D02*
X020626Y026858D01*
X018530Y027716D02*
X017845Y027716D01*
X017866Y027814D02*
X018431Y027814D01*
X018333Y027913D02*
X017866Y027913D01*
X017866Y028011D02*
X018234Y028011D01*
X018136Y028110D02*
X017536Y028110D01*
X017536Y028011D02*
X017436Y028011D01*
X017436Y027913D02*
X017536Y027913D01*
X017536Y027814D02*
X017436Y027814D01*
X017436Y027716D02*
X017536Y027716D01*
X017076Y027617D02*
X023806Y027617D01*
X023806Y027519D02*
X017076Y027519D01*
X016696Y027026D02*
X016685Y027026D01*
X016696Y026928D02*
X016557Y026928D01*
X017866Y028208D02*
X018037Y028208D01*
X017939Y028307D02*
X017866Y028307D01*
X019405Y028898D02*
X019895Y028898D01*
X019737Y028799D02*
X019535Y028799D01*
X019598Y028701D02*
X019662Y028701D01*
X019846Y029095D02*
X019348Y029095D01*
X019528Y029193D02*
X019705Y029193D01*
X019631Y029292D02*
X019611Y029292D01*
X019596Y029784D02*
X019670Y029784D01*
X019776Y029883D02*
X019504Y029883D01*
X020276Y029883D02*
X020376Y029883D01*
X020376Y029784D02*
X020276Y029784D01*
X020276Y029686D02*
X020376Y029686D01*
X020376Y029390D02*
X020276Y029390D01*
X020276Y029292D02*
X020376Y029292D01*
X020376Y029193D02*
X020276Y029193D01*
X020276Y029095D02*
X020376Y029095D01*
X020806Y029095D02*
X023806Y029095D01*
X023806Y029193D02*
X020948Y029193D01*
X021021Y029292D02*
X023806Y029292D01*
X023806Y029390D02*
X021061Y029390D01*
X023806Y030080D02*
X007606Y030080D01*
X007606Y030178D02*
X023806Y030178D01*
X023806Y030277D02*
X007606Y030277D01*
X007606Y030375D02*
X023806Y030375D01*
X023806Y030474D02*
X007606Y030474D01*
X007606Y029784D02*
X015506Y029784D01*
X015506Y029686D02*
X007606Y029686D01*
X007606Y029587D02*
X015506Y029587D01*
X015836Y029390D02*
X015936Y029390D01*
X015936Y029292D02*
X015836Y029292D01*
X015836Y029193D02*
X015936Y029193D01*
X015936Y029095D02*
X015836Y029095D01*
X023493Y025450D02*
X023806Y025450D01*
X023806Y025352D02*
X023591Y025352D01*
X021826Y023008D02*
X020803Y021985D01*
X021406Y021116D02*
X022327Y021116D01*
X022327Y021018D02*
X021406Y021018D01*
X021406Y020919D02*
X022919Y020919D01*
X022919Y021018D02*
X023019Y021018D01*
X023019Y021116D02*
X022919Y021116D01*
X022919Y021215D02*
X023019Y021215D01*
X023019Y021313D02*
X022919Y021313D01*
X022327Y020821D02*
X021406Y020821D01*
X021406Y020722D02*
X022327Y020722D01*
X022352Y020624D02*
X021367Y020624D01*
X012226Y008848D02*
X012226Y008368D01*
X012826Y007768D01*
X013786Y007768D01*
X013786Y007408D01*
X013645Y007267D01*
X012925Y007267D01*
X012226Y008668D02*
X012226Y008848D01*
X014686Y007888D02*
X014866Y007888D01*
X014926Y007948D01*
X022666Y005848D02*
X022666Y005379D01*
X022678Y005367D01*
D32*
X022666Y005848D03*
X022246Y006448D03*
X023926Y005368D03*
X024406Y004888D03*
X024826Y004888D03*
X026446Y005368D03*
X025426Y006628D03*
X025426Y007048D03*
X025186Y007948D03*
X024706Y008368D03*
X025426Y009148D03*
X025426Y009568D03*
X023146Y010348D03*
X022186Y010348D03*
X022186Y010888D03*
X021166Y010948D03*
X021106Y010288D03*
X020086Y010468D03*
X020086Y011128D03*
X020746Y012808D03*
X022546Y012748D03*
X022606Y013828D03*
X023206Y013888D03*
X023806Y014428D03*
X023806Y014848D03*
X024046Y015208D03*
X023686Y015388D03*
X022786Y015388D03*
X022786Y014968D03*
X022786Y015808D03*
X022786Y016168D03*
X022726Y016648D03*
X022726Y017008D03*
X023686Y016588D03*
X023686Y016228D03*
X024406Y017068D03*
X025906Y015748D03*
X026146Y015328D03*
X025786Y014308D03*
X025666Y013408D03*
X026686Y012328D03*
X026146Y012028D03*
X023386Y011608D03*
X020746Y014188D03*
X020806Y014668D03*
X020806Y015208D03*
X020806Y015748D03*
X020806Y016108D03*
X020806Y016468D03*
X020806Y016828D03*
X020806Y017188D03*
X020806Y017548D03*
X020806Y017908D03*
X020746Y018388D03*
X020806Y018748D03*
X019846Y019228D03*
X018946Y019708D03*
X017746Y018928D03*
X017686Y018568D03*
X017806Y018208D03*
X017206Y018808D03*
X016546Y019348D03*
X013786Y019408D03*
X013066Y020188D03*
X012646Y020608D03*
X012226Y020188D03*
X012226Y021028D03*
X013066Y021028D03*
X014626Y022048D03*
X013126Y022948D03*
X016066Y023428D03*
X016546Y024988D03*
X015946Y025288D03*
X014746Y025288D03*
X013486Y025948D03*
X012466Y025348D03*
X010786Y025588D03*
X014926Y026848D03*
X016467Y027167D03*
X014806Y029608D03*
X017806Y024628D03*
X018586Y023488D03*
X022546Y021448D03*
X022966Y022408D03*
X024886Y021688D03*
X025126Y021208D03*
X023326Y020128D03*
X022786Y019348D03*
X022786Y018928D03*
X022786Y018568D03*
X024526Y018568D03*
X024946Y018268D03*
X026566Y018868D03*
X030706Y016948D03*
X031006Y017848D03*
X033226Y016588D03*
X033886Y016828D03*
X040606Y024808D03*
X026026Y024628D03*
X019426Y017908D03*
X019306Y017428D03*
X019366Y016888D03*
X018526Y016228D03*
X018826Y015808D03*
X019846Y015388D03*
X019846Y014668D03*
X016906Y014548D03*
X016606Y016288D03*
X014986Y014188D03*
X013726Y015508D03*
X013006Y016348D03*
X012586Y016768D03*
X012166Y016348D03*
X012166Y017188D03*
X013006Y017188D03*
X012946Y013288D03*
X012526Y012868D03*
X012106Y012448D03*
X012106Y013288D03*
X012946Y012448D03*
X013666Y011668D03*
X015226Y009688D03*
X015886Y009028D03*
X015946Y008668D03*
X015946Y008248D03*
X016846Y007648D03*
X014686Y007888D03*
X013786Y008128D03*
X013966Y008548D03*
X013846Y009148D03*
X012226Y008848D03*
X012106Y006448D03*
X012346Y005848D03*
X012586Y005248D03*
X013186Y004108D03*
X014926Y004588D03*
X017506Y005368D03*
X021406Y005188D03*
X028126Y005788D03*
X017446Y010888D03*
X016606Y010108D03*
X016906Y012688D03*
D33*
X015610Y012688D01*
X015454Y012532D01*
X016846Y012268D02*
X017206Y012628D01*
X017206Y012748D01*
X016211Y013743D01*
X016209Y013743D02*
X016209Y013851D01*
X016906Y014548D01*
X017026Y015208D02*
X017026Y016288D01*
X017206Y016468D01*
X019666Y016468D01*
X019786Y016588D01*
X020265Y016588D01*
X020290Y016613D01*
X020661Y016613D01*
X020806Y016468D01*
X020686Y016228D02*
X020806Y016108D01*
X020686Y016228D02*
X020299Y016228D01*
X020290Y016219D01*
X020282Y016408D02*
X019906Y016408D01*
X019726Y016228D01*
X018526Y016228D01*
X018526Y016588D02*
X018346Y016768D01*
X017086Y016768D01*
X016606Y016288D01*
X016209Y016191D02*
X016103Y016191D01*
X015728Y016566D01*
X015454Y016292D01*
X015728Y016566D02*
X015810Y016648D01*
X015826Y016648D01*
X016186Y017008D01*
X018286Y017008D01*
X018466Y017188D01*
X020274Y017188D01*
X020290Y017203D01*
X020305Y017188D01*
X020806Y017188D01*
X020686Y017428D02*
X020806Y017548D01*
X020686Y017428D02*
X020318Y017428D01*
X020290Y017400D01*
X020290Y017597D02*
X019486Y017597D01*
X019306Y017417D01*
X019306Y017428D01*
X019137Y017597D01*
X018860Y017597D01*
X018766Y017503D01*
X019366Y017968D02*
X019426Y017908D01*
X019366Y017968D02*
X014926Y017968D01*
X014703Y017745D01*
X014703Y017503D01*
X014446Y017248D02*
X014964Y017248D01*
X015219Y017503D01*
X014446Y017248D02*
X014386Y017308D01*
X014386Y017728D01*
X015226Y018568D01*
X015446Y018568D01*
X016046Y018568D02*
X016306Y018568D01*
X017086Y019348D01*
X017146Y019288D01*
X019426Y019288D01*
X019906Y018808D01*
X020260Y018808D01*
X020290Y018778D01*
X020320Y018748D01*
X020806Y018748D01*
X020746Y018388D02*
X020576Y018218D01*
X020259Y018218D01*
X020290Y018188D01*
X020310Y018208D01*
X020259Y018218D02*
X019776Y018218D01*
X019426Y018568D01*
X017686Y018568D01*
X017746Y018928D02*
X019306Y018928D01*
X019846Y018388D01*
X020286Y018388D01*
X020290Y018384D01*
X020277Y018568D02*
X019906Y018568D01*
X019306Y019168D01*
X017566Y019168D01*
X017206Y018808D01*
X017806Y018208D02*
X019546Y018208D01*
X019726Y018028D01*
X020252Y018028D01*
X020290Y017991D01*
X020290Y017794D02*
X020296Y017788D01*
X020686Y017788D01*
X020806Y017908D01*
X020277Y018568D02*
X020290Y018581D01*
X020290Y019172D02*
X019902Y019172D01*
X019846Y019228D01*
X020290Y019566D02*
X019089Y019566D01*
X018946Y019708D01*
X018846Y021103D02*
X017881Y021103D01*
X017086Y020308D01*
X017086Y019348D01*
X016546Y019348D02*
X016518Y019376D01*
X016089Y019376D01*
X013786Y019408D02*
X013781Y019413D01*
X013409Y019413D01*
X014583Y021563D02*
X014583Y022005D01*
X014626Y022048D01*
X016066Y023428D02*
X018526Y023428D01*
X018586Y023488D01*
X020803Y021985D02*
X020803Y021928D01*
X022546Y021505D02*
X022969Y021928D01*
X022966Y022408D02*
X022966Y022910D01*
X022969Y022912D01*
X022546Y021505D02*
X022546Y021448D01*
X023626Y020788D02*
X023746Y020908D01*
X023966Y020908D01*
X024106Y021048D01*
X024246Y021048D01*
X024886Y021688D01*
X025126Y021208D02*
X024366Y020448D01*
X024106Y020448D01*
X023746Y020088D01*
X023746Y019168D01*
X023553Y018975D01*
X023243Y018975D01*
X023243Y019172D02*
X023510Y019172D01*
X023626Y019288D01*
X023626Y020788D01*
X023326Y020128D02*
X023243Y020044D01*
X023243Y019566D01*
X023243Y019369D02*
X023222Y019348D01*
X022786Y019348D01*
X022786Y018928D02*
X022936Y018778D01*
X023243Y018778D01*
X023243Y018581D02*
X023229Y018568D01*
X022786Y018568D01*
X023243Y018384D02*
X024343Y018384D01*
X024526Y018568D01*
X024866Y018188D02*
X024946Y018268D01*
X024866Y018188D02*
X023243Y018188D01*
X023243Y017991D02*
X025449Y017991D01*
X025906Y018448D01*
X025906Y020788D01*
X026806Y021688D01*
X026806Y022088D01*
X027226Y022508D01*
X026866Y021568D02*
X028306Y021568D01*
X028666Y021928D01*
X028666Y022068D01*
X027226Y023508D01*
X027226Y024508D02*
X028786Y022948D01*
X028786Y021868D01*
X028366Y021448D01*
X026926Y021448D01*
X026146Y020668D01*
X026146Y018328D01*
X025415Y017597D01*
X023243Y017597D01*
X023243Y017400D02*
X025398Y017400D01*
X026266Y018268D01*
X026266Y020608D01*
X026986Y021328D01*
X028426Y021328D01*
X028906Y021808D01*
X028906Y024828D01*
X027226Y026508D01*
X027746Y025988D01*
X027226Y027508D02*
X031666Y027508D01*
X033226Y025948D01*
X033226Y019908D01*
X032306Y018988D01*
X032306Y018548D01*
X031066Y017308D01*
X030706Y017308D01*
X027766Y014368D01*
X027046Y014368D01*
X026806Y014128D01*
X026806Y013528D01*
X025546Y012268D01*
X025546Y010528D01*
X024406Y009388D01*
X020506Y009388D01*
X020166Y009048D01*
X020166Y008428D01*
X018306Y006568D01*
X016966Y006568D01*
X016666Y006268D01*
X016666Y005848D01*
X016550Y005732D01*
X016201Y005732D01*
X016197Y005728D01*
X015766Y005728D01*
X015526Y005488D01*
X015526Y004948D01*
X015646Y004828D01*
X016726Y004828D01*
X017266Y005368D01*
X017266Y005608D01*
X017386Y005728D01*
X017866Y005728D01*
X017991Y005603D01*
X017991Y005367D01*
X018166Y005346D02*
X018166Y005128D01*
X018046Y005008D01*
X017926Y005008D01*
X017794Y005140D01*
X017794Y005367D01*
X017627Y005367D01*
X017626Y005368D01*
X017506Y005368D01*
X017146Y005428D02*
X016726Y005008D01*
X015766Y005008D01*
X015706Y005068D01*
X015706Y005368D01*
X015766Y005428D01*
X016153Y005428D01*
X016201Y005476D01*
X016594Y005476D01*
X016786Y005668D01*
X016786Y006208D01*
X017026Y006448D01*
X019186Y006448D01*
X021166Y008428D01*
X022006Y009268D01*
X024466Y009268D01*
X025666Y010468D01*
X025666Y012208D01*
X026926Y013468D01*
X027586Y013468D01*
X032086Y017968D01*
X032286Y017968D01*
X032306Y017988D01*
X032226Y017988D01*
X032306Y017988D02*
X033406Y019088D01*
X033406Y026008D01*
X030906Y028508D01*
X027226Y028508D01*
X027226Y029508D02*
X030086Y029508D01*
X033586Y026008D01*
X033586Y018268D01*
X032306Y016988D01*
X032286Y017008D01*
X031606Y017008D01*
X027946Y013348D01*
X027026Y013348D01*
X025786Y012108D01*
X025786Y010408D01*
X024526Y009148D01*
X022846Y009148D01*
X022166Y008468D01*
X022166Y008428D01*
X021386Y007648D01*
X020686Y007648D01*
X019366Y006328D01*
X018706Y006328D01*
X018581Y006203D01*
X018581Y005367D01*
X018385Y005367D02*
X018385Y005930D01*
X018286Y006028D01*
X017266Y006028D01*
X017146Y005908D01*
X017146Y005428D01*
X016906Y005428D02*
X016906Y006148D01*
X017086Y006328D01*
X018706Y006328D01*
X019066Y005968D02*
X018778Y005680D01*
X018778Y005367D01*
X019126Y005248D02*
X018706Y004828D01*
X017146Y004828D01*
X016666Y004348D01*
X014506Y004348D01*
X013846Y005008D01*
X013846Y006448D01*
X013539Y006755D01*
X013213Y006755D01*
X013213Y006499D02*
X013162Y006448D01*
X012106Y006448D01*
X012925Y007267D01*
X013213Y007267D01*
X013213Y007523D02*
X010121Y007523D01*
X009986Y007388D01*
X012586Y005308D02*
X012766Y005488D01*
X013201Y005488D01*
X013213Y005476D01*
X013213Y005220D02*
X014325Y004108D01*
X016666Y004108D01*
X017206Y004648D01*
X018946Y004648D01*
X019606Y005308D01*
X020166Y005308D01*
X020206Y005268D01*
X020206Y005868D02*
X022046Y005868D01*
X022306Y005608D01*
X022306Y005389D01*
X022285Y005367D01*
X022306Y005389D02*
X022306Y005008D01*
X022366Y004948D01*
X022786Y004948D01*
X022966Y005128D01*
X022966Y006268D01*
X024106Y007408D01*
X024106Y007768D01*
X024706Y008368D01*
X025186Y007948D02*
X025186Y007888D01*
X024706Y007408D01*
X025606Y007408D01*
X027346Y005668D01*
X027346Y005389D01*
X027325Y005367D01*
X027521Y005367D02*
X027521Y005663D01*
X027646Y005788D01*
X028126Y005788D01*
X027128Y005367D02*
X027128Y005090D01*
X027046Y005008D01*
X026866Y005008D01*
X026746Y005128D01*
X026746Y005355D01*
X026734Y005367D01*
X026447Y005367D01*
X026446Y005368D01*
X026926Y005372D02*
X026926Y005608D01*
X026326Y006208D01*
X024726Y006208D01*
X025146Y006628D01*
X025426Y006628D01*
X025126Y006748D02*
X025426Y007048D01*
X025126Y006748D02*
X024286Y006748D01*
X024126Y006588D01*
X024126Y006208D01*
X023386Y006208D01*
X023146Y005968D01*
X023146Y004888D01*
X022906Y004648D01*
X022186Y004648D01*
X021891Y004943D01*
X021891Y005367D01*
X021886Y005362D01*
X021886Y005008D01*
X021546Y004668D01*
X020206Y004668D01*
X021406Y005188D02*
X021585Y005367D01*
X021694Y005367D01*
X021706Y005379D01*
X021706Y005608D01*
X021826Y005728D01*
X022006Y005728D01*
X022088Y005646D01*
X022088Y005367D01*
X022481Y005367D02*
X022486Y005372D01*
X022486Y005668D01*
X022246Y005908D01*
X022246Y006448D01*
X020086Y006448D01*
X019126Y005488D01*
X019126Y005248D01*
X018188Y005367D02*
X018166Y005346D01*
X016906Y005428D02*
X016698Y005220D01*
X016201Y005220D01*
X014926Y004588D02*
X014926Y007948D01*
X014926Y008968D01*
X014746Y009148D01*
X014347Y009148D01*
X014394Y009196D01*
X014347Y009148D02*
X013846Y009148D01*
X014086Y008668D02*
X014378Y008668D01*
X014394Y008684D01*
X014394Y008940D01*
X014086Y008668D02*
X013966Y008548D01*
X014094Y008128D02*
X014394Y008428D01*
X014094Y008128D02*
X013786Y008128D01*
X015418Y008428D02*
X015598Y008248D01*
X015946Y008248D01*
X015946Y008668D02*
X015434Y008668D01*
X015418Y008684D01*
X015418Y008940D02*
X015798Y008940D01*
X015886Y009028D01*
X015418Y009196D02*
X015418Y009436D01*
X015226Y009628D01*
X015226Y009688D01*
X016606Y010108D02*
X016846Y010348D01*
X016846Y012268D01*
X017446Y010888D02*
X019421Y010888D01*
X019646Y010663D01*
X020086Y010468D02*
X019691Y010073D01*
X019646Y010073D01*
X020266Y009508D02*
X024286Y009508D01*
X025426Y010648D01*
X025426Y012328D01*
X026686Y013588D01*
X026686Y015368D01*
X027226Y015908D01*
X026506Y016188D02*
X027226Y016908D01*
X026386Y017068D02*
X027226Y017908D01*
X026986Y018388D02*
X030466Y018388D01*
X031006Y017848D01*
X030706Y016948D02*
X030706Y016768D01*
X027846Y013908D01*
X027226Y013908D01*
X026506Y014728D02*
X026506Y016188D01*
X025906Y015748D02*
X025846Y015808D01*
X023746Y015808D01*
X023532Y016022D01*
X023243Y016022D01*
X023243Y015825D02*
X023549Y015825D01*
X023686Y015688D01*
X023806Y015688D01*
X023866Y015628D01*
X025426Y015628D01*
X025726Y015328D01*
X026146Y015328D01*
X026386Y014908D02*
X026386Y017068D01*
X025432Y017794D02*
X026026Y018388D01*
X026026Y020728D01*
X026866Y021568D01*
X026566Y018868D02*
X026566Y018808D01*
X026986Y018388D01*
X025432Y017794D02*
X023243Y017794D01*
X023243Y017203D02*
X024271Y017203D01*
X024406Y017068D01*
X023686Y016588D02*
X023267Y016588D01*
X023243Y016613D01*
X023243Y016810D02*
X023224Y016828D01*
X022906Y016828D01*
X022726Y016648D01*
X022726Y017008D02*
X023241Y017008D01*
X023243Y017006D01*
X023243Y016416D02*
X023250Y016408D01*
X023506Y016408D01*
X023686Y016228D01*
X023243Y016219D02*
X022837Y016219D01*
X022786Y016168D01*
X022786Y015808D02*
X022786Y015748D01*
X022906Y015628D01*
X023242Y015628D01*
X023243Y015629D01*
X023226Y015448D02*
X022846Y015448D01*
X022786Y015388D01*
X022786Y014968D02*
X022786Y014788D01*
X022906Y014668D01*
X023219Y014668D01*
X023243Y014644D01*
X023243Y014447D02*
X023262Y014428D01*
X023806Y014428D01*
X023806Y014848D02*
X023249Y014848D01*
X023243Y014841D01*
X023243Y015038D02*
X023576Y015038D01*
X023686Y015148D01*
X023986Y015148D01*
X024046Y015208D01*
X023686Y015388D02*
X023506Y015208D01*
X023269Y015208D01*
X023243Y015235D01*
X023243Y015432D02*
X023226Y015448D01*
X023243Y014251D02*
X023206Y014214D01*
X023206Y013888D01*
X022606Y013828D02*
X021766Y013828D01*
X020746Y012808D01*
X020746Y012568D01*
X020926Y012388D01*
X021086Y012388D01*
X021132Y012342D01*
X021132Y011594D02*
X020552Y011594D01*
X020086Y011128D01*
X020266Y009508D02*
X018406Y007648D01*
X016846Y007648D01*
X012586Y005308D02*
X012586Y005248D01*
X013289Y011633D02*
X013631Y011633D01*
X013666Y011668D01*
X014703Y013743D02*
X014703Y013905D01*
X014986Y014188D01*
X016209Y015316D02*
X016209Y016191D01*
X017026Y015208D02*
X017986Y014248D01*
X018286Y014248D01*
X018466Y014068D01*
X019066Y014068D01*
X019546Y013588D01*
X019546Y013108D01*
X019606Y013048D01*
X019006Y013048D02*
X018686Y013368D01*
X018686Y013773D01*
X018667Y013754D01*
X018615Y013754D01*
X019846Y014668D02*
X020266Y014668D01*
X020290Y014644D01*
X020290Y014841D01*
X020300Y015028D02*
X020290Y015038D01*
X020496Y015038D01*
X020626Y014908D01*
X020626Y014848D01*
X020806Y014668D01*
X020686Y014248D02*
X020292Y014248D01*
X020290Y014251D01*
X020686Y014248D02*
X020746Y014188D01*
X020806Y015208D02*
X020806Y015388D01*
X020566Y015628D01*
X020290Y015628D01*
X020290Y015629D01*
X020307Y015808D02*
X020746Y015808D01*
X020806Y015748D01*
X020307Y015808D02*
X020290Y015825D01*
X020256Y015988D02*
X020290Y016022D01*
X020256Y015988D02*
X019066Y015988D01*
X018886Y015808D01*
X018826Y015808D01*
X018526Y016588D02*
X019486Y016588D01*
X019905Y017006D01*
X020290Y017006D01*
X020308Y016828D02*
X020290Y016810D01*
X020308Y016828D02*
X020806Y016828D01*
X020290Y016416D02*
X020282Y016408D01*
X020290Y015432D02*
X020246Y015388D01*
X019846Y015388D01*
X020290Y015432D02*
X020290Y015235D01*
X020263Y015208D01*
X022546Y012748D02*
X022546Y012668D01*
X022872Y012342D01*
X022872Y011594D02*
X022412Y011594D01*
X022186Y011368D01*
X022186Y010888D01*
X025426Y009568D02*
X041506Y009568D01*
X041866Y009928D01*
X041866Y023428D01*
X041306Y023988D01*
X041826Y024508D01*
X046226Y024508D01*
X046426Y024988D02*
X046006Y024988D01*
X045706Y024688D01*
X041806Y024688D01*
X041626Y024508D01*
X041086Y024508D01*
X041026Y024448D01*
X040666Y024808D01*
X040606Y024808D01*
X041026Y024448D02*
X040726Y024148D01*
X040726Y023968D01*
X041206Y023488D01*
X041446Y023488D01*
X041746Y023188D01*
X041746Y022768D01*
X041306Y022328D01*
X041306Y021988D01*
X041306Y022988D02*
X040366Y023928D01*
X040366Y026248D01*
X042626Y028508D01*
X046226Y028508D01*
X046226Y027508D02*
X046726Y027008D01*
X046726Y025288D01*
X046426Y024988D01*
X046226Y025508D02*
X045706Y024988D01*
X041306Y024988D01*
X041306Y025988D02*
X041826Y026508D01*
X046226Y026508D01*
X046226Y029508D02*
X043146Y029508D01*
X040126Y026488D01*
X040126Y021168D01*
X041306Y019988D01*
X037726Y016828D02*
X033886Y016828D01*
X033226Y016588D02*
X037706Y016588D01*
X041306Y012988D01*
X041306Y011988D02*
X033126Y011988D01*
X032686Y011548D01*
X028546Y011548D01*
X027646Y012448D01*
X026986Y012448D01*
X026866Y012568D01*
X026506Y012568D01*
X026146Y012208D01*
X026146Y012028D01*
X026686Y012328D02*
X027586Y012328D01*
X028486Y011428D01*
X032506Y011428D01*
X032946Y010988D01*
X041306Y010988D01*
X041306Y013988D02*
X040566Y013988D01*
X037726Y016828D01*
X026506Y014728D02*
X026086Y014308D01*
X026086Y013948D01*
X025666Y013528D01*
X025666Y013408D01*
X025786Y014308D02*
X026386Y014908D01*
X024886Y005728D02*
X024646Y005728D01*
X024608Y005690D01*
X024608Y005367D01*
X024586Y005389D01*
X024586Y005668D01*
X024526Y005728D01*
X024346Y005728D01*
X024214Y005596D01*
X024214Y005367D01*
X023927Y005367D01*
X023926Y005368D01*
X024411Y005367D02*
X024411Y004893D01*
X024406Y004888D01*
X024805Y004910D02*
X024805Y005367D01*
X025001Y005367D02*
X025006Y005372D01*
X025006Y005608D01*
X024886Y005728D01*
X025001Y005367D02*
X025006Y005362D01*
X024608Y005367D02*
X024586Y005346D01*
X024805Y004910D02*
X024826Y004888D01*
X026926Y005372D02*
X026931Y005367D01*
X013726Y015508D02*
X013364Y015508D01*
X013349Y015493D01*
D34*
X009308Y005815D02*
X009286Y003508D01*
X047806Y003508D01*
X047806Y030448D01*
X024106Y030448D01*
X024078Y021418D01*
X024376Y021418D01*
X024600Y021642D01*
X024600Y021745D01*
X024644Y021850D01*
X024724Y021931D01*
X024829Y021974D01*
X024943Y021974D01*
X025048Y021931D01*
X025129Y021850D01*
X025172Y021745D01*
X025172Y021631D01*
X025129Y021526D01*
X025097Y021494D01*
X025183Y021494D01*
X025288Y021451D01*
X025369Y021370D01*
X025412Y021265D01*
X025412Y021151D01*
X025369Y021046D01*
X025288Y020966D01*
X025183Y020922D01*
X025081Y020922D01*
X024561Y020403D01*
X024561Y020160D01*
X024479Y020078D01*
X024074Y020078D01*
X024069Y018554D01*
X024240Y018554D01*
X024240Y018625D01*
X024284Y018730D01*
X024364Y018811D01*
X024469Y018854D01*
X024583Y018854D01*
X024688Y018811D01*
X024769Y018730D01*
X024812Y018625D01*
X024812Y018522D01*
X024889Y018554D01*
X025003Y018554D01*
X025108Y018511D01*
X025189Y018430D01*
X025232Y018325D01*
X025232Y018211D01*
X025211Y018161D01*
X025378Y018161D01*
X025736Y018518D01*
X025736Y020858D01*
X026636Y021758D01*
X026636Y022158D01*
X026774Y022296D01*
X026756Y022313D01*
X026756Y022703D01*
X027031Y022978D01*
X027421Y022978D01*
X027696Y022703D01*
X027696Y022313D01*
X027421Y022038D01*
X027031Y022038D01*
X027014Y022056D01*
X026976Y022018D01*
X026976Y021738D01*
X028236Y021738D01*
X028496Y021998D01*
X027438Y023056D01*
X027421Y023038D01*
X027031Y023038D01*
X026756Y023313D01*
X026756Y023703D01*
X027031Y023978D01*
X027421Y023978D01*
X027696Y023703D01*
X027696Y023313D01*
X027679Y023296D01*
X028616Y022358D01*
X028616Y022878D01*
X027438Y024056D01*
X027421Y024038D01*
X027031Y024038D01*
X026756Y024313D01*
X026756Y024703D01*
X027031Y024978D01*
X027421Y024978D01*
X027696Y024703D01*
X027696Y024313D01*
X027679Y024296D01*
X028736Y023238D01*
X028736Y024758D01*
X027676Y025818D01*
X027438Y026056D01*
X027421Y026038D01*
X027031Y026038D01*
X026756Y026313D01*
X026756Y026703D01*
X027031Y026978D01*
X027421Y026978D01*
X027696Y026703D01*
X027696Y026313D01*
X027679Y026296D01*
X027916Y026058D01*
X029076Y024898D01*
X029076Y021738D01*
X028977Y021638D01*
X028497Y021158D01*
X027641Y021158D01*
X027696Y021103D01*
X027696Y020713D01*
X027421Y020438D01*
X027031Y020438D01*
X026756Y020713D01*
X026756Y020858D01*
X026436Y020538D01*
X026436Y019124D01*
X026509Y019154D01*
X026623Y019154D01*
X026728Y019111D01*
X026756Y019083D01*
X026756Y019103D01*
X027031Y019378D01*
X027421Y019378D01*
X027696Y019103D01*
X027696Y018713D01*
X027541Y018558D01*
X030537Y018558D01*
X030961Y018134D01*
X031063Y018134D01*
X031168Y018091D01*
X031249Y018010D01*
X031292Y017905D01*
X031292Y017791D01*
X031280Y017763D01*
X032111Y018593D01*
X032057Y018615D01*
X031933Y018739D01*
X031866Y018901D01*
X031866Y019076D01*
X031933Y019237D01*
X032057Y019361D01*
X032219Y019428D01*
X032394Y019428D01*
X032473Y019395D01*
X033056Y019978D01*
X033056Y025878D01*
X031596Y027338D01*
X027696Y027338D01*
X027696Y027313D01*
X027421Y027038D01*
X027031Y027038D01*
X026756Y027313D01*
X026756Y027703D01*
X027031Y027978D01*
X027421Y027978D01*
X027696Y027703D01*
X027696Y027678D01*
X031496Y027678D01*
X030836Y028338D01*
X027696Y028338D01*
X027696Y028313D01*
X027421Y028038D01*
X027031Y028038D01*
X026756Y028313D01*
X026756Y028703D01*
X027031Y028978D01*
X027421Y028978D01*
X027696Y028703D01*
X027696Y028678D01*
X030676Y028678D01*
X030016Y029338D01*
X027696Y029338D01*
X027696Y029313D01*
X027421Y029038D01*
X027031Y029038D01*
X026756Y029313D01*
X026756Y029703D01*
X027031Y029978D01*
X027421Y029978D01*
X027696Y029703D01*
X027696Y029678D01*
X030157Y029678D01*
X033657Y026178D01*
X033756Y026078D01*
X033756Y018198D01*
X032713Y017155D01*
X032746Y017076D01*
X032746Y016901D01*
X032679Y016739D01*
X032555Y016615D01*
X032394Y016548D01*
X032219Y016548D01*
X032057Y016615D01*
X031933Y016739D01*
X031892Y016838D01*
X031677Y016838D01*
X028017Y013178D01*
X027621Y013178D01*
X027696Y013103D01*
X027696Y012713D01*
X027601Y012618D01*
X027717Y012618D01*
X027816Y012518D01*
X028617Y011718D01*
X031954Y011718D01*
X031933Y011739D01*
X031866Y011901D01*
X031866Y012076D01*
X031933Y012237D01*
X032057Y012361D01*
X032219Y012428D01*
X032394Y012428D01*
X032555Y012361D01*
X032679Y012237D01*
X032746Y012076D01*
X032746Y011901D01*
X032709Y011812D01*
X033056Y012158D01*
X040900Y012158D01*
X040933Y012237D01*
X041057Y012361D01*
X041219Y012428D01*
X041394Y012428D01*
X041555Y012361D01*
X041679Y012237D01*
X041696Y012196D01*
X041696Y012780D01*
X041679Y012739D01*
X041555Y012615D01*
X041394Y012548D01*
X041219Y012548D01*
X041057Y012615D01*
X040933Y012739D01*
X040866Y012901D01*
X040866Y013076D01*
X040899Y013155D01*
X037636Y016418D01*
X033461Y016418D01*
X033388Y016346D01*
X033283Y016302D01*
X033169Y016302D01*
X033064Y016346D01*
X032984Y016426D01*
X032940Y016531D01*
X032940Y016645D01*
X032984Y016750D01*
X033064Y016831D01*
X033169Y016874D01*
X033283Y016874D01*
X033388Y016831D01*
X033461Y016758D01*
X033606Y016758D01*
X033600Y016771D01*
X033600Y016885D01*
X033644Y016990D01*
X033724Y017071D01*
X033829Y017114D01*
X033943Y017114D01*
X034048Y017071D01*
X034121Y016998D01*
X037797Y016998D01*
X037896Y016898D01*
X040637Y014158D01*
X040900Y014158D01*
X040933Y014237D01*
X041057Y014361D01*
X041219Y014428D01*
X041394Y014428D01*
X041555Y014361D01*
X041679Y014237D01*
X041696Y014196D01*
X041696Y014780D01*
X041679Y014739D01*
X041555Y014615D01*
X041394Y014548D01*
X041219Y014548D01*
X041057Y014615D01*
X040933Y014739D01*
X040866Y014901D01*
X040866Y015076D01*
X040933Y015237D01*
X041057Y015361D01*
X041219Y015428D01*
X041394Y015428D01*
X041555Y015361D01*
X041679Y015237D01*
X041696Y015196D01*
X041696Y015780D01*
X041679Y015739D01*
X041555Y015615D01*
X041394Y015548D01*
X041219Y015548D01*
X041057Y015615D01*
X040933Y015739D01*
X040866Y015901D01*
X040866Y016076D01*
X040933Y016237D01*
X041057Y016361D01*
X041219Y016428D01*
X041394Y016428D01*
X041555Y016361D01*
X041679Y016237D01*
X041696Y016196D01*
X041696Y016780D01*
X041679Y016739D01*
X041555Y016615D01*
X041394Y016548D01*
X041219Y016548D01*
X041057Y016615D01*
X040933Y016739D01*
X040866Y016901D01*
X040866Y017076D01*
X040933Y017237D01*
X041057Y017361D01*
X041219Y017428D01*
X041394Y017428D01*
X041555Y017361D01*
X041679Y017237D01*
X041696Y017196D01*
X041696Y017780D01*
X041679Y017739D01*
X041555Y017615D01*
X041394Y017548D01*
X041219Y017548D01*
X041057Y017615D01*
X040933Y017739D01*
X040866Y017901D01*
X040866Y018076D01*
X040933Y018237D01*
X041057Y018361D01*
X041219Y018428D01*
X041394Y018428D01*
X041555Y018361D01*
X041679Y018237D01*
X041696Y018196D01*
X041696Y018780D01*
X041679Y018739D01*
X041555Y018615D01*
X041394Y018548D01*
X041219Y018548D01*
X041057Y018615D01*
X040933Y018739D01*
X040866Y018901D01*
X040866Y019076D01*
X040933Y019237D01*
X041057Y019361D01*
X041219Y019428D01*
X041394Y019428D01*
X041555Y019361D01*
X041679Y019237D01*
X041696Y019196D01*
X041696Y019780D01*
X041679Y019739D01*
X041555Y019615D01*
X041394Y019548D01*
X041219Y019548D01*
X041057Y019615D01*
X040933Y019739D01*
X040866Y019901D01*
X040866Y020076D01*
X040899Y020155D01*
X039956Y021098D01*
X039956Y026558D01*
X040056Y026658D01*
X043076Y029678D01*
X045756Y029678D01*
X045756Y029703D01*
X046031Y029978D01*
X046421Y029978D01*
X046696Y029703D01*
X046696Y029313D01*
X046421Y029038D01*
X046031Y029038D01*
X045756Y029313D01*
X045756Y029338D01*
X043217Y029338D01*
X042557Y028678D01*
X045756Y028678D01*
X045756Y028703D01*
X046031Y028978D01*
X046421Y028978D01*
X046696Y028703D01*
X046696Y028313D01*
X046421Y028038D01*
X046031Y028038D01*
X045756Y028313D01*
X045756Y028338D01*
X042697Y028338D01*
X040536Y026178D01*
X040536Y025089D01*
X040549Y025094D01*
X040663Y025094D01*
X040768Y025051D01*
X040849Y024970D01*
X040866Y024928D01*
X040866Y025076D01*
X040933Y025237D01*
X041057Y025361D01*
X041219Y025428D01*
X041394Y025428D01*
X041555Y025361D01*
X041679Y025237D01*
X041712Y025158D01*
X045636Y025158D01*
X045774Y025296D01*
X045756Y025313D01*
X045756Y025703D01*
X046031Y025978D01*
X046421Y025978D01*
X046556Y025843D01*
X046556Y026173D01*
X046421Y026038D01*
X046031Y026038D01*
X045756Y026313D01*
X045756Y026338D01*
X041897Y026338D01*
X041713Y026155D01*
X041746Y026076D01*
X041746Y025901D01*
X041679Y025739D01*
X041555Y025615D01*
X041394Y025548D01*
X041219Y025548D01*
X041057Y025615D01*
X040933Y025739D01*
X040866Y025901D01*
X040866Y026076D01*
X040933Y026237D01*
X041057Y026361D01*
X041219Y026428D01*
X041394Y026428D01*
X041473Y026395D01*
X041756Y026678D01*
X045756Y026678D01*
X045756Y026703D01*
X046031Y026978D01*
X046421Y026978D01*
X046556Y026843D01*
X046556Y026938D01*
X046438Y027056D01*
X046421Y027038D01*
X046031Y027038D01*
X045756Y027313D01*
X045756Y027703D01*
X046031Y027978D01*
X046421Y027978D01*
X046696Y027703D01*
X046696Y027313D01*
X046679Y027296D01*
X046896Y027078D01*
X046896Y025218D01*
X046797Y025118D01*
X046797Y025118D01*
X046596Y024918D01*
X046596Y024918D01*
X046539Y024860D01*
X046696Y024703D01*
X046696Y024313D01*
X046421Y024038D01*
X046031Y024038D01*
X045756Y024313D01*
X045756Y024338D01*
X041897Y024338D01*
X041713Y024155D01*
X041746Y024076D01*
X041746Y023901D01*
X041713Y023821D01*
X042036Y023498D01*
X042036Y009858D01*
X041937Y009758D01*
X041577Y009398D01*
X041466Y009398D01*
X041555Y009361D01*
X041679Y009237D01*
X041746Y009076D01*
X041746Y008901D01*
X041679Y008739D01*
X041555Y008615D01*
X041394Y008548D01*
X041219Y008548D01*
X041057Y008615D01*
X040933Y008739D01*
X040866Y008901D01*
X040866Y009076D01*
X040933Y009237D01*
X041057Y009361D01*
X041146Y009398D01*
X032466Y009398D01*
X032555Y009361D01*
X032679Y009237D01*
X032746Y009076D01*
X032746Y008901D01*
X032679Y008739D01*
X032558Y008618D01*
X032825Y008618D01*
X032936Y008507D01*
X033265Y008178D01*
X040909Y008178D01*
X040933Y008237D01*
X041057Y008361D01*
X041219Y008428D01*
X041394Y008428D01*
X041453Y008404D01*
X046656Y013607D01*
X046656Y015273D01*
X046421Y015038D01*
X046031Y015038D01*
X045756Y015313D01*
X045756Y015703D01*
X046031Y015978D01*
X046421Y015978D01*
X046656Y015743D01*
X046656Y016273D01*
X046421Y016038D01*
X046031Y016038D01*
X045756Y016313D01*
X045756Y016703D01*
X046031Y016978D01*
X046421Y016978D01*
X046656Y016743D01*
X046656Y017273D01*
X046421Y017038D01*
X046031Y017038D01*
X045756Y017313D01*
X045756Y017703D01*
X046031Y017978D01*
X046421Y017978D01*
X046656Y017743D01*
X046656Y018273D01*
X046421Y018038D01*
X046031Y018038D01*
X045756Y018313D01*
X045756Y018703D01*
X046031Y018978D01*
X046421Y018978D01*
X046656Y018743D01*
X046656Y019273D01*
X046421Y019038D01*
X046031Y019038D01*
X045756Y019313D01*
X045756Y019703D01*
X046031Y019978D01*
X046421Y019978D01*
X046656Y019743D01*
X046656Y020273D01*
X046421Y020038D01*
X046031Y020038D01*
X045756Y020313D01*
X045756Y020703D01*
X046031Y020978D01*
X046421Y020978D01*
X046656Y020743D01*
X046656Y021273D01*
X046421Y021038D01*
X046031Y021038D01*
X045756Y021313D01*
X045756Y021703D01*
X046031Y021978D01*
X046421Y021978D01*
X046656Y021743D01*
X046656Y021909D01*
X046474Y022091D01*
X046421Y022038D01*
X046031Y022038D01*
X045756Y022313D01*
X045756Y022703D01*
X046031Y022978D01*
X046421Y022978D01*
X046696Y022703D01*
X046696Y022407D01*
X046925Y022178D01*
X047036Y022067D01*
X047036Y013449D01*
X041722Y008135D01*
X041746Y008076D01*
X041746Y007901D01*
X041679Y007739D01*
X041555Y007615D01*
X041394Y007548D01*
X041219Y007548D01*
X041057Y007615D01*
X040933Y007739D01*
X040909Y007798D01*
X033107Y007798D01*
X032687Y008219D01*
X032746Y008076D01*
X032746Y007901D01*
X032679Y007739D01*
X032555Y007615D01*
X032394Y007548D01*
X032219Y007548D01*
X032057Y007615D01*
X031933Y007739D01*
X031866Y007901D01*
X031866Y008076D01*
X031933Y008237D01*
X031934Y008238D01*
X026067Y008238D01*
X025443Y008862D01*
X025369Y008862D01*
X025264Y008906D01*
X025184Y008986D01*
X025140Y009091D01*
X025140Y009205D01*
X025184Y009310D01*
X025232Y009358D01*
X025184Y009406D01*
X025140Y009511D01*
X025140Y009522D01*
X024597Y008978D01*
X023538Y008978D01*
X023539Y008977D01*
X023606Y008816D01*
X023606Y008041D01*
X023539Y007879D01*
X023415Y007755D01*
X023254Y007688D01*
X023079Y007688D01*
X022917Y007755D01*
X022793Y007879D01*
X022726Y008041D01*
X022726Y008788D01*
X022606Y008668D01*
X022606Y008041D01*
X022539Y007879D01*
X022415Y007755D01*
X022254Y007688D01*
X022079Y007688D01*
X021917Y007755D01*
X021825Y007847D01*
X021457Y007478D01*
X020757Y007478D01*
X019437Y006158D01*
X018777Y006158D01*
X018751Y006133D01*
X018751Y005774D01*
X018778Y005774D01*
X018778Y005654D01*
X018778Y005654D01*
X018778Y005774D01*
X018861Y005774D01*
X018907Y005761D01*
X018948Y005738D01*
X018981Y005704D01*
X019005Y005663D01*
X019017Y005619D01*
X019056Y005658D01*
X019056Y005658D01*
X019916Y006518D01*
X019916Y006518D01*
X020016Y006618D01*
X022012Y006618D01*
X022084Y006691D01*
X022189Y006734D01*
X022303Y006734D01*
X022408Y006691D01*
X022489Y006610D01*
X022532Y006505D01*
X022532Y006391D01*
X022489Y006286D01*
X022416Y006214D01*
X022416Y005992D01*
X022424Y006010D01*
X022504Y006091D01*
X022609Y006134D01*
X022723Y006134D01*
X022796Y006104D01*
X022796Y006338D01*
X023736Y007278D01*
X023736Y007781D01*
X023818Y007863D01*
X023961Y007863D01*
X024420Y008322D01*
X024420Y008425D01*
X024464Y008530D01*
X024544Y008611D01*
X024649Y008654D01*
X024763Y008654D01*
X024868Y008611D01*
X024949Y008530D01*
X024992Y008425D01*
X024992Y008311D01*
X024949Y008206D01*
X024868Y008126D01*
X024763Y008082D01*
X024661Y008082D01*
X024442Y007863D01*
X024912Y007863D01*
X024900Y007891D01*
X024900Y008005D01*
X024944Y008110D01*
X025024Y008191D01*
X025129Y008234D01*
X025243Y008234D01*
X025348Y008191D01*
X025429Y008110D01*
X025472Y008005D01*
X025472Y007891D01*
X025429Y007786D01*
X025348Y007706D01*
X025243Y007662D01*
X025201Y007662D01*
X025117Y007578D01*
X025677Y007578D01*
X027417Y005838D01*
X027436Y005818D01*
X027476Y005858D01*
X027576Y005958D01*
X027892Y005958D01*
X027964Y006031D01*
X028069Y006074D01*
X028183Y006074D01*
X028288Y006031D01*
X028369Y005950D01*
X028412Y005845D01*
X028412Y005731D01*
X028369Y005626D01*
X028288Y005546D01*
X028183Y005502D01*
X028069Y005502D01*
X027964Y005546D01*
X027957Y005552D01*
X027957Y005367D01*
X027720Y005367D01*
X027720Y005367D01*
X027957Y005367D01*
X027957Y005117D01*
X027945Y005071D01*
X027921Y005030D01*
X027888Y004997D01*
X027847Y004973D01*
X027801Y004961D01*
X027718Y004961D01*
X027718Y005081D01*
X027718Y004961D01*
X027636Y004961D01*
X027590Y004973D01*
X027549Y004997D01*
X027545Y005001D01*
X027279Y005001D01*
X027216Y004938D01*
X027117Y004838D01*
X026796Y004838D01*
X026676Y004958D01*
X026633Y005001D01*
X026617Y005001D01*
X026535Y005083D01*
X026535Y005095D01*
X026503Y005082D01*
X026389Y005082D01*
X026284Y005126D01*
X026204Y005206D01*
X026160Y005311D01*
X026160Y005425D01*
X026204Y005530D01*
X026284Y005611D01*
X026389Y005654D01*
X026503Y005654D01*
X026535Y005641D01*
X026535Y005652D01*
X026589Y005705D01*
X026256Y006038D01*
X025096Y006038D01*
X025096Y005835D01*
X025058Y005797D01*
X025088Y005766D01*
X025116Y005774D01*
X025198Y005774D01*
X025198Y005654D01*
X025198Y005654D01*
X025198Y005774D01*
X025281Y005774D01*
X025327Y005761D01*
X025368Y005738D01*
X025401Y005704D01*
X025425Y005663D01*
X025437Y005617D01*
X025437Y005367D01*
X025200Y005367D01*
X025200Y005367D01*
X025437Y005367D01*
X025437Y005117D01*
X025425Y005071D01*
X025401Y005030D01*
X025368Y004997D01*
X025327Y004973D01*
X025281Y004961D01*
X025198Y004961D01*
X025198Y005081D01*
X025198Y004961D01*
X025116Y004961D01*
X025104Y004964D01*
X025112Y004945D01*
X025112Y004831D01*
X025069Y004726D01*
X024988Y004646D01*
X024883Y004602D01*
X024769Y004602D01*
X024664Y004646D01*
X024616Y004694D01*
X024568Y004646D01*
X024463Y004602D01*
X024349Y004602D01*
X024244Y004646D01*
X024164Y004726D01*
X024120Y004831D01*
X024120Y004945D01*
X024143Y005001D01*
X024097Y005001D01*
X024015Y005083D01*
X024015Y005095D01*
X023983Y005082D01*
X023869Y005082D01*
X023764Y005126D01*
X023684Y005206D01*
X023640Y005311D01*
X023640Y005425D01*
X023684Y005530D01*
X023764Y005611D01*
X023869Y005654D01*
X023983Y005654D01*
X024015Y005641D01*
X024015Y005652D01*
X024097Y005734D01*
X024111Y005734D01*
X024131Y005753D01*
X023838Y005753D01*
X023756Y005835D01*
X023756Y006038D01*
X023457Y006038D01*
X023316Y005898D01*
X023316Y004818D01*
X023217Y004718D01*
X023071Y004572D01*
X023396Y004572D01*
X023446Y004522D01*
X023497Y004572D01*
X024020Y004572D01*
X024102Y004490D01*
X024102Y003980D01*
X024020Y003898D01*
X023497Y003898D01*
X023446Y003949D01*
X023396Y003898D01*
X022872Y003898D01*
X022790Y003980D01*
X022790Y004478D01*
X022116Y004478D01*
X022016Y004578D01*
X021856Y004738D01*
X021617Y004498D01*
X021574Y004498D01*
X021582Y004490D01*
X021582Y003980D01*
X021500Y003898D01*
X020977Y003898D01*
X020895Y003980D01*
X020895Y004490D01*
X020902Y004498D01*
X020661Y004498D01*
X020661Y004380D01*
X020579Y004298D01*
X019833Y004298D01*
X019751Y004380D01*
X019751Y004956D01*
X019763Y004968D01*
X019751Y004980D01*
X019751Y005138D01*
X019677Y005138D01*
X019111Y004572D01*
X019496Y004572D01*
X019578Y004490D01*
X019578Y003980D01*
X019496Y003898D01*
X018972Y003898D01*
X018890Y003980D01*
X018890Y004478D01*
X017682Y004478D01*
X017682Y003980D01*
X017600Y003898D01*
X017077Y003898D01*
X016995Y003980D01*
X016995Y004196D01*
X016737Y003938D01*
X014254Y003938D01*
X013203Y004989D01*
X012874Y004989D01*
X012803Y005060D01*
X012748Y005006D01*
X012643Y004962D01*
X012529Y004962D01*
X012424Y005006D01*
X012344Y005086D01*
X012300Y005191D01*
X012300Y005305D01*
X012344Y005410D01*
X012424Y005491D01*
X012529Y005534D01*
X012572Y005534D01*
X012596Y005558D01*
X012696Y005658D01*
X012791Y005658D01*
X012791Y005748D01*
X012677Y005748D01*
X012557Y005628D01*
X012531Y005628D01*
X012508Y005606D01*
X012403Y005562D01*
X012289Y005562D01*
X012184Y005606D01*
X012162Y005628D01*
X009495Y005628D01*
X009366Y005757D01*
X009308Y005815D01*
X009307Y005700D02*
X009423Y005700D01*
X009305Y005542D02*
X012579Y005542D01*
X012629Y005700D02*
X012791Y005700D01*
X012586Y005968D02*
X012466Y005848D01*
X009586Y005848D01*
X009166Y006268D01*
X009166Y025408D01*
X009706Y025948D01*
X013486Y025948D01*
X012466Y025348D02*
X011026Y025348D01*
X010786Y025588D01*
X014746Y025288D02*
X015106Y024928D01*
X016006Y024928D01*
X016306Y024628D01*
X017806Y024628D01*
X016886Y026228D02*
X015946Y025288D01*
X016886Y026228D02*
X016886Y028108D01*
X016366Y028188D02*
X016366Y028348D01*
X016666Y028648D01*
X017866Y028648D01*
X018646Y027868D01*
X019686Y027868D01*
X020326Y028508D01*
X018926Y028528D02*
X017966Y029488D01*
X017086Y029488D01*
X016486Y029488D02*
X016426Y029548D01*
X016426Y028888D01*
X016366Y028828D01*
X015826Y028828D01*
X015586Y028588D01*
X015586Y027688D01*
X016107Y027167D01*
X016467Y027167D01*
X016286Y028108D02*
X016366Y028188D01*
X016426Y029548D02*
X016426Y029668D01*
X024104Y029634D02*
X026756Y029634D01*
X026756Y029475D02*
X024103Y029475D01*
X024103Y029317D02*
X026756Y029317D01*
X026911Y029158D02*
X024102Y029158D01*
X024102Y029000D02*
X030354Y029000D01*
X030196Y029158D02*
X027541Y029158D01*
X027696Y029317D02*
X030037Y029317D01*
X030201Y029634D02*
X043031Y029634D01*
X042873Y029475D02*
X030360Y029475D01*
X030518Y029317D02*
X042714Y029317D01*
X042556Y029158D02*
X030677Y029158D01*
X030835Y029000D02*
X042397Y029000D01*
X042239Y028841D02*
X030994Y028841D01*
X031152Y028683D02*
X042080Y028683D01*
X041922Y028524D02*
X031311Y028524D01*
X031469Y028366D02*
X041763Y028366D01*
X041605Y028207D02*
X031628Y028207D01*
X031786Y028049D02*
X041446Y028049D01*
X041288Y027890D02*
X031945Y027890D01*
X032103Y027732D02*
X041129Y027732D01*
X040971Y027573D02*
X032262Y027573D01*
X032420Y027415D02*
X040812Y027415D01*
X040654Y027256D02*
X032579Y027256D01*
X032737Y027098D02*
X040495Y027098D01*
X040337Y026939D02*
X032896Y026939D01*
X033054Y026781D02*
X040178Y026781D01*
X040020Y026622D02*
X033213Y026622D01*
X033371Y026464D02*
X039956Y026464D01*
X039956Y026305D02*
X033530Y026305D01*
X033688Y026147D02*
X039956Y026147D01*
X039956Y025988D02*
X033756Y025988D01*
X033756Y025830D02*
X039956Y025830D01*
X039956Y025671D02*
X033756Y025671D01*
X033756Y025513D02*
X039956Y025513D01*
X039956Y025354D02*
X033756Y025354D01*
X033756Y025196D02*
X039956Y025196D01*
X039956Y025037D02*
X033756Y025037D01*
X033756Y024879D02*
X039956Y024879D01*
X039956Y024720D02*
X033756Y024720D01*
X033756Y024562D02*
X039956Y024562D01*
X039956Y024403D02*
X033756Y024403D01*
X033756Y024245D02*
X039956Y024245D01*
X039956Y024086D02*
X033756Y024086D01*
X033756Y023928D02*
X039956Y023928D01*
X039956Y023769D02*
X033756Y023769D01*
X033756Y023611D02*
X039956Y023611D01*
X039956Y023452D02*
X033756Y023452D01*
X033756Y023294D02*
X039956Y023294D01*
X039956Y023135D02*
X033756Y023135D01*
X033756Y022977D02*
X039956Y022977D01*
X039956Y022818D02*
X033756Y022818D01*
X033756Y022660D02*
X039956Y022660D01*
X039956Y022501D02*
X033756Y022501D01*
X033756Y022343D02*
X039956Y022343D01*
X039956Y022184D02*
X033756Y022184D01*
X033756Y022026D02*
X039956Y022026D01*
X039956Y021867D02*
X033756Y021867D01*
X033756Y021709D02*
X039956Y021709D01*
X039956Y021550D02*
X033756Y021550D01*
X033756Y021392D02*
X039956Y021392D01*
X039956Y021233D02*
X033756Y021233D01*
X033756Y021075D02*
X039979Y021075D01*
X040138Y020916D02*
X033756Y020916D01*
X033756Y020758D02*
X040296Y020758D01*
X040455Y020599D02*
X033756Y020599D01*
X033756Y020441D02*
X040613Y020441D01*
X040772Y020282D02*
X033756Y020282D01*
X033756Y020124D02*
X040886Y020124D01*
X040866Y019965D02*
X033756Y019965D01*
X033756Y019807D02*
X040905Y019807D01*
X041024Y019648D02*
X033756Y019648D01*
X033756Y019490D02*
X041696Y019490D01*
X041696Y019648D02*
X041588Y019648D01*
X041585Y019331D02*
X041696Y019331D01*
X042036Y019331D02*
X045756Y019331D01*
X045756Y019490D02*
X042036Y019490D01*
X042036Y019648D02*
X045756Y019648D01*
X045860Y019807D02*
X042036Y019807D01*
X042036Y019965D02*
X046018Y019965D01*
X045946Y020124D02*
X042036Y020124D01*
X042036Y020282D02*
X045787Y020282D01*
X045756Y020441D02*
X042036Y020441D01*
X042036Y020599D02*
X045756Y020599D01*
X045811Y020758D02*
X042036Y020758D01*
X042036Y020916D02*
X045969Y020916D01*
X045995Y021075D02*
X042036Y021075D01*
X042036Y021233D02*
X045836Y021233D01*
X045756Y021392D02*
X042036Y021392D01*
X042036Y021550D02*
X045756Y021550D01*
X045762Y021709D02*
X042036Y021709D01*
X042036Y021867D02*
X045920Y021867D01*
X045885Y022184D02*
X042036Y022184D01*
X042036Y022026D02*
X046540Y022026D01*
X046532Y021867D02*
X046656Y021867D01*
X047036Y021867D02*
X047806Y021867D01*
X047806Y021709D02*
X047036Y021709D01*
X047036Y021550D02*
X047806Y021550D01*
X047806Y021392D02*
X047036Y021392D01*
X047036Y021233D02*
X047806Y021233D01*
X047806Y021075D02*
X047036Y021075D01*
X047036Y020916D02*
X047806Y020916D01*
X047806Y020758D02*
X047036Y020758D01*
X047036Y020599D02*
X047806Y020599D01*
X047806Y020441D02*
X047036Y020441D01*
X047036Y020282D02*
X047806Y020282D01*
X047806Y020124D02*
X047036Y020124D01*
X047036Y019965D02*
X047806Y019965D01*
X047806Y019807D02*
X047036Y019807D01*
X047036Y019648D02*
X047806Y019648D01*
X047806Y019490D02*
X047036Y019490D01*
X047036Y019331D02*
X047806Y019331D01*
X047806Y019173D02*
X047036Y019173D01*
X047036Y019014D02*
X047806Y019014D01*
X047806Y018856D02*
X047036Y018856D01*
X047036Y018697D02*
X047806Y018697D01*
X047806Y018539D02*
X047036Y018539D01*
X047036Y018380D02*
X047806Y018380D01*
X047806Y018222D02*
X047036Y018222D01*
X047036Y018063D02*
X047806Y018063D01*
X047806Y017905D02*
X047036Y017905D01*
X047036Y017746D02*
X047806Y017746D01*
X047806Y017588D02*
X047036Y017588D01*
X047036Y017429D02*
X047806Y017429D01*
X047806Y017271D02*
X047036Y017271D01*
X047036Y017112D02*
X047806Y017112D01*
X047806Y016954D02*
X047036Y016954D01*
X047036Y016795D02*
X047806Y016795D01*
X047806Y016637D02*
X047036Y016637D01*
X047036Y016478D02*
X047806Y016478D01*
X047806Y016320D02*
X047036Y016320D01*
X047036Y016161D02*
X047806Y016161D01*
X047806Y016003D02*
X047036Y016003D01*
X047036Y015844D02*
X047806Y015844D01*
X047806Y015686D02*
X047036Y015686D01*
X047036Y015527D02*
X047806Y015527D01*
X047806Y015369D02*
X047036Y015369D01*
X047036Y015210D02*
X047806Y015210D01*
X047806Y015052D02*
X047036Y015052D01*
X047036Y014893D02*
X047806Y014893D01*
X047806Y014735D02*
X047036Y014735D01*
X047036Y014576D02*
X047806Y014576D01*
X047806Y014418D02*
X047036Y014418D01*
X047036Y014259D02*
X047806Y014259D01*
X047806Y014101D02*
X047036Y014101D01*
X047036Y013942D02*
X047806Y013942D01*
X047806Y013784D02*
X047036Y013784D01*
X047036Y013625D02*
X047806Y013625D01*
X047806Y013467D02*
X047036Y013467D01*
X046895Y013308D02*
X047806Y013308D01*
X047806Y013150D02*
X046736Y013150D01*
X046578Y012991D02*
X047806Y012991D01*
X047806Y012833D02*
X046419Y012833D01*
X046261Y012674D02*
X047806Y012674D01*
X047806Y012516D02*
X046102Y012516D01*
X045944Y012357D02*
X047806Y012357D01*
X047806Y012199D02*
X045785Y012199D01*
X045627Y012040D02*
X047806Y012040D01*
X047806Y011882D02*
X045468Y011882D01*
X045310Y011723D02*
X047806Y011723D01*
X047806Y011565D02*
X045151Y011565D01*
X044993Y011406D02*
X047806Y011406D01*
X047806Y011248D02*
X044834Y011248D01*
X044676Y011089D02*
X047806Y011089D01*
X047806Y010931D02*
X044517Y010931D01*
X044359Y010772D02*
X047806Y010772D01*
X047806Y010614D02*
X044200Y010614D01*
X044042Y010455D02*
X047806Y010455D01*
X047806Y010297D02*
X043883Y010297D01*
X043725Y010138D02*
X047806Y010138D01*
X047806Y009980D02*
X043566Y009980D01*
X043408Y009821D02*
X047806Y009821D01*
X047806Y009663D02*
X043249Y009663D01*
X043091Y009504D02*
X047806Y009504D01*
X047806Y009346D02*
X042932Y009346D01*
X042774Y009187D02*
X047806Y009187D01*
X047806Y009029D02*
X042615Y009029D01*
X042457Y008870D02*
X047806Y008870D01*
X047806Y008712D02*
X042298Y008712D01*
X042140Y008553D02*
X047806Y008553D01*
X047806Y008395D02*
X041981Y008395D01*
X041823Y008236D02*
X047806Y008236D01*
X047806Y008078D02*
X041745Y008078D01*
X041746Y007919D02*
X047806Y007919D01*
X047806Y007761D02*
X041688Y007761D01*
X041524Y007602D02*
X047806Y007602D01*
X047806Y007444D02*
X025811Y007444D01*
X025970Y007285D02*
X031981Y007285D01*
X031933Y007237D02*
X031866Y007076D01*
X031866Y006901D01*
X031933Y006739D01*
X032057Y006615D01*
X032219Y006548D01*
X032394Y006548D01*
X032555Y006615D01*
X032679Y006739D01*
X032746Y006901D01*
X032746Y007076D01*
X032679Y007237D01*
X032555Y007361D01*
X032394Y007428D01*
X032219Y007428D01*
X032057Y007361D01*
X031933Y007237D01*
X031887Y007127D02*
X026128Y007127D01*
X026287Y006968D02*
X031866Y006968D01*
X031904Y006810D02*
X026445Y006810D01*
X026604Y006651D02*
X032021Y006651D01*
X032591Y006651D02*
X041021Y006651D01*
X041057Y006615D02*
X041219Y006548D01*
X041394Y006548D01*
X041555Y006615D01*
X041679Y006739D01*
X041746Y006901D01*
X041746Y007076D01*
X041679Y007237D01*
X041555Y007361D01*
X041394Y007428D01*
X041219Y007428D01*
X041057Y007361D01*
X040933Y007237D01*
X040866Y007076D01*
X040866Y006901D01*
X040933Y006739D01*
X041057Y006615D01*
X040904Y006810D02*
X032708Y006810D01*
X032746Y006968D02*
X040866Y006968D01*
X040887Y007127D02*
X032725Y007127D01*
X032631Y007285D02*
X040981Y007285D01*
X041088Y007602D02*
X032524Y007602D01*
X032688Y007761D02*
X040924Y007761D01*
X041631Y007285D02*
X047806Y007285D01*
X047806Y007127D02*
X041725Y007127D01*
X041746Y006968D02*
X047806Y006968D01*
X047806Y006810D02*
X041708Y006810D01*
X041591Y006651D02*
X047806Y006651D01*
X047806Y006493D02*
X026762Y006493D01*
X026921Y006334D02*
X047806Y006334D01*
X047806Y006176D02*
X027079Y006176D01*
X027238Y006017D02*
X027951Y006017D01*
X028302Y006017D02*
X047806Y006017D01*
X047806Y005859D02*
X028406Y005859D01*
X028399Y005700D02*
X047806Y005700D01*
X047806Y005542D02*
X028278Y005542D01*
X027974Y005542D02*
X027957Y005542D01*
X027957Y005383D02*
X047806Y005383D01*
X047806Y005225D02*
X027957Y005225D01*
X027942Y005066D02*
X047806Y005066D01*
X047806Y004908D02*
X027186Y004908D01*
X026726Y004908D02*
X025112Y004908D01*
X025078Y004749D02*
X047806Y004749D01*
X047806Y004591D02*
X023089Y004591D01*
X023248Y004749D02*
X024154Y004749D01*
X024120Y004908D02*
X023316Y004908D01*
X023316Y005066D02*
X024032Y005066D01*
X023676Y005225D02*
X023316Y005225D01*
X023316Y005383D02*
X023640Y005383D01*
X023695Y005542D02*
X023316Y005542D01*
X023316Y005700D02*
X024063Y005700D01*
X023756Y005859D02*
X023316Y005859D01*
X023436Y006017D02*
X023756Y006017D01*
X023109Y006651D02*
X022448Y006651D01*
X022532Y006493D02*
X022950Y006493D01*
X022796Y006334D02*
X022508Y006334D01*
X022416Y006176D02*
X022796Y006176D01*
X022431Y006017D02*
X022416Y006017D01*
X022045Y006651D02*
X019930Y006651D01*
X019890Y006493D02*
X019771Y006493D01*
X019732Y006334D02*
X019613Y006334D01*
X019573Y006176D02*
X019454Y006176D01*
X019415Y006017D02*
X018751Y006017D01*
X018751Y005859D02*
X019256Y005859D01*
X019098Y005700D02*
X018984Y005700D01*
X018778Y005700D02*
X018778Y005700D01*
X019446Y004908D02*
X019751Y004908D01*
X019751Y005066D02*
X019605Y005066D01*
X019751Y004749D02*
X019288Y004749D01*
X019129Y004591D02*
X019751Y004591D01*
X019751Y004432D02*
X019578Y004432D01*
X019578Y004274D02*
X020895Y004274D01*
X020895Y004432D02*
X020661Y004432D01*
X020895Y004115D02*
X019578Y004115D01*
X019554Y003957D02*
X020918Y003957D01*
X021558Y003957D02*
X022814Y003957D01*
X022790Y004115D02*
X021582Y004115D01*
X021582Y004274D02*
X022790Y004274D01*
X022790Y004432D02*
X021582Y004432D01*
X021709Y004591D02*
X022003Y004591D01*
X024102Y004432D02*
X025310Y004432D01*
X025310Y004490D02*
X025310Y003980D01*
X025392Y003898D01*
X025916Y003898D01*
X025966Y003949D01*
X026017Y003898D01*
X026540Y003898D01*
X026622Y003980D01*
X026622Y004490D01*
X026540Y004572D01*
X026017Y004572D01*
X025966Y004522D01*
X025916Y004572D01*
X025392Y004572D01*
X025310Y004490D01*
X025310Y004274D02*
X024102Y004274D01*
X024102Y004115D02*
X025310Y004115D01*
X025334Y003957D02*
X024078Y003957D01*
X025198Y005066D02*
X025198Y005066D01*
X025198Y005081D02*
X025198Y005081D01*
X025422Y005066D02*
X026552Y005066D01*
X026196Y005225D02*
X025437Y005225D01*
X025437Y005383D02*
X026160Y005383D01*
X026215Y005542D02*
X025437Y005542D01*
X025404Y005700D02*
X026583Y005700D01*
X026435Y005859D02*
X025096Y005859D01*
X025096Y006017D02*
X026277Y006017D01*
X027396Y005859D02*
X027476Y005859D01*
X027718Y005081D02*
X027718Y005081D01*
X027718Y005066D02*
X027718Y005066D01*
X027912Y004572D02*
X027830Y004490D01*
X027830Y003980D01*
X027912Y003898D01*
X028436Y003898D01*
X028518Y003980D01*
X028518Y004490D01*
X028436Y004572D01*
X027912Y004572D01*
X027830Y004432D02*
X026622Y004432D01*
X026622Y004274D02*
X027830Y004274D01*
X027830Y004115D02*
X026622Y004115D01*
X026598Y003957D02*
X027854Y003957D01*
X028494Y003957D02*
X047806Y003957D01*
X047806Y004115D02*
X028518Y004115D01*
X028518Y004274D02*
X047806Y004274D01*
X047806Y004432D02*
X028518Y004432D01*
X025198Y005700D02*
X025198Y005700D01*
X023426Y006968D02*
X020247Y006968D01*
X020405Y007127D02*
X023584Y007127D01*
X023736Y007285D02*
X020564Y007285D01*
X020722Y007444D02*
X023736Y007444D01*
X023736Y007602D02*
X021581Y007602D01*
X021739Y007761D02*
X021911Y007761D01*
X022421Y007761D02*
X022911Y007761D01*
X022776Y007919D02*
X022556Y007919D01*
X022606Y008078D02*
X022726Y008078D01*
X022726Y008236D02*
X022606Y008236D01*
X022606Y008395D02*
X022726Y008395D01*
X022726Y008553D02*
X022606Y008553D01*
X022650Y008712D02*
X022726Y008712D01*
X023584Y008870D02*
X025350Y008870D01*
X025166Y009029D02*
X024647Y009029D01*
X024806Y009187D02*
X025140Y009187D01*
X025219Y009346D02*
X024964Y009346D01*
X025123Y009504D02*
X025143Y009504D01*
X024517Y009980D02*
X019944Y009980D01*
X019944Y010085D02*
X019944Y009857D01*
X019862Y009775D01*
X019431Y009775D01*
X019349Y009857D01*
X019349Y010288D01*
X019428Y010368D01*
X019349Y010448D01*
X019349Y010718D01*
X018106Y010718D01*
X018106Y009868D01*
X016771Y009868D01*
X016768Y009866D01*
X016663Y009822D01*
X016549Y009822D01*
X016444Y009866D01*
X016442Y009868D01*
X015451Y009868D01*
X015469Y009850D01*
X015512Y009745D01*
X015512Y009631D01*
X015498Y009597D01*
X015588Y009507D01*
X015588Y009424D01*
X015692Y009424D01*
X015774Y009342D01*
X015774Y009291D01*
X015829Y009314D01*
X015943Y009314D01*
X016048Y009271D01*
X016129Y009190D01*
X016172Y009085D01*
X016172Y008971D01*
X016136Y008883D01*
X016189Y008830D01*
X016232Y008725D01*
X016232Y008611D01*
X016189Y008506D01*
X016141Y008458D01*
X016189Y008410D01*
X016232Y008305D01*
X016232Y008191D01*
X016189Y008086D01*
X016108Y008006D01*
X016003Y007962D01*
X015889Y007962D01*
X015784Y008006D01*
X015712Y008078D01*
X015528Y008078D01*
X015406Y008199D01*
X015143Y008199D01*
X015061Y008281D01*
X015061Y009342D01*
X015135Y009416D01*
X015064Y009446D01*
X014984Y009526D01*
X014940Y009631D01*
X014940Y009745D01*
X014984Y009850D01*
X015002Y009868D01*
X009386Y009868D01*
X009386Y007736D01*
X009428Y007778D01*
X010544Y007778D01*
X010626Y007696D01*
X010626Y007693D01*
X012632Y007693D01*
X012147Y008178D01*
X012036Y008289D01*
X012036Y008634D01*
X011984Y008686D01*
X011940Y008791D01*
X011940Y008905D01*
X011984Y009010D01*
X012064Y009091D01*
X012169Y009134D01*
X012283Y009134D01*
X012388Y009091D01*
X012469Y009010D01*
X012512Y008905D01*
X012512Y008791D01*
X012469Y008686D01*
X012416Y008634D01*
X012416Y008447D01*
X012905Y007958D01*
X013552Y007958D01*
X013544Y007966D01*
X013500Y008071D01*
X013500Y008185D01*
X013544Y008290D01*
X013624Y008371D01*
X013715Y008408D01*
X013680Y008491D01*
X013680Y008605D01*
X013724Y008710D01*
X013804Y008791D01*
X013909Y008834D01*
X014012Y008834D01*
X014016Y008838D01*
X014038Y008838D01*
X014038Y008993D01*
X014034Y008997D01*
X014010Y009038D01*
X013998Y009084D01*
X013998Y009196D01*
X014394Y009196D01*
X014394Y009196D01*
X014394Y009464D01*
X014154Y009464D01*
X014108Y009452D01*
X014067Y009428D01*
X014034Y009395D01*
X014010Y009354D01*
X013998Y009308D01*
X013998Y009196D01*
X014394Y009196D01*
X014394Y009196D01*
X014394Y009464D01*
X014635Y009464D01*
X014680Y009452D01*
X014721Y009428D01*
X014755Y009395D01*
X014779Y009354D01*
X014791Y009308D01*
X014791Y009196D01*
X014394Y009196D01*
X014394Y009196D01*
X014791Y009196D01*
X014791Y009084D01*
X014779Y009038D01*
X014755Y008997D01*
X014751Y008993D01*
X014751Y008281D01*
X014669Y008199D01*
X014406Y008199D01*
X014165Y007958D01*
X014021Y007958D01*
X013948Y007886D01*
X013940Y007882D01*
X013976Y007847D01*
X013976Y007329D01*
X013865Y007218D01*
X013724Y007077D01*
X013634Y007077D01*
X013634Y006900D01*
X013917Y006618D01*
X014016Y006518D01*
X014016Y005078D01*
X014577Y004518D01*
X016596Y004518D01*
X016736Y004658D01*
X015576Y004658D01*
X015356Y004878D01*
X015356Y005558D01*
X015596Y005798D01*
X015596Y005798D01*
X015696Y005898D01*
X015780Y005898D01*
X015780Y007672D01*
X015862Y007754D01*
X016541Y007754D01*
X016569Y007726D01*
X016604Y007810D01*
X016684Y007891D01*
X016789Y007934D01*
X016903Y007934D01*
X017008Y007891D01*
X017081Y007818D01*
X018336Y007818D01*
X020096Y009578D01*
X020196Y009678D01*
X024216Y009678D01*
X025256Y010718D01*
X025256Y012398D01*
X026516Y013658D01*
X026516Y014498D01*
X026256Y014238D01*
X026256Y013878D01*
X026157Y013778D01*
X025920Y013542D01*
X025952Y013465D01*
X025952Y013351D01*
X025909Y013246D01*
X025828Y013166D01*
X025723Y013122D01*
X025609Y013122D01*
X025504Y013166D01*
X025424Y013246D01*
X025380Y013351D01*
X025380Y013465D01*
X025424Y013570D01*
X025504Y013651D01*
X025579Y013682D01*
X025916Y014018D01*
X025916Y014052D01*
X025843Y014022D01*
X025729Y014022D01*
X025624Y014066D01*
X025544Y014146D01*
X025500Y014251D01*
X025500Y014365D01*
X025544Y014470D01*
X025624Y014551D01*
X025729Y014594D01*
X025832Y014594D01*
X026216Y014978D01*
X026216Y015048D01*
X026203Y015042D01*
X026089Y015042D01*
X025984Y015086D01*
X025912Y015158D01*
X025656Y015158D01*
X025556Y015258D01*
X025356Y015458D01*
X024190Y015458D01*
X024208Y015451D01*
X024289Y015370D01*
X024332Y015265D01*
X024332Y015151D01*
X024289Y015046D01*
X024208Y014966D01*
X024103Y014922D01*
X024085Y014922D01*
X024092Y014905D01*
X024092Y014791D01*
X024057Y014707D01*
X024057Y014571D01*
X024092Y014485D01*
X024092Y014371D01*
X024056Y014283D01*
X024046Y011188D01*
X022950Y011188D01*
X022971Y011150D01*
X022984Y011105D01*
X022984Y010923D01*
X022646Y010923D01*
X022646Y010923D01*
X022984Y010923D01*
X022984Y010742D01*
X022971Y010696D01*
X022948Y010655D01*
X022914Y010622D01*
X022886Y010606D01*
X022943Y010549D01*
X022984Y010591D01*
X023089Y010634D01*
X023203Y010634D01*
X023308Y010591D01*
X023389Y010510D01*
X023432Y010405D01*
X023432Y010291D01*
X023389Y010186D01*
X023308Y010106D01*
X023203Y010062D01*
X023089Y010062D01*
X022984Y010106D01*
X022944Y010146D01*
X022944Y010117D01*
X022862Y010035D01*
X022431Y010035D01*
X022354Y010112D01*
X022348Y010106D01*
X022243Y010062D01*
X022129Y010062D01*
X022030Y010103D01*
X021982Y010055D01*
X021551Y010055D01*
X021469Y010137D01*
X021469Y010568D01*
X021526Y010626D01*
X021498Y010642D01*
X021465Y010675D01*
X021441Y010716D01*
X021429Y010762D01*
X021429Y010943D01*
X021766Y010943D01*
X021766Y010943D01*
X021429Y010943D01*
X021429Y011125D01*
X021441Y011170D01*
X021451Y011188D01*
X020991Y011188D01*
X021008Y011171D01*
X021031Y011130D01*
X021044Y011085D01*
X021044Y010903D01*
X020706Y010903D01*
X020369Y010903D01*
X020369Y010722D01*
X020381Y010676D01*
X020405Y010635D01*
X020438Y010602D01*
X020466Y010586D01*
X020409Y010528D01*
X020409Y010097D01*
X020491Y010015D01*
X020922Y010015D01*
X020950Y010043D01*
X021049Y010002D01*
X021163Y010002D01*
X021268Y010046D01*
X021349Y010126D01*
X021392Y010231D01*
X021392Y010345D01*
X021349Y010450D01*
X021268Y010531D01*
X021163Y010574D01*
X021049Y010574D01*
X020985Y010547D01*
X020946Y010586D01*
X020974Y010602D01*
X021008Y010635D01*
X021031Y010676D01*
X021044Y010722D01*
X021044Y010903D01*
X020706Y010903D01*
X020706Y010903D01*
X020706Y010903D01*
X020369Y010903D01*
X020369Y011063D01*
X020329Y010966D01*
X020248Y010886D01*
X020143Y010842D01*
X020029Y010842D01*
X019944Y010878D01*
X019944Y010719D01*
X020029Y010754D01*
X020143Y010754D01*
X020248Y010711D01*
X020329Y010630D01*
X020372Y010525D01*
X020372Y010411D01*
X020329Y010306D01*
X020248Y010226D01*
X020143Y010182D01*
X020041Y010182D01*
X019944Y010085D01*
X019997Y010138D02*
X020409Y010138D01*
X020409Y010297D02*
X020319Y010297D01*
X020372Y010455D02*
X020409Y010455D01*
X020426Y010614D02*
X020335Y010614D01*
X020369Y010772D02*
X019944Y010772D01*
X020293Y010931D02*
X020369Y010931D01*
X021044Y010931D02*
X021429Y010931D01*
X021429Y011089D02*
X021042Y011089D01*
X021044Y010772D02*
X021429Y010772D01*
X021514Y010614D02*
X020986Y010614D01*
X021344Y010455D02*
X021469Y010455D01*
X021469Y010297D02*
X021392Y010297D01*
X021354Y010138D02*
X021469Y010138D01*
X020180Y009663D02*
X015512Y009663D01*
X015481Y009821D02*
X019385Y009821D01*
X019349Y009980D02*
X018106Y009980D01*
X018106Y010138D02*
X019349Y010138D01*
X019357Y010297D02*
X018106Y010297D01*
X018106Y010455D02*
X019349Y010455D01*
X019349Y010614D02*
X018106Y010614D01*
X019907Y009821D02*
X024359Y009821D01*
X024676Y010138D02*
X023341Y010138D01*
X023432Y010297D02*
X024834Y010297D01*
X024993Y010455D02*
X023411Y010455D01*
X023252Y010614D02*
X025151Y010614D01*
X025256Y010772D02*
X022984Y010772D01*
X022984Y010931D02*
X025256Y010931D01*
X025256Y011089D02*
X022984Y011089D01*
X023040Y010614D02*
X022900Y010614D01*
X022944Y010138D02*
X022952Y010138D01*
X024046Y011248D02*
X025256Y011248D01*
X025256Y011406D02*
X024047Y011406D01*
X024047Y011565D02*
X025256Y011565D01*
X025256Y011723D02*
X024048Y011723D01*
X024048Y011882D02*
X025256Y011882D01*
X025256Y012040D02*
X024049Y012040D01*
X024049Y012199D02*
X025256Y012199D01*
X025256Y012357D02*
X024050Y012357D01*
X024050Y012516D02*
X025373Y012516D01*
X025532Y012674D02*
X024051Y012674D01*
X024051Y012833D02*
X025690Y012833D01*
X025849Y012991D02*
X024052Y012991D01*
X024052Y013150D02*
X025543Y013150D01*
X025398Y013308D02*
X024053Y013308D01*
X024053Y013467D02*
X025381Y013467D01*
X025479Y013625D02*
X024054Y013625D01*
X024054Y013784D02*
X025681Y013784D01*
X025840Y013942D02*
X024055Y013942D01*
X024055Y014101D02*
X025589Y014101D01*
X025500Y014259D02*
X024056Y014259D01*
X024092Y014418D02*
X025522Y014418D01*
X025686Y014576D02*
X024057Y014576D01*
X024069Y014735D02*
X025972Y014735D01*
X026131Y014893D02*
X024092Y014893D01*
X024291Y015052D02*
X026066Y015052D01*
X025604Y015210D02*
X024332Y015210D01*
X024289Y015369D02*
X025445Y015369D01*
X026436Y014418D02*
X026516Y014418D01*
X026516Y014259D02*
X026278Y014259D01*
X026256Y014101D02*
X026516Y014101D01*
X026516Y013942D02*
X026256Y013942D01*
X026162Y013784D02*
X026516Y013784D01*
X026483Y013625D02*
X026004Y013625D01*
X025951Y013467D02*
X026324Y013467D01*
X026166Y013308D02*
X025934Y013308D01*
X026007Y013150D02*
X025789Y013150D01*
X027649Y013150D02*
X031897Y013150D01*
X031866Y013076D02*
X031866Y012901D01*
X031933Y012739D01*
X032057Y012615D01*
X032219Y012548D01*
X032394Y012548D01*
X032555Y012615D01*
X032679Y012739D01*
X032746Y012901D01*
X032746Y013076D01*
X032679Y013237D01*
X032555Y013361D01*
X032394Y013428D01*
X032219Y013428D01*
X032057Y013361D01*
X031933Y013237D01*
X031866Y013076D01*
X031866Y012991D02*
X027696Y012991D01*
X027696Y012833D02*
X031894Y012833D01*
X031998Y012674D02*
X027657Y012674D01*
X027819Y012516D02*
X041696Y012516D01*
X041696Y012674D02*
X041614Y012674D01*
X041559Y012357D02*
X041696Y012357D01*
X041695Y012199D02*
X041696Y012199D01*
X042036Y012199D02*
X045248Y012199D01*
X045406Y012357D02*
X042036Y012357D01*
X042036Y012516D02*
X045565Y012516D01*
X045723Y012674D02*
X042036Y012674D01*
X042036Y012833D02*
X045882Y012833D01*
X046040Y012991D02*
X042036Y012991D01*
X042036Y013150D02*
X046199Y013150D01*
X046357Y013308D02*
X042036Y013308D01*
X042036Y013467D02*
X046516Y013467D01*
X046656Y013625D02*
X042036Y013625D01*
X042036Y013784D02*
X046656Y013784D01*
X046656Y013942D02*
X042036Y013942D01*
X042036Y014101D02*
X046656Y014101D01*
X046656Y014259D02*
X042036Y014259D01*
X042036Y014418D02*
X046656Y014418D01*
X046656Y014576D02*
X042036Y014576D01*
X042036Y014735D02*
X046656Y014735D01*
X046656Y014893D02*
X042036Y014893D01*
X042036Y015052D02*
X046018Y015052D01*
X045859Y015210D02*
X042036Y015210D01*
X042036Y015369D02*
X045756Y015369D01*
X045756Y015527D02*
X042036Y015527D01*
X042036Y015686D02*
X045756Y015686D01*
X045897Y015844D02*
X042036Y015844D01*
X042036Y016003D02*
X046656Y016003D01*
X046656Y016161D02*
X046544Y016161D01*
X046555Y015844D02*
X046656Y015844D01*
X046656Y015210D02*
X046593Y015210D01*
X046656Y015052D02*
X046434Y015052D01*
X045908Y016161D02*
X042036Y016161D01*
X042036Y016320D02*
X045756Y016320D01*
X045756Y016478D02*
X042036Y016478D01*
X042036Y016637D02*
X045756Y016637D01*
X045848Y016795D02*
X042036Y016795D01*
X042036Y016954D02*
X046007Y016954D01*
X045957Y017112D02*
X042036Y017112D01*
X042036Y017271D02*
X045799Y017271D01*
X045756Y017429D02*
X042036Y017429D01*
X042036Y017588D02*
X045756Y017588D01*
X045799Y017746D02*
X042036Y017746D01*
X042036Y017905D02*
X045958Y017905D01*
X046006Y018063D02*
X042036Y018063D01*
X042036Y018222D02*
X045848Y018222D01*
X045756Y018380D02*
X042036Y018380D01*
X042036Y018539D02*
X045756Y018539D01*
X045756Y018697D02*
X042036Y018697D01*
X042036Y018856D02*
X045909Y018856D01*
X045897Y019173D02*
X042036Y019173D01*
X042036Y019014D02*
X046656Y019014D01*
X046656Y018856D02*
X046543Y018856D01*
X046555Y019173D02*
X046656Y019173D01*
X046656Y019807D02*
X046592Y019807D01*
X046656Y019965D02*
X046434Y019965D01*
X046506Y020124D02*
X046656Y020124D01*
X046641Y020758D02*
X046656Y020758D01*
X046656Y020916D02*
X046483Y020916D01*
X046457Y021075D02*
X046656Y021075D01*
X046656Y021233D02*
X046616Y021233D01*
X047036Y022026D02*
X047806Y022026D01*
X047806Y022184D02*
X046919Y022184D01*
X046760Y022343D02*
X047806Y022343D01*
X047806Y022501D02*
X046696Y022501D01*
X046696Y022660D02*
X047806Y022660D01*
X047806Y022818D02*
X046581Y022818D01*
X046422Y022977D02*
X047806Y022977D01*
X047806Y023135D02*
X042036Y023135D01*
X042036Y022977D02*
X046030Y022977D01*
X045871Y022818D02*
X042036Y022818D01*
X042036Y022660D02*
X045756Y022660D01*
X045756Y022501D02*
X042036Y022501D01*
X042036Y022343D02*
X045756Y022343D01*
X045983Y024086D02*
X041742Y024086D01*
X041746Y023928D02*
X047806Y023928D01*
X047806Y024086D02*
X046469Y024086D01*
X046627Y024245D02*
X047806Y024245D01*
X047806Y024403D02*
X046696Y024403D01*
X046696Y024562D02*
X047806Y024562D01*
X047806Y024720D02*
X046679Y024720D01*
X046557Y024879D02*
X047806Y024879D01*
X047806Y025037D02*
X046716Y025037D01*
X046874Y025196D02*
X047806Y025196D01*
X047806Y025354D02*
X046896Y025354D01*
X046896Y025513D02*
X047806Y025513D01*
X047806Y025671D02*
X046896Y025671D01*
X046896Y025830D02*
X047806Y025830D01*
X047806Y025988D02*
X046896Y025988D01*
X046896Y026147D02*
X047806Y026147D01*
X047806Y026305D02*
X046896Y026305D01*
X046896Y026464D02*
X047806Y026464D01*
X047806Y026622D02*
X046896Y026622D01*
X046896Y026781D02*
X047806Y026781D01*
X047806Y026939D02*
X046896Y026939D01*
X046877Y027098D02*
X047806Y027098D01*
X047806Y027256D02*
X046719Y027256D01*
X046696Y027415D02*
X047806Y027415D01*
X047806Y027573D02*
X046696Y027573D01*
X046667Y027732D02*
X047806Y027732D01*
X047806Y027890D02*
X046509Y027890D01*
X046431Y028049D02*
X047806Y028049D01*
X047806Y028207D02*
X046590Y028207D01*
X046696Y028366D02*
X047806Y028366D01*
X047806Y028524D02*
X046696Y028524D01*
X046696Y028683D02*
X047806Y028683D01*
X047806Y028841D02*
X046558Y028841D01*
X046541Y029158D02*
X047806Y029158D01*
X047806Y029000D02*
X042878Y029000D01*
X043037Y029158D02*
X045911Y029158D01*
X045756Y029317D02*
X043195Y029317D01*
X042720Y028841D02*
X045895Y028841D01*
X045756Y028683D02*
X042561Y028683D01*
X042566Y028207D02*
X045862Y028207D01*
X046021Y028049D02*
X042407Y028049D01*
X042249Y027890D02*
X045944Y027890D01*
X045785Y027732D02*
X042090Y027732D01*
X041932Y027573D02*
X045756Y027573D01*
X045756Y027415D02*
X041773Y027415D01*
X041615Y027256D02*
X045813Y027256D01*
X045972Y027098D02*
X041456Y027098D01*
X041298Y026939D02*
X045993Y026939D01*
X045834Y026781D02*
X041139Y026781D01*
X040981Y026622D02*
X041700Y026622D01*
X041541Y026464D02*
X040822Y026464D01*
X040664Y026305D02*
X041001Y026305D01*
X040896Y026147D02*
X040536Y026147D01*
X040536Y025988D02*
X040866Y025988D01*
X040896Y025830D02*
X040536Y025830D01*
X040536Y025671D02*
X041001Y025671D01*
X041050Y025354D02*
X040536Y025354D01*
X040536Y025196D02*
X040916Y025196D01*
X040866Y025037D02*
X040782Y025037D01*
X040536Y025513D02*
X045756Y025513D01*
X045756Y025671D02*
X041611Y025671D01*
X041717Y025830D02*
X045883Y025830D01*
X045923Y026147D02*
X041717Y026147D01*
X041746Y025988D02*
X046556Y025988D01*
X046556Y026147D02*
X046529Y026147D01*
X045764Y026305D02*
X041864Y026305D01*
X041562Y025354D02*
X045756Y025354D01*
X045673Y025196D02*
X041696Y025196D01*
X041803Y024245D02*
X045825Y024245D01*
X047806Y023769D02*
X041766Y023769D01*
X041924Y023611D02*
X047806Y023611D01*
X047806Y023452D02*
X042036Y023452D01*
X042036Y023294D02*
X047806Y023294D01*
X046555Y026939D02*
X046460Y026939D01*
X046696Y029317D02*
X047806Y029317D01*
X047806Y029475D02*
X046696Y029475D01*
X046696Y029634D02*
X047806Y029634D01*
X047806Y029792D02*
X046607Y029792D01*
X046448Y029951D02*
X047806Y029951D01*
X047806Y030109D02*
X024105Y030109D01*
X024105Y029951D02*
X027004Y029951D01*
X026846Y029792D02*
X024104Y029792D01*
X024106Y030268D02*
X047806Y030268D01*
X047806Y030426D02*
X024106Y030426D01*
X024101Y028841D02*
X026895Y028841D01*
X026756Y028683D02*
X024101Y028683D01*
X024100Y028524D02*
X026756Y028524D01*
X026756Y028366D02*
X024100Y028366D01*
X024099Y028207D02*
X026862Y028207D01*
X027021Y028049D02*
X024099Y028049D01*
X024098Y027890D02*
X026944Y027890D01*
X026785Y027732D02*
X024098Y027732D01*
X024097Y027573D02*
X026756Y027573D01*
X026756Y027415D02*
X024097Y027415D01*
X024096Y027256D02*
X026813Y027256D01*
X026972Y027098D02*
X024096Y027098D01*
X024095Y026939D02*
X026993Y026939D01*
X026834Y026781D02*
X024095Y026781D01*
X024094Y026622D02*
X026756Y026622D01*
X026756Y026464D02*
X024094Y026464D01*
X024093Y026305D02*
X026764Y026305D01*
X026923Y026147D02*
X024093Y026147D01*
X024092Y025988D02*
X027506Y025988D01*
X027421Y025978D02*
X027031Y025978D01*
X026756Y025703D01*
X026756Y025313D01*
X027031Y025038D01*
X027421Y025038D01*
X027696Y025313D01*
X027696Y025703D01*
X027421Y025978D01*
X027569Y025830D02*
X027664Y025830D01*
X027696Y025671D02*
X027823Y025671D01*
X027696Y025513D02*
X027981Y025513D01*
X028140Y025354D02*
X027696Y025354D01*
X027578Y025196D02*
X028298Y025196D01*
X028457Y025037D02*
X024089Y025037D01*
X024089Y024879D02*
X026932Y024879D01*
X026774Y024720D02*
X024088Y024720D01*
X024088Y024562D02*
X026756Y024562D01*
X026756Y024403D02*
X024087Y024403D01*
X024087Y024245D02*
X026825Y024245D01*
X026983Y024086D02*
X024086Y024086D01*
X024086Y023928D02*
X026981Y023928D01*
X026822Y023769D02*
X024085Y023769D01*
X024085Y023611D02*
X026756Y023611D01*
X026756Y023452D02*
X024084Y023452D01*
X024084Y023294D02*
X026776Y023294D01*
X026934Y023135D02*
X024083Y023135D01*
X024083Y022977D02*
X027030Y022977D01*
X026871Y022818D02*
X024082Y022818D01*
X024082Y022660D02*
X026756Y022660D01*
X026756Y022501D02*
X024081Y022501D01*
X024081Y022343D02*
X026756Y022343D01*
X026662Y022184D02*
X024080Y022184D01*
X024080Y022026D02*
X026636Y022026D01*
X026636Y021867D02*
X025112Y021867D01*
X025172Y021709D02*
X026586Y021709D01*
X026428Y021550D02*
X025139Y021550D01*
X025347Y021392D02*
X026269Y021392D01*
X026111Y021233D02*
X025412Y021233D01*
X025380Y021075D02*
X025952Y021075D01*
X025794Y020916D02*
X025075Y020916D01*
X024916Y020758D02*
X025736Y020758D01*
X025736Y020599D02*
X024758Y020599D01*
X024599Y020441D02*
X025736Y020441D01*
X025736Y020282D02*
X024561Y020282D01*
X024525Y020124D02*
X025736Y020124D01*
X025736Y019965D02*
X024073Y019965D01*
X024073Y019807D02*
X025736Y019807D01*
X025736Y019648D02*
X024072Y019648D01*
X024072Y019490D02*
X025736Y019490D01*
X025736Y019331D02*
X024072Y019331D01*
X024071Y019173D02*
X025736Y019173D01*
X025736Y019014D02*
X024071Y019014D01*
X024070Y018856D02*
X025736Y018856D01*
X025736Y018697D02*
X024782Y018697D01*
X024812Y018539D02*
X024852Y018539D01*
X025040Y018539D02*
X025736Y018539D01*
X025598Y018380D02*
X025209Y018380D01*
X025232Y018222D02*
X025439Y018222D01*
X024270Y018697D02*
X024070Y018697D01*
X026436Y019173D02*
X026826Y019173D01*
X026984Y019331D02*
X026436Y019331D01*
X026436Y019490D02*
X026980Y019490D01*
X027031Y019438D02*
X027421Y019438D01*
X027696Y019713D01*
X027696Y020103D01*
X027421Y020378D01*
X027031Y020378D01*
X026756Y020103D01*
X026756Y019713D01*
X027031Y019438D01*
X026821Y019648D02*
X026436Y019648D01*
X026436Y019807D02*
X026756Y019807D01*
X026756Y019965D02*
X026436Y019965D01*
X026436Y020124D02*
X026777Y020124D01*
X026935Y020282D02*
X026436Y020282D01*
X026436Y020441D02*
X027029Y020441D01*
X026870Y020599D02*
X026498Y020599D01*
X026656Y020758D02*
X026756Y020758D01*
X027423Y020441D02*
X033056Y020441D01*
X033056Y020599D02*
X032517Y020599D01*
X032555Y020615D02*
X032679Y020739D01*
X032746Y020901D01*
X032746Y021076D01*
X032679Y021237D01*
X032555Y021361D01*
X032394Y021428D01*
X032219Y021428D01*
X032057Y021361D01*
X031933Y021237D01*
X031866Y021076D01*
X031866Y020901D01*
X031933Y020739D01*
X032057Y020615D01*
X032219Y020548D01*
X032394Y020548D01*
X032555Y020615D01*
X032687Y020758D02*
X033056Y020758D01*
X033056Y020916D02*
X032746Y020916D01*
X032746Y021075D02*
X033056Y021075D01*
X033056Y021233D02*
X032681Y021233D01*
X032482Y021392D02*
X033056Y021392D01*
X033056Y021550D02*
X032399Y021550D01*
X032394Y021548D02*
X032555Y021615D01*
X032679Y021739D01*
X032746Y021901D01*
X032746Y022076D01*
X032679Y022237D01*
X032555Y022361D01*
X032394Y022428D01*
X032219Y022428D01*
X032057Y022361D01*
X031933Y022237D01*
X031866Y022076D01*
X031866Y021901D01*
X031933Y021739D01*
X032057Y021615D01*
X032219Y021548D01*
X032394Y021548D01*
X032214Y021550D02*
X028889Y021550D01*
X029047Y021709D02*
X031963Y021709D01*
X031880Y021867D02*
X029076Y021867D01*
X029076Y022026D02*
X031866Y022026D01*
X031911Y022184D02*
X029076Y022184D01*
X029076Y022343D02*
X032038Y022343D01*
X032057Y022615D02*
X032219Y022548D01*
X032394Y022548D01*
X032555Y022615D01*
X032679Y022739D01*
X032746Y022901D01*
X032746Y023076D01*
X032679Y023237D01*
X032555Y023361D01*
X032394Y023428D01*
X032219Y023428D01*
X032057Y023361D01*
X031933Y023237D01*
X031866Y023076D01*
X031866Y022901D01*
X031933Y022739D01*
X032057Y022615D01*
X032012Y022660D02*
X029076Y022660D01*
X029076Y022818D02*
X031900Y022818D01*
X031866Y022977D02*
X029076Y022977D01*
X029076Y023135D02*
X031891Y023135D01*
X031989Y023294D02*
X029076Y023294D01*
X029076Y023452D02*
X033056Y023452D01*
X033056Y023294D02*
X032623Y023294D01*
X032721Y023135D02*
X033056Y023135D01*
X033056Y022977D02*
X032746Y022977D01*
X032712Y022818D02*
X033056Y022818D01*
X033056Y022660D02*
X032600Y022660D01*
X032574Y022343D02*
X033056Y022343D01*
X033056Y022501D02*
X029076Y022501D01*
X028616Y022501D02*
X028474Y022501D01*
X028616Y022660D02*
X028315Y022660D01*
X028157Y022818D02*
X028616Y022818D01*
X028517Y022977D02*
X027998Y022977D01*
X027840Y023135D02*
X028359Y023135D01*
X028200Y023294D02*
X027681Y023294D01*
X027696Y023452D02*
X028042Y023452D01*
X027883Y023611D02*
X027696Y023611D01*
X027725Y023769D02*
X027630Y023769D01*
X027566Y023928D02*
X027471Y023928D01*
X027730Y024245D02*
X028736Y024245D01*
X028736Y024403D02*
X027696Y024403D01*
X027696Y024562D02*
X028736Y024562D01*
X028736Y024720D02*
X027679Y024720D01*
X027520Y024879D02*
X028615Y024879D01*
X028779Y025196D02*
X031916Y025196D01*
X031933Y025237D02*
X031866Y025076D01*
X031866Y024901D01*
X031933Y024739D01*
X032057Y024615D01*
X032219Y024548D01*
X032394Y024548D01*
X032555Y024615D01*
X032679Y024739D01*
X032746Y024901D01*
X032746Y025076D01*
X032679Y025237D01*
X032555Y025361D01*
X032394Y025428D01*
X032219Y025428D01*
X032057Y025361D01*
X031933Y025237D01*
X032050Y025354D02*
X028621Y025354D01*
X028462Y025513D02*
X033056Y025513D01*
X033056Y025671D02*
X032611Y025671D01*
X032555Y025615D02*
X032679Y025739D01*
X032746Y025901D01*
X032746Y026076D01*
X032679Y026237D01*
X032555Y026361D01*
X032394Y026428D01*
X032219Y026428D01*
X032057Y026361D01*
X031933Y026237D01*
X031866Y026076D01*
X031866Y025901D01*
X031933Y025739D01*
X032057Y025615D01*
X032219Y025548D01*
X032394Y025548D01*
X032555Y025615D01*
X032562Y025354D02*
X033056Y025354D01*
X033056Y025196D02*
X032696Y025196D01*
X032746Y025037D02*
X033056Y025037D01*
X033056Y024879D02*
X032737Y024879D01*
X032660Y024720D02*
X033056Y024720D01*
X033056Y024562D02*
X032426Y024562D01*
X032394Y024428D02*
X032219Y024428D01*
X032057Y024361D01*
X031933Y024237D01*
X031866Y024076D01*
X031866Y023901D01*
X031933Y023739D01*
X032057Y023615D01*
X032219Y023548D01*
X032394Y023548D01*
X032555Y023615D01*
X032679Y023739D01*
X032746Y023901D01*
X032746Y024076D01*
X032679Y024237D01*
X032555Y024361D01*
X032394Y024428D01*
X032454Y024403D02*
X033056Y024403D01*
X033056Y024245D02*
X032672Y024245D01*
X032742Y024086D02*
X033056Y024086D01*
X033056Y023928D02*
X032746Y023928D01*
X032692Y023769D02*
X033056Y023769D01*
X033056Y023611D02*
X032545Y023611D01*
X032068Y023611D02*
X029076Y023611D01*
X029076Y023769D02*
X031921Y023769D01*
X031866Y023928D02*
X029076Y023928D01*
X029076Y024086D02*
X031870Y024086D01*
X031940Y024245D02*
X029076Y024245D01*
X029076Y024403D02*
X032158Y024403D01*
X032186Y024562D02*
X029076Y024562D01*
X029076Y024720D02*
X031952Y024720D01*
X031875Y024879D02*
X029076Y024879D01*
X028938Y025037D02*
X031866Y025037D01*
X032001Y025671D02*
X028304Y025671D01*
X028145Y025830D02*
X031896Y025830D01*
X031866Y025988D02*
X027987Y025988D01*
X027828Y026147D02*
X031896Y026147D01*
X032001Y026305D02*
X027688Y026305D01*
X027696Y026464D02*
X032470Y026464D01*
X032611Y026305D02*
X032629Y026305D01*
X032717Y026147D02*
X032787Y026147D01*
X032746Y025988D02*
X032946Y025988D01*
X033056Y025830D02*
X032717Y025830D01*
X032312Y026622D02*
X027696Y026622D01*
X027618Y026781D02*
X032153Y026781D01*
X031995Y026939D02*
X027460Y026939D01*
X027480Y027098D02*
X031836Y027098D01*
X031678Y027256D02*
X027639Y027256D01*
X027667Y027732D02*
X031442Y027732D01*
X031284Y027890D02*
X027509Y027890D01*
X027431Y028049D02*
X031125Y028049D01*
X030967Y028207D02*
X027590Y028207D01*
X027696Y028683D02*
X030671Y028683D01*
X030513Y028841D02*
X027558Y028841D01*
X027607Y029792D02*
X045846Y029792D01*
X046004Y029951D02*
X027448Y029951D01*
X026883Y025830D02*
X024092Y025830D01*
X024091Y025671D02*
X026756Y025671D01*
X026756Y025513D02*
X024091Y025513D01*
X024090Y025354D02*
X026756Y025354D01*
X026874Y025196D02*
X024090Y025196D01*
X027422Y022977D02*
X027517Y022977D01*
X027581Y022818D02*
X027676Y022818D01*
X027696Y022660D02*
X027834Y022660D01*
X027696Y022501D02*
X027993Y022501D01*
X028151Y022343D02*
X027696Y022343D01*
X027567Y022184D02*
X028310Y022184D01*
X028468Y022026D02*
X026984Y022026D01*
X026976Y021867D02*
X028365Y021867D01*
X028730Y021392D02*
X032131Y021392D01*
X031931Y021233D02*
X028572Y021233D01*
X027696Y021075D02*
X031866Y021075D01*
X031866Y020916D02*
X027696Y020916D01*
X027696Y020758D02*
X031925Y020758D01*
X032095Y020599D02*
X027582Y020599D01*
X027517Y020282D02*
X031978Y020282D01*
X031933Y020237D02*
X031866Y020076D01*
X031866Y019901D01*
X031933Y019739D01*
X032057Y019615D01*
X032219Y019548D01*
X032394Y019548D01*
X032555Y019615D01*
X032679Y019739D01*
X032746Y019901D01*
X032746Y020076D01*
X032679Y020237D01*
X032555Y020361D01*
X032394Y020428D01*
X032219Y020428D01*
X032057Y020361D01*
X031933Y020237D01*
X031886Y020124D02*
X027675Y020124D01*
X027696Y019965D02*
X031866Y019965D01*
X031905Y019807D02*
X027696Y019807D01*
X027631Y019648D02*
X032024Y019648D01*
X032027Y019331D02*
X027468Y019331D01*
X027472Y019490D02*
X032567Y019490D01*
X032588Y019648D02*
X032726Y019648D01*
X032707Y019807D02*
X032884Y019807D01*
X032746Y019965D02*
X033043Y019965D01*
X033056Y020124D02*
X032726Y020124D01*
X032634Y020282D02*
X033056Y020282D01*
X033756Y019331D02*
X041027Y019331D01*
X040906Y019173D02*
X033756Y019173D01*
X033756Y019014D02*
X040866Y019014D01*
X040885Y018856D02*
X033756Y018856D01*
X033756Y018697D02*
X040975Y018697D01*
X041103Y018380D02*
X033756Y018380D01*
X033756Y018222D02*
X040927Y018222D01*
X040866Y018063D02*
X033622Y018063D01*
X033463Y017905D02*
X040866Y017905D01*
X040930Y017746D02*
X033305Y017746D01*
X033146Y017588D02*
X041123Y017588D01*
X040966Y017271D02*
X032829Y017271D01*
X032731Y017112D02*
X033824Y017112D01*
X033948Y017112D02*
X040881Y017112D01*
X040866Y016954D02*
X037841Y016954D01*
X038000Y016795D02*
X040910Y016795D01*
X041035Y016637D02*
X038158Y016637D01*
X038317Y016478D02*
X041696Y016478D01*
X041696Y016320D02*
X041597Y016320D01*
X041577Y016637D02*
X041696Y016637D01*
X041015Y016320D02*
X038475Y016320D01*
X038634Y016161D02*
X040902Y016161D01*
X040866Y016003D02*
X038792Y016003D01*
X038951Y015844D02*
X040890Y015844D01*
X040986Y015686D02*
X039109Y015686D01*
X039268Y015527D02*
X041696Y015527D01*
X041696Y015369D02*
X041537Y015369D01*
X041690Y015210D02*
X041696Y015210D01*
X041675Y014735D02*
X041696Y014735D01*
X041696Y014576D02*
X041461Y014576D01*
X041419Y014418D02*
X041696Y014418D01*
X041696Y014259D02*
X041657Y014259D01*
X041193Y014418D02*
X040377Y014418D01*
X040219Y014576D02*
X041151Y014576D01*
X040937Y014735D02*
X040060Y014735D01*
X039902Y014893D02*
X040869Y014893D01*
X040866Y015052D02*
X039743Y015052D01*
X039585Y015210D02*
X040922Y015210D01*
X041075Y015369D02*
X039426Y015369D01*
X039002Y015052D02*
X032746Y015052D01*
X032746Y015076D02*
X032679Y015237D01*
X032555Y015361D01*
X032394Y015428D01*
X032219Y015428D01*
X032057Y015361D01*
X031933Y015237D01*
X031866Y015076D01*
X031866Y014901D01*
X031933Y014739D01*
X032057Y014615D01*
X032219Y014548D01*
X032394Y014548D01*
X032555Y014615D01*
X032679Y014739D01*
X032746Y014901D01*
X032746Y015076D01*
X032690Y015210D02*
X038844Y015210D01*
X038685Y015369D02*
X032537Y015369D01*
X032394Y015548D02*
X032555Y015615D01*
X032679Y015739D01*
X032746Y015901D01*
X032746Y016076D01*
X032679Y016237D01*
X032555Y016361D01*
X032394Y016428D01*
X032219Y016428D01*
X032057Y016361D01*
X031933Y016237D01*
X031866Y016076D01*
X031866Y015901D01*
X031933Y015739D01*
X032057Y015615D01*
X032219Y015548D01*
X032394Y015548D01*
X032626Y015686D02*
X038368Y015686D01*
X038210Y015844D02*
X032723Y015844D01*
X032746Y016003D02*
X038051Y016003D01*
X037893Y016161D02*
X032711Y016161D01*
X032597Y016320D02*
X033127Y016320D01*
X033325Y016320D02*
X037734Y016320D01*
X038527Y015527D02*
X030366Y015527D01*
X030524Y015686D02*
X031986Y015686D01*
X031890Y015844D02*
X030683Y015844D01*
X030841Y016003D02*
X031866Y016003D01*
X031902Y016161D02*
X031000Y016161D01*
X031158Y016320D02*
X032015Y016320D01*
X032035Y016637D02*
X031475Y016637D01*
X031634Y016795D02*
X031910Y016795D01*
X031317Y016478D02*
X032962Y016478D01*
X032940Y016637D02*
X032577Y016637D01*
X032702Y016795D02*
X033029Y016795D01*
X032746Y016954D02*
X033629Y016954D01*
X033600Y016795D02*
X033424Y016795D01*
X032988Y017429D02*
X041696Y017429D01*
X041696Y017271D02*
X041646Y017271D01*
X041696Y017588D02*
X041489Y017588D01*
X041682Y017746D02*
X041696Y017746D01*
X041686Y018222D02*
X041696Y018222D01*
X041696Y018380D02*
X041509Y018380D01*
X041696Y018539D02*
X033756Y018539D01*
X032056Y018539D02*
X030556Y018539D01*
X030715Y018380D02*
X031898Y018380D01*
X031739Y018222D02*
X030873Y018222D01*
X031196Y018063D02*
X031581Y018063D01*
X031422Y017905D02*
X031292Y017905D01*
X031975Y018697D02*
X027680Y018697D01*
X027696Y018856D02*
X031885Y018856D01*
X031866Y019014D02*
X027696Y019014D01*
X027626Y019173D02*
X031906Y019173D01*
X032649Y021709D02*
X033056Y021709D01*
X033056Y021867D02*
X032732Y021867D01*
X032746Y022026D02*
X033056Y022026D01*
X033056Y022184D02*
X032701Y022184D01*
X028736Y023294D02*
X028681Y023294D01*
X028736Y023452D02*
X028523Y023452D01*
X028364Y023611D02*
X028736Y023611D01*
X028736Y023769D02*
X028206Y023769D01*
X028047Y023928D02*
X028736Y023928D01*
X028736Y024086D02*
X027889Y024086D01*
X024661Y021867D02*
X024079Y021867D01*
X024079Y021709D02*
X024600Y021709D01*
X024508Y021550D02*
X024078Y021550D01*
X030207Y015369D02*
X032075Y015369D01*
X031922Y015210D02*
X030049Y015210D01*
X029890Y015052D02*
X031866Y015052D01*
X031869Y014893D02*
X029732Y014893D01*
X029573Y014735D02*
X031937Y014735D01*
X032151Y014576D02*
X029415Y014576D01*
X029256Y014418D02*
X032193Y014418D01*
X032219Y014428D02*
X032057Y014361D01*
X031933Y014237D01*
X031866Y014076D01*
X031866Y013901D01*
X031933Y013739D01*
X032057Y013615D01*
X032219Y013548D01*
X032394Y013548D01*
X032555Y013615D01*
X032679Y013739D01*
X032746Y013901D01*
X032746Y014076D01*
X032679Y014237D01*
X032555Y014361D01*
X032394Y014428D01*
X032219Y014428D01*
X032419Y014418D02*
X039636Y014418D01*
X039478Y014576D02*
X032461Y014576D01*
X032675Y014735D02*
X039319Y014735D01*
X039161Y014893D02*
X032743Y014893D01*
X032657Y014259D02*
X039795Y014259D01*
X039953Y014101D02*
X032736Y014101D01*
X032746Y013942D02*
X040112Y013942D01*
X040270Y013784D02*
X032698Y013784D01*
X032565Y013625D02*
X040429Y013625D01*
X040587Y013467D02*
X028305Y013467D01*
X028464Y013625D02*
X032047Y013625D01*
X031915Y013784D02*
X028622Y013784D01*
X028781Y013942D02*
X031866Y013942D01*
X031876Y014101D02*
X028939Y014101D01*
X029098Y014259D02*
X031955Y014259D01*
X032004Y013308D02*
X028147Y013308D01*
X027978Y012357D02*
X032053Y012357D01*
X031917Y012199D02*
X028136Y012199D01*
X028295Y012040D02*
X031866Y012040D01*
X031874Y011882D02*
X028453Y011882D01*
X028612Y011723D02*
X031949Y011723D01*
X032738Y011882D02*
X032779Y011882D01*
X032746Y012040D02*
X032938Y012040D01*
X032695Y012199D02*
X040917Y012199D01*
X041053Y012357D02*
X032559Y012357D01*
X032614Y012674D02*
X040998Y012674D01*
X040894Y012833D02*
X032718Y012833D01*
X032746Y012991D02*
X040866Y012991D01*
X040897Y013150D02*
X032715Y013150D01*
X032608Y013308D02*
X040746Y013308D01*
X040536Y014259D02*
X040955Y014259D01*
X041626Y015686D02*
X041696Y015686D01*
X041637Y018697D02*
X041696Y018697D01*
X046446Y018063D02*
X046656Y018063D01*
X046656Y017905D02*
X046494Y017905D01*
X046653Y017746D02*
X046656Y017746D01*
X046653Y017271D02*
X046656Y017271D01*
X046656Y017112D02*
X046495Y017112D01*
X046445Y016954D02*
X046656Y016954D01*
X046656Y016795D02*
X046604Y016795D01*
X046604Y018222D02*
X046656Y018222D01*
X045089Y012040D02*
X042036Y012040D01*
X042036Y011882D02*
X044931Y011882D01*
X044772Y011723D02*
X042036Y011723D01*
X042036Y011565D02*
X044614Y011565D01*
X044455Y011406D02*
X042036Y011406D01*
X042036Y011248D02*
X044297Y011248D01*
X044138Y011089D02*
X042036Y011089D01*
X042036Y010931D02*
X043980Y010931D01*
X043821Y010772D02*
X042036Y010772D01*
X042036Y010614D02*
X043663Y010614D01*
X043504Y010455D02*
X042036Y010455D01*
X042036Y010297D02*
X043346Y010297D01*
X043187Y010138D02*
X042036Y010138D01*
X042036Y009980D02*
X043029Y009980D01*
X042870Y009821D02*
X042000Y009821D01*
X041841Y009663D02*
X042712Y009663D01*
X042553Y009504D02*
X041683Y009504D01*
X041571Y009346D02*
X042395Y009346D01*
X042236Y009187D02*
X041700Y009187D01*
X041746Y009029D02*
X042078Y009029D01*
X041919Y008870D02*
X041734Y008870D01*
X041761Y008712D02*
X041652Y008712D01*
X041602Y008553D02*
X041406Y008553D01*
X041207Y008553D02*
X032890Y008553D01*
X033048Y008395D02*
X041138Y008395D01*
X040933Y008236D02*
X033207Y008236D01*
X032986Y007919D02*
X032746Y007919D01*
X032745Y008078D02*
X032828Y008078D01*
X032652Y008712D02*
X040960Y008712D01*
X040879Y008870D02*
X032734Y008870D01*
X032746Y009029D02*
X040866Y009029D01*
X040912Y009187D02*
X032700Y009187D01*
X032571Y009346D02*
X041041Y009346D01*
X047806Y003798D02*
X009289Y003798D01*
X009287Y003640D02*
X047806Y003640D01*
X032088Y007602D02*
X025141Y007602D01*
X025403Y007761D02*
X031924Y007761D01*
X031866Y007919D02*
X025472Y007919D01*
X025442Y008078D02*
X031867Y008078D01*
X031933Y008236D02*
X024961Y008236D01*
X024930Y008078D02*
X024656Y008078D01*
X024498Y007919D02*
X024900Y007919D01*
X024992Y008395D02*
X025911Y008395D01*
X025752Y008553D02*
X024926Y008553D01*
X024487Y008553D02*
X023606Y008553D01*
X023606Y008395D02*
X024420Y008395D01*
X024334Y008236D02*
X023606Y008236D01*
X023606Y008078D02*
X024175Y008078D01*
X024017Y007919D02*
X023556Y007919D01*
X023421Y007761D02*
X023736Y007761D01*
X023267Y006810D02*
X020088Y006810D01*
X018595Y008078D02*
X016180Y008078D01*
X016232Y008236D02*
X018754Y008236D01*
X018912Y008395D02*
X016195Y008395D01*
X016208Y008553D02*
X019071Y008553D01*
X019229Y008712D02*
X016232Y008712D01*
X016149Y008870D02*
X019388Y008870D01*
X019546Y009029D02*
X016172Y009029D01*
X016130Y009187D02*
X019705Y009187D01*
X019863Y009346D02*
X015771Y009346D01*
X015588Y009504D02*
X020022Y009504D01*
X018437Y007919D02*
X016939Y007919D01*
X016753Y007919D02*
X013982Y007919D01*
X013976Y007761D02*
X016583Y007761D01*
X015780Y007602D02*
X013976Y007602D01*
X013976Y007444D02*
X015780Y007444D01*
X015780Y007285D02*
X013932Y007285D01*
X013773Y007127D02*
X015780Y007127D01*
X015780Y006968D02*
X013634Y006968D01*
X013725Y006810D02*
X015780Y006810D01*
X015780Y006651D02*
X013884Y006651D01*
X014016Y006493D02*
X015780Y006493D01*
X015780Y006334D02*
X014016Y006334D01*
X014016Y006176D02*
X015780Y006176D01*
X015780Y006017D02*
X014016Y006017D01*
X014016Y005859D02*
X015656Y005859D01*
X015498Y005700D02*
X014016Y005700D01*
X014016Y005542D02*
X015356Y005542D01*
X015356Y005383D02*
X014016Y005383D01*
X014016Y005225D02*
X015356Y005225D01*
X015356Y005066D02*
X014029Y005066D01*
X014187Y004908D02*
X015356Y004908D01*
X015485Y004749D02*
X014346Y004749D01*
X014504Y004591D02*
X016668Y004591D01*
X016914Y004115D02*
X016995Y004115D01*
X017018Y003957D02*
X016755Y003957D01*
X017658Y003957D02*
X018914Y003957D01*
X018890Y004115D02*
X017682Y004115D01*
X017682Y004274D02*
X018890Y004274D01*
X018890Y004432D02*
X017682Y004432D01*
X014236Y003957D02*
X009290Y003957D01*
X009292Y004115D02*
X014077Y004115D01*
X013919Y004274D02*
X009293Y004274D01*
X009295Y004432D02*
X013760Y004432D01*
X013602Y004591D02*
X009296Y004591D01*
X009298Y004749D02*
X013443Y004749D01*
X013285Y004908D02*
X009299Y004908D01*
X009301Y005066D02*
X012364Y005066D01*
X012300Y005225D02*
X009302Y005225D01*
X009304Y005383D02*
X012333Y005383D01*
X012346Y005848D02*
X012466Y005968D01*
X012586Y005968D01*
X013193Y005968D01*
X013213Y005988D01*
X012565Y007761D02*
X010562Y007761D01*
X009411Y007761D02*
X009386Y007761D01*
X009386Y007919D02*
X012406Y007919D01*
X012248Y008078D02*
X009386Y008078D01*
X009386Y008236D02*
X012089Y008236D01*
X012036Y008395D02*
X009386Y008395D01*
X009386Y008553D02*
X012036Y008553D01*
X011973Y008712D02*
X009386Y008712D01*
X009386Y008870D02*
X011940Y008870D01*
X012002Y009029D02*
X009386Y009029D01*
X009386Y009187D02*
X013998Y009187D01*
X014008Y009346D02*
X009386Y009346D01*
X009386Y009504D02*
X015006Y009504D01*
X015065Y009346D02*
X014781Y009346D01*
X014791Y009187D02*
X015061Y009187D01*
X015061Y009029D02*
X014773Y009029D01*
X014751Y008870D02*
X015061Y008870D01*
X015061Y008712D02*
X014751Y008712D01*
X014751Y008553D02*
X015061Y008553D01*
X015061Y008395D02*
X014751Y008395D01*
X014705Y008236D02*
X015107Y008236D01*
X015712Y008078D02*
X014284Y008078D01*
X013682Y008395D02*
X012468Y008395D01*
X012416Y008553D02*
X013680Y008553D01*
X013725Y008712D02*
X012479Y008712D01*
X012512Y008870D02*
X014038Y008870D01*
X014015Y009029D02*
X012450Y009029D01*
X012627Y008236D02*
X013521Y008236D01*
X013500Y008078D02*
X012785Y008078D01*
X014394Y009346D02*
X014394Y009346D01*
X014940Y009663D02*
X009386Y009663D01*
X009386Y009821D02*
X014972Y009821D01*
X012538Y012844D02*
X012526Y012856D01*
X012526Y012868D01*
X012106Y013288D02*
X012293Y013475D01*
X012293Y013819D01*
X012766Y013812D02*
X012766Y013528D01*
X012946Y013348D01*
X012946Y013288D01*
X012826Y013408D02*
X013186Y013408D01*
X013246Y013468D01*
X013246Y013772D01*
X013293Y013819D01*
X012774Y013819D02*
X012774Y013461D01*
X012826Y013408D01*
X012766Y013812D02*
X012774Y013819D01*
X012106Y013288D02*
X011783Y013611D01*
X011783Y013820D01*
X012598Y016704D02*
X012586Y016716D01*
X012586Y016768D01*
X012166Y017188D02*
X012046Y017188D01*
X011926Y017308D01*
X011866Y017308D01*
X011866Y017657D01*
X011843Y017680D01*
X012353Y017679D02*
X012353Y017375D01*
X012166Y017188D01*
X012834Y017361D02*
X012834Y017679D01*
X012834Y017361D02*
X013006Y017188D01*
X013126Y017188D01*
X013366Y017428D01*
X013366Y017666D01*
X013353Y017679D01*
X012646Y020608D02*
X012658Y020620D01*
X012658Y020624D01*
X012886Y020852D01*
X012886Y021208D01*
X013066Y021028D01*
X012226Y021028D01*
X012413Y021215D01*
X012413Y021599D01*
X012886Y021592D02*
X012886Y021328D01*
X012886Y021208D01*
X012886Y021328D02*
X013066Y021148D01*
X013066Y021028D01*
X013413Y021375D01*
X013413Y021599D01*
X012894Y021599D02*
X012886Y021592D01*
X012226Y021028D02*
X011903Y021351D01*
X011903Y021600D01*
X023606Y008712D02*
X025594Y008712D01*
D35*
X017666Y013754D02*
X017655Y013743D01*
X016211Y013743D01*
X016209Y013743D01*
X015699Y013743D01*
X015219Y013743D01*
X015219Y017503D02*
X015699Y017503D01*
X016209Y017503D01*
X017697Y017503D01*
X017706Y017494D01*
X017755Y021563D02*
X016089Y021563D01*
X015579Y021563D01*
X015099Y021563D01*
X017755Y021563D02*
X017766Y021574D01*
M02*
