G75*
%MOIN*%
%OFA0B0*%
%FSLAX24Y24*%
%IPPOS*%
%LPD*%
%AMOC8*
5,1,8,0,0,1.08239X$1,22.5*
%
%ADD10R,0.0437X0.0122*%
%ADD11R,0.1417X0.5510*%
%ADD12R,0.1856X0.1771*%
%ADD13R,0.0346X0.0342*%
%ADD14R,0.0346X0.0375*%
%ADD15R,0.0395X0.0395*%
%ADD16R,0.0434X0.0395*%
%ADD17R,0.1143X0.0789*%
%ADD18R,0.0480X0.0450*%
%ADD19R,0.0513X0.0257*%
%ADD20OC8,0.0740*%
%ADD21C,0.0680*%
%ADD22C,0.0820*%
%ADD23R,0.1080X0.0580*%
%ADD24R,0.0177X0.0512*%
%ADD25R,0.0487X0.0474*%
%ADD26R,0.0643X0.0261*%
%ADD27R,0.0710X0.0540*%
%ADD28R,0.0540X0.0710*%
%ADD29R,0.0060X0.0720*%
%ADD30R,0.0720X0.0060*%
%ADD31C,0.0680*%
%ADD32R,0.1064X0.0552*%
%ADD33C,0.0980*%
%ADD34C,0.0372*%
D10*
X020290Y014251D03*
X020290Y014447D03*
X020290Y014644D03*
X020290Y014841D03*
X020290Y015038D03*
X020290Y015235D03*
X020290Y015432D03*
X020290Y015629D03*
X020290Y015825D03*
X020290Y016022D03*
X020290Y016219D03*
X020290Y016416D03*
X020290Y016613D03*
X020290Y016810D03*
X020290Y017006D03*
X020290Y017203D03*
X020290Y017400D03*
X020290Y017597D03*
X020290Y017794D03*
X020290Y017991D03*
X020290Y018188D03*
X020290Y018384D03*
X020290Y018581D03*
X020290Y018778D03*
X020290Y018975D03*
X020290Y019172D03*
X020290Y019369D03*
X020290Y019566D03*
X023243Y019566D03*
X023243Y019369D03*
X023243Y019172D03*
X023243Y018975D03*
X023243Y018778D03*
X023243Y018581D03*
X023243Y018384D03*
X023243Y018188D03*
X023243Y017991D03*
X023243Y017794D03*
X023243Y017597D03*
X023243Y017400D03*
X023243Y017203D03*
X023243Y017006D03*
X023243Y016810D03*
X023243Y016613D03*
X023243Y016416D03*
X023243Y016219D03*
X023243Y016022D03*
X023243Y015825D03*
X023243Y015629D03*
X023243Y015432D03*
X023243Y015235D03*
X023243Y015038D03*
X023243Y014841D03*
X023243Y014644D03*
X023243Y014447D03*
X023243Y014251D03*
D11*
X021766Y016909D03*
D12*
X015454Y016292D03*
X012598Y016704D03*
X012538Y012844D03*
X015454Y012532D03*
X015334Y020352D03*
X012658Y020624D03*
D13*
X012894Y021599D03*
X012413Y021599D03*
X011903Y021600D03*
X013413Y021599D03*
X014579Y019377D03*
X015099Y019377D03*
X015579Y019377D03*
X016089Y019376D03*
X013353Y017679D03*
X012834Y017679D03*
X012353Y017679D03*
X011843Y017680D03*
X014699Y015317D03*
X015219Y015317D03*
X015699Y015317D03*
X016209Y015316D03*
X013293Y013819D03*
X012774Y013819D03*
X012293Y013819D03*
X011783Y013820D03*
X014699Y011557D03*
X015219Y011557D03*
X015699Y011557D03*
X016209Y011556D03*
D14*
X016209Y013743D03*
X015699Y013743D03*
X015219Y013743D03*
X014703Y013743D03*
X013349Y015493D03*
X012834Y015493D03*
X012353Y015493D03*
X011843Y015493D03*
X014703Y017503D03*
X015219Y017503D03*
X015699Y017503D03*
X016209Y017503D03*
X013409Y019413D03*
X012894Y019413D03*
X012413Y019413D03*
X011903Y019413D03*
X014583Y021563D03*
X015099Y021563D03*
X015579Y021563D03*
X016089Y021563D03*
X013289Y011633D03*
X012774Y011633D03*
X012293Y011633D03*
X011783Y011633D03*
D15*
X019646Y010663D03*
X019646Y010073D03*
X020706Y010313D03*
X020706Y010903D03*
X021766Y010943D03*
X022646Y010923D03*
X022646Y010333D03*
X021766Y010353D03*
X019786Y022293D03*
X019786Y022883D03*
D16*
X021132Y012342D03*
X021132Y011594D03*
X021959Y011968D03*
X022872Y011594D03*
X023699Y011968D03*
X022872Y012342D03*
D17*
X017666Y012022D03*
X017666Y013754D03*
X017706Y015762D03*
X017706Y017494D03*
X017766Y019842D03*
X017766Y021574D03*
D18*
X018846Y021103D03*
X018846Y020513D03*
X019786Y021033D03*
X019786Y021623D03*
X018766Y017503D03*
X018766Y016913D03*
X018686Y014363D03*
X018686Y013773D03*
D19*
X015418Y009196D03*
X015418Y008940D03*
X015418Y008684D03*
X015418Y008428D03*
X014394Y008428D03*
X014394Y008684D03*
X014394Y008940D03*
X014394Y009196D03*
D20*
X027226Y011908D03*
X027226Y012908D03*
X027226Y013908D03*
X027226Y014908D03*
X027226Y015908D03*
X027226Y016908D03*
X027226Y017908D03*
X027226Y018908D03*
X027226Y019908D03*
X027226Y020908D03*
X027226Y022508D03*
X027226Y023508D03*
X027226Y024508D03*
X027226Y025508D03*
X027226Y026508D03*
X027226Y027508D03*
X027226Y028508D03*
X027226Y029508D03*
X046226Y029508D03*
X046226Y028508D03*
X046226Y027508D03*
X046226Y026508D03*
X046226Y025508D03*
X046226Y024508D03*
X046226Y022508D03*
X046226Y021508D03*
X046226Y020508D03*
X046226Y019508D03*
X046226Y018508D03*
X046226Y017508D03*
X046226Y016508D03*
X046226Y015508D03*
D21*
X041306Y015988D03*
X041306Y016988D03*
X041306Y017988D03*
X041306Y018988D03*
X041306Y019988D03*
X041306Y020988D03*
X041306Y021988D03*
X041306Y022988D03*
X041306Y023988D03*
X041306Y024988D03*
X041306Y025988D03*
X032306Y025988D03*
X032306Y024988D03*
X032306Y023988D03*
X032306Y022988D03*
X032306Y021988D03*
X032306Y020988D03*
X032306Y019988D03*
X032306Y018988D03*
X032306Y017988D03*
X032306Y016988D03*
X032306Y015988D03*
X032306Y014988D03*
X032306Y013988D03*
X032306Y012988D03*
X032306Y011988D03*
X032306Y010988D03*
X032306Y009988D03*
X032306Y008988D03*
X032306Y007988D03*
X032306Y006988D03*
X041306Y006988D03*
X041306Y007988D03*
X041306Y008988D03*
X041306Y009988D03*
X041306Y010988D03*
X041306Y011988D03*
X041306Y012988D03*
X041306Y013988D03*
X041306Y014988D03*
D22*
X023186Y025078D03*
X023186Y026858D03*
X020626Y026858D03*
X020626Y025078D03*
D23*
X010386Y019368D03*
X009966Y015948D03*
X009966Y013728D03*
X009986Y007388D03*
X010026Y026808D03*
D24*
X017794Y005367D03*
X017991Y005367D03*
X018188Y005367D03*
X018385Y005367D03*
X018581Y005367D03*
X018778Y005367D03*
X021694Y005367D03*
X021891Y005367D03*
X022088Y005367D03*
X022285Y005367D03*
X022481Y005367D03*
X022678Y005367D03*
X024214Y005367D03*
X024411Y005367D03*
X024608Y005367D03*
X024805Y005367D03*
X025001Y005367D03*
X025198Y005367D03*
X026734Y005367D03*
X026931Y005367D03*
X027128Y005367D03*
X027325Y005367D03*
X027521Y005367D03*
X027718Y005367D03*
D25*
X028174Y004235D03*
X026278Y004235D03*
X025654Y004235D03*
X023758Y004235D03*
X023134Y004235D03*
X021238Y004235D03*
X019234Y004235D03*
X017338Y004235D03*
D26*
X016201Y005220D03*
X016201Y005476D03*
X016201Y005732D03*
X016201Y005988D03*
X016201Y006244D03*
X016201Y006499D03*
X016201Y006755D03*
X016201Y007011D03*
X016201Y007267D03*
X016201Y007523D03*
X013213Y007523D03*
X013213Y007267D03*
X013213Y007011D03*
X013213Y006755D03*
X013213Y006499D03*
X013213Y006244D03*
X013213Y005988D03*
X013213Y005732D03*
X013213Y005476D03*
X013213Y005220D03*
D27*
X020206Y005268D03*
X020206Y005868D03*
X020206Y004668D03*
X024106Y020448D03*
X024106Y021048D03*
D28*
X016046Y018568D03*
X015446Y018568D03*
X019006Y013048D03*
X019606Y013048D03*
X024106Y007408D03*
X024706Y007408D03*
X024726Y006208D03*
X024126Y006208D03*
X017486Y028108D03*
X016886Y028108D03*
X016286Y028108D03*
X016486Y029488D03*
X015886Y029488D03*
X017086Y029488D03*
D29*
X015746Y018568D03*
X019306Y013048D03*
X024406Y007408D03*
X024426Y006208D03*
D30*
X024106Y020748D03*
D31*
X020626Y028508D02*
X020026Y028508D01*
X019226Y028528D02*
X018626Y028528D01*
X018626Y029528D02*
X019226Y029528D01*
X020026Y029508D02*
X020626Y029508D01*
X008666Y028128D02*
X008066Y028128D01*
X008066Y027128D02*
X008666Y027128D01*
X020166Y008728D02*
X020166Y008128D01*
X021166Y008128D02*
X021166Y008728D01*
X022166Y008728D02*
X022166Y008128D01*
X023166Y008128D02*
X023166Y008728D01*
D32*
X022969Y020944D03*
X022969Y021928D03*
X022969Y022912D03*
X020803Y022912D03*
X020803Y021928D03*
X020803Y020944D03*
D33*
X009846Y002168D03*
X019686Y002168D03*
X019686Y012008D03*
X009846Y012008D03*
D34*
X012106Y012448D03*
X012526Y012868D03*
X012106Y013288D03*
X012946Y013288D03*
X012946Y012448D03*
X013666Y011668D03*
X015226Y009688D03*
X015886Y009028D03*
X015946Y008668D03*
X015946Y008248D03*
X016846Y007648D03*
X014686Y007888D03*
X013786Y008128D03*
X013966Y008548D03*
X013846Y009148D03*
X012226Y008848D03*
X012106Y006448D03*
X012346Y005848D03*
X012586Y005248D03*
X013186Y004108D03*
X014926Y004588D03*
X017506Y005368D03*
X021406Y005188D03*
X022666Y005848D03*
X022246Y006448D03*
X023926Y005368D03*
X024406Y004888D03*
X024826Y004888D03*
X026446Y005368D03*
X025426Y006628D03*
X025426Y007048D03*
X025186Y007948D03*
X024706Y008368D03*
X025426Y009148D03*
X025426Y009568D03*
X023146Y010348D03*
X022186Y010348D03*
X022186Y010888D03*
X021166Y010948D03*
X021106Y010288D03*
X020086Y010468D03*
X020086Y011128D03*
X020746Y012808D03*
X022546Y012748D03*
X022606Y013828D03*
X023206Y013888D03*
X023806Y014428D03*
X023806Y014848D03*
X024046Y015208D03*
X023686Y015388D03*
X022786Y015388D03*
X022786Y014968D03*
X022786Y015808D03*
X022786Y016168D03*
X022726Y016648D03*
X022726Y017008D03*
X023686Y016588D03*
X023686Y016228D03*
X024406Y017068D03*
X025906Y015748D03*
X026146Y015328D03*
X025786Y014308D03*
X025666Y013408D03*
X026686Y012328D03*
X026146Y012028D03*
X023386Y011608D03*
X020746Y014188D03*
X020806Y014668D03*
X020806Y015208D03*
X020806Y015748D03*
X020806Y016108D03*
X020806Y016468D03*
X020806Y016828D03*
X020806Y017188D03*
X020806Y017548D03*
X020806Y017908D03*
X020746Y018388D03*
X020806Y018748D03*
X019846Y019228D03*
X018946Y019708D03*
X017746Y018928D03*
X017686Y018568D03*
X017806Y018208D03*
X017206Y018808D03*
X016546Y019348D03*
X013786Y019408D03*
X013066Y020188D03*
X012646Y020608D03*
X012226Y020188D03*
X012226Y021028D03*
X013066Y021028D03*
X014626Y022048D03*
X013126Y022948D03*
X016066Y023428D03*
X016546Y024988D03*
X015946Y025288D03*
X014746Y025288D03*
X013486Y025948D03*
X012466Y025348D03*
X010786Y025588D03*
X014926Y026848D03*
X016467Y027167D03*
X014806Y029608D03*
X017806Y024628D03*
X018586Y023488D03*
X022546Y021448D03*
X022966Y022408D03*
X024886Y021688D03*
X025126Y021208D03*
X023326Y020128D03*
X022786Y019348D03*
X022786Y018928D03*
X022786Y018568D03*
X024526Y018568D03*
X024946Y018268D03*
X026566Y018868D03*
X030706Y016948D03*
X031006Y017848D03*
X033226Y016588D03*
X033886Y016828D03*
X040606Y024808D03*
X026026Y024628D03*
X019426Y017908D03*
X019306Y017428D03*
X019366Y016888D03*
X018526Y016228D03*
X018826Y015808D03*
X019846Y015388D03*
X019846Y014668D03*
X016906Y014548D03*
X016606Y016288D03*
X014986Y014188D03*
X013726Y015508D03*
X013006Y016348D03*
X012586Y016768D03*
X012166Y016348D03*
X012166Y017188D03*
X013006Y017188D03*
X016906Y012688D03*
X017446Y010888D03*
X016606Y010108D03*
X028126Y005788D03*
M02*
